<svg id="handwriting_about" xmlns="http://www.w3.org/2000/svg" viewBox="0 0 293.67 904.8">

    <g id="text_about" class="handwriting_text_about">
    <g id="text-path_about" class="handwriting_text_path_about">
      <path class="cls-1" d="M36.21,221.46c-1.08-1.16-1.98-2.76-2.7-4.8-.72-2.04-1.08-3.98-1.08-5.82l.24-4.68c0-1.44-.32-2.68-.96-3.72.08.08-.92-1.36-3-4.32-.64-.88-1.32-1.32-2.04-1.32-.8,0-1.52.6-2.16,1.8l-2.04,4.44c-1.84,4.08-3.2,6.82-4.08,8.22-.88,1.4-1.88,2.1-3,2.1-1.44,0-2.52-.7-3.24-2.1-.72-1.4-1.08-3.06-1.08-4.98,0-2.08.36-3.76,1.08-5.04.48-.96,1.64-2.4,3.48-4.32,2.08-2.32,3.64-4.12,4.68-5.4.56-.64.84-1.36.84-2.16s-.28-1.52-.84-2.16c-2.08-2.88-3.72-5.44-4.92-7.68-1.2-2.24-1.84-4.32-1.92-6.24-.16-3.84.36-7,1.56-9.48,1.2-2.48,3.04-4.52,5.52-6.12,2.48-1.6,5.88-3.2,10.2-4.8,2.32-.8,3.52-2.36,3.6-4.68,0-.64.08-1.76.24-3.36.24-4-.26-7.12-1.5-9.36-1.24-2.24-2.52-3.94-3.84-5.1-1.32-1.16-2.18-1.94-2.58-2.34-.48-.48-.72-.96-.72-1.44,0-.8.64-1.2,1.92-1.2,1.6,0,3.7.6,6.3,1.8,2.6,1.2,4.82,2.78,6.66,4.74,1.84,1.96,2.6,4.06,2.28,6.3-.16,1.04-.32,2.68-.48,4.92l-.6,5.04-.12.96c0,1.6.8,2.88,2.4,3.84.72.48,1.44,1.16,2.16,2.04.48.56.72,1.12.72,1.68s-.22,1.06-.66,1.5c-.44.44-1.26,1.1-2.46,1.98l-1.2,1.2c-.64.88-.96,1.52-.96,1.92s.2.6.6.6c.56,0,1.36-.4,2.4-1.2,8.24-6.8,17.08-10.2,26.52-10.2,4.8,0,9.28.9,13.44,2.7,4.16,1.8,7.6,4.3,10.32,7.5,2.48,2.88,4.34,6.06,5.58,9.54,1.24,3.48,1.86,7.1,1.86,10.86s-.72,7.76-2.16,11.52c-1.84,4.88-5.1,9.16-9.78,12.84-4.68,3.68-9.78,6.5-15.3,8.46-5.52,1.96-10.44,2.98-14.76,3.06h-.24c-.88,0-1.58-.16-2.1-.48-.52-.32-.78-.68-.78-1.08,0-.48.26-.88.78-1.2.52-.32,1.22-.48,2.1-.48,6.24-.16,12.18-2.02,17.82-5.58,5.64-3.56,9.66-7.94,12.06-13.14,2.32-4.72,3.48-9.56,3.48-14.52s-1.04-9.06-3.12-13.02c-2.08-3.96-4.94-7.1-8.58-9.42-3.64-2.32-7.78-3.48-12.42-3.48-5.52,0-10.44,1.3-14.76,3.9-4.32,2.6-8.56,6.26-12.72,10.98-.72.8-1.22,1.6-1.5,2.4-.28.8-.42,1.76-.42,2.88v15.24c0,8.08.24,14.04.72,17.88.32,2.16.48,4.2.48,6.12,0,3.6-.68,5.76-2.04,6.48-1.04.48-2.1.14-3.18-1.02ZM23.43,184.92c.8,0,1.52-.52,2.16-1.56,2.8-4.96,5.24-10.88,7.32-17.76.64-2.08.96-3.68.96-4.8,0-.4-.16-.72-.48-.96-.32-.24-.72-.36-1.2-.36-.4,0-1.08.16-2.04.48-3.76,1.28-6.78,3.08-9.06,5.4-2.28,2.32-3.42,5.04-3.42,8.16s1.2,6.52,3.6,9.96c.64.96,1.36,1.44,2.16,1.44ZM32.73,185.52c-.2-.32-.42-.48-.66-.48-.4,0-.8.32-1.2.96l-1.92,3.36c-.24.32-.36.68-.36,1.08s.28.88.84,1.44c.8.56,1.24.88,1.32.96.48.48.92.72,1.32.72.56,0,.84-.36.84-1.08.08-.56.12-1.44.12-2.64v-3.12c0-.48-.1-.88-.3-1.2Z"/>
      <path class="cls-1" d="M13.35,269.16c0-.4.1-.72.3-.96.2-.24.46-.36.78-.36s.64.12.96.36c.32.16.92.56,1.8,1.2.88.64,1.92,1.22,3.12,1.74,1.2.52,2.52.86,3.96,1.02,1.6.16,2.84.24,3.72.24,2.32,0,4.64-.24,6.96-.72,2.24-.32,3.56-1.76,3.96-4.32.56-5.92.84-10.84.84-14.76,0-.96-.28-1.66-.84-2.1-.56-.44-1.14-.74-1.74-.9-.6-.16-.98-.28-1.14-.36-.72-.32-1.08-.68-1.08-1.08,0-.32.2-.6.6-.84.4-.24.84-.36,1.32-.36,2.4,0,4.72.42,6.96,1.26,2.24.84,3.48,2.1,3.72,3.78.16.96.44,1.76.84,2.4,3.68,4.48,8,6.76,12.96,6.84.8.08,1.5.46,2.1,1.14.6.68.9,1.46.9,2.34s-.28,1.72-.84,2.52c-.56.8-1.4,1.44-2.52,1.92-4.4,1.92-8.96,3.6-13.68,5.04-2.24.56-3.6,2-4.08,4.32-5.12,24.64-12.4,44.6-21.84,59.88-1.04,1.68-2.28,2.52-3.72,2.52-1.12,0-2.08-.46-2.88-1.38-.8-.92-1.2-2.06-1.2-3.42,0-1.6.6-3.16,1.8-4.68,4.8-6.4,9.04-13.98,12.72-22.74,3.68-8.76,6.52-17.98,8.52-27.66.08-.32.12-.72.12-1.2,0-1.04-.34-1.84-1.02-2.4-.68-.56-1.58-.84-2.7-.84-5.28,0-9.44-.52-12.48-1.56-1.6-.56-3.1-1.38-4.5-2.46-1.4-1.08-2.26-2.06-2.58-2.94-.08-.08-.12-.24-.12-.48ZM46.11,262.08c-.08.32-.12.8-.12,1.44,0,.96.2,1.72.6,2.28.4.56.92.84,1.56.84.56,0,1.04-.16,1.44-.48l.6-.36c1.44-.88,2.16-1.92,2.16-3.12,0-.88-.36-1.72-1.08-2.52l-2.16-2.52c-.48-.48-.92-.72-1.32-.72-.56,0-.92.44-1.08,1.32l-.6,3.84ZM51.87,322.92c0-2.08.4-4.06,1.2-5.94.8-1.88,1.84-3.42,3.12-4.62.64-.48,1.16-.72,1.56-.72.64,0,.96.32.96.96,0,.48-.32,1.12-.96,1.92-1.52,1.76-2.28,3.8-2.28,6.12,0,3.2,1.52,5.98,4.56,8.34,3.04,2.36,7.32,3.54,12.84,3.54,4,0,8.64-.76,13.92-2.28.96-.32,2.04-.48,3.24-.48,2.08,0,3.84.54,5.28,1.62,1.44,1.08,2.16,2.26,2.16,3.54,0,.72-.28,1.38-.84,1.98-.56.6-1.4,1.06-2.52,1.38-5.28,1.36-10.32,2.04-15.12,2.04-5.52,0-10.44-.8-14.76-2.4-4.32-1.6-7.52-3.76-9.6-6.48-1.84-2.56-2.76-5.4-2.76-8.52ZM78.27,274.08c4.56,0,8.38.82,11.46,2.46,3.08,1.64,5.34,3.58,6.78,5.82,1.2,1.92,1.8,3.8,1.8,5.64,0,1.52-.4,2.76-1.2,3.72-.8.96-1.88,1.44-3.24,1.44-.56,0-.96-.04-1.2-.12-.32-.08-.92-.12-1.8-.12-1.92,0-4.12.36-6.6,1.08-2.48.72-4.64,1.52-6.48,2.4-.48.24-.92.36-1.32.36-.48,0-.72-.2-.72-.6,0-.56.44-1.12,1.32-1.68,1.36-.96,2.6-1.72,3.72-2.28,1.6-.96,2.88-1.78,3.84-2.46.96-.68,1.56-1.3,1.8-1.86.08-.24.12-.64.12-1.2,0-1.28-.52-2.58-1.56-3.9-1.04-1.32-2.58-2.42-4.62-3.3-2.04-.88-4.38-1.32-7.02-1.32-1.44,0-2.92.12-4.44.36h-.6c-.56,0-1.02-.14-1.38-.42-.36-.28-.54-.62-.54-1.02,0-.32.16-.66.48-1.02.32-.36.76-.58,1.32-.66,3.44-.88,6.8-1.32,10.08-1.32Z"/>
      <path class="cls-1" d="M24.03,428.79c0-4.16.2-8.4.6-12.72.4-4.32.96-9.44,1.68-15.36,1.04-8.64,1.56-14.56,1.56-17.76,0-1.84-.12-3.4-.36-4.68-.56-2.8-2.56-5.08-6-6.84-.8-.32-1.2-.88-1.2-1.68,0-.4.2-.72.6-.96.4-.24,1-.32,1.8-.24,2.64.32,5.3,1.1,7.98,2.34,2.68,1.24,4.9,2.76,6.66,4.56,1.76,1.8,2.64,3.66,2.64,5.58,0,.64-.12,1.32-.36,2.04-1.52,4.08-3.12,10.66-4.8,19.74-1.68,9.08-2.52,17.62-2.52,25.62,0,11.44,1.96,19.32,5.88,23.64,5.36,5.92,11.56,8.88,18.6,8.88,4.64,0,9.32-1.3,14.04-3.9,4.72-2.6,9.12-6.3,13.2-11.1,4.08-4.8,7.52-10.4,10.32-16.8.32-.88.92-1.32,1.8-1.32.48,0,.86.2,1.14.6.28.4.42.96.42,1.68s-.16,1.52-.48,2.4c-2.4,6.64-5.92,12.54-10.56,17.7-4.64,5.16-9.84,9.18-15.6,12.06-5.76,2.88-11.52,4.32-17.28,4.32-4.4,0-8.54-.9-12.42-2.7-3.88-1.8-7.34-4.5-10.38-8.1-4.64-5.6-6.96-14.6-6.96-27Z"/>
      <path class="cls-1" d="M57.39,580.2c-.8-.32-1.2-.76-1.2-1.32s.38-1.02,1.14-1.38c.76-.36,1.82-.54,3.18-.54,4.56-.08,8.96-1.56,13.2-4.44,4.24-2.88,7.76-6.7,10.56-11.46,2.8-4.76,4.48-9.9,5.04-15.42.16-1.6.24-2.8.24-3.6,0-5.04-1-9.94-3-14.7-2-4.76-5.06-8.9-9.18-12.42-4.12-3.52-9.14-5.88-15.06-7.08-.96-.16-1.68-.06-2.16.3-.48.36-.72.94-.72,1.74,0,.48.12,1.04.36,1.68,1.44,3.36,2.16,6.28,2.16,8.76,0,1.84-.32,3.4-.96,4.68l-6,13.8c-4.88,11.28-8.78,19.82-11.7,25.62-2.92,5.8-5.86,9.7-8.82,11.7-1.6,1.12-3.08,1.68-4.44,1.68-1.52,0-2.88-.54-4.08-1.62-1.2-1.08-2.76-2.82-4.68-5.22-.4-.56-1.08-1.4-2.04-2.52-2.64-2.96-4.72-6.52-6.24-10.68-1.52-4.16-2.28-8.44-2.28-12.84,0-2.96.36-5.8,1.08-8.52,1.84-7.2,5.18-13.26,10.02-18.18,4.84-4.92,9.74-8.5,14.7-10.74,5.92-2.64,12.28-3.96,19.08-3.96,4.08,0,8.08.52,12,1.56,3.92,1.04,7.48,2.52,10.68,4.44,6.24,3.6,11.12,8.22,14.64,13.86,3.52,5.64,5.28,11.78,5.28,18.42,0,1.76-.12,3.48-.36,5.16-1.36,9.76-5.24,17.5-11.64,23.22-6.4,5.72-14.88,9.14-25.44,10.26-1.44.16-2.56.08-3.36-.24ZM42.45,554.76c3.48-6,6.38-12.74,8.7-20.22,2.32-7.48,3.48-14.26,3.48-20.34,0-.96-.08-2.4-.24-4.32-.16-.88-.52-1.54-1.08-1.98-.56-.44-1.32-.62-2.28-.54-5.28.8-10.2,2.64-14.76,5.52-4.56,2.88-8.4,6.4-11.52,10.56-3.12,4.16-5.28,8.52-6.48,13.08-.56,2-.84,4.16-.84,6.48,0,4,.8,7.84,2.4,11.52,1.6,3.68,3.52,6.68,5.76,9,2.24,2.32,4.16,3.48,5.76,3.48.48,0,.88-.12,1.2-.36,3.12-1.92,6.42-5.88,9.9-11.88Z"/>
      <path class="cls-1" d="M40.23,704.4c-5.6-1.84-9.96-4.6-13.08-8.28-1.44-1.68-2.56-3.72-3.36-6.12-.8-2.4-1.2-4.88-1.2-7.44,0-4.56,1.2-8.64,3.6-12.24,1.2-1.68,2.36-2.52,3.48-2.52.32,0,.6.1.84.3.24.2.36.46.36.78,0,.48-.24,1.08-.72,1.8-2,2.96-3,6.12-3,9.48,0,2,.34,3.9,1.02,5.7.68,1.8,1.66,3.34,2.94,4.62,2.56,2.56,6.04,4.58,10.44,6.06,4.4,1.48,9.28,2.22,14.64,2.22,8.88,0,17.28-1.96,25.2-5.88,1.36-.72,2.92-1.08,4.68-1.08,2,0,3.68.52,5.04,1.56,1.36,1.04,2.04,2.28,2.04,3.72,0,1.68-1,3.04-3,4.08-3.36,1.84-7.88,3.3-13.56,4.38-5.68,1.08-11.8,1.62-18.36,1.62s-12.4-.92-18-2.76ZM42.99,649.44c-.4,0-.72-.12-.96-.36-.24-.24-.36-.52-.36-.84,0-.72.56-1.52,1.68-2.4.56-.48,3.16-2.12,7.8-4.92,2.08-1.28,4.12-2.56,6.12-3.84,1.36-.96,2.04-1.92,2.04-2.88,0-1.2-.96-2.04-2.88-2.52-4.4-1.36-8.34-2.68-11.82-3.96-3.48-1.28-6.54-2.72-9.18-4.32-.48-.32-.88-.76-1.2-1.32-.32-.56-.48-1.08-.48-1.56,0-.88.44-1.32,1.32-1.32.56,0,1,.08,1.32.24,5.92,2,11.04,3.32,15.36,3.96,4.32.64,8.72,1.04,13.2,1.2,3.36.16,5.98.4,7.86.72,1.88.32,3.66,1.04,5.34,2.16,1.12.72,1.94,1.58,2.46,2.58.52,1,.78,2.06.78,3.18,0,1.68-.52,3.1-1.56,4.26-1.04,1.16-2.28,1.58-3.72,1.26-1.36-.32-2.96-.48-4.8-.48-4,0-8.2.94-12.6,2.82-4.4,1.88-9.16,4.5-14.28,7.86-.4.32-.88.48-1.44.48Z"/>
      <path class="cls-1" d="M35.97,822.6c-6.76-3.6-9.86-10.08-9.3-19.44.4-8.56,6.52-15.64,18.36-21.24,1.52-.72,2.28-1.68,2.28-2.88,0-.72-.24-1.56-.72-2.52-1.92-3.44-2.88-7.96-2.88-13.56,0-3.76.2-7.64.6-11.64.08-1.12.16-2.38.24-3.78.08-1.4.12-2.9.12-4.5,0-2.56-.24-4.64-.72-6.24-.48-1.6-1.36-2.8-2.64-3.6-1.04-.72-1.56-1.44-1.56-2.16,0-.4.14-.72.42-.96.28-.24.7-.36,1.26-.36s1.2.12,1.92.36c3.36,1.04,5.8,2.24,7.32,3.6,2.4,2.16,3.6,4.48,3.6,6.96,0,1.2-.36,3.16-1.08,5.88-1.04,4.32-1.64,7.96-1.8,10.92l-.12,8.04c0,4.24.28,7.4.84,9.48.48,1.84,1.64,2.76,3.48,2.76.32,0,.88-.08,1.68-.24,8.08-2.56,13.36-3.6,15.84-3.12,1.6.32,2.82.96,3.66,1.92.84.96,1.26,2,1.26,3.12,0,1.36-.6,2.52-1.8,3.48-1.2.96-2.88,1.4-5.04,1.32-.72-.08-1.92-.12-3.6-.12-5.68,0-11.38.68-17.1,2.04-5.72,1.36-10.5,3.58-14.34,6.66-3.84,3.08-5.76,7.06-5.76,11.94,0,5.2,2.16,9.12,6.48,11.76,4.32,2.64,9.76,3.96,16.32,3.96,3.36,0,6.76-.36,10.2-1.08,3.44-.72,6.68-1.72,9.72-3,1.2-.56,2.48-.84,3.84-.84,1.84,0,3.34.58,4.5,1.74,1.16,1.16,1.74,2.46,1.74,3.9,0,1.12-.4,2.14-1.2,3.06-.8.92-1.96,1.54-3.48,1.86-5.92,1.28-12.36,1.92-19.32,1.92-8.72,0-16.46-1.8-23.22-5.4Z"/>
      <path class="cls-1" d="M28.7,126.51c-9.85-3.41-16.79-13.1-18.04-23.3-1.46-11.91,5.66-21.9,15.01-28.52,5.25-3.72,11.07-6.6,17-9.05,6.73-2.78,13.7-4.98,20.8-6.59,14.45-3.27,29.2-3.77,43.91-2.24,7.78.81,15.49,2.08,23.2,3.38s14.91,2.6,22.54,2.58,14.57-.93,21.81-1.91c3.65-.5,7.3-.97,10.95-1.47.97-.13,1.91-.34,2.85-.59,6.32-1.7,12.4-4.47,18.35-7.13,8.58-3.84,17.03-7.98,25.4-12.25,17.34-8.85,34.59-18.14,50.98-28.67,1.5-.96,2.99-1.94,4.47-2.94,1.59-1.08.09-3.68-1.51-2.59-15.8,10.69-32.75,19.82-49.65,28.62-8.93,4.65-17.95,9.16-27.09,13.38-6.48,2.99-13.04,5.99-19.86,8.14-1.07.34-2.15.65-3.25.89-2.01.43-4.22.6-6.71.94-7.53,1.03-15.05,2.16-22.65,2.5-3.77.17-7.55.13-11.32-.19-3.98-.33-7.9-1.07-11.83-1.73-7.71-1.3-15.42-2.61-23.18-3.54-15.12-1.82-30.26-1.7-45.22,1.32-7.3,1.47-14.48,3.57-21.42,6.28-6.15,2.4-12.22,5.17-17.78,8.75-9.81,6.31-18.38,15.79-18.96,27.98-.5,10.59,4.83,21.28,13.48,27.37,2.13,1.5,4.47,2.66,6.93,3.51,1.83.63,2.61-2.26.8-2.89h0Z"/>
      <path class="cls-1" d="M16.14,268.18c-3.69-6.03-7.65-12.41-8.31-19.62-.56-6.06,1.47-12.55,7.07-15.63,6.59-3.63,13.44,1.5,19.94,2.73,3,.57,6.05.45,8.82-.95,2.48-1.25,4.36-3.51,4.78-6.29s-1.54-8.18,1.86-9.53c1.59-.63,3.43-.25,5.05-.01,1.93.29,3.82.47,5.71-.12s1.05-3.48-.8-2.89c-3.28,1.03-6.71-.82-10.08-.06s-4.87,3.76-4.87,7.01.98,6.37-1.98,8.59c-2.76,2.06-6.32,1.81-9.47.95-3.77-1.03-7.29-2.84-11.17-3.47-3.23-.52-6.43-.13-9.32,1.46-5.76,3.17-8.65,9.62-8.66,16-.02,8.62,4.47,16.23,8.82,23.36,1,1.65,3.6.14,2.59-1.51h0Z"/>
      <path class="cls-1" d="M95.65,338.6c2.92.38,4.94,3.25,5.39,5.98.53,3.16-1.15,6.22-3.37,8.34-5.7,5.44-14.94,5.31-22.3,5.56-8.73.3-17.49-.1-26.16-1.18-4.29-.54-8.53-1.34-12.78-2.11-3.83-.7-7.91-1.18-11.66.2-3.28,1.21-6.28,3.73-6.89,7.34-.53,3.2.72,6.77,3.75,8.26,1.73.84,3.25-1.74,1.51-2.59-2.42-1.18-3.04-4.43-1.79-6.7,1.71-3.12,5.58-4.2,8.89-4.19,4.37,0,8.73,1.28,13.03,1.96s8.76,1.23,13.17,1.58c8.68.7,17.43.73,26.1.04,7.32-.59,15.33-2.26,19.59-8.89,1.97-3.07,2.59-6.9,1.22-10.33s-4.1-5.78-7.72-6.25c-1.91-.25-1.89,2.76,0,3h0Z"/>
      <path class="cls-1" d="M36.35,619.72c-4.33-4.31-5.84-10.96-4.06-16.77,2.12-6.92,8.99-10.85,14.61-14.68,3.98-2.71,7.97-5.43,11.95-8.14,1.59-1.08.09-3.68-1.51-2.59-3.85,2.62-7.7,5.24-11.54,7.87-3.4,2.32-6.92,4.54-10,7.28-2.8,2.5-5.11,5.53-6.29,9.13-1.05,3.22-1.18,6.69-.56,10.01.71,3.78,2.56,7.3,5.28,10.02,1.37,1.36,3.49-.76,2.12-2.12h0Z"/>
      <path class="cls-1" d="M89.94,700.58c6.03-.82,11,3.28,12.68,8.92,1.78,6-.35,12.22-6,15.16-2.92,1.52-6.29,2.16-9.54,2.51-3.8.41-7.64.39-11.44-.03s-7.28-1.25-10.76-2.44-6.98-2.93-10.69-3.64-7.18-.39-10.24,1.68c-2.63,1.79-4.57,4.65-4.23,7.94.2,1.9,3.2,1.92,3,0-.31-2.98,1.91-5.27,4.54-6.33,3.48-1.4,7.29-.31,10.65.91,3.73,1.35,7.35,2.88,11.23,3.78s7.81,1.38,11.75,1.42c6.85.08,14.92-.71,20.36-5.32,4.97-4.21,6.11-11.54,3.9-17.47-1.2-3.22-3.29-6.15-6.19-8.04s-6.4-2.39-9.83-1.93c-.81.11-1.23,1.14-1.05,1.85.23.87,1.05,1.16,1.85,1.05h0Z"/>
      <path class="cls-1" d="M78.98,826.07c15.62-4.21,32.7-1.2,46.35,7.34,7.09,4.44,13.05,10.34,17.59,17.36,5.17,7.98,8.91,16.83,14.78,24.36,10.61,13.59,27.72,21.4,44.51,23.86,4.99.73,10.08.78,15.11.81,7.08.04,14.16-.15,21.24-.4,14.76-.53,29.52-1.4,44.26-2.41,1.45-.1,2.9-.2,4.35-.3,1.91-.13,1.93-3.14,0-3-14.33,1.01-28.67,1.89-43.03,2.49-7.42.31-14.85.56-22.27.61-5.57.04-11.18.05-16.74-.46-7.07-.65-14.73-2.81-21.48-5.65-8.03-3.38-15.51-8.26-21.37-14.75-6.42-7.1-10.28-15.98-15.17-24.11-4.43-7.36-9.97-13.74-16.95-18.78-13.16-9.49-30.07-13.67-46.11-11.13-1.98.31-3.93.74-5.87,1.26s-1.07,3.4.8,2.89h0Z"/>
      <path class="cls-1" d="M97.55,429.19c-.97-5.04,1.26-10.62,5.61-13.42s10.43-2.77,14.79.28,6.53,8.04,7.98,12.82c1.85,6.11,2.81,12.56,2.65,18.94-.28,11.19-4.61,22.63-13.65,29.64-9.02,6.99-20.98,7.5-31.84,8.93-6.25.82-12.57,1.89-18.35,4.51s-10.65,7.83-9.19,14.44c.41,1.88,3.31,1.09,2.89-.8-1.43-6.5,5.58-10.42,10.66-12.16,5.69-1.95,11.69-2.74,17.63-3.45,11.5-1.39,23.5-2.86,32.36-11.09,8.99-8.35,12.81-20.8,12.49-32.83-.17-6.47-1.3-13.14-3.53-19.24-1.85-5.07-4.74-10.06-9.5-12.89-5.32-3.17-12.49-2.9-17.53.73s-7.55,10.22-6.37,16.38c.36,1.89,3.26,1.09,2.89-.8h0Z"/>
    </g>
  </g>
      <mask id="mask_about" class="handwriting_mask_line_about">
      <path id="mask-path_about" class="handwriting_mask_line_about" d="M287.17,6.5c-40.44,25.85-78.99,47.48-113.53,53.02-24.98,2.17-52.64-1-80.83-5.1-19.75,1.06-41.54,7.51-64.3,14.42-7.06,7.61-13.4,15.02-17.95,21.92l-1.59,16.06,13.99,18.58,13.99,6.3,1.81,5.78-.39,81.44-9.77-21.89-14.05-19.3,3.13-14.38,26.6-12.23-3.74,8.36-28.38,51.78,33.84-47.13,14.68-10.05,21.68,2.31,13.83,13.16,2.13,13.55-4.45,18.2-14.95,13.25-14.56,2.51-15.18.7-3.18,4.93v8.06l-7.16,3.73-20.29-4.28-5.2,4.28-6.85,8.51v6.99l4.57,12.52,4.98,10.08,18.82.78,27.47-9.24-24.53-17.14,4.96,12.4-5.47,33.91-9.77,24.16-13.33,24.7.53-39.45,51.66-25.63,20.85-.47,6.46,11.78-20.68,8.36-15.99,17.14-2.67,7.64,1.6,8.17,13.68,6.22,16.88-.71,7.11-2.31,6.4,7.4,1.52,9.88-8.73,7.41-34.52,2.06-33.08-4.72-5.96,6.04,1.65,7.8,13.45,9.99-5.85,40.47,1.04,26.85,13.03,14.08,18.36,2.61,21.4-10.38,13.75-22.81,1.37-12.03,8.26-4.65,11.1.73,9.81,12.63,3.45,20.09-2.83,16.42-9.31,14.05-15.32,7.99-32.16,3.77-11.47,8.35-2.25,17.98v9.91l-24.79,51.11-14.55-13.31-6.13-24.08,14.34-21.8,19.55-11.81,24.68.83,20.94,20.63,2.62,18.91-4.19,15.76-14.86,14.6-19.76,4.86-22.73,15.47-1.63,14.61,6.3,13.46s37.56,6.7,41.08,8.55c0,0-21.56,7.9-30.11,12.64l-20.93,26.85v21.38l17.47,10.17,26.14-1.82,19.03-6,11.73,10.17,3.16,12-5.51,9.38-34.93,2.34-13.46-7.53-6.89,7.89,5.23,7.99-.78,28.42,1.82,10.69,25.81-11.73,9.91,11.73-35.19,5.74-16.39,7.82-5.24,12.25,2.35,12.77,15.64,6.91,14.6,1.43,14.54-3.51,14.9,2.16,29.15,5.88,24.31,18.41,6.76,14.29,17.97,22.52,26.07,12.09,25.59,2.36,25.29-.69,41.51-2.43"/>
  </mask>
</svg>