<?xml version="1.0" encoding="UTF-8"?>
<svg id="_レイヤー_1" data-name="レイヤー_1" xmlns="http://www.w3.org/2000/svg" viewBox="0 0 50 57.12">
  <defs>
    <style>
      .cls-1 {
        fill: none;
      }

      .cls-2 {
        fill: #ebedef;
      }

      .cls-3 {
        fill: #e6b82c;
      }

      .cls-4 {
        fill: #fff;
      }

      .cls-5 {
        fill: #dc9e2d;
      }
    </style>
  </defs>
  <polygon class="cls-5" points="45.86 51.59 25.42 57.12 4.65 51.59 0 0 50 0 45.86 51.59"/>
  <polygon class="cls-3" points="25.42 4.02 25.42 53.34 42.28 48.45 45.86 4.3 25.42 4.02"/>
  <polygon class="cls-4" points="33.21 20.45 39.74 20.45 38.54 6.96 13.48 6.96 11.42 29.47 32.78 29.47 32.18 38.11 25.5 39.86 17.5 37.63 17.5 33.05 11.26 33.05 11.85 42.68 25.22 46.7 38.39 42.52 39.74 23.27 18.1 23.27 19.13 13.05 33.05 13.05 33.21 20.45"/>
  <polygon class="cls-1" points="18.1 23.27 25.42 23.27 25.42 13.05 19.13 13.05 18.1 23.27"/>
  <polygon class="cls-3" points="32.18 38.11 32.78 29.47 25.42 29.47 25.42 39.86 25.5 39.86 32.18 38.11"/>
  <polygon class="cls-3" points="25.42 4.02 25.42 6.96 38.54 6.96 39.74 20.45 33.21 20.45 33.05 13.05 25.42 13.05 25.42 23.27 39.74 23.27 38.39 42.52 25.42 46.62 25.42 53.34 42.28 48.45 45.86 4.3 25.42 4.02"/>
  <polygon class="cls-2" points="17.5 37.63 17.5 33.05 11.26 33.05 11.85 42.68 25.22 46.7 25.42 46.62 25.42 39.86 17.5 37.63"/>
  <polygon class="cls-2" points="18.1 23.27 19.13 13.05 25.42 13.05 25.42 6.96 13.48 6.96 11.42 29.47 25.42 29.47 25.42 23.27 18.1 23.27"/>
  <polygon class="cls-4" points="39.74 23.27 25.42 23.27 25.42 29.47 32.78 29.47 32.18 38.11 25.5 39.86 25.42 39.86 25.42 46.62 38.39 42.52 39.74 23.27"/>
  <polygon class="cls-4" points="33.05 13.05 33.21 20.45 39.74 20.45 38.54 6.96 25.42 6.96 25.42 13.05 33.05 13.05"/>
</svg>