<?xml version="1.0" encoding="UTF-8"?>
<svg id="_レイヤー_1" data-name="レイヤー_1" xmlns="http://www.w3.org/2000/svg" viewBox="0 0 51 51">
  <defs>
    <style>
      .cls-1 {
        fill: #c33f4e;
      }

      .cls-2 {
        fill: none;
        stroke: #c33f4e;
        stroke-miterlimit: 10;
      }
    </style>
  </defs>
  <rect class="cls-2" x=".5" y=".5" width="50" height="50" rx="7" ry="7"/>
  <g>
    <path class="cls-1" d="M10.36,35.97c-.13-.09-.19-.21-.19-.35s.08-.26.23-.35c.15-.09.34-.13.58-.1.56.05.97.07,1.23.07.7,0,1.26-.11,1.68-.33.42-.22.7-.6.84-1.14.21-.84.31-4.02.31-9.56l.04-3.6c0-3.06-.12-5.04-.35-5.95-.14-.54-.41-.92-.8-1.14-.4-.22-.92-.33-1.58-.33-.26,0-.67.02-1.23.07h-.14c-.21,0-.37-.05-.49-.14-.12-.09-.17-.21-.17-.35,0-.12.06-.22.19-.31.13-.09.31-.14.54-.14h10.36c1.84,0,3.42.36,4.74,1.07,1.32.71,2.31,1.64,2.98,2.78.66,1.14,1,2.36,1,3.64s-.33,2.49-.98,3.6c-.65,1.12-1.63,2.02-2.92,2.71-1.29.69-2.85,1.03-4.67,1.03h-3.19c-.58,0-.88.3-.88.91.05,3.01.15,4.91.31,5.71.14.54.42.92.84,1.14.42.22.98.33,1.68.33.26,0,.67-.02,1.23-.07h.14c.21,0,.37.05.49.14.12.09.17.21.17.35,0,.12-.06.22-.19.32-.13.09-.31.14-.54.14h-10.71c-.23,0-.41-.05-.54-.14ZM17.49,25.23c0,.56.28.86.84.91,1.26.05,2.35.07,3.26.07,1.21,0,2.25-.3,3.11-.91.86-.61,1.52-1.41,1.96-2.4.44-.99.67-2.05.67-3.17s-.23-2.18-.68-3.17c-.46-.99-1.13-1.79-2.01-2.4-.89-.61-1.96-.91-3.22-.91-.86,0-1.49.02-1.87.05-.38.03-.74.15-1.07.35-.33.2-.55.53-.67,1-.23.93-.35,2.94-.35,6.02l.04,3.54v1.02Z"/>
    <path class="cls-1" d="M31.71,24.76c.13-.1.31-.18.54-.23.72-.19,1.47-.57,2.24-1.15.09-.05.26-.15.49-.3.23-.15.42-.23.56-.23.33,0,.49.14.49.42,0,.37-.01.71-.04,1.01v.07c0,.14.04.22.1.25.07.02.16-.02.28-.14.51-.54,1.09-.94,1.73-1.21.64-.27,1.24-.4,1.8-.4.3,0,.55.03.73.1.56.19.84.52.84,1.01,0,.35-.14.67-.42.95-.28.28-.61.42-.98.42-.21,0-.36-.02-.46-.07-.49-.16-.91-.25-1.26-.25-.61,0-1.14.19-1.59.56-.46.37-.78.92-.96,1.65-.07,1.26-.1,2.37-.1,3.32,0,1.49.07,2.66.21,3.5.07.4.2.69.39.88.19.19.45.28.8.28.16,0,.3-.01.42-.04l.21-.04c.19,0,.33.05.44.14.1.09.16.21.16.35s-.06.26-.19.35c-.13.09-.31.14-.54.14h-5.71c-.23,0-.41-.05-.54-.14-.13-.09-.19-.21-.19-.35,0-.16.07-.29.21-.39.14-.09.34-.12.59-.07.35.07.65,0,.89-.19s.41-.51.51-.93c.12-.58.18-1.5.18-2.77l-.04-3.74c0-.63-.1-1.14-.3-1.52-.2-.39-.52-.58-.96-.58-.23,0-.41-.04-.54-.1-.13-.07-.19-.16-.19-.28,0-.09.06-.19.19-.3Z"/>
  </g>
</svg>