<?xml version="1.0" encoding="UTF-8"?>
<svg id="_レイヤー_1" data-name="レイヤー_1" xmlns="http://www.w3.org/2000/svg" viewBox="0 0 50 57.13">
  <defs>
    <style>
      .cls-1 {
        fill: #e1eee7;
      }

      .cls-2 {
        fill: #33a0ce;
      }

      .cls-3 {
        fill: #fff;
      }

      .cls-4 {
        fill: #146dad;
      }
    </style>
  </defs>
  <polygon class="cls-4" points="45.86 51.59 25.42 57.13 4.62 51.59 0 0 50 0 45.86 51.59"/>
  <polygon class="cls-2" points="25.42 3.98 25.42 53.39 42.31 48.49 45.86 4.3 25.42 3.98"/>
  <polygon class="cls-3" points="9 9.88 9.84 16.18 33.55 16.18 33.27 22.71 17.97 22.71 18.45 29.08 33.03 29.08 32.67 37.37 25.42 39.44 18.13 37.53 17.85 32.63 11.31 32.63 12.07 42.11 25.42 46.14 38.61 42.43 40.88 9.88 9 9.88"/>
  <polygon class="cls-2" points="33.55 16.18 25.42 16.18 25.42 22.71 33.27 22.71 33.55 16.18"/>
  <polygon class="cls-2" points="33.03 29.08 25.42 29.08 25.42 39.44 32.67 37.37 33.03 29.08"/>
  <polygon class="cls-2" points="25.42 3.98 25.42 9.88 40.88 9.88 38.61 42.43 25.42 46.14 25.42 53.39 42.31 48.49 45.86 4.3 25.42 3.98"/>
  <polygon class="cls-1" points="17.97 22.71 18.45 29.08 25.42 29.08 25.42 22.71 17.97 22.71"/>
  <polygon class="cls-1" points="9 9.88 9.84 16.18 25.42 16.18 25.42 9.88 9 9.88"/>
  <polygon class="cls-1" points="18.13 37.53 17.85 32.63 11.31 32.63 12.07 42.11 25.42 46.14 25.42 39.44 18.13 37.53"/>
  <polygon class="cls-3" points="40.88 9.88 25.42 9.88 25.42 16.18 33.55 16.18 33.27 22.71 25.42 22.71 25.42 29.08 33.03 29.08 32.67 37.37 25.42 39.44 25.42 46.14 38.61 42.43 40.88 9.88"/>
</svg>