<?xml version="1.0" encoding="UTF-8"?>
<svg id="_レイヤー_1" data-name="レイヤー_1" xmlns="http://www.w3.org/2000/svg" viewBox="0 0 51 51">
  <defs>
    <style>
      .cls-1 {
        fill: #c33f4e;
      }

      .cls-2 {
        fill: none;
        stroke: #c33f4e;
        stroke-miterlimit: 10;
      }
    </style>
  </defs>
  <rect class="cls-2" x=".5" y=".5" width="50" height="50" rx="7" ry="7"/>
  <g>
    <path class="cls-1" d="M7.38,36.11c-.23,0-.41-.05-.54-.14-.13-.09-.19-.21-.19-.35s.07-.26.21-.35c.14-.09.34-.13.59-.1.77.07,1.21.1,1.33.1,1.07,0,1.81-.37,2.21-1.12.26-.47,1.3-3.23,3.13-8.29,1.83-5.06,2.96-8.19,3.38-9.38l1.37-3.81c.3-.68.67-1.02,1.08-1.02.23,0,.44.06.61.19.18.13.33.38.47.75.72,1.77,1.84,4.91,3.36,9.42.3.86.95,2.7,1.94,5.51.99,2.81,1.78,4.89,2.36,6.25.23.54.57.92,1,1.14.43.22.97.33,1.63.33.23,0,.61-.02,1.12-.07h.14c.21,0,.37.05.49.14.12.09.17.21.17.35,0,.12-.06.22-.19.32-.13.09-.31.14-.54.14h-10.71c-.23,0-.41-.05-.54-.14-.13-.09-.19-.21-.19-.35s.08-.26.23-.35c.15-.09.34-.13.58-.1.61.05,1.06.07,1.37.07,1.7,0,2.5-.49,2.38-1.47-.07-.61-.96-3.42-2.66-8.44-.09-.3-.29-.46-.59-.46h-6.09c-.28,0-.48.14-.59.42-1.98,5.58-2.99,8.59-3.01,9.03-.02.35.12.6.44.75.32.15.83.23,1.56.23.82,0,1.7-.05,2.66-.14h.1c.21,0,.38.05.51.14.13.09.19.21.19.35,0,.12-.06.22-.19.32-.13.09-.31.14-.54.14H7.38ZM16.44,23.13c-.02.07-.04.15-.04.25,0,.26.15.38.46.38h4.94c.19,0,.32-.06.4-.17.08-.12.09-.26.02-.42l-2.52-7.35c-.07-.23-.17-.35-.31-.35-.16,0-.28.12-.35.35l-2.59,7.31Z"/>
    <path class="cls-1" d="M34.31,35.97c-.13-.09-.19-.21-.19-.35,0-.16.07-.29.21-.39.14-.09.34-.12.59-.07.7.14,1.17-.23,1.4-1.12.14-.51.21-1.31.21-2.38,0-.77-.01-1.37-.03-1.79l-.04-2.34c0-.63-.1-1.14-.3-1.52-.2-.39-.52-.58-.96-.58-.23,0-.41-.04-.54-.1-.13-.07-.19-.16-.19-.28,0-.09.06-.19.19-.3.13-.1.31-.18.54-.23.72-.19,1.47-.57,2.24-1.15.09-.05.26-.15.49-.3.23-.15.42-.23.56-.23.33,0,.49.14.49.42l-.07,1.4-.14,2.42c-.05.86-.07,2.01-.07,3.43,0,1.66.06,2.83.17,3.53.07.4.2.69.39.88.19.19.45.28.8.28.16,0,.3-.01.42-.04l.21-.04c.19,0,.33.05.44.14.1.09.16.21.16.35s-.06.26-.19.35c-.13.09-.31.14-.54.14h-5.71c-.23,0-.41-.05-.54-.14ZM36.02,19.96c-.38-.38-.58-.85-.58-1.38s.19-1.03.58-1.42.85-.58,1.38-.58,1,.19,1.38.58.58.86.58,1.42-.19,1-.58,1.38c-.39.38-.85.58-1.38.58s-1-.19-1.38-.58Z"/>
  </g>
</svg>