<?xml version="1.0" encoding="UTF-8"?>
<svg id="_レイヤー_1" data-name="レイヤー_1" xmlns="http://www.w3.org/2000/svg" viewBox="0 0 51 51">
  <defs>
    <style>
      .cls-1 {
        fill: #c33f4e;
      }

      .cls-2 {
        fill: none;
        stroke: #c33f4e;
        stroke-miterlimit: 10;
      }
    </style>
  </defs>
  <rect class="cls-2" x=".5" y=".5" width="50" height="50" rx="7" ry="7"/>
  <g>
    <path class="cls-1" d="M10.97,35.97c-.13-.09-.19-.21-.19-.35s.08-.26.23-.35c.15-.09.34-.13.58-.1.56.05.97.07,1.23.07.7,0,1.26-.11,1.68-.33.42-.22.7-.6.84-1.14.21-.84.31-4.02.31-9.56l.04-3.6c0-3.06-.12-5.04-.35-5.95-.14-.54-.41-.92-.8-1.14-.4-.22-.92-.33-1.58-.33-.26,0-.67.02-1.23.07h-.14c-.21,0-.37-.05-.49-.14-.12-.09-.17-.21-.17-.35,0-.12.06-.22.19-.31.13-.09.31-.14.54-.14h10.36c1.84,0,3.42.36,4.74,1.07,1.32.71,2.31,1.64,2.98,2.78.66,1.14,1,2.36,1,3.64s-.33,2.49-.98,3.6c-.65,1.12-1.63,2.02-2.92,2.71-1.29.69-2.85,1.03-4.67,1.03h-3.19c-.58,0-.88.3-.88.91.05,3.01.15,4.91.31,5.71.14.54.42.92.84,1.14.42.22.98.33,1.68.33.26,0,.67-.02,1.23-.07h.14c.21,0,.37.05.49.14.12.09.17.21.17.35,0,.12-.06.22-.19.32-.13.09-.31.14-.54.14h-10.71c-.23,0-.41-.05-.54-.14ZM18.1,25.23c0,.56.28.86.84.91,1.26.05,2.35.07,3.26.07,1.21,0,2.25-.3,3.11-.91.86-.61,1.52-1.41,1.96-2.4.44-.99.67-2.05.67-3.17s-.23-2.18-.68-3.17c-.46-.99-1.13-1.79-2.01-2.4-.89-.61-1.96-.91-3.22-.91-.86,0-1.49.02-1.87.05-.38.03-.74.15-1.07.35-.33.2-.55.53-.67,1-.23.93-.35,2.94-.35,6.02l.04,3.54v1.02Z"/>
    <path class="cls-1" d="M35.02,35.76c-.57-.26-.99-.5-1.26-.72-.27-.22-.41-.33-.44-.33-.07,0-.12.06-.14.19-.02.13-.04.31-.04.54,0,.14-.05.27-.14.39-.09.12-.21.17-.35.17-.3,0-.46-.17-.46-.52v-3.81c0-.16.05-.29.14-.39.09-.09.21-.14.35-.14.12,0,.22.05.31.14.09.09.14.22.14.39,0,.49.2,1.01.61,1.56s.92,1.01,1.54,1.38c.62.37,1.23.56,1.84.56.75,0,1.35-.17,1.82-.51.47-.34.7-.8.7-1.38,0-.44-.27-.86-.82-1.24-.55-.39-1.41-.87-2.57-1.45l-.67-.31c-.77-.37-1.38-.7-1.84-.98-.45-.28-.84-.65-1.15-1.12-.31-.47-.47-1.04-.47-1.71,0-.63.18-1.22.54-1.77.36-.55.89-.99,1.58-1.33.69-.34,1.49-.51,2.4-.51.84,0,1.52.09,2.05.28.53.19.93.37,1.23.54.29.17.46.26.51.26.12,0,.17-.18.17-.53,0-.14.05-.25.14-.33.09-.08.2-.12.31-.12.14,0,.26.05.35.14.09.09.14.21.14.35v3.64c0,.14-.05.26-.16.35s-.22.14-.33.14-.22-.05-.31-.14c-.09-.09-.14-.21-.14-.35,0-.47-.17-.95-.51-1.45-.34-.5-.81-.92-1.42-1.26-.61-.34-1.28-.51-2.03-.51s-1.36.17-1.77.51c-.41.34-.61.75-.61,1.24,0,.91.76,1.73,2.27,2.45.21.09.41.18.6.26.19.08.36.16.52.23.89.37,1.6.72,2.15,1.03.55.31,1.02.72,1.4,1.23.39.5.58,1.11.58,1.84,0,1.03-.43,1.87-1.28,2.52-.85.65-1.9.98-3.13.98-1,0-1.79-.13-2.36-.38Z"/>
  </g>
</svg>