<?xml version="1.0" encoding="UTF-8"?>
<svg id="_レイヤー_1" data-name="レイヤー_1" xmlns="http://www.w3.org/2000/svg" viewBox="0 0 51 51">
  <defs>
    <style>
      .cls-1 {
        fill: #c33f4e;
      }

      .cls-2 {
        fill: none;
        stroke: #c33f4e;
        stroke-miterlimit: 10;
      }
    </style>
  </defs>
  <rect class="cls-2" x=".5" y=".5" width="50" height="50" rx="7" ry="7"/>
  <g>
    <path class="cls-1" d="M20.92,36.11h-10.57c-.23,0-.41-.05-.54-.14-.13-.09-.19-.21-.19-.35,0-.12.06-.22.18-.31.12-.09.28-.14.49-.14l1.36.04c.65,0,1.2-.1,1.65-.3.44-.2.74-.58.88-1.14.21-.84.31-4.02.31-9.56s-.1-8.65-.31-9.48c-.14-.56-.43-.95-.88-1.16-.44-.21-.98-.31-1.61-.31-.37,0-.82.02-1.33.07h-.1c-.19,0-.34-.05-.46-.14-.12-.09-.18-.2-.18-.31,0-.14.06-.26.19-.35.13-.09.31-.14.54-.14h10.71c.23,0,.41.05.54.14.13.09.19.21.19.35s-.08.26-.23.35c-.15.09-.34.13-.58.1-.56-.05-.97-.07-1.22-.07-.7,0-1.26.11-1.68.33-.42.22-.7.6-.84,1.14-.21.84-.32,4-.32,9.48s.11,8.71.32,9.56c.16.61.51.99,1.03,1.15.52.16,1.28.25,2.26.25h1.08c1.21,0,2.4-.07,3.57-.21,1.05-.14,1.85-.67,2.4-1.59.55-.92.82-2.4.82-4.43,0-.26.06-.46.17-.6.12-.14.25-.21.39-.21.19,0,.34.08.47.23.13.15.19.38.19.68,0,1.54-.07,3.29-.21,5.25-.05.75-.16,1.24-.33,1.49-.18.25-.5.37-.96.37l-7.21-.04Z"/>
    <path class="cls-1" d="M31.58,24.76c.13-.1.31-.18.54-.23.72-.19,1.47-.57,2.24-1.15.09-.05.26-.15.49-.3.23-.15.42-.23.56-.23.33,0,.49.14.49.42,0,.37-.01.71-.04,1.01v.07c0,.14.04.22.1.25.07.02.16-.02.28-.14.51-.54,1.09-.94,1.73-1.21.64-.27,1.24-.4,1.8-.4.3,0,.55.03.73.1.56.19.84.52.84,1.01,0,.35-.14.67-.42.95-.28.28-.61.42-.98.42-.21,0-.36-.02-.45-.07-.49-.16-.91-.25-1.26-.25-.61,0-1.14.19-1.59.56-.46.37-.78.92-.96,1.65-.07,1.26-.1,2.37-.1,3.32,0,1.49.07,2.66.21,3.5.07.4.2.69.39.88.19.19.45.28.8.28.16,0,.3-.01.42-.04l.21-.04c.19,0,.33.05.44.14.1.09.16.21.16.35s-.06.26-.19.35c-.13.09-.31.14-.54.14h-5.71c-.23,0-.41-.05-.54-.14-.13-.09-.19-.21-.19-.35,0-.16.07-.29.21-.39.14-.09.34-.12.59-.07.35.07.65,0,.89-.19.24-.2.41-.51.51-.93.12-.58.18-1.5.18-2.77l-.03-3.74c0-.63-.1-1.14-.3-1.52-.2-.39-.52-.58-.96-.58-.23,0-.41-.04-.54-.1-.13-.07-.19-.16-.19-.28,0-.09.06-.19.19-.3Z"/>
  </g>
</svg>