<?xml version="1.0" encoding="UTF-8"?>
<svg id="_レイヤー_1" data-name="レイヤー_1" xmlns="http://www.w3.org/2000/svg" viewBox="0 0 50 57.08">
  <defs>
    <style>
      .cls-1 {
        fill: none;
      }

      .cls-2 {
        fill: #fceff5;
      }

      .cls-3 {
        fill: #e5662f;
      }

      .cls-4 {
        fill: #d74c20;
      }

      .cls-5 {
        fill: #f0e9ed;
      }
    </style>
  </defs>
  <polygon class="cls-4" points="45.82 51.55 25.38 57.08 4.65 51.55 0 0 50 0 45.82 51.55"/>
  <polygon class="cls-3" points="25.38 3.98 25.38 53.34 42.28 48.45 45.82 4.3 25.38 3.98"/>
  <polygon class="cls-2" points="40.45 16.75 40.77 10.38 9.03 10.38 10.98 29.47 32.62 29.47 32.62 37.19 25.34 39.26 18.06 37.35 18.06 33.05 11.42 33.05 12.01 42.68 25.06 46.82 37.79 42.36 39.42 23.11 16.91 23.11 16.15 16.87 40.45 16.75"/>
  <polygon class="cls-1" points="16.91 23.11 25.38 23.11 25.38 16.83 16.15 16.87 16.91 23.11"/>
  <polygon class="cls-3" points="32.62 29.47 25.38 29.47 25.38 39.26 32.62 37.19 32.62 29.47"/>
  <polygon class="cls-3" points="25.38 3.98 25.38 10.38 40.77 10.38 40.45 16.75 25.38 16.83 25.38 23.11 39.42 23.11 37.79 42.36 25.38 46.7 25.38 53.34 42.28 48.45 45.82 4.3 25.38 3.98"/>
  <polygon class="cls-5" points="25.34 39.26 18.06 37.35 18.06 33.05 11.42 33.05 12.01 42.68 25.06 46.82 25.38 46.7 25.38 39.26 25.34 39.26"/>
  <polygon class="cls-5" points="16.91 23.11 16.15 16.87 25.38 16.83 25.38 10.38 9.03 10.38 10.98 29.47 25.38 29.47 25.38 23.11 16.91 23.11"/>
  <polygon class="cls-2" points="40.45 16.75 40.77 10.38 25.38 10.38 25.38 16.83 40.45 16.75"/>
  <polygon class="cls-2" points="39.42 23.11 25.38 23.11 25.38 29.47 32.62 29.47 32.62 37.19 25.38 39.26 25.38 46.7 37.79 42.36 39.42 23.11"/>
</svg>