<?xml version="1.0" encoding="UTF-8"?>
<svg id="_レイヤー_1" xmlns="http://www.w3.org/2000/svg" viewBox="0 0 1020.38 1752.67">
  <defs>
    <style>
      .cls-1 {
        fill: #c33f4e;
      }
    </style>
  </defs>
  <path class="cls-1" d="M111.97,1115.95c-9.33-3.07-16.6-7.67-21.8-13.8-2.4-2.8-4.27-6.2-5.6-10.2s-2-8.13-2-12.4c0-7.6,2-14.4,6-20.4,2-2.8,3.93-4.2,5.8-4.2.53,0,1,.17,1.4.5s.6.77.6,1.3c0,.8-.4,1.8-1.2,3-3.33,4.93-5,10.2-5,15.8,0,3.33.57,6.5,1.7,9.5s2.77,5.57,4.9,7.7c4.27,4.27,10.07,7.63,17.4,10.1s15.47,3.7,24.4,3.7c14.8,0,28.8-3.27,42-9.8,2.27-1.2,4.87-1.8,7.8-1.8,3.33,0,6.13.87,8.4,2.6,2.27,1.73,3.4,3.8,3.4,6.2,0,2.8-1.67,5.07-5,6.8-5.6,3.07-13.13,5.5-22.6,7.3s-19.67,2.7-30.6,2.7-20.67-1.53-30-4.6h0ZM116.57,1024.35c-.67,0-1.2-.2-1.6-.6s-.6-.87-.6-1.4c0-1.2.93-2.53,2.8-4,.93-.8,5.27-3.53,13-8.2,3.47-2.13,6.87-4.27,10.2-6.4,2.27-1.6,3.4-3.2,3.4-4.8,0-2-1.6-3.4-4.8-4.2-7.33-2.27-13.9-4.47-19.7-6.6-5.8-2.13-10.9-4.53-15.3-7.2-.8-.53-1.47-1.27-2-2.2s-.8-1.8-.8-2.6c0-1.47.73-2.2,2.2-2.2.93,0,1.67.13,2.2.4,9.87,3.33,18.4,5.53,25.6,6.6,7.2,1.07,14.53,1.73,22,2,5.6.27,9.97.67,13.1,1.2s6.1,1.73,8.9,3.6c1.87,1.2,3.23,2.63,4.1,4.3.87,1.67,1.3,3.43,1.3,5.3,0,2.8-.87,5.17-2.6,7.1-1.73,1.93-3.8,2.63-6.2,2.1-2.27-.53-4.93-.8-8-.8-6.67,0-13.67,1.57-21,4.7s-15.27,7.5-23.8,13.1c-.67.53-1.47.8-2.4.8h0Z"/>
  <path class="cls-1" d="M61.17,1198.55c0-.67.17-1.2.5-1.6s.77-.6,1.3-.6,1.07.2,1.6.6c.53.27,1.53.93,3,2s3.2,2.03,5.2,2.9,4.2,1.43,6.6,1.7c2.67.27,4.73.4,6.2.4,3.87,0,7.73-.4,11.6-1.2,3.73-.53,5.93-2.93,6.6-7.2.93-9.87,1.4-18.07,1.4-24.6,0-1.6-.47-2.77-1.4-3.5s-1.9-1.23-2.9-1.5-1.63-.47-1.9-.6c-1.2-.53-1.8-1.13-1.8-1.8,0-.53.33-1,1-1.4s1.4-.6,2.2-.6c4,0,7.87.7,11.6,2.1,3.73,1.4,5.8,3.5,6.2,6.3.27,1.6.73,2.93,1.4,4,6.13,7.47,13.33,11.27,21.6,11.4,1.33.13,2.5.77,3.5,1.9s1.5,2.43,1.5,3.9-.47,2.87-1.4,4.2-2.33,2.4-4.2,3.2c-7.33,3.2-14.93,6-22.8,8.4-3.73.93-6,3.33-6.8,7.2-8.53,41.07-20.67,74.33-36.4,99.8-1.73,2.8-3.8,4.2-6.2,4.2-1.87,0-3.47-.77-4.8-2.3-1.33-1.53-2-3.43-2-5.7,0-2.67,1-5.27,3-7.8,8-10.67,15.07-23.3,21.2-37.9s10.87-29.97,14.2-46.1c.13-.53.2-1.2.2-2,0-1.73-.57-3.07-1.7-4s-2.63-1.4-4.5-1.4c-8.8,0-15.73-.87-20.8-2.6-2.67-.93-5.17-2.3-7.5-4.1-2.33-1.8-3.77-3.43-4.3-4.9-.13-.13-.2-.4-.2-.8h0ZM115.77,1186.75c-.13.53-.2,1.33-.2,2.4,0,1.6.33,2.87,1,3.8s1.53,1.4,2.6,1.4c.93,0,1.73-.27,2.4-.8l1-.6c2.4-1.47,3.6-3.2,3.6-5.2,0-1.47-.6-2.87-1.8-4.2l-3.6-4.2c-.8-.8-1.53-1.2-2.2-1.2-.93,0-1.53.73-1.8,2.2l-1,6.4h0ZM125.37,1288.15c0-3.47.67-6.77,2-9.9,1.33-3.13,3.07-5.7,5.2-7.7,1.07-.8,1.93-1.2,2.6-1.2,1.07,0,1.6.53,1.6,1.6,0,.8-.53,1.87-1.6,3.2-2.53,2.93-3.8,6.33-3.8,10.2,0,5.33,2.53,9.97,7.6,13.9s12.2,5.9,21.4,5.9c6.67,0,14.4-1.27,23.2-3.8,1.6-.53,3.4-.8,5.4-.8,3.47,0,6.4.9,8.8,2.7,2.4,1.8,3.6,3.77,3.6,5.9,0,1.2-.47,2.3-1.4,3.3s-2.33,1.77-4.2,2.3c-8.8,2.27-17.2,3.4-25.2,3.4-9.2,0-17.4-1.33-24.6-4-7.2-2.67-12.53-6.27-16-10.8-3.07-4.27-4.6-9-4.6-14.2h0ZM169.37,1206.75c7.6,0,13.97,1.37,19.1,4.1s8.9,5.97,11.3,9.7c2,3.2,3,6.33,3,9.4,0,2.53-.67,4.6-2,6.2s-3.13,2.4-5.4,2.4c-.93,0-1.6-.07-2-.2-.53-.13-1.53-.2-3-.2-3.2,0-6.87.6-11,1.8-4.13,1.2-7.73,2.53-10.8,4-.8.4-1.53.6-2.2.6-.8,0-1.2-.33-1.2-1,0-.93.73-1.87,2.2-2.8,2.27-1.6,4.33-2.87,6.2-3.8,2.67-1.6,4.8-2.97,6.4-4.1,1.6-1.13,2.6-2.17,3-3.1.13-.4.2-1.07.2-2,0-2.13-.87-4.3-2.6-6.5-1.73-2.2-4.3-4.03-7.7-5.5s-7.3-2.2-11.7-2.2c-2.27,0-4.73.2-7.4.6h-1c-.93,0-1.7-.23-2.3-.7s-.9-1.03-.9-1.7c0-.53.27-1.1.8-1.7s1.27-.97,2.2-1.1c5.73-1.47,11.33-2.2,16.8-2.2h0ZM209.57,1183.55c4.8,3.73,7.2,7.13,7.2,10.2,0,1.6-.57,2.87-1.7,3.8-1.13.93-2.57,1.4-4.3,1.4-2.53,0-4.73-1-6.6-3-2.13-2.53-3.27-3.87-3.4-4-2.67-3.2-5.17-5.83-7.5-7.9-2.33-2.07-5.7-4.23-10.1-6.5-2-1.07-3-2.2-3-3.4s.93-1.8,2.8-1.8c1.07,0,2.27.2,3.6.6,10.53,3.33,18.2,6.87,23,10.6h0ZM223.47,1167.05c4.73,3.4,7.1,6.57,7.1,9.5,0,1.47-.57,2.67-1.7,3.6-1.13.93-2.5,1.4-4.1,1.4-2.27,0-4.2-.73-5.8-2.2-1.2-.93-2.8-2.53-4.8-4.8-2.4-2.67-4.77-4.9-7.1-6.7-2.33-1.8-5.5-3.5-9.5-5.1-2.27-.93-3.4-2.07-3.4-3.4,0-.53.3-.97.9-1.3.6-.33,1.43-.5,2.5-.5,1.33,0,2.4.13,3.2.4,10.4,2.67,17.97,5.7,22.7,9.1h0Z"/>
  <path class="cls-1" d="M105.27,1523.05c-1.8-1.93-3.3-4.6-4.5-8s-1.8-6.63-1.8-9.7l.4-7.8c0-2.4-.53-4.47-1.6-6.2.13.13-1.53-2.27-5-7.2-1.07-1.47-2.2-2.2-3.4-2.2-1.33,0-2.53,1-3.6,3l-3.4,7.4c-3.07,6.8-5.33,11.37-6.8,13.7s-3.13,3.5-5,3.5c-2.4,0-4.2-1.17-5.4-3.5-1.2-2.33-1.8-5.1-1.8-8.3,0-3.47.6-6.27,1.8-8.4.8-1.6,2.73-4,5.8-7.2,3.47-3.87,6.07-6.87,7.8-9,.93-1.07,1.4-2.27,1.4-3.6s-.47-2.53-1.4-3.6c-3.47-4.8-6.2-9.07-8.2-12.8-2-3.73-3.07-7.2-3.2-10.4-.27-6.4.6-11.67,2.6-15.8s5.07-7.53,9.2-10.2c4.13-2.67,9.8-5.33,17-8,3.87-1.33,5.87-3.93,6-7.8,0-1.07.13-2.93.4-5.6.4-6.67-.43-11.87-2.5-15.6s-4.2-6.57-6.4-8.5c-2.2-1.93-3.63-3.23-4.3-3.9-.8-.8-1.2-1.6-1.2-2.4,0-1.33,1.07-2,3.2-2,2.67,0,6.17,1,10.5,3s8.03,4.63,11.1,7.9,4.33,6.77,3.8,10.5c-.27,1.73-.53,4.47-.8,8.2l-1,8.4-.2,1.6c0,2.67,1.33,4.8,4,6.4,1.2.8,2.4,1.93,3.6,3.4.8.93,1.2,1.87,1.2,2.8s-.37,1.77-1.1,2.5c-.73.73-2.1,1.83-4.1,3.3l-2,2c-1.07,1.47-1.6,2.53-1.6,3.2s.33,1,1,1c.93,0,2.27-.67,4-2,13.73-11.33,28.47-17,44.2-17,8,0,15.47,1.5,22.4,4.5s12.67,7.17,17.2,12.5c4.13,4.8,7.23,10.1,9.3,15.9s3.1,11.83,3.1,18.1-1.2,12.93-3.6,19.2c-3.07,8.13-8.5,15.27-16.3,21.4s-16.3,10.83-25.5,14.1-17.4,4.97-24.6,5.1h-.4c-1.47,0-2.63-.27-3.5-.8s-1.3-1.13-1.3-1.8c0-.8.43-1.47,1.3-2,.87-.53,2.03-.8,3.5-.8,10.4-.27,20.3-3.37,29.7-9.3s16.1-13.23,20.1-21.9c3.87-7.87,5.8-15.93,5.8-24.2s-1.73-15.1-5.2-21.7-8.23-11.83-14.3-15.7-12.97-5.8-20.7-5.8c-9.2,0-17.4,2.17-24.6,6.5-7.2,4.33-14.27,10.43-21.2,18.3-1.2,1.33-2.03,2.67-2.5,4s-.7,2.93-.7,4.8v25.4c0,13.47.4,23.4,1.2,29.8.53,3.6.8,7,.8,10.2,0,6-1.13,9.6-3.4,10.8-1.73.8-3.5.23-5.3-1.7h0ZM83.97,1462.15c1.33,0,2.53-.87,3.6-2.6,4.67-8.27,8.73-18.13,12.2-29.6,1.07-3.47,1.6-6.13,1.6-8,0-.67-.27-1.2-.8-1.6-.53-.4-1.2-.6-2-.6-.67,0-1.8.27-3.4.8-6.27,2.13-11.3,5.13-15.1,9-3.8,3.87-5.7,8.4-5.7,13.6s2,10.87,6,16.6c1.07,1.6,2.27,2.4,3.6,2.4h0ZM99.47,1463.15c-.33-.53-.7-.8-1.1-.8-.67,0-1.33.53-2,1.6l-3.2,5.6c-.4.53-.6,1.13-.6,1.8s.47,1.47,1.4,2.4c1.33.93,2.07,1.47,2.2,1.6.8.8,1.53,1.2,2.2,1.2.93,0,1.4-.6,1.4-1.8.13-.93.2-2.4.2-4.4v-5.2c0-.8-.17-1.47-.5-2h0Z"/>
  <path class="cls-1" d="M92.97,1632.59c0-14.93,4.07-33.13,12.2-54.6,1.07-2.67,1.6-5.13,1.6-7.4,0-2.4-.93-4.67-2.8-6.8-.8-1.07-1.2-1.87-1.2-2.4,0-1.07.6-1.87,1.8-2.4,1.2-.53,2.6-.73,4.2-.6,3.6.53,6.9,2.07,9.9,4.6s4.5,5.8,4.5,9.8c0,2.8-.87,5.87-2.6,9.2-1.2,2.27-2.87,4.93-5,8-2.4,3.6-4.23,6.6-5.5,9s-1.97,4.73-2.1,7v1c0,2.13.53,3.2,1.6,3.2.93,0,1.87-.8,2.8-2.4,2.4-4,5.7-7.6,9.9-10.8,4.2-3.2,8.37-5.2,12.5-6,2.53-.53,5.27-.8,8.2-.8,8.13,0,15.37,2.3,21.7,6.9s11.27,11.07,14.8,19.4c3.53,8.33,5.3,17.83,5.3,28.5,0,7.47-.87,14.93-2.6,22.4-2.93,13.33-8.63,24.6-17.1,33.8-8.47,9.2-17.5,16.13-27.1,20.8s-17.93,7.47-25,8.4l-2,.2c-1.6,0-2.83-.27-3.7-.8-.87-.53-1.3-1.2-1.3-2,0-.93.53-1.8,1.6-2.6,1.07-.8,2.47-1.27,4.2-1.4,10.4-1.07,19.7-4.67,27.9-10.8s14.87-13.8,20-23,8.5-19,10.1-29.4c.8-5.07,1.2-10,1.2-14.8,0-8.93-1.27-17.23-3.8-24.9s-6.2-13.8-11-18.4-10.33-6.9-16.6-6.9c-1.6,0-2.8.07-3.6.2-4.4.53-8.5,2.73-12.3,6.6s-6.93,8.5-9.4,13.9-3.9,10.63-4.3,15.7c-.13,1.33-.2,3-.2,5,0,3.2.27,5.63.8,7.3.53,1.67,1.33,3.3,2.4,4.9,1.47,1.87,2.4,3.93,2.8,6.2.13.67.2,1.6.2,2.8,0,2.8-.77,5.03-2.3,6.7-1.53,1.67-3.37,2.5-5.5,2.5-2.67,0-4.8-1.2-6.4-3.6-5.87-8.13-8.8-18.53-8.8-31.2h0Z"/>
  <path class="cls-1" d="M63.61,1196.92c-5.86-4.36-7.84-12.53-6.37-19.44,1.7-8,7.1-14.65,13.23-19.81s13.98-9.27,22.02-11.43c8.92-2.4,18.11-2.27,27.21-1.12,9.76,1.23,19.4,3.3,29.17,4.47s19.63,1.81,29.49,1.89c4.87.04,9.73-.05,14.59-.29,4.27-.21,8.57-.55,12.73-1.59,7.57-1.9,14.59-6.66,16.96-14.43,1.03-3.38.85-6.98-.63-10.2-1.25-2.73-3.38-4.9-5.74-6.71-4.8-3.68-10.7-5.84-15.09-10.06-1.05-1.01-1.95-2.12-2.7-3.37-.98-1.66-3.58-.15-2.59,1.51,3.24,5.47,9.09,8.36,14.35,11.51s10.5,7.13,10.03,13.81c-.57,8.13-8.19,13.24-15.39,15.05-4.28,1.07-8.7,1.35-13.09,1.54-4.96.21-9.93.29-14.9.22-9.85-.13-19.7-.82-29.48-2.05-9.76-1.23-19.39-3.34-29.17-4.47-9.17-1.06-18.43-.92-27.36,1.62-8,2.27-15.48,6.2-21.91,11.45s-11.74,11.69-14.09,19.52c-2.13,7.09-1.22,15.27,3.36,21.23,1.11,1.44,2.39,2.65,3.84,3.74,1.55,1.15,3.05-1.45,1.51-2.59h.02Z"/>
  <path class="cls-1" d="M198.76,1311.37c2.16-1.53,5.09-.76,6.77,1.15,2.17,2.48,1.58,6.33.1,8.99-1.69,3.05-4.66,5.13-7.61,6.84s-6.3,3.34-9.57,4.73c-13.15,5.57-27.54,8.14-41.8,7.69-7.17-.23-14.3-1.23-21.25-3.03-7.46-1.93-14.4-5.12-21.61-7.76-7.28-2.67-15.37-4.49-23.04-2.38-5.98,1.65-11.39,5.89-13.99,11.58s-2.26,12.56,1.2,17.82c3.8,5.78,10.4,7.77,16.94,8.49,1.66.18,3.32.29,4.99.39,1.93.12,1.92-2.88,0-3-6.48-.39-14-.91-18.5-6.25-4-4.75-4.37-11.88-1.39-17.22,3.31-5.93,9.68-9.33,16.35-9.69,8.15-.44,15.85,2.75,23.25,5.76,6.89,2.8,13.85,5.15,21.17,6.54,7.32,1.39,14.35,1.95,21.57,1.78,14.38-.35,28.68-3.7,41.65-9.94,6.06-2.92,13.1-6.51,15.34-13.36.99-3.02.87-6.65-1.04-9.3-1.61-2.24-4.36-3.71-7.14-3.67-1.4.02-2.76.44-3.9,1.25-1.56,1.11-.07,3.71,1.51,2.59h0Z"/>
  <path class="cls-1" d="M142.94,1514.79c-5.63-.14-11.13,2.82-14.01,7.68-1.53,2.58-2.25,5.52-3.54,8.22-1.06,2.23-2.53,4.06-4.62,5.4-7.54,4.83-19.98,3.93-24.06,13.38-1.17,2.72-1.27,5.98.58,8.43s5,3.34,7.91,3.96c1.88.4,2.69-2.49.8-2.89-2.17-.46-4.92-.95-6.33-2.86s-.79-4.7.42-6.62c2.23-3.54,6.62-5.08,10.41-6.27s8.12-2.22,11.67-4.45c1.84-1.16,3.44-2.64,4.65-4.45,1.46-2.2,2.26-4.76,3.22-7.2,1.06-2.71,2.52-5.18,4.94-6.89s5.1-2.51,7.97-2.44c1.93.05,1.93-2.95,0-3h-.01Z"/>
  <path class="cls-1" d="M108.08,1726.2c-14.97-.07-30-.1-44.88,1.82-7.36.95-14.67,2.34-21.79,4.48-6.46,1.94-12.54,4.65-18.65,7.48-7.3,3.38-14.64,6.67-21.98,9.95-1.76.79-.24,3.37,1.51,2.59,6.6-2.95,13.19-5.91,19.75-8.92,5.81-2.67,11.54-5.43,17.64-7.42,13.97-4.56,28.69-6.17,43.32-6.72,8.35-.32,16.71-.3,25.07-.26,1.93,0,1.93-2.99,0-3h.01Z"/>
  <path class="cls-1" d="M564.32,1.84c11.8,37.04,20.74,76.07,18.37,115.19-1.17,19.23-5.3,38.39-13.4,55.92-6.88,14.9-16.67,26.94-27.41,39.17-18.55,21.1-46.04,50.49-35.65,81.3,10.39,30.82,49.26,40.07,77.5,43.96,84.71,11.67,173.29.84,255.07,30.26,66.34,23.86,125.5,71.72,156.54,135.72,29.85,61.54,29.48,136.84-2.13,197.69-16.26,31.3-40.69,57.13-70.98,75.2-33,19.68-70.72,29.88-108.48,35.47-40.63,6.01-82.03,7.15-123.05,7.19-44.68.05-89.36-2.14-133.82-6.54-88.79-8.78-176.71-26.42-261.99-52.62-37.75-11.6-76.76-29.96-117.08-21.09-28.03,6.16-53.16,22.02-68.53,46.5-4.98,7.93-8.82,16.49-12.05,25.26-4.19,11.38-8.94,22.61-11.94,34.37-8.86,34.79-6.12,72.42,5.73,106.18,3.03,8.64,6.52,17.75,11.89,25.26,1.11,1.56,3.72.06,2.59-1.51-5.88-8.23-9.56-18.31-12.7-27.83-5.4-16.38-8.62-33.51-9.47-50.74-1.05-21.32,1.63-42.79,8.57-63.01,3.02-8.79,6.47-17.67,9.9-26.33,9.08-22.94,24.5-42.32,46.45-54.12,17.29-9.3,37.11-14.18,56.75-13.39s40.25,7.38,59.6,13.85c83.54,27.97,169.97,47.35,257.38,58.3,44.03,5.52,88.32,8.86,132.68,10.01s84.84.66,127-3.03c71.4-6.25,147.29-25.73,193.82-84.45,40.69-51.35,53.72-122.04,39.09-185.37-15.43-66.81-62.5-122.76-120.36-157.84-30.49-18.49-64.04-31.23-98.97-38.27-43.07-8.69-87.14-9.84-130.89-11.77-22.19-.98-44.39-2.15-66.48-4.6-19.49-2.16-39.32-4.79-57.29-13.12-14.11-6.54-27.91-17-32.15-32.68s2.9-32.9,11.82-46.41,20.93-26.16,31.79-38.91c10.26-12.05,18.27-25.33,23.88-40.18,13.11-34.74,11.95-73.09,5.35-109.09-3.4-18.54-8.34-36.75-14.05-54.7-.58-1.83-3.48-1.05-2.89.8h0Z"/>
</svg>