<?xml version="1.0" encoding="UTF-8"?>
<svg id="_レイヤー_1" data-name="レイヤー_1" xmlns="http://www.w3.org/2000/svg" viewBox="0 0 471.06 857.38">
  <defs>
    <style>
      .cls-1 {
        fill: #c33f4e;
      }
    </style>
  </defs>
  <path class="cls-1" d="M1.88,857.36c39.11-5.96,78.49-18.51,109.82-43.44,26.93-21.43,47.63-52.32,54.32-86.32,3.27-16.62,3.02-33.89-1.44-50.27-5.1-18.74-15.26-35.59-26.66-51.14-23.55-32.13-54.57-61.79-63.28-102.16-4.29-19.89-1.11-40.03,9.22-57.56,9.69-16.44,24.31-29.71,40.49-39.6,18.7-11.43,39.41-18.93,60.08-25.94,19.31-6.54,38.59-13.09,57.52-20.67,73.09-29.27,143.27-72.13,187.74-138.79,20.66-30.98,35.21-66.27,39.88-103.33,4.88-38.75-2.3-78.56-20.71-113.04-4.58-8.58-9.86-16.74-15.76-24.47-1.16-1.51-3.76-.02-2.59,1.51,24.34,31.86,37.65,71.78,37.63,111.85-.02,38.27-11.83,75.93-30.61,109.05-39.41,69.52-107.13,115.9-179.08,147.12-18.78,8.15-37.95,15.36-57.32,21.97s-39.24,12.81-58.01,21.43c-32.01,14.69-63.5,39.51-71.58,75.6-8.62,38.51,13.97,75.08,36.73,104.09,23.79,30.32,52.38,60.99,56.45,101.14,3.62,35.77-11.46,71.33-34.74,97.92-25.89,29.57-62.25,47.15-99.94,56.46-9.56,2.36-19.23,4.21-28.97,5.69-1.9.29-1.09,3.18.8,2.89h0Z"/>
</svg>