<?xml version="1.0" encoding="UTF-8"?>
<svg id="_レイヤー_1" data-name="レイヤー_1" xmlns="http://www.w3.org/2000/svg" viewBox="0 0 376.12 43.49">
  <defs>
    <style>
      .cls-1 {
        fill: #c33f4e;
      }
    </style>
  </defs>
  <g>
    <path class="cls-1" d="M83.52,30.43c1.22-.65,2.57-1.48,4.04-2.48.51-.37.77-.88.77-1.51l-.04-5.39c-.05-.72-.37-1.08-.98-1.08-.16,0-.29.01-.39.04-.65.09-1.12.14-1.4.14-.91,0-1.71-.26-2.42-.77-.7-.51-1.12-1.13-1.26-1.86-.02-.09-.04-.23-.04-.42,0-.23.05-.44.14-.61.09-.17.2-.26.31-.26.19,0,.35.25.49.74.12.4.43.72.95.98.51.26,1.1.39,1.75.39.51,0,1.12-.12,1.82-.35.63-.23.95-.71.95-1.43v-.63c0-1.59-.03-2.75-.09-3.5s-.16-1.25-.3-1.52c-.14-.27-.36-.44-.67-.51-.47-.14-.7-.33-.7-.56,0-.12.08-.2.23-.24s.37-.06.65-.04c1.05.12,1.78.32,2.2.61.42.29.64.71.67,1.24.02.42.06.74.1.95s.16.42.35.63c.4.42.83.77,1.29,1.05.26.14.54.22.84.23.3.01.54.03.7.05.44.02.81.17,1.1.44.29.27.44.58.44.93,0,.3-.13.58-.38.84-.72.77-1.96,1.54-3.71,2.31-.63.28-.95.75-.95,1.4v5.11c0,.14.03.25.09.33.06.08.13.12.23.12.12,0,.22-.03.31-.1,2.82-1.98,5.55-2.97,8.19-2.97,1.52,0,2.83.31,3.95.94,1.12.63,1.97,1.46,2.56,2.5.58,1.04.88,2.15.88,3.34,0,.54-.07,1.09-.21,1.65-.7,2.85-2.62,4.58-5.77,5.21-.37.07-.75.11-1.12.11-1.07,0-2.12-.24-3.15-.72-1.03-.48-1.79-1.02-2.27-1.63-.19-.26-.28-.46-.28-.59,0-.19.09-.28.28-.28.21,0,.42.11.63.32.93.96,2.11,1.43,3.54,1.43.33,0,.79-.05,1.4-.14.68-.12,1.36-.39,2.05-.82.69-.43,1.26-1.02,1.71-1.75.46-.74.68-1.59.68-2.57s-.22-1.9-.65-2.75c-.43-.85-1.08-1.54-1.94-2.08-.86-.54-1.9-.81-3.12-.81-1.94,0-4.34,1.02-7.21,3.04-.51.35-.77.85-.77,1.5v3.33c0,1.05-.04,1.84-.12,2.38-.08.54-.26,1.03-.54,1.47-.21.35-.46.61-.73.79s-.55.26-.81.26c-.4,0-.63-.16-.7-.49-.16-.65-.41-1.28-.75-1.89-.34-.61-.68-1.08-1.03-1.44-.35-.35-.62-.49-.81-.42-.07.05-.22.18-.45.4-.23.22-.46.4-.67.53-.21.13-.44.19-.7.19-.12,0-.21-.01-.28-.04-.54-.14-1.07-.36-1.61-.67-.54-.3-.8-.58-.8-.84,0-.21.23-.38.7-.52.65-.16,1.59-.57,2.82-1.23ZM85.99,30.92c-.28.21-.42.42-.42.63,0,.19.13.37.38.56.21.12.47.33.77.63.26.26.47.38.63.38.54,0,.85-1.04.94-3.12,0-.23-.1-.35-.31-.35-.28,0-.64.16-1.08.49l-.91.77ZM90.05,15.73c0,.3.1.46.31.46.09,0,.21-.04.35-.1l.67-.49c.14-.14.21-.27.21-.38,0-.09-.05-.21-.14-.35-.14-.19-.38-.46-.73-.8-.14-.14-.26-.21-.35-.21-.19,0-.28.14-.28.42l-.04,1.47ZM99.52,14c-.13-.13-.19-.25-.19-.37,0-.21.18-.32.52-.32.16,0,.29.01.39.04.77.16,1.41.32,1.92.46.51.14,1.1.4,1.77.77s1.27.88,1.8,1.5c.47.56.7,1.13.7,1.71,0,.21-.04.38-.1.53-.3.56-.7.84-1.19.84-.14,0-.44-.05-.91-.14-.7-.16-1.27-.25-1.71-.25-.65,0-1.33.13-2.03.39-.05.02-.13.04-.25.04s-.21-.04-.28-.11c-.07-.07-.1-.16-.1-.28,0-.21.14-.35.42-.42,1.68-.42,2.52-.96,2.52-1.61,0-.42-.23-.86-.68-1.33s-1.15-.85-2.08-1.16c-.21-.07-.38-.17-.51-.3Z"/>
    <path class="cls-1" d="M116.06,37.36c0,.42-.16.76-.47,1.03-.31.27-.65.4-1,.4-.23,0-.43-.08-.58-.23-.15-.15-.22-.37-.19-.65V7.19c0-.26.17-.38.52-.38.23,0,.47.06.72.17.25.12.45.27.61.46.21.23.38.4.52.49.14.09.31.14.52.14h5.5c.21,0,.41-.05.61-.16.2-.1.38-.23.54-.37.14-.12.29-.23.46-.33.16-.1.33-.16.49-.16.37,0,.75.12,1.14.35.39.23.71.5.98.81.27.3.4.55.4.73,0,.16-.04.29-.1.37-.07.08-.18.18-.32.3-.19.14-.33.29-.44.46-.1.16-.16.41-.16.74v7.25c0,.44-.16.79-.49,1.05s-.69.38-1.08.38c-.21,0-.39-.06-.54-.19-.15-.13-.23-.31-.23-.54,0-.4-.1-.67-.3-.81-.2-.14-.51-.21-.93-.21h-5.32c-.58,0-.88.29-.88.88v18.76ZM116.06,11.5c0,.58.29.88.88.88h5.77c.58,0,.88-.29.88-.88v-1.26c0-.4-.1-.7-.31-.91s-.51-.32-.91-.32h-5.43c-.58,0-.88.29-.88.88v1.61ZM116.06,15.87c0,.58.29.88.88.88l5.43.04c.4,0,.7-.11.91-.33s.31-.52.31-.89v-1.29c0-.58-.29-.88-.88-.88l-5.77-.04c-.58,0-.88.29-.88.88v1.65ZM131.63,33.18c-.21-.25-.51-.37-.91-.37h-5.08c-.4,0-.7.09-.91.26s-.31.43-.31.75c0,.42-.16.76-.49,1.03-.33.27-.68.4-1.05.4-.47,0-.7-.27-.7-.8v-12.46c0-.26.18-.39.52-.39.42,0,.76.06,1.03.18.27.12.54.27.82.46.28.19.48.28.6.28h5.53c.21,0,.41-.05.61-.16.2-.1.38-.23.54-.37.14-.12.29-.23.46-.33.16-.1.33-.16.49-.16.37,0,.75.12,1.14.35.38.23.71.5.98.81.27.3.4.55.4.73,0,.16-.04.29-.1.37s-.17.18-.31.3c-.19.14-.33.29-.44.46-.1.16-.16.41-.16.74v8.58c0,.44-.16.79-.49,1.05-.33.26-.69.38-1.08.38-.33,0-.54-.1-.63-.3-.09-.2-.14-.46-.14-.79,0-.42-.1-.75-.31-1ZM124.42,30.61c0,.37.11.67.33.89.22.22.52.33.89.33l5.18.04c.4,0,.7-.11.91-.33s.31-.52.31-.89v-5.95c0-.4-.1-.7-.31-.91s-.51-.32-.91-.32h-5.18c-.37,0-.67.11-.89.32-.22.21-.33.51-.33.91v5.92ZM131.53,17.06c.02-.23.03-.56.03-.98V7.19c0-.26.18-.38.53-.38.23,0,.47.06.72.17.25.12.45.27.61.46.21.23.39.4.53.49.14.09.31.14.52.14h5.5c.21,0,.41-.05.61-.16.2-.1.38-.23.54-.37.14-.12.29-.23.46-.33.16-.1.33-.16.49-.16.37,0,.75.12,1.14.35.38.23.71.5.98.81.27.3.4.55.4.73,0,.16-.03.29-.1.37-.07.08-.17.18-.31.3-.19.14-.33.29-.44.46-.1.16-.16.41-.16.74l-.1,22.82v2.42c0,.93-.33,1.62-1,2.06s-1.42.67-2.26.67c-.26,0-.43-.06-.51-.17-.08-.12-.16-.32-.23-.59-.09-.35-.22-.64-.38-.86-.16-.22-.46-.4-.88-.54l-2.24-.7c-.19-.05-.33-.13-.44-.25-.1-.12-.16-.25-.16-.38s.05-.26.16-.35c.1-.09.25-.14.44-.14.07,0,.2.02.39.07l.73.17c.65.19,1.41.36,2.27.53.07.02.19.04.35.04.49,0,.86-.18,1.12-.54.26-.36.38-.83.38-1.42v-14.88c0-.4-.1-.67-.3-.81-.2-.14-.51-.21-.93-.21h-5.39c-.19,0-.33.05-.42.14-.09.09-.2.22-.31.38s-.22.31-.31.46c-.14.21-.33.37-.56.47-.23.1-.46.16-.67.16-.23,0-.43-.07-.59-.21-.16-.14-.25-.34-.25-.59l.04-1.47ZM134.68,9.08c-.58,0-.88.29-.88.88v1.54c0,.58.29.88.88.88h5.77c.58,0,.88-.29.88-.88v-1.26c0-.4-.1-.7-.31-.91s-.51-.32-.91-.32l-5.42.07ZM133.8,15.87c0,.58.29.88.88.88l5.42.04c.4,0,.7-.11.91-.33s.31-.52.31-.89v-1.29c0-.58-.29-.88-.88-.88l-5.77-.04c-.58,0-.88.29-.88.88v1.65Z"/>
    <path class="cls-1" d="M156.87,35.86c-.89-.35-1.7-.84-2.45-1.47-1.19-1.03-2.13-2.33-2.82-3.9-.69-1.58-1.03-3.56-1.03-5.97,0-2.57.44-5.66,1.33-9.27.02-.07.04-.19.04-.35,0-.3-.09-.58-.26-.82-.18-.25-.37-.44-.58-.58-.21-.21-.31-.39-.31-.53,0-.12.05-.2.14-.26.09-.06.2-.08.32-.05.16.05.51.22,1.03.51.52.29.87.53,1.03.72.79.86,1.19,1.66,1.19,2.38,0,.35-.1.71-.31,1.08-.47.91-.85,2.08-1.16,3.5-.3,1.42-.46,2.8-.46,4.13,0,1.07.1,2,.32,2.76.4,1.47.96,2.59,1.68,3.36.72.77,1.46,1.16,2.21,1.16.4,0,.75-.11,1.07-.33.31-.22.55-.53.72-.93.77-1.87,1.45-3.35,2.03-4.46.58-1.11,1.21-2.07,1.89-2.89.26-.28.5-.42.73-.42.26,0,.39.15.39.46,0,.16-.05.33-.14.49-.82,1.31-1.51,2.64-2.08,4.01-.57,1.37-.86,2.57-.86,3.62,0,.82.17,1.46.52,1.92.23.33.35.64.35.95,0,.35-.14.65-.42.91-.28.26-.6.46-.96.59s-.65.21-.86.21c-.63,0-1.39-.17-2.27-.53ZM174.79,25.6c0-1.68-.32-3.11-.96-4.29-.64-1.18-1.67-1.86-3.1-2.05-.14-.02-.26-.08-.35-.16-.09-.08-.14-.18-.14-.3,0-.14.08-.25.23-.33.15-.08.36-.11.61-.09,1.61.16,2.93.72,3.97,1.68,1.04.96,1.79,2.08,2.26,3.38s.7,2.53.7,3.69c0,.86-.2,1.52-.61,1.98s-.88.68-1.42.68c-.47,0-.85-.15-1.14-.46-.29-.3-.39-.69-.3-1.16.16-.93.25-1.8.25-2.59Z"/>
    <path class="cls-1" d="M182.42,24.41c-.14,0-.26-.04-.35-.11-.09-.07-.14-.15-.14-.25,0-.26.19-.47.56-.63,1.54-.68,3.19-1.69,4.95-3.04,1.76-1.35,3.48-3.08,5.14-5.18,1.67-2.1,3.05-4.48,4.15-7.14.42-.82.97-1.22,1.65-1.22.21,0,.45.06.73.17.56.23.84.59.84,1.08,0,.07-.02.14-.07.21-.05.07-.12.11-.21.11-.12,0-.21.05-.28.14-.07.09-.1.22-.1.38s.05.33.14.49c2.52,3.71,5.22,6.64,8.1,8.8,2.88,2.16,5.52,3.63,7.93,4.43.3.09.46.22.46.38,0,.12-.07.21-.21.28-.14.07-.29.09-.46.07-.07-.02-.2-.04-.38-.04-.33,0-.62.07-.89.19-.27.13-.45.32-.54.58-.12.28-.27.42-.46.42-.07,0-.13-.01-.19-.04-.06-.02-.11-.04-.16-.04-5.32-2.78-9.93-7.23-13.82-13.37-.09-.16-.28-.24-.56-.24-.3,0-.56.12-.77.35-1.26,1.98-2.75,3.86-4.46,5.63-1.72,1.77-3.46,3.31-5.23,4.6s-3.42,2.26-4.93,2.89c-.12.05-.26.07-.42.07ZM202.51,36.75c-.21-.25-.51-.37-.91-.37h-7.38c-.4,0-.7.09-.91.26s-.31.42-.31.75c0,.42-.16.76-.49,1.03-.33.27-.68.4-1.05.4-.47,0-.7-.27-.7-.81v-12.11c0-.26.18-.38.52-.38.42,0,.76.06,1.03.17.27.12.54.27.82.46.28.19.48.28.59.28h7.84c.21,0,.41-.05.61-.16.2-.1.38-.23.54-.37.14-.12.29-.23.46-.33.16-.1.33-.16.49-.16.37,0,.75.12,1.14.35.38.23.71.5.98.81.27.3.4.55.4.73,0,.16-.04.29-.1.37s-.17.18-.31.3c-.19.14-.33.29-.44.46-.1.16-.16.41-.16.74v8.22c0,.44-.16.79-.49,1.05-.33.26-.69.38-1.08.38-.33,0-.54-.1-.63-.3-.09-.2-.14-.46-.14-.79,0-.42-.1-.75-.31-1ZM192.43,22.87l-.84.07c-.23.02-.41-.04-.54-.19-.13-.15-.19-.32-.19-.51,0-.21.06-.39.19-.53.13-.14.31-.2.54-.17l.84.07c1.47.09,2.6.14,3.4.14h3.71c.47,0,.86-.1,1.17-.3s.65-.47,1-.82c.51-.51,1.04-.77,1.58-.77.3,0,.61.09.91.28.35.23.68.51.98.84.26.3.39.6.39.88,0,.26-.1.47-.31.63-.21.16-.51.25-.91.25l-4.79.04-3.71-.04c-.93,0-2.06.05-3.4.14ZM192.99,34.18c0,.37.11.67.33.89.22.22.52.33.89.33l7.49.04c.4,0,.7-.11.91-.33s.31-.52.31-.89v-5.6c0-.4-.1-.7-.31-.91s-.51-.32-.91-.32h-7.49c-.37,0-.67.11-.89.32-.22.21-.33.51-.33.91v5.57Z"/>
    <path class="cls-1" d="M227.86,36.85c-.31-.34-.58-.81-.79-1.4s-.31-1.16-.31-1.7l.07-1.37c0-.42-.09-.78-.28-1.08.02.02-.27-.4-.88-1.26-.19-.26-.39-.38-.6-.38-.23,0-.44.17-.63.52l-.59,1.29c-.54,1.19-.93,1.99-1.19,2.4-.26.41-.55.61-.88.61-.42,0-.73-.2-.94-.61-.21-.41-.31-.89-.31-1.45,0-.61.1-1.1.31-1.47.14-.28.48-.7,1.02-1.26.61-.68,1.06-1.2,1.36-1.58.16-.19.25-.4.25-.63s-.08-.44-.25-.63c-.61-.84-1.08-1.59-1.44-2.24-.35-.65-.54-1.26-.56-1.82-.05-1.12.1-2.04.45-2.76.35-.72.89-1.32,1.61-1.79.72-.47,1.71-.93,2.97-1.4.68-.23,1.03-.69,1.05-1.37,0-.19.02-.51.07-.98.07-1.17-.08-2.08-.44-2.73-.36-.65-.73-1.15-1.12-1.49-.38-.34-.64-.57-.75-.68-.14-.14-.21-.28-.21-.42,0-.23.19-.35.56-.35.47,0,1.08.17,1.84.52.76.35,1.41.81,1.94,1.38.54.57.76,1.18.67,1.84-.05.3-.09.78-.14,1.43l-.18,1.47-.03.28c0,.47.23.84.7,1.12.21.14.42.34.63.59.14.16.21.33.21.49s-.06.31-.19.44c-.13.13-.37.32-.72.58l-.35.35c-.19.26-.28.44-.28.56s.06.18.17.18c.16,0,.4-.12.7-.35,2.4-1.98,4.98-2.97,7.73-2.97,1.4,0,2.71.26,3.92.79,1.21.53,2.22,1.25,3.01,2.19.72.84,1.27,1.77,1.63,2.78.36,1.02.54,2.07.54,3.17s-.21,2.26-.63,3.36c-.54,1.42-1.49,2.67-2.85,3.74-1.37,1.07-2.85,1.9-4.46,2.47-1.61.57-3.04.87-4.3.89h-.07c-.26,0-.46-.05-.61-.14-.15-.09-.23-.2-.23-.32,0-.14.08-.26.23-.35.15-.09.36-.14.61-.14,1.82-.05,3.55-.59,5.2-1.63s2.82-2.32,3.52-3.83c.68-1.38,1.01-2.79,1.01-4.23s-.3-2.64-.91-3.8c-.61-1.16-1.44-2.07-2.5-2.75-1.06-.68-2.27-1.02-3.62-1.02-1.61,0-3.04.38-4.31,1.14-1.26.76-2.5,1.83-3.71,3.2-.21.23-.36.47-.44.7-.08.23-.12.51-.12.84v4.45c0,2.36.07,4.09.21,5.21.09.63.14,1.23.14,1.79,0,1.05-.2,1.68-.6,1.89-.3.14-.61.04-.93-.3ZM224.14,26.2c.23,0,.44-.15.63-.46.82-1.45,1.53-3.17,2.14-5.18.19-.61.28-1.07.28-1.4,0-.12-.05-.21-.14-.28s-.21-.11-.35-.11c-.12,0-.31.05-.6.14-1.1.37-1.98.9-2.64,1.58s-1,1.47-1,2.38.35,1.9,1.05,2.9c.19.28.4.42.63.42ZM226.85,26.37c-.06-.09-.12-.14-.19-.14-.12,0-.23.09-.35.28l-.56.98c-.07.09-.1.2-.1.31s.08.26.25.42c.23.16.36.26.38.28.14.14.27.21.39.21.16,0,.25-.11.25-.32.02-.16.03-.42.03-.77v-.91c0-.14-.03-.26-.09-.35Z"/>
    <path class="cls-1" d="M252.52,20.21c.23,0,.46.15.67.46.42.54,1.39.8,2.91.8,1.07,0,2.44-.12,4.09-.35.79-.12,1.19-.53,1.19-1.23,0-2.1-.14-3.87-.42-5.32-.09-.56-.28-.98-.56-1.26-.28-.28-.65-.49-1.12-.63-.14-.02-.26-.09-.35-.19-.09-.1-.14-.21-.14-.33,0-.3.28-.46.84-.46.68,0,1.35.12,2.01.35.67.23,1.15.49,1.45.77.28.26.48.53.59.82s.18.66.18,1.1-.04.98-.1,1.61c-.12,1.35-.19,2.3-.21,2.84-.02.44.08.78.31,1,.23.22.56.3.98.23,3.45-.56,5.96-.99,7.52-1.29.72-.14,1.08-.58,1.08-1.33-.02-1.07-.07-2.16-.14-3.27-.07-1.11-.16-2-.28-2.68-.09-.47-.3-.86-.61-1.17-.32-.31-.65-.51-1-.58-.37-.09-.56-.25-.56-.46,0-.12.07-.22.21-.31.14-.09.33-.14.56-.14.63,0,1.35.15,2.15.44.81.29,1.39.64,1.77,1.03.35.37.52.8.52,1.29,0,.19-.05.58-.14,1.19-.14.54-.22,1.05-.24,1.54l-.21,2.24c-.02.37.04.66.19.86.15.2.38.3.68.3.23,0,.41-.02.52-.07.75-.21,1.34-.41,1.78-.59s.93-.43,1.47-.74c.4-.21.85-.32,1.37-.32.61,0,1.21.13,1.8.39s1.07.58,1.42.98c.3.33.46.65.46.98,0,.23-.1.42-.3.56-.2.14-.47.21-.82.21-.23,0-.41-.01-.52-.04-.14-.02-.39-.03-.73-.03-1.07,0-3.19.23-6.33.7-.77.09-1.16.54-1.16,1.33v1.65c0,1.59-.08,2.9-.25,3.96-.16,1.05-.49,2.01-.98,2.87-.44.77-1.05,1.15-1.82,1.15-.35,0-.67-.09-.94-.26-.28-.17-.44-.38-.49-.61-.09-.61-.38-1.11-.88-1.52-.49-.41-1.26-.92-2.31-1.52-.42-.23-.73-.42-.94-.56-.3-.21-.46-.43-.46-.67,0-.12.04-.22.12-.32.08-.09.19-.14.33-.14s.29.05.46.14c.93.51,1.69.89,2.27,1.12.58.23,1.07.35,1.47.35.56,0,1.07-.23,1.54-.7.21-.21.4-.68.56-1.42.16-.73.29-1.71.39-2.92.02-.44-.08-.78-.3-1s-.55-.3-1-.23c-2.29.35-4.81.82-7.56,1.4-.72.16-1.1.61-1.12,1.33,0,2.12.04,3.9.1,5.32.09,2.12.64,3.65,1.63,4.58.99.93,2.41,1.4,4.25,1.4,1.45,0,3.52-.34,6.23-1.01.28-.07.54-.11.77-.11.68,0,1.24.21,1.68.61.44.41.67.83.67,1.28,0,.14-.04.28-.1.42-.35.63-2.32.94-5.92.94h-1.12c-2.24-.02-4.08-.27-5.51-.75-1.43-.48-2.54-1.29-3.31-2.43s-1.18-2.72-1.23-4.73c-.02-.33-.04-1.1-.04-2.31l-.03-2.38c-.05-.72-.37-1.08-.98-1.08-.09,0-.26.02-.49.07-1.8.49-3.09.74-3.88.74-.63,0-1.23-.14-1.79-.42-.84-.42-1.42-.92-1.73-1.5s-.47-1.07-.47-1.47c0-.33.13-.49.38-.49Z"/>
  </g>
  <path class="cls-1" d="M82.84,16.98c-1.14-6.43-5.53-12.16-11.39-15.01s-13.63-2.5-19.49.96c-3.09,1.82-5.43,4.45-7.44,7.39s-3.85,6.33-6.31,9.1c-4.8,5.4-12,7.9-19.08,8.3-3.16.18-6.37-.03-9.54-.13-2.2-.07-4.25-.55-6.35-1.21-.88-.28-1.75-.57-2.62-.86-.61-.21-.87.76-.27.96,2.44.82,4.92,1.73,7.49,2s5.32.19,7.96.28c6.84.22,14.06-1.34,19.63-5.47,2.86-2.12,5-4.87,6.94-7.83s3.82-6.27,6.44-8.85C53.68,1.77,61.19-.15,67.8,1.65s11.56,6.95,13.5,13.21c.24.78.43,1.58.57,2.38.11.63,1.08.36.96-.27h0Z"/>
  <path class="cls-1" d="M100.36,19.13c2.98-1.22,5.07-3.85,6.76-6.49.94-1.47,1.77-3.01,2.56-4.56.38-.75.75-1.51,1.13-2.27.33-.65.8-1.61,1.6-1.76,1.08-.21,1.51,1.06,1.46,1.89-.05.74-.2,1.57.35,2.16.44.47,1.14-.24.71-.71-.21-.22-.12-.69-.1-.97.03-.39.08-.78.04-1.17-.08-.74-.53-1.48-1.15-1.89-1.63-1.06-3.03.52-3.72,1.86-1.68,3.24-3.21,6.61-5.55,9.45-1.18,1.43-2.59,2.77-4.34,3.49-.59.24-.33,1.21.27.96h0Z"/>
  <path class="cls-1" d="M175.97,28.76c-1.51-.14-2.58-1.5-3.04-2.85-.58-1.69-.19-3.49.52-5.08,1.32-2.95,3.41-5.67,5.59-8.04,4.31-4.69,9.78-8.31,15.81-10.38,1.49-.51,4.23-1.71,4.96.43.27.79.04,1.58-.05,2.38-.09.85-.13,1.75-.62,2.49-.36.54.51,1.04.86.5.47-.7.59-1.53.69-2.35s.31-1.63.24-2.42c-.14-1.7-1.36-2.95-3.12-2.83-.95.06-1.88.39-2.78.68s-1.77.62-2.63.97c-1.68.69-3.31,1.5-4.88,2.41-3.15,1.84-6.06,4.13-8.59,6.76s-5,5.75-6.45,9.14c-.81,1.9-1.16,4.02-.36,5.98.67,1.65,2.02,3.02,3.86,3.2.64.06.64-.94,0-1h0Z"/>
  <path class="cls-1" d="M214.06,23.2c1.45.73,2.79-.28,3.66-1.41.48-.62.85-1.29,1.02-2.06.2-.92.16-1.86.34-2.78.21-1.14,1.93-1.49,2.77-2.07,1.05-.73,1.17-1.9,1.41-3.08.12-.59.22-1.26.54-1.77.37-.58.92-.43,1.48-.2.59.25.85-.72.27-.96-1.04-.43-2.09-.29-2.67.75s-.61,2.29-.92,3.4c-.16.6-.42.89-.96,1.21s-1.12.56-1.66.89c-.45.28-.9.62-1.11,1.12-.31.71-.26,1.61-.33,2.37-.11,1.04-.42,1.91-1.09,2.72-.52.63-1.37,1.44-2.25,1.01-.57-.29-1.08.57-.5.86h0Z"/>
  <path class="cls-1" d="M234.88,35.23c-.99-1.86-.49-4.4.74-6.04,1.16-1.53,2.94-2.08,4.62-2.82s2.9-1.79,3.48-3.58c.3-.93.43-1.94.91-2.8.45-.82,1.23-1.4,2.13-1.65,2.31-.64,4.32,1.27,5.58,2.98.38.51,1.25.01.86-.5-1.23-1.68-2.93-3.37-5.11-3.59-2.03-.2-3.88,1.06-4.62,2.91-.42,1.06-.52,2.25-1.07,3.27-.51.94-1.4,1.51-2.34,1.96-1.89.89-3.85,1.44-5.18,3.17-1.52,1.97-2.05,4.95-.86,7.2.3.57,1.17.06.86-.5h0Z"/>
  <path class="cls-1" d="M269.93,36.78c3.79-.75,7.75-.25,11.59-.35,3.45-.09,7.48-.49,9.98-3.17.68-.73,1.13-1.6,1.64-2.45.68-1.13,1.41-2.23,2.25-3.25,1.48-1.79,3.27-3.38,5.71-3.35,2.3.02,4.54,1.09,6.38,2.42.92.66,1.77,1.44,2.49,2.33.58.72,1.07,1.42,1.81,2,2.99,2.38,7.79,3.61,11.21,1.44,3.17-2.01,5.9-4.67,9.28-6.34.72-.35,1.49-.67,2.28-.79s1.5.11,2.2.44c1.66.78,2.62,2.28,3.48,3.84,1.08,1.95,2.08,3.96,3.47,5.72,1.23,1.54,2.74,2.85,4.4,3.91,3.5,2.23,7.61,3.35,11.69,3.9s8.61.52,12.89.11c1.03-.1,2.05-.22,3.08-.37.63-.09.36-1.05-.27-.96-4.28.59-8.64.82-12.95.51s-8.45-1.14-12.21-3.07c-1.75-.9-3.38-2.03-4.77-3.44-1.59-1.61-2.71-3.56-3.78-5.54-.87-1.61-1.7-3.38-3.14-4.57-1.24-1.02-2.85-1.7-4.47-1.41-1.7.3-3.29,1.27-4.71,2.2-1.66,1.08-3.23,2.29-4.81,3.47-1.38,1.03-2.76,2.17-4.51,2.44-2.14.33-4.44-.3-6.32-1.32-.83-.46-1.63-1.01-2.26-1.72-.67-.75-1.2-1.58-1.94-2.28-1.62-1.55-3.61-2.78-5.76-3.44-1.96-.61-4.14-.7-5.97.33-2.13,1.19-3.71,3.32-5.01,5.33-.61.94-1.08,1.99-1.78,2.87-.53.66-1.18,1.2-1.91,1.62-1.56.91-3.4,1.28-5.18,1.46-3.91.4-7.84-.06-11.75.21-.87.06-1.74.16-2.59.33-.63.13-.36,1.09.27.96h0Z"/>
  <path class="cls-1" d="M152.34,13.2c-1.61-1.22-3.6-1.74-5.27-2.85-.42-.28-.84-.56-1.26-.85s-.82-.67-1.25-.97c-.77-.54-1.74-.55-2.64-.51-.64.03-.64,1.03,0,1,.43-.02.87-.04,1.3.04.5.09.81.33,1.19.64.76.62,1.6,1.19,2.44,1.7,1.61.99,3.47,1.51,4.99,2.67.51.39,1.01-.48.5-.86h0Z"/>
</svg>