<?xml version="1.0" encoding="UTF-8"?>
<svg id="_レイヤー_1" data-name="レイヤー_1" xmlns="http://www.w3.org/2000/svg" viewBox="0 0 179.75 675.19">
  <defs>
    <style>
      .cls-1 {
        fill: #c33f4e;
      }
    </style>
  </defs>
  <path class="cls-1" d="M97.99,175.33c1.42-2.71,3.42-5.09,5.98-7.14,2.57-2.05,5.51-3.62,8.82-4.69.98-.28,1.47-.93,1.47-1.96v-4.55c.09-1.54-.7-2.36-2.38-2.45-3.17-.23-5.65-.89-7.42-1.96-.84-.51-1.26-1.03-1.26-1.54,0-.19.09-.35.28-.49.19-.14.42-.21.7-.21.33,0,.72.12,1.19.35,1.03.51,2.14.92,3.32,1.23,1.19.3,2.32.46,3.4.46.75,0,1.32-.21,1.71-.63.4-.42.62-1.03.67-1.82l.28-6.65c.05-.79-.06-1.5-.31-2.13-.26-.63-.57-1.11-.95-1.43-.28-.28-.42-.54-.42-.77,0-.47.37-.7,1.12-.7.56,0,1.25.19,2.07.56.82.37,1.52.88,2.1,1.5.58.63.88,1.29.88,2,0,.37-.05.65-.14.84-.42.93-.75,2.71-.98,5.32-.09.7,0,1.27.28,1.71.28.44.7.67,1.26.67.42,0,.82-.12,1.19-.35,1.35-.75,2.73-1.82,4.13-3.22,1.17-1.17,2.24-1.63,3.22-1.4.98.19,1.77.55,2.38,1.08.61.54.91,1.11.91,1.72,0,.51-.55,1.14-1.65,1.89-1.1.75-2.54,1.45-4.34,2.1-1.8.65-3.65,1.14-5.57,1.47-1.54.28-2.33,1.17-2.38,2.66,0,1.63-.02,2.82-.07,3.57,0,.61.16,1.05.49,1.33.33.28.79.37,1.4.28.56-.09,1-.14,1.33-.14.61-.09,1.05-.28,1.33-.56s.35-.65.21-1.12c-.23-.61-.47-1.03-.7-1.26-.23-.23-.35-.47-.35-.7,0-.19.09-.31.28-.38.19-.07.42-.06.7.04.51.19,1.14.51,1.89.98.75.47,1.38,1.05,1.89,1.75.33.42.64.74.95.95.3.21.69.36,1.16.46,3.31.51,6.26,1.59,8.85,3.22,2.59,1.63,4.61,3.67,6.05,6.12,1.45,2.45,2.17,5.1,2.17,7.95,0,3.22-1.03,6.25-3.08,9.1-2.05,2.85-4.86,5.08-8.44,6.69-3.57,1.61-7.55,2.3-11.94,2.06-.75-.05-1.33-.16-1.75-.35-.42-.19-.63-.42-.63-.7s.2-.53.59-.74c.4-.21.95-.29,1.65-.25,3.64.09,6.85-.59,9.62-2.06,2.78-1.47,4.92-3.45,6.44-5.95,1.52-2.5,2.28-5.12,2.28-7.88,0-3.41-.98-6.41-2.94-9-1.96-2.59-4.74-4.42-8.33-5.5-.14-.05-.33-.07-.56-.07-.79,0-1.31.47-1.54,1.4-.98,3.55-3.03,8-6.16,13.37-.37.75-.56,1.4-.56,1.96,0,.37.07.82.21,1.33.42,1.45.63,2.4.63,2.87,0,1.03-.25,1.96-.74,2.8s-1.01,1.26-1.57,1.26-1.05-.33-1.47-.98c-.47-.89-.96-1.33-1.47-1.33-.37,0-.82.26-1.33.77-2.05,2.15-4.08,3.72-6.09,4.73-2.01,1-3.76,1.5-5.25,1.5-1.4,0-2.62-.54-3.68-1.61-1.05-1.07-1.84-2.42-2.38-4.02-.54-1.61-.8-3.21-.8-4.79,0-2.99.71-5.83,2.14-8.54ZM100.9,186.25c.47,1.12,1.03,1.96,1.68,2.52.65.56,1.24.84,1.75.84,1.07,0,2.5-.52,4.27-1.57,1.77-1.05,3.57-2.56,5.39-4.52.47-.47.78-.94.95-1.43.16-.49.2-1.06.1-1.71-.28-2.61-.51-7.09-.7-13.44-.05-.47-.19-.83-.42-1.08-.23-.26-.54-.38-.91-.38-.23,0-.54.07-.91.21-3.59,1.54-6.48,3.79-8.65,6.75-2.17,2.96-3.26,6.17-3.26,9.62,0,1.68.23,3.08.7,4.2ZM117.49,165.81c.05,2.8.26,5.58.63,8.33.09.56.33.84.7.84.33,0,.58-.21.77-.63,1.21-3.13,2.05-6.02,2.52-8.68.05-.14.07-.33.07-.56,0-.42-.14-.75-.42-.98-.28-.23-.65-.35-1.12-.35l-1.54.14c-1.07.09-1.61.72-1.61,1.89Z"/>
  <path class="cls-1" d="M104.19,233.45c0-5.23,1.42-11.6,4.27-19.11.37-.93.56-1.8.56-2.59,0-.84-.33-1.63-.98-2.38-.28-.37-.42-.65-.42-.84,0-.37.21-.65.63-.84s.91-.26,1.47-.21c1.26.19,2.42.72,3.47,1.61,1.05.89,1.57,2.03,1.57,3.43,0,.98-.3,2.05-.91,3.22-.42.79-1,1.73-1.75,2.8-.84,1.26-1.48,2.31-1.93,3.15-.44.84-.69,1.66-.74,2.45v.35c0,.75.19,1.12.56,1.12.33,0,.65-.28.98-.84.84-1.4,2-2.66,3.47-3.78,1.47-1.12,2.93-1.82,4.38-2.1.89-.19,1.84-.28,2.87-.28,2.85,0,5.38.8,7.6,2.42,2.22,1.61,3.94,3.87,5.18,6.79,1.24,2.92,1.85,6.24,1.85,9.97,0,2.61-.3,5.23-.91,7.84-1.03,4.67-3.02,8.61-5.99,11.83-2.96,3.22-6.12,5.65-9.49,7.28-3.36,1.63-6.28,2.61-8.75,2.94l-.7.07c-.56,0-.99-.09-1.29-.28-.3-.19-.46-.42-.46-.7,0-.33.19-.63.56-.91.37-.28.86-.44,1.47-.49,3.64-.37,6.9-1.63,9.77-3.78,2.87-2.15,5.2-4.83,7-8.05,1.8-3.22,2.97-6.65,3.53-10.29.28-1.77.42-3.5.42-5.18,0-3.13-.44-6.03-1.33-8.71-.89-2.68-2.17-4.83-3.85-6.44-1.68-1.61-3.62-2.42-5.81-2.42-.56,0-.98.02-1.26.07-1.54.19-2.97.96-4.3,2.31-1.33,1.35-2.43,2.98-3.29,4.87-.86,1.89-1.36,3.72-1.5,5.5-.05.47-.07,1.05-.07,1.75,0,1.12.09,1.97.28,2.55.19.58.47,1.16.84,1.71.51.65.84,1.38.98,2.17.05.23.07.56.07.98,0,.98-.27,1.76-.8,2.34-.54.58-1.18.88-1.93.88-.93,0-1.68-.42-2.24-1.26-2.05-2.85-3.08-6.49-3.08-10.92Z"/>
  <path class="cls-1" d="M92.22,334.86c-.61,0-1.13-.26-1.57-.77-.44-.51-.67-1.14-.67-1.89,0-.89.35-1.7,1.05-2.45,3.13-2.99,5.97-6.32,8.54-10.01,2.57-3.69,4.55-8.21,5.95-13.58.05-.19.07-.42.07-.7,0-.33-.09-.59-.28-.8-.19-.21-.44-.32-.77-.32-.23,0-.51.07-.84.21-.79.37-1.61.84-2.45,1.4-.65.33-1.28.49-1.89.49-1.07,0-2.18-.36-3.32-1.08-1.14-.72-2.11-1.74-2.91-3.04-.23-.47-.35-.79-.35-.98,0-.42.19-.63.56-.63.42,0,.89.23,1.4.7.65.56,1.7.84,3.15.84,1.63,0,3.85-.35,6.65-1.05,1.35-.33,2.12-1.19,2.31-2.59.42-2.57.72-4.75.91-6.54.19-1.8.28-3.79.28-5.99,0-.98-.15-1.91-.46-2.8-.3-.89-.8-1.4-1.5-1.54-.89-.19-1.33-.49-1.33-.91,0-.23.15-.43.46-.59.3-.16.69-.25,1.16-.25.42,0,.86.07,1.33.21,1.87.56,3.27,1.4,4.2,2.52.93,1.12,1.33,2.33,1.19,3.64-.19,1.59-.47,3.08-.84,4.48-.37,1.4-.58,2.22-.63,2.45-.56,1.87-.93,3.31-1.12,4.34-.14.61-.06,1.06.25,1.36.3.3.78.43,1.43.39.47-.05,1.1-.07,1.89-.07,2.66,0,4.83.49,6.51,1.47,1.77,1.07,3.11,2.75,4.02,5.04.91,2.29,1.36,4.88,1.36,7.77,0,4.06-.79,8-2.38,11.83-1.59,3.83-3.69,6.51-6.3,8.05-1.96,1.17-3.57,1.75-4.83,1.75-1.54,0-2.31-.82-2.31-2.45,0-.79-.32-1.62-.95-2.49-.63-.86-1.72-2.16-3.26-3.88-.37-.37-.56-.77-.56-1.19,0-.19.06-.34.17-.46.12-.12.27-.18.46-.18.47,0,.98.3,1.54.91.93,1.07,1.96,1.95,3.08,2.62,1.12.68,2.17,1.02,3.15,1.02,1.45,0,2.81-.84,4.09-2.52,1.28-1.68,2.3-3.81,3.04-6.41.75-2.59,1.12-5.17,1.12-7.73,0-2.01-.27-3.82-.8-5.42-.54-1.61-1.34-2.83-2.42-3.68-1.17-1.03-2.94-1.54-5.32-1.54-.75,0-1.33.02-1.75.07-.7.05-1.29.47-1.78,1.26-.49.79-.95,2.01-1.36,3.64-1.59,5.74-3.66,10.73-6.23,14.98-2.57,4.25-5.32,8.24-8.26,11.97-.56.75-1.19,1.12-1.89,1.12ZM136.04,320.65c-.42,0-.75-.09-.98-.28-.23-.19-.35-.42-.35-.7,0-.61.4-.98,1.19-1.12,2.1-.28,3.59-.68,4.48-1.19.89-.51,1.49-1.38,1.82-2.59.09-.47.14-.84.14-1.12,0-1.35-.41-2.87-1.23-4.55-.82-1.68-2.08-3.3-3.78-4.87-1.7-1.56-3.86-2.83-6.47-3.81-.47-.19-.82-.4-1.05-.63-.23-.23-.35-.47-.35-.7s.1-.42.32-.56c.21-.14.5-.21.88-.21.33,0,.58.02.77.07,3.13.75,6.02,2.11,8.68,4.09,2.66,1.98,4.77,4.17,6.33,6.55,1.56,2.38,2.34,4.53,2.34,6.44,0,.65-.09,1.24-.28,1.75-.47,1.35-1.12,2.28-1.96,2.76-.84.49-1.87.74-3.08.74-.51,0-1.28-.05-2.31-.14-1.12-.09-2.01-.14-2.66-.14-.89,0-1.54.05-1.96.14l-.49.07ZM144.3,292.65c1.68,1.31,2.52,2.5,2.52,3.57,0,.56-.2,1-.59,1.33-.4.33-.9.49-1.51.49-.89,0-1.66-.35-2.31-1.05-.75-.89-1.14-1.35-1.19-1.4-.93-1.12-1.81-2.04-2.62-2.76-.82-.72-1.99-1.48-3.53-2.28-.7-.37-1.05-.77-1.05-1.19s.33-.63.98-.63c.37,0,.79.07,1.26.21,3.69,1.17,6.37,2.4,8.05,3.71ZM149.16,286.88c1.66,1.19,2.49,2.3,2.49,3.33,0,.51-.2.93-.6,1.26-.4.33-.88.49-1.43.49-.79,0-1.47-.26-2.03-.77-.42-.33-.98-.89-1.68-1.68-.84-.93-1.67-1.71-2.49-2.34-.82-.63-1.93-1.23-3.32-1.79-.79-.33-1.19-.72-1.19-1.19,0-.19.1-.34.31-.46.21-.12.5-.17.88-.17.47,0,.84.05,1.12.14,3.64.93,6.29,2,7.95,3.19Z"/>
  <path class="cls-1" d="M108.35,402.97c-3.94-2.1-5.75-5.88-5.43-11.34.23-4.99,3.8-9.12,10.71-12.39.89-.42,1.33-.98,1.33-1.68,0-.42-.14-.91-.42-1.47-1.12-2.01-1.68-4.64-1.68-7.91,0-2.19.12-4.46.35-6.79.05-.65.09-1.39.14-2.21.05-.82.07-1.69.07-2.62,0-1.49-.14-2.71-.42-3.64-.28-.93-.79-1.63-1.54-2.1-.61-.42-.91-.84-.91-1.26,0-.23.08-.42.24-.56.16-.14.41-.21.74-.21s.7.07,1.12.21c1.96.61,3.38,1.31,4.27,2.1,1.4,1.26,2.1,2.61,2.1,4.06,0,.7-.21,1.84-.63,3.43-.61,2.52-.96,4.64-1.05,6.37l-.07,4.69c0,2.47.16,4.32.49,5.53.28,1.07.96,1.61,2.03,1.61.19,0,.51-.05.98-.14,4.71-1.49,7.79-2.1,9.24-1.82.93.19,1.65.56,2.14,1.12.49.56.74,1.17.74,1.82,0,.79-.35,1.47-1.05,2.03-.7.56-1.68.82-2.94.77-.42-.05-1.12-.07-2.1-.07-3.31,0-6.64.4-9.98,1.19-3.34.79-6.12,2.09-8.36,3.88-2.24,1.8-3.36,4.12-3.36,6.96,0,3.03,1.26,5.32,3.78,6.86s5.69,2.31,9.52,2.31c1.96,0,3.94-.21,5.95-.63,2.01-.42,3.9-1,5.67-1.75.7-.33,1.45-.49,2.24-.49,1.07,0,1.95.34,2.62,1.01.68.68,1.02,1.43,1.02,2.28,0,.65-.23,1.25-.7,1.78-.47.54-1.14.9-2.03,1.08-3.45.75-7.21,1.12-11.27,1.12-5.09,0-9.6-1.05-13.55-3.15Z"/>
  <path class="cls-1" d="M111.43,478.47c-.26-.16-.39-.41-.39-.73,0-.28.13-.56.39-.84.26-.28.62-.44,1.08-.49,7.28-1.31,12.44-4.01,15.47-8.12,3.03-4.11,4.81-8.7,5.32-13.79.14-2.52-.19-5.16-.98-7.91-.79-2.75-2.15-5.1-4.06-7.04-1.91-1.94-4.43-2.9-7.56-2.9-3.78,0-7.51,2.33-11.2,7-.98,1.26-1.94,2.24-2.87,2.94-.93.7-1.98,1.05-3.15,1.05-1.31,0-2.36-.46-3.15-1.36-.79-.91-1.19-2.02-1.19-3.33,0-.47.07-.93.21-1.4.42-1.26.96-1.89,1.61-1.89.23,0,.42.12.56.35.14.23.16.51.07.84-.14.42-.21.79-.21,1.12,0,.65.28.98.84.98.47,0,.91-.13,1.33-.39.42-.26.88-.59,1.36-1.01s.92-.77,1.29-1.05c.28-.19,1.18-.9,2.7-2.13,1.52-1.24,3.29-2.25,5.32-3.04,2.03-.79,4.12-1.19,6.26-1.19,3.64-.09,6.87.72,9.7,2.45,2.82,1.73,5,4.08,6.54,7.07s2.31,6.21,2.31,9.66-1.05,7.23-3.15,10.92c-2.1,3.69-5.16,6.86-9.17,9.52-4.01,2.66-8.73,4.29-14.14,4.9-.51.05-.9-.01-1.16-.18ZM113.22,429.85c-.28,0-.5-.07-.67-.21-.16-.14-.24-.33-.24-.56,0-.33.21-.58.63-.77.79-.37,1.41-.82,1.85-1.33.44-.51.67-1.05.67-1.61,0-.79-.42-1.49-1.26-2.1-.37-.28-.83-.75-1.36-1.4-.54-.65-.97-1.24-1.29-1.75-.33-.51-.49-1-.49-1.47,0-.51.19-.77.56-.77.42,0,.93.33,1.54.98,1.21,1.45,2.64,2.51,4.27,3.18,1.63.68,3.71,1.25,6.23,1.71.89.19,1.59.56,2.1,1.12.51.56.77,1.17.77,1.82,0,.56-.21,1.04-.63,1.43-.42.4-1.03.6-1.82.6-.61,0-1.19-.09-1.75-.28-.84-.23-1.73-.35-2.66-.35-2.15,0-4.08.51-5.81,1.54-.19.14-.4.21-.63.21Z"/>
  <path class="cls-1" d="M105.3,150.05c-9.63-8.54-13.91-22.23-10.36-34.68,1.68-5.88,4.94-11.29,9.35-15.53,4.74-4.54,10.7-7.3,16.91-9.21,12.33-3.8,25.56-5.09,36.23-12.98,9.81-7.25,16.58-18.03,19.91-29.68,4.44-15.49,2.35-32.02-3.17-46.95-.66-1.8-3.56-1.02-2.89.8,5.07,13.72,7.31,28.82,3.75,43.19-2.89,11.67-9.34,22.84-19.11,30.06-10.8,7.98-24.27,9-36.67,13.04-6.16,2.01-12.04,4.88-16.8,9.35s-7.98,9.73-9.95,15.65c-4.57,13.76-.13,29.47,10.68,39.06,1.44,1.28,3.57-.84,2.12-2.12h0Z"/>
  <path class="cls-1" d="M22.13,292.45c-3.27-1.07-5.81-2.68-7.63-4.83-.84-.98-1.49-2.17-1.96-3.57-.47-1.4-.7-2.85-.7-4.34,0-2.66.7-5.04,2.1-7.14.7-.98,1.38-1.47,2.03-1.47.19,0,.35.06.49.18.14.12.21.27.21.45,0,.28-.14.63-.42,1.05-1.17,1.73-1.75,3.57-1.75,5.53,0,1.17.2,2.28.59,3.33.4,1.05.97,1.95,1.72,2.7,1.49,1.49,3.52,2.67,6.09,3.54,2.57.86,5.41,1.29,8.54,1.29,5.18,0,10.08-1.14,14.7-3.43.79-.42,1.7-.63,2.73-.63,1.17,0,2.15.3,2.94.91.79.61,1.19,1.33,1.19,2.17,0,.98-.58,1.77-1.75,2.38-1.96,1.07-4.6,1.93-7.91,2.56-3.31.63-6.88.94-10.71.94s-7.23-.54-10.5-1.61ZM23.74,260.39c-.23,0-.42-.07-.56-.21-.14-.14-.21-.3-.21-.49,0-.42.33-.89.98-1.4.33-.28,1.84-1.24,4.55-2.87,1.21-.75,2.4-1.49,3.57-2.24.79-.56,1.19-1.12,1.19-1.68,0-.7-.56-1.19-1.68-1.47-2.57-.79-4.86-1.56-6.9-2.31-2.03-.75-3.82-1.59-5.35-2.52-.28-.19-.51-.44-.7-.77-.19-.33-.28-.63-.28-.91,0-.51.26-.77.77-.77.33,0,.58.05.77.14,3.45,1.17,6.44,1.94,8.96,2.31,2.52.37,5.09.61,7.7.7,1.96.09,3.49.23,4.58.42,1.1.19,2.14.61,3.11,1.26.65.42,1.13.92,1.44,1.5.3.58.45,1.2.45,1.86,0,.98-.3,1.81-.91,2.48-.61.68-1.33.92-2.17.74-.79-.19-1.73-.28-2.8-.28-2.33,0-4.78.55-7.35,1.65-2.57,1.1-5.34,2.62-8.33,4.58-.23.19-.51.28-.84.28ZM55.27,244.6c1.56,1.38,2.34,2.6,2.34,3.68,0,.56-.19,1-.56,1.33-.37.33-.84.49-1.4.49-.93,0-1.73-.4-2.38-1.19l-1.05-1.4c-.84-1.17-1.66-2.16-2.45-2.97-.79-.82-1.96-1.67-3.5-2.56-.65-.42-.98-.84-.98-1.26,0-.37.3-.56.91-.56.42,0,.89.09,1.4.28,3.55,1.4,6.1,2.79,7.67,4.16ZM60.52,239.18c1.56,1.26,2.34,2.4,2.34,3.43,0,.56-.19,1-.56,1.33-.37.33-.84.49-1.4.49-.79,0-1.49-.3-2.1-.91-.56-.56-1.07-1.14-1.54-1.75-.79-1.03-1.57-1.89-2.34-2.59s-1.85-1.38-3.26-2.03c-.75-.33-1.12-.72-1.12-1.19,0-.42.35-.63,1.05-.63.37,0,.82.07,1.33.21,3.5,1.17,6.03,2.38,7.59,3.64Z"/>
  <path class="cls-1" d="M7.64,318.63c0-.65.19-.98.56-.98.47,0,1.05.51,1.75,1.54,1.35,2.01,3.01,3.49,4.97,4.45,1.96.96,4.81,1.43,8.54,1.43,1.4,0,2.96-.07,4.69-.21,1.73-.14,3.27-.44,4.62-.91,1.07-.28,1.61-.93,1.61-1.96,0-.42-.09-.84-.28-1.26-2.29-5.04-3.71-7.98-4.27-8.82-.7-.93-1.05-1.75-1.05-2.45,0-.93.63-1.4,1.89-1.4,1.17,0,2.12.28,2.87.84.33.28.71.63,1.16,1.05.44.42.88.75,1.29.98,4.29,2.43,7.33,3.64,9.1,3.64.33,0,.56-.02.7-.07.56-.09,1.05-.14,1.47-.14,1.17,0,2.24.21,3.22.63s1.47.98,1.47,1.68c0,.33-.14.68-.42,1.05-.7,1.03-1.88,2.11-3.54,3.25-1.66,1.14-3.6,2.25-5.84,3.33-1.03.51-1.54,1.21-1.54,2.1,0,.42.09.82.28,1.19,1.63,3.45,3.64,7.19,6.02,11.2,1.4,2.33,2.42,4.13,3.05,5.39.63,1.26,1.06,2.36,1.29,3.29.09.47.14.82.14,1.05,0,.89-.29,1.58-.88,2.07-.58.49-1.29.73-2.14.73-.98,0-1.75-.35-2.31-1.05-1.96-2.47-4.64-4.41-8.05-5.81-3.41-1.4-6.88-2.1-10.43-2.1-2.38,0-4.56.35-6.55,1.05-1.98.7-3.58,1.73-4.79,3.08-1.26,1.4-1.89,3.01-1.89,4.83,0,2.29,1.17,4.27,3.5,5.95,1.21.89,2.86,1.58,4.94,2.07,2.08.49,4.28.73,6.61.73,3.5,0,6.42-.49,8.75-1.47.7-.28,1.38-.42,2.03-.42,1.12,0,2.06.36,2.83,1.08.77.72,1.16,1.5,1.16,2.34,0,1.12-.63,1.82-1.89,2.1-2.94.7-6,1.05-9.17,1.05-3.55,0-6.84-.44-9.87-1.33-3.03-.89-5.48-1.98-7.35-3.29-1.54-1.12-2.72-2.4-3.53-3.85-.82-1.45-1.23-2.96-1.23-4.55,0-1.35.34-2.71,1.02-4.06.68-1.35,1.67-2.59,2.97-3.71,3.17-2.71,7.44-4.06,12.81-4.06,2.38,0,4.81.27,7.28.81,2.47.54,4.76,1.22,6.86,2.06l.56.14c.51,0,.77-.33.77-.98s-.26-1.47-.77-2.45c-1.21-2.29-2.89-5.86-5.04-10.71-.42-1.07-1.14-1.61-2.17-1.61-.19,0-.51.05-.98.14-4.01,1.21-7.75,1.96-11.2,2.24-1.21.09-2.1.14-2.66.14-2.8,0-5.19-.64-7.18-1.92-1.98-1.28-3.75-3.65-5.29-7.11-.33-.7-.49-1.38-.49-2.03ZM37.39,313.66c-.37,0-.68.11-.91.32-.23.21-.35.48-.35.8l.14.63,1.05,3.29c.19.51.44.92.77,1.23.33.3.68.46,1.05.46.51,0,1-.21,1.47-.63l1.12-.91c.75-.7,1.12-1.35,1.12-1.96,0-.37-.19-.68-.56-.91l-3.15-1.75c-.75-.37-1.33-.56-1.75-.56ZM58.25,311.42c1.68,1.31,2.52,2.5,2.52,3.57,0,.56-.2,1-.59,1.33-.4.33-.9.49-1.51.49-.89,0-1.66-.35-2.31-1.05-.75-.89-1.14-1.35-1.19-1.4-.93-1.12-1.81-2.04-2.62-2.76-.82-.72-1.99-1.48-3.53-2.28-.7-.37-1.05-.77-1.05-1.19s.33-.63.98-.63c.33,0,.75.07,1.26.21,3.69,1.17,6.37,2.4,8.05,3.71ZM63.11,305.64c1.66,1.19,2.49,2.3,2.49,3.33,0,.51-.2.93-.6,1.26-.4.33-.88.49-1.43.49-.79,0-1.47-.26-2.03-.77-.42-.33-.98-.89-1.68-1.68-.84-.93-1.67-1.71-2.48-2.34-.82-.63-1.93-1.23-3.32-1.79-.79-.33-1.19-.72-1.19-1.19,0-.19.11-.34.32-.45s.5-.18.88-.18c.47,0,.84.05,1.12.14,3.64.93,6.29,2,7.95,3.18Z"/>
  <path class="cls-1" d="M19.19,431.49c-1.77-.7-3.41-1.68-4.9-2.94-2.38-2.05-4.26-4.66-5.64-7.81-1.38-3.15-2.06-7.13-2.06-11.93,0-5.13.89-11.32,2.66-18.55.05-.14.07-.37.07-.7,0-.61-.18-1.16-.53-1.65-.35-.49-.73-.88-1.16-1.15-.42-.42-.63-.77-.63-1.05,0-.23.09-.41.28-.53.19-.12.4-.15.63-.11.33.09,1.02.43,2.06,1.02,1.05.58,1.74,1.06,2.07,1.43,1.59,1.73,2.38,3.31,2.38,4.76,0,.7-.21,1.42-.63,2.17-.93,1.82-1.7,4.15-2.31,7-.61,2.85-.91,5.6-.91,8.26,0,2.15.21,3.99.63,5.53.79,2.94,1.91,5.18,3.36,6.72,1.45,1.54,2.92,2.31,4.41,2.31.79,0,1.5-.22,2.14-.67.63-.44,1.11-1.06,1.44-1.85,1.54-3.73,2.89-6.71,4.06-8.92,1.17-2.22,2.43-4.14,3.78-5.78.51-.56,1-.84,1.47-.84.51,0,.77.3.77.91,0,.33-.09.65-.28.98-1.63,2.61-3.02,5.29-4.17,8.01-1.14,2.73-1.72,5.15-1.72,7.25,0,1.63.35,2.92,1.05,3.85.47.65.7,1.28.7,1.89,0,.7-.28,1.31-.84,1.82-.56.51-1.2.91-1.92,1.19-.72.28-1.3.42-1.72.42-1.26,0-2.78-.35-4.55-1.05ZM55.03,410.98c0-3.36-.64-6.22-1.93-8.58-1.28-2.36-3.35-3.72-6.2-4.09-.28-.05-.51-.15-.7-.32-.19-.16-.28-.36-.28-.59,0-.28.15-.5.46-.67.3-.16.71-.22,1.22-.17,3.22.33,5.87,1.45,7.95,3.36,2.08,1.91,3.58,4.17,4.52,6.75.93,2.59,1.4,5.05,1.4,7.38,0,1.73-.41,3.04-1.23,3.96-.82.91-1.76,1.37-2.83,1.37-.93,0-1.69-.3-2.27-.91-.58-.61-.78-1.38-.59-2.31.33-1.87.49-3.59.49-5.18Z"/>
  <path class="cls-1" d="M11.7,461.43c0-.51.21-.77.63-.77.37,0,.75.16,1.12.49,1.21.93,2.64,1.4,4.27,1.4.75,0,1.67-.09,2.76-.28,1.1-.19,2.25-.4,3.47-.63l2.87-.63,5.6-1.12c.98-.19,1.47-.86,1.47-2.03-.05-2.29-.14-3.83-.28-4.62-.19-1.91-.68-3.29-1.47-4.13-.79-.84-1.87-1.56-3.22-2.17-.61-.28-.91-.58-.91-.91,0-.42.47-.75,1.4-.98.65-.09,1.26-.14,1.82-.14,1.68,0,3.23.35,4.66,1.05,1.42.7,2.3,1.84,2.62,3.43.05.19.07,2.78.07,7.77,0,1.21.56,1.82,1.68,1.82.42-.05,1-.07,1.75-.07,1.59,0,2.93.37,4.02,1.12,1.1.75,1.65,1.49,1.65,2.24,0,.33-.15.6-.45.81-.3.21-.74.31-1.3.31-.37,0-.65-.02-.84-.07-1.54-.14-3.15-.19-4.83-.14-1.12,0-1.68.58-1.68,1.75v7.77c0,1.03.37,1.54,1.12,1.54.28,0,.58-.09.91-.28.84-.42,1.61-.88,2.31-1.37s1.34-.98,1.93-1.47c.58-.49.97-.83,1.16-1.01.75-.61,1.7-.91,2.87-.91s2.33.26,3.36.77c1.03.51,1.54,1.1,1.54,1.75,0,.42-.23.79-.7,1.12-2.8,2.19-7.12,4.01-12.95,5.46-1.03.19-1.54.82-1.54,1.89l-.07,7.84c0,1.4.65,2.33,1.96,2.8,1.59.61,3.15,1.29,4.69,2.06,1.54.77,3.36,1.88,5.46,3.33.84.56,1.46,1.19,1.86,1.89.4.7.59,1.4.59,2.1s-.18,1.28-.53,1.75c-.35.47-.8.7-1.36.7-.61,0-1.21-.33-1.82-.98-2.24-2.29-5.06-4.43-8.47-6.44-.42-.23-.84-.35-1.26-.35-.84,0-1.47.61-1.89,1.82-.84,2.38-2.3,4.26-4.38,5.63-2.08,1.38-4.66,2.07-7.74,2.07-3.55,0-6.25-.68-8.12-2.03-1.87-1.35-2.8-3.06-2.8-5.11,0-1.35.37-2.64,1.12-3.85,1.03-1.63,2.71-2.82,5.04-3.57,2.33-.75,4.95-1.12,7.84-1.12,1.4,0,2.73.07,3.99.21,1.77.23,2.66-.49,2.66-2.17,0-2.33-.02-4.18-.07-5.53-.09-1.21-.72-1.75-1.89-1.61-1.31.09-2.4.14-3.29.14-3.41,0-6.37-.45-8.89-1.36s-3.78-2.37-3.78-4.38c0-.23.05-.63.14-1.19.7-2.71,2.87-5.09,6.51-7.14.28-.14.42-.28.42-.42,0-.09-.21-.07-.63.07-1.31.51-2.34.89-3.11,1.12-.77.23-1.53.35-2.27.35-1.12,0-2.19-.33-3.22-.98-.84-.51-1.57-1.12-2.21-1.82-.63-.7-1.04-1.35-1.22-1.96-.09-.28-.14-.49-.14-.63ZM20.17,492.37c-1.59,1.12-2.38,2.38-2.38,3.78,0,1.17.63,2.17,1.89,3.01s3.06,1.26,5.39,1.26c2.61,0,4.66-.48,6.12-1.43,1.47-.96,2.55-2.42,3.25-4.38.09-.37.14-.65.14-.84,0-1.07-.72-1.82-2.17-2.24-1.96-.61-3.9-.91-5.81-.91-2.71.05-4.85.63-6.44,1.75ZM23.32,475.6c1.54.68,3.5,1.02,5.88,1.02,1.07,0,2.47-.12,4.2-.35,1.17-.14,1.7-.77,1.61-1.89l-.42-7.21-.07-1.68c-.05-.98-.68-1.47-1.89-1.47-.37,0-.68.02-.91.07-3.31.79-5.97,1.89-7.98,3.29-2.01,1.4-3.01,3.08-3.01,5.04,0,.42.02.72.07.91.14.84.98,1.6,2.52,2.27Z"/>
  <path class="cls-1" d="M2.04,532.48c0-.47.21-.7.63-.7.28,0,.56.14.84.42.51.47,1,.83,1.47,1.08.47.26,1.17.46,2.1.59,1.03.09,1.96.14,2.8.14,1.68,0,3.92-.12,6.72-.35,2.47-.19,7.23-.79,14.28-1.82,1.59-.19,2.31-1.1,2.17-2.73-.33-4.57-.63-7.86-.91-9.87-.09-.65-.23-1.13-.42-1.43-.19-.3-.43-.57-.74-.81-.3-.23-.45-.51-.45-.84s.21-.58.63-.77c.42-.19.98-.28,1.68-.28.79,0,1.61.13,2.45.38.84.26,1.49.64,1.96,1.16,2.24,2.29,5.1,4.43,8.57,6.44,3.48,2.01,6.82,3.38,10.04,4.13.98.23,1.88.84,2.7,1.82.82.98,1.29,1.84,1.44,2.59.05.23.07.51.07.84,0,1.4-.86,2.1-2.59,2.1-1.07,0-2.87-.3-5.39-.91-1.17-.28-2.85-.42-5.04-.42-2.01,0-4.41.12-7.21.35-1.49.23-2.24,1-2.24,2.31,0,.33.05.96.14,1.89.09.84.14,1.63.14,2.38.05,1.07.47,2.1,1.26,3.08,1.77,2.15,2.66,5.44,2.66,9.87,0,1.82-.12,3.52-.35,5.11-.47,3.03-1.73,5.77-3.78,8.22-2.05,2.45-4.43,4.47-7.14,6.05-2.71,1.59-5.32,2.73-7.84,3.43-.14.05-.35.07-.63.07-.7,0-1.05-.28-1.05-.84s.37-.98,1.12-1.26c4.11-1.45,7.41-3.57,9.91-6.37,2.5-2.8,4-6,4.52-9.59v-.35c0-.61-.16-.91-.49-.91-.23,0-.51.16-.84.49-1.21,1.21-2.85,1.82-4.9,1.82-1.49,0-2.94-.33-4.34-.98s-2.54-1.6-3.43-2.83c-.89-1.24-1.33-2.65-1.33-4.24,0-1.77.49-3.45,1.47-5.04.98-1.59,2.25-2.92,3.81-3.99,1.56-1.07,3.16-1.8,4.8-2.17.89-.19,1.52-.44,1.89-.77.37-.33.54-.89.49-1.68v-.49c-.14-1.68-1.05-2.4-2.73-2.17l-4.13.56-2.59.35c-4.62.7-8.31,1.63-11.06,2.8-.56.19-1.07.35-1.54.49-.47.14-.91.21-1.33.21-.79,0-1.75-.19-2.87-.56-1.4-.42-2.55-1.18-3.46-2.28-.91-1.1-1.51-2.13-1.79-3.11-.09-.28-.14-.49-.14-.63ZM25.98,554.35c1.21,1.05,2.5,1.58,3.85,1.58,1.59,0,2.75-.86,3.5-2.59.47-1.31.7-4.18.7-8.61-.09-1.59-.65-2.47-1.68-2.66-.23-.05-.56-.07-.98-.07-1.26,0-2.44.4-3.53,1.19-1.1.79-1.98,1.88-2.66,3.25-.68,1.38-1.02,2.88-1.02,4.51,0,1.21.61,2.34,1.82,3.39ZM37.32,528.21c0,.89.23,1.53.7,1.92.47.4,1.12.53,1.96.38l5.67-.84c.61-.05,1.07-.21,1.4-.49.33-.28.49-.63.49-1.05,0-.51-.3-1.05-.91-1.61-2.15-1.82-4.25-3.36-6.3-4.62-.56-.33-1-.49-1.33-.49-.51,0-.91.2-1.19.59-.28.4-.42.92-.42,1.58l-.07,4.62Z"/>
  <path class="cls-1" d="M59.12,588.48c1.75,1.73,2.62,3.8,2.62,6.23s-.88,4.58-2.62,6.33-3.86,2.62-6.33,2.62c-1.59,0-3.06-.4-4.41-1.19-1.35-.79-2.43-1.88-3.22-3.25-.79-1.38-1.19-2.88-1.19-4.51s.4-3.06,1.19-4.41c.79-1.35,1.87-2.43,3.22-3.22,1.35-.79,2.82-1.19,4.41-1.19,2.47,0,4.58.86,6.33,2.59ZM57.65,599.54c1.33-1.35,1.99-2.96,1.99-4.83s-.68-3.46-2.03-4.79c-1.35-1.33-2.96-2-4.83-2s-3.45.67-4.76,2c-1.31,1.33-1.96,2.93-1.96,4.79s.65,3.54,1.96,4.87c1.31,1.33,2.89,2,4.76,2s3.53-.68,4.86-2.03Z"/>
  <path class="cls-1" d="M120.31,194.53c-5.23-.43-11.07-.6-15.17,3.27-1.82,1.71-3.32,4.51-2.11,6.97.54,1.09,1.55,1.83,2.57,2.43.79.47,1.92.92,2.16,1.91.46,1.87,3.36,1.08,2.89-.8-.27-1.1-.97-1.95-1.86-2.63-.78-.59-1.69-.97-2.46-1.57-1.66-1.28-.03-3.33,1.12-4.36,3.45-3.08,8.62-2.57,12.87-2.22.81.07,1.5-.74,1.5-1.5,0-.87-.69-1.43-1.5-1.5h0Z"/>
  <path class="cls-1" d="M111.17,265.29c-5.05-.61-10.36.97-14.22,4.29-1.95,1.68-3.41,4.3-2.63,6.93.72,2.43,3.05,3.56,5.32,4.2,3.15.88,6.34,1.64,9.51,2.45,1.87.48,2.67-2.41.8-2.89-2.43-.63-4.87-1.25-7.3-1.88-1.6-.41-4.04-.67-5.13-2.08-1.16-1.51.24-3.42,1.38-4.44,1.49-1.34,3.36-2.33,5.27-2.93,2.28-.73,4.64-.93,7.02-.64.81.1,1.5-.76,1.5-1.5,0-.89-.69-1.4-1.5-1.5h0Z"/>
  <path class="cls-1" d="M141.24,318.02c-3.6-1.92-7.32.62-8.76,4-1.53,3.59-.97,7.96-3.93,10.87s-7.2,3.62-11.05,4.4c-3.41.69-8.96,1.4-10.32,5.24-1.71,4.83,3.67,7.51,6.12,10.59,1.2,1.51,3.31-.62,2.12-2.12-1.07-1.35-2.47-2.34-3.7-3.53-.98-.95-2.22-2.5-1.7-3.96s2.72-1.96,4.01-2.33c1.92-.56,3.9-.91,5.86-1.32,3.3-.69,6.64-1.62,9.38-3.66s4.17-4.93,4.82-8.33c.35-1.81.57-3.75,1.5-5.39.78-1.38,2.52-2.74,4.15-1.87s3.22-1.68,1.51-2.59h0Z"/>
  <path class="cls-1" d="M132.08,404.23c2.3.59,4.92,1.9,5.31,4.51.36,2.38-1.5,3.63-3.65,3.74-2.56.13-5.15-.58-7.65-1.04-3.22-.6-6.44-1.19-9.67-1.79s-6.12-1.13-9.18-1.7c-2.67-.49-5.79-1.24-8.27.31-1.96,1.22-3.22,3.66-2.24,5.9.91,2.07,3.16,2.8,5.18,3.31,5.71,1.44,10.69,4.51,14.44,9.07,1.23,1.49,3.34-.64,2.12-2.12-3.37-4.08-7.81-7.18-12.79-8.96-1.08-.39-2.19-.67-3.3-.96-.9-.23-2.37-.51-2.85-1.42s.33-1.89,1.1-2.32c1.3-.72,3.01-.42,4.4-.18,6.44,1.13,12.87,2.38,19.3,3.57,4.29.79,10.72,2.99,14.38-.56,1.98-1.92,2.15-4.99,1-7.38-1.28-2.67-4.06-4.17-6.82-4.88-1.87-.48-2.67,2.41-.8,2.89h0Z"/>
  <path class="cls-1" d="M11.01,320.46c-1.41-1.87-2.91-4.2-2.71-6.66s2.4-3.93,4.33-5.07c4.54-2.67,9.59-4.43,14.79-5.22,5.56-.84,11.22-.26,16.78-1.18,4.44-.73,9.11-2.56,11.97-6.2,1.55-1.98,2.3-4.87.57-7.01-1.63-2-4.29-1.83-6.59-1.49-1.9.28-1.09,3.17.8,2.89s4.58-.14,3.62,2.5c-.69,1.9-2.79,3.34-4.49,4.27-4.26,2.32-9.26,2.53-14,2.66-5.19.14-10.28.47-15.29,1.97-4.39,1.32-9.33,3.27-12.77,6.4-4.31,3.93-2.71,9.52.4,13.64,1.15,1.52,3.75.03,2.59-1.51h0Z"/>
  <path class="cls-1" d="M41.99,363.51c2.22-.23,2.07,2.43,1.02,3.64-1.39,1.61-3.73,1.98-5.7,2.39-4.9,1.01-9.83,1.85-14.79,2.5-2.51.33-5.02.62-7.53.86-2.27.22-4.61.33-6.8,1.04-3.56,1.14-6.89,4.11-6.49,8.17.23,2.35,1.75,4.01,3.79,5.06,1.22.63,5.4,1.94,4.27,4.02-.92,1.7,1.67,3.21,2.59,1.51,1.05-1.93.48-4.22-1.1-5.7-1.65-1.56-4.13-1.84-5.73-3.4s-.78-3.9.63-5.2c1.75-1.61,4.28-2.05,6.56-2.29,5.35-.56,10.69-1.12,16.01-1.97,2.74-.44,5.46-.93,8.18-1.47,2.37-.47,4.93-.88,6.95-2.3,1.86-1.3,3.26-3.5,2.93-5.84s-2.42-4.27-4.8-4.02c-1.9.2-1.92,3.2,0,3h0Z"/>
  <path class="cls-1" d="M56.95,415.39c-1.07,8.28-9.53,12.95-16.29,16.16-3.68,1.74-7.44,3.34-10.94,5.43-2.55,1.52-8.27,4.68-6.53,8.46,1.05,2.28,3.56,2.13,5.65,1.8s4.08.4,5.46,2.11c1.21,1.5,3.32-.63,2.12-2.12-1.11-1.39-2.68-2.39-4.41-2.84-.83-.21-1.71-.31-2.57-.24-.92.07-2.06.55-2.97.34-1.82-.41,1.82-2.99,2.39-3.38,1.6-1.12,3.3-2.1,5.03-3.01,6.84-3.56,14.47-6.04,20.12-11.5,3.15-3.04,5.37-6.83,5.93-11.2.25-1.91-2.76-1.89-3,0h0Z"/>
  <path class="cls-1" d="M49.27,501.2c.4,2.14.77,4.71-1.61,5.77-.92.41-1.96.57-2.93.78-1.54.33-3.09.65-4.63.98-5.6,1.19-11.21,2.33-16.8,3.56-9.03,1.98-19.4,5.66-22.62,15.33-.82,2.45-1.16,5.43.54,7.59,1.51,1.92,4.01,2.46,6.3,2.77.81.11,1.6-.19,1.85-1.05.2-.7-.25-1.74-1.05-1.85-1.72-.23-4.39-.47-5.12-2.37s.33-4.6,1.26-6.3c2.09-3.84,5.75-6.52,9.69-8.26,4.68-2.06,9.83-2.95,14.81-4,5.53-1.17,11.05-2.33,16.58-3.51,2.24-.47,4.61-1.04,5.99-3.04,1.47-2.12,1.09-4.82.65-7.2-.36-1.89-3.25-1.09-2.89.8h0Z"/>
  <path class="cls-1" d="M23.49,573.59c-4.65.64-7.24,6.47-7.76,10.56-.27,2.11-.22,4.83,1.16,6.57s3.45,2.55,5.43,3.14c3.55,1.05,6.8.77,10.28-.25s7.05-2.41,10.57-3.6c1.87-.63,3.76-1.24,5.69-1.69,1.4-.33,2.95-.67,4.39-.44,1.26.21,1.8-1.72.53-1.93-2.5-.41-5.11.29-7.5.97-3.23.93-6.38,2.12-9.55,3.23-2.68.94-5.46,2.01-8.29,2.38-1.87.24-3.82-.07-5.61-.6s-4.26-1.42-4.9-3.35c-.82-2.48-.2-5.33.72-7.68s2.64-5.01,5.35-5.38c1.27-.17.73-2.1-.53-1.93h0Z"/>
  <path class="cls-1" d="M58.2,599.15c-2.35,1.71-3.8,3.97-4.61,6.75-.35,1.21-.59,2.45-.88,3.68-.36,1.55-.84,3.05-1.05,4.63-.38,2.88-.09,5.86,1.15,8.51,1.37,2.93,3.95,4.87,6.47,6.76,5.07,3.81,10.13,8.99,9.79,15.82-.17,3.36-1.83,6.14-4.6,8.01-2.58,1.75-5.55,2.82-8.15,4.54-5.56,3.69-9.51,9.56-10.87,16.09-.26,1.26,1.67,1.79,1.93.53,1.24-5.95,4.73-11.37,9.79-14.78s11.11-4.67,13.22-10.77c2-5.77-.5-11.81-4.38-16.13-2.13-2.37-4.68-4.18-7.18-6.13s-4.52-4.36-5.13-7.64c-.64-3.44.41-6.6,1.15-9.92s1.56-6.19,4.34-8.22c1.03-.75.03-2.49-1.01-1.73h0Z"/>
</svg>