<?xml version="1.0" encoding="UTF-8"?>
<svg id="_レイヤー_1" data-name="レイヤー_1" xmlns="http://www.w3.org/2000/svg" viewBox="0 0 258.48 798.24">
  <defs>
    <style>
      .cls-1 {
        fill: #c33f4e;
      }
    </style>
  </defs>
  <path class="cls-1" d="M39.68,129.9c4.2-2.24,8.82-5.08,13.86-8.52,1.76-1.28,2.64-3,2.64-5.16l-.12-18.48c-.16-2.48-1.28-3.72-3.36-3.72-.56,0-1,.04-1.32.12-2.24.32-3.84.48-4.8.48-3.12,0-5.88-.88-8.28-2.64-2.4-1.76-3.84-3.88-4.32-6.36-.08-.32-.12-.8-.12-1.44,0-.8.16-1.5.48-2.1.32-.6.68-.9,1.08-.9.64,0,1.2.84,1.68,2.52.4,1.36,1.48,2.48,3.24,3.36,1.76.88,3.76,1.32,6,1.32,1.76,0,3.84-.4,6.24-1.2,2.16-.8,3.24-2.44,3.24-4.92v-2.16c0-5.44-.1-9.44-.3-12-.2-2.56-.54-4.3-1.02-5.22-.48-.92-1.24-1.5-2.28-1.74-1.6-.48-2.4-1.12-2.4-1.92,0-.4.26-.68.78-.84.52-.16,1.26-.2,2.22-.12,3.6.4,6.12,1.1,7.56,2.1,1.44,1,2.2,2.42,2.28,4.26.08,1.44.2,2.52.36,3.24.16.72.56,1.44,1.2,2.16,1.36,1.44,2.84,2.64,4.44,3.6.88.48,1.84.74,2.88.78,1.04.04,1.84.1,2.4.18,1.52.08,2.78.58,3.78,1.5,1,.92,1.5,1.98,1.5,3.18,0,1.04-.44,2-1.32,2.88-2.48,2.64-6.72,5.28-12.72,7.92-2.16.96-3.24,2.56-3.24,4.8v17.52c0,.48.1.86.3,1.14.2.28.46.42.78.42.4,0,.76-.12,1.08-.36,9.68-6.8,19.04-10.2,28.08-10.2,5.2,0,9.72,1.08,13.56,3.24,3.84,2.16,6.76,5.02,8.76,8.58,2,3.56,3,7.38,3,11.46,0,1.84-.24,3.72-.72,5.64-2.4,9.76-9,15.72-19.8,17.88-1.28.24-2.56.36-3.84.36-3.68,0-7.28-.82-10.8-2.46-3.52-1.64-6.12-3.5-7.8-5.58-.64-.88-.96-1.56-.96-2.04,0-.64.32-.96.96-.96.72,0,1.44.36,2.16,1.08,3.2,3.28,7.24,4.92,12.12,4.92,1.12,0,2.72-.16,4.8-.48,2.32-.4,4.66-1.34,7.02-2.82,2.36-1.48,4.32-3.48,5.88-6,1.56-2.52,2.34-5.46,2.34-8.82s-.74-6.5-2.22-9.42c-1.48-2.92-3.7-5.3-6.66-7.14-2.96-1.84-6.52-2.76-10.68-2.76-6.64,0-14.88,3.48-24.72,10.44-1.76,1.2-2.64,2.92-2.64,5.16v11.4c0,3.6-.14,6.32-.42,8.16-.28,1.84-.9,3.52-1.86,5.04-.72,1.2-1.56,2.1-2.52,2.7-.96.6-1.88.9-2.76.9-1.36,0-2.16-.56-2.4-1.68-.56-2.24-1.42-4.4-2.58-6.48-1.16-2.08-2.34-3.72-3.54-4.92-1.2-1.2-2.12-1.68-2.76-1.44-.24.16-.76.62-1.56,1.38-.8.76-1.56,1.36-2.28,1.8-.72.44-1.52.66-2.4.66-.4,0-.72-.04-.96-.12-1.84-.48-3.68-1.24-5.52-2.28-1.84-1.04-2.76-2-2.76-2.88,0-.72.8-1.32,2.4-1.8,2.24-.56,5.46-1.96,9.66-4.2ZM48.15,131.58c-.96.72-1.44,1.44-1.44,2.16,0,.64.44,1.28,1.32,1.92.72.4,1.6,1.12,2.64,2.16.88.88,1.6,1.32,2.16,1.32,1.84,0,2.92-3.56,3.24-10.68,0-.8-.36-1.2-1.08-1.2-.96,0-2.2.56-3.72,1.68l-3.12,2.64ZM62.06,79.5c0,1.04.36,1.56,1.08,1.56.32,0,.72-.12,1.2-.36l2.28-1.68c.48-.48.72-.92.72-1.32,0-.32-.16-.72-.48-1.2-.48-.64-1.32-1.56-2.52-2.76-.48-.48-.88-.72-1.2-.72-.64,0-.96.48-.96,1.44l-.12,5.04ZM94.52,73.56c-.44-.44-.66-.86-.66-1.26,0-.72.6-1.08,1.8-1.08.56,0,1,.04,1.32.12,2.64.56,4.84,1.08,6.6,1.56,1.76.48,3.78,1.36,6.06,2.64,2.28,1.28,4.34,3,6.18,5.16,1.6,1.92,2.4,3.88,2.4,5.88,0,.72-.12,1.32-.36,1.8-1.04,1.92-2.4,2.88-4.08,2.88-.48,0-1.52-.16-3.12-.48-2.4-.56-4.36-.84-5.88-.84-2.24,0-4.56.44-6.96,1.32-.16.08-.44.12-.84.12s-.72-.12-.96-.36c-.24-.24-.36-.56-.36-.96,0-.72.48-1.2,1.44-1.44,5.76-1.44,8.64-3.28,8.64-5.52,0-1.44-.78-2.96-2.34-4.56-1.56-1.6-3.94-2.92-7.14-3.96-.72-.24-1.3-.58-1.74-1.02Z"/>
  <path class="cls-1" d="M31.22,273.62c0,1.44-.54,2.62-1.62,3.54-1.08.92-2.22,1.38-3.42,1.38-.8,0-1.46-.26-1.98-.78-.52-.52-.74-1.26-.66-2.22v-105.36c0-.88.6-1.32,1.8-1.32.8,0,1.62.2,2.46.6.84.4,1.54.92,2.1,1.56.72.8,1.32,1.36,1.8,1.68.48.32,1.08.48,1.8.48h18.84c.72,0,1.42-.18,2.1-.54.68-.36,1.3-.78,1.86-1.26.48-.4,1-.78,1.56-1.14.56-.36,1.12-.54,1.68-.54,1.28,0,2.58.4,3.9,1.2,1.32.8,2.44,1.72,3.36,2.76.92,1.04,1.38,1.88,1.38,2.52,0,.56-.12.98-.36,1.26-.24.28-.6.62-1.08,1.02-.64.48-1.14,1-1.5,1.56-.36.56-.54,1.4-.54,2.52v24.84c0,1.52-.56,2.72-1.68,3.6-1.12.88-2.36,1.32-3.72,1.32-.72,0-1.34-.22-1.86-.66-.52-.44-.78-1.06-.78-1.86,0-1.36-.34-2.28-1.02-2.76-.68-.48-1.74-.72-3.18-.72h-18.24c-2,0-3,1-3,3v64.32ZM31.22,184.94c0,2,1,3,3,3h19.8c2,0,3-1,3-3v-4.32c0-1.36-.36-2.4-1.08-3.12s-1.76-1.08-3.12-1.08h-18.6c-2,0-3,1-3,3v5.52ZM31.22,199.94c0,2,1,3,3,3l18.6.12c1.36,0,2.4-.38,3.12-1.14.72-.76,1.08-1.78,1.08-3.06v-4.44c0-2-1-3-3-3l-19.8-.12c-2,0-3,1-3,3v5.64ZM84.63,259.28c-.72-.84-1.76-1.26-3.12-1.26h-17.4c-1.36,0-2.4.3-3.12.9-.72.6-1.08,1.46-1.08,2.58,0,1.44-.56,2.62-1.68,3.54-1.12.92-2.32,1.38-3.6,1.38-1.6,0-2.4-.92-2.4-2.76v-42.72c0-.88.6-1.32,1.8-1.32,1.44,0,2.62.2,3.54.6.92.4,1.86.92,2.82,1.56.96.64,1.64.96,2.04.96h18.96c.72,0,1.42-.18,2.1-.54.68-.36,1.3-.78,1.86-1.26.48-.4,1-.78,1.56-1.14.56-.36,1.12-.54,1.68-.54,1.28,0,2.58.4,3.9,1.2,1.32.8,2.44,1.72,3.36,2.76.92,1.04,1.38,1.88,1.38,2.52,0,.56-.12.98-.36,1.26-.24.28-.6.62-1.08,1.02-.64.48-1.14,1-1.5,1.56-.36.56-.54,1.4-.54,2.52v29.4c0,1.52-.56,2.72-1.68,3.6-1.12.88-2.36,1.32-3.72,1.32-1.12,0-1.84-.34-2.16-1.02-.32-.68-.48-1.58-.48-2.7,0-1.44-.36-2.58-1.08-3.42ZM59.91,250.46c0,1.28.38,2.3,1.14,3.06.76.76,1.78,1.14,3.06,1.14l17.76.12c1.36,0,2.4-.38,3.12-1.14.72-.76,1.08-1.78,1.08-3.06v-20.4c0-1.36-.36-2.4-1.08-3.12-.72-.72-1.76-1.08-3.12-1.08h-17.76c-1.28,0-2.3.36-3.06,1.08-.76.72-1.14,1.76-1.14,3.12v20.28ZM84.26,204.02c.08-.8.12-1.92.12-3.36v-30.48c0-.88.6-1.32,1.8-1.32.8,0,1.62.2,2.46.6.84.4,1.54.92,2.1,1.56.72.8,1.32,1.36,1.8,1.68.48.32,1.08.48,1.8.48h18.84c.72,0,1.42-.18,2.1-.54.68-.36,1.3-.78,1.86-1.26.48-.4,1-.78,1.56-1.14.56-.36,1.12-.54,1.68-.54,1.28,0,2.58.4,3.9,1.2,1.32.8,2.44,1.72,3.36,2.76.92,1.04,1.38,1.88,1.38,2.52,0,.56-.12.98-.36,1.26-.24.28-.6.62-1.08,1.02-.64.48-1.14,1-1.5,1.56-.36.56-.54,1.4-.54,2.52l-.36,78.24v8.28c0,3.2-1.14,5.56-3.42,7.08-2.28,1.52-4.86,2.28-7.74,2.28-.88,0-1.46-.2-1.74-.6-.28-.4-.54-1.08-.78-2.04-.32-1.2-.76-2.18-1.32-2.94-.56-.76-1.56-1.38-3-1.86l-7.68-2.4c-.64-.16-1.14-.44-1.5-.84-.36-.4-.54-.84-.54-1.32s.18-.88.54-1.2c.36-.32.86-.48,1.5-.48.24,0,.68.08,1.32.24l2.52.6c2.24.64,4.84,1.24,7.8,1.8.24.08.64.12,1.2.12,1.68,0,2.96-.62,3.84-1.86.88-1.24,1.32-2.86,1.32-4.86v-51c0-1.36-.34-2.28-1.02-2.76-.68-.48-1.74-.72-3.18-.72h-18.48c-.64,0-1.12.16-1.44.48-.32.32-.68.76-1.08,1.32-.4.56-.76,1.08-1.08,1.56-.48.72-1.12,1.26-1.92,1.62-.8.36-1.56.54-2.28.54-.8,0-1.48-.24-2.04-.72-.56-.48-.84-1.16-.84-2.04l.12-5.04ZM95.06,176.66c-2,0-3,1-3,3v5.28c0,2,1,3,3,3h19.8c2,0,3-1,3-3v-4.32c0-1.36-.36-2.4-1.08-3.12s-1.76-1.08-3.12-1.08l-18.6.24ZM92.06,199.94c0,2,1,3,3,3l18.6.12c1.36,0,2.4-.38,3.12-1.14.72-.76,1.08-1.78,1.08-3.06v-4.44c0-2-1-3-3-3l-19.8-.12c-2,0-3,1-3,3v5.64Z"/>
  <path class="cls-1" d="M51.15,388.49c-3.04-1.2-5.84-2.88-8.4-5.04-4.08-3.52-7.3-7.98-9.66-13.38-2.36-5.4-3.54-12.22-3.54-20.46,0-8.8,1.52-19.4,4.56-31.8.08-.24.12-.64.12-1.2,0-1.04-.3-1.98-.9-2.82-.6-.84-1.26-1.5-1.98-1.98-.72-.72-1.08-1.32-1.08-1.8,0-.4.16-.7.48-.9.32-.2.68-.26,1.08-.18.56.16,1.74.74,3.54,1.74,1.8,1,2.98,1.82,3.54,2.46,2.72,2.96,4.08,5.68,4.08,8.16,0,1.2-.36,2.44-1.08,3.72-1.6,3.12-2.92,7.12-3.96,12-1.04,4.88-1.56,9.6-1.56,14.16,0,3.68.36,6.84,1.08,9.48,1.36,5.04,3.28,8.88,5.76,11.52,2.48,2.64,5,3.96,7.56,3.96,1.36,0,2.58-.38,3.66-1.14,1.08-.76,1.9-1.82,2.46-3.18,2.64-6.4,4.96-11.5,6.96-15.3,2-3.8,4.16-7.1,6.48-9.9.88-.96,1.72-1.44,2.52-1.44.88,0,1.32.52,1.32,1.56,0,.56-.16,1.12-.48,1.68-2.8,4.48-5.18,9.06-7.14,13.74-1.96,4.68-2.94,8.82-2.94,12.42,0,2.8.6,5,1.8,6.6.8,1.12,1.2,2.2,1.2,3.24,0,1.2-.48,2.24-1.44,3.12-.96.88-2.06,1.56-3.3,2.04-1.24.48-2.22.72-2.94.72-2.16,0-4.76-.6-7.8-1.8ZM112.59,353.33c0-5.76-1.1-10.66-3.3-14.7-2.2-4.04-5.74-6.38-10.62-7.02-.48-.08-.88-.26-1.2-.54-.32-.28-.48-.62-.48-1.02,0-.48.26-.86.78-1.14.52-.28,1.22-.38,2.1-.3,5.52.56,10.06,2.48,13.62,5.76,3.56,3.28,6.14,7.14,7.74,11.58,1.6,4.44,2.4,8.66,2.4,12.66,0,2.96-.7,5.22-2.1,6.78-1.4,1.56-3.02,2.34-4.86,2.34-1.6,0-2.9-.52-3.9-1.56-1-1.04-1.34-2.36-1.02-3.96.56-3.2.84-6.16.84-8.88Z"/>
  <path class="cls-1" d="M18.74,469.22c-.48,0-.88-.12-1.2-.36-.32-.24-.48-.52-.48-.84,0-.88.64-1.6,1.92-2.16,5.28-2.32,10.94-5.8,16.98-10.44,6.04-4.64,11.92-10.56,17.64-17.76,5.72-7.2,10.46-15.36,14.22-24.48,1.44-2.8,3.32-4.2,5.64-4.2.72,0,1.56.2,2.52.6,1.92.8,2.88,2.04,2.88,3.72,0,.24-.08.48-.24.72-.16.24-.4.36-.72.36-.4,0-.72.16-.96.48-.24.32-.36.76-.36,1.32s.16,1.12.48,1.68c8.64,12.72,17.9,22.78,27.78,30.18,9.88,7.4,18.94,12.46,27.18,15.18,1.04.32,1.56.76,1.56,1.32,0,.4-.24.72-.72.96s-1,.32-1.56.24c-.24-.08-.68-.12-1.32-.12-1.12,0-2.14.22-3.06.66-.92.44-1.54,1.1-1.86,1.98-.4.96-.92,1.44-1.56,1.44-.24,0-.46-.04-.66-.12-.2-.08-.38-.12-.54-.12-18.24-9.52-34.04-24.8-47.4-45.84-.32-.56-.96-.84-1.92-.84-1.04,0-1.92.4-2.64,1.2-4.32,6.8-9.42,13.24-15.3,19.32-5.88,6.08-11.86,11.34-17.94,15.78-6.08,4.44-11.72,7.74-16.92,9.9-.4.16-.88.24-1.44.24ZM87.63,511.52c-.72-.84-1.76-1.26-3.12-1.26h-25.32c-1.36,0-2.4.3-3.12.9-.72.6-1.08,1.46-1.08,2.58,0,1.44-.56,2.62-1.68,3.54-1.12.92-2.32,1.38-3.6,1.38-1.6,0-2.4-.92-2.4-2.76v-41.52c0-.88.6-1.32,1.8-1.32,1.44,0,2.62.2,3.54.6.92.4,1.86.92,2.82,1.56.96.64,1.64.96,2.04.96h26.88c.72,0,1.42-.18,2.1-.54.68-.36,1.3-.78,1.86-1.26.48-.4,1-.78,1.56-1.14.56-.36,1.12-.54,1.68-.54,1.28,0,2.58.4,3.9,1.2,1.32.8,2.44,1.72,3.36,2.76.92,1.04,1.38,1.88,1.38,2.52,0,.56-.12.98-.36,1.26-.24.28-.6.62-1.08,1.02-.64.48-1.14,1-1.5,1.56-.36.56-.54,1.4-.54,2.52v28.2c0,1.52-.56,2.72-1.68,3.6-1.12.88-2.36,1.32-3.72,1.32-1.12,0-1.84-.34-2.16-1.02-.32-.68-.48-1.58-.48-2.7,0-1.44-.36-2.58-1.08-3.42ZM53.06,463.94l-2.88.24c-.8.08-1.42-.14-1.86-.66-.44-.52-.66-1.1-.66-1.74,0-.72.22-1.32.66-1.8.44-.48,1.06-.68,1.86-.6l2.88.24c5.04.32,8.92.48,11.64.48h12.72c1.6,0,2.94-.34,4.02-1.02,1.08-.68,2.22-1.62,3.42-2.82,1.76-1.76,3.56-2.64,5.4-2.64,1.04,0,2.08.32,3.12.96,1.2.8,2.32,1.76,3.36,2.88.88,1.04,1.32,2.04,1.32,3,0,.88-.36,1.6-1.08,2.16-.72.56-1.76.84-3.12.84l-16.44.12-12.72-.12c-3.2,0-7.08.16-11.64.48ZM54.98,502.7c0,1.28.38,2.3,1.14,3.06.76.76,1.78,1.14,3.06,1.14l25.68.12c1.36,0,2.4-.38,3.12-1.14.72-.76,1.08-1.78,1.08-3.06v-19.2c0-1.36-.36-2.4-1.08-3.12s-1.76-1.08-3.12-1.08h-25.68c-1.28,0-2.3.36-3.06,1.08-.76.72-1.14,1.76-1.14,3.12v19.08Z"/>
  <path class="cls-1" d="M54.56,632c-1.08-1.16-1.98-2.76-2.7-4.8-.72-2.04-1.08-3.98-1.08-5.82l.24-4.68c0-1.44-.32-2.68-.96-3.72.08.08-.92-1.36-3-4.32-.64-.88-1.32-1.32-2.04-1.32-.8,0-1.52.6-2.16,1.8l-2.04,4.44c-1.84,4.08-3.2,6.82-4.08,8.22-.88,1.4-1.88,2.1-3,2.1-1.44,0-2.52-.7-3.24-2.1-.72-1.4-1.08-3.06-1.08-4.98,0-2.08.36-3.76,1.08-5.04.48-.96,1.64-2.4,3.48-4.32,2.08-2.32,3.64-4.12,4.68-5.4.56-.64.84-1.36.84-2.16s-.28-1.52-.84-2.16c-2.08-2.88-3.72-5.44-4.92-7.68-1.2-2.24-1.84-4.32-1.92-6.24-.16-3.84.36-7,1.56-9.48,1.2-2.48,3.04-4.52,5.52-6.12,2.48-1.6,5.88-3.2,10.2-4.8,2.32-.8,3.52-2.36,3.6-4.68,0-.64.08-1.76.24-3.36.24-4-.26-7.12-1.5-9.36-1.24-2.24-2.52-3.94-3.84-5.1-1.32-1.16-2.18-1.94-2.58-2.34-.48-.48-.72-.96-.72-1.44,0-.8.64-1.2,1.92-1.2,1.6,0,3.7.6,6.3,1.8,2.6,1.2,4.82,2.78,6.66,4.74,1.84,1.96,2.6,4.06,2.28,6.3-.16,1.04-.32,2.68-.48,4.92l-.6,5.04-.12.96c0,1.6.8,2.88,2.4,3.84.72.48,1.44,1.16,2.16,2.04.48.56.72,1.12.72,1.68s-.22,1.06-.66,1.5c-.44.44-1.26,1.1-2.46,1.98l-1.2,1.2c-.64.88-.96,1.52-.96,1.92s.2.6.6.6c.56,0,1.36-.4,2.4-1.2,8.24-6.8,17.08-10.2,26.52-10.2,4.8,0,9.28.9,13.44,2.7,4.16,1.8,7.6,4.3,10.32,7.5,2.48,2.88,4.34,6.06,5.58,9.54,1.24,3.48,1.86,7.1,1.86,10.86s-.72,7.76-2.16,11.52c-1.84,4.88-5.1,9.16-9.78,12.84-4.68,3.68-9.78,6.5-15.3,8.46-5.52,1.96-10.44,2.98-14.76,3.06h-.24c-.88,0-1.58-.16-2.1-.48-.52-.32-.78-.68-.78-1.08,0-.48.26-.88.78-1.2.52-.32,1.22-.48,2.1-.48,6.24-.16,12.18-2.02,17.82-5.58,5.64-3.56,9.66-7.94,12.06-13.14,2.32-4.72,3.48-9.56,3.48-14.52s-1.04-9.06-3.12-13.02c-2.08-3.96-4.94-7.1-8.58-9.42-3.64-2.32-7.78-3.48-12.42-3.48-5.52,0-10.44,1.3-14.76,3.9-4.32,2.6-8.56,6.26-12.72,10.98-.72.8-1.22,1.6-1.5,2.4-.28.8-.42,1.76-.42,2.88v15.24c0,8.08.24,14.04.72,17.88.32,2.16.48,4.2.48,6.12,0,3.6-.68,5.76-2.04,6.48-1.04.48-2.1.14-3.18-1.02ZM41.78,595.46c.8,0,1.52-.52,2.16-1.56,2.8-4.96,5.24-10.88,7.32-17.76.64-2.08.96-3.68.96-4.8,0-.4-.16-.72-.48-.96-.32-.24-.72-.36-1.2-.36-.4,0-1.08.16-2.04.48-3.76,1.28-6.78,3.08-9.06,5.4-2.28,2.32-3.42,5.04-3.42,8.16s1.2,6.52,3.6,9.96c.64.96,1.36,1.44,2.16,1.44ZM51.09,596.06c-.2-.32-.42-.48-.66-.48-.4,0-.8.32-1.2.96l-1.92,3.36c-.24.32-.36.68-.36,1.08s.28.88.84,1.44c.8.56,1.24.88,1.32.96.48.48.92.72,1.32.72.56,0,.84-.36.84-1.08.08-.56.12-1.44.12-2.64v-3.12c0-.48-.1-.88-.3-1.2Z"/>
  <path class="cls-1" d="M19.11,694.82c.8,0,1.56.52,2.28,1.56,1.44,1.84,4.76,2.76,9.96,2.76,3.68,0,8.36-.4,14.04-1.2,2.72-.4,4.08-1.8,4.08-4.2,0-7.2-.48-13.28-1.44-18.24-.32-1.92-.96-3.36-1.92-4.32s-2.24-1.68-3.84-2.16c-.48-.08-.88-.3-1.2-.66-.32-.36-.48-.74-.48-1.14,0-1.04.96-1.56,2.88-1.56,2.32,0,4.62.4,6.9,1.2,2.28.8,3.94,1.68,4.98,2.64.96.88,1.64,1.82,2.04,2.82.4,1,.6,2.26.6,3.78s-.12,3.36-.36,5.52c-.4,4.64-.64,7.88-.72,9.72-.08,1.52.28,2.66,1.08,3.42.8.76,1.92,1.02,3.36.78,11.84-1.92,20.44-3.4,25.8-4.44,2.48-.48,3.72-2,3.72-4.56-.08-3.68-.24-7.42-.48-11.22-.24-3.8-.56-6.86-.96-9.18-.32-1.6-1.02-2.94-2.1-4.02s-2.22-1.74-3.42-1.98c-1.28-.32-1.92-.84-1.92-1.56,0-.4.24-.76.72-1.08.48-.32,1.12-.48,1.92-.48,2.16,0,4.62.5,7.38,1.5,2.76,1,4.78,2.18,6.06,3.54,1.2,1.28,1.8,2.76,1.8,4.44,0,.64-.16,2-.48,4.08-.48,1.84-.76,3.6-.84,5.28l-.72,7.68c-.08,1.28.14,2.26.66,2.94.52.68,1.3,1.02,2.34,1.02.8,0,1.4-.08,1.8-.24,2.56-.72,4.6-1.4,6.12-2.04,1.52-.64,3.2-1.48,5.04-2.52,1.36-.72,2.92-1.08,4.68-1.08,2.08,0,4.14.44,6.18,1.32,2.04.88,3.66,2,4.86,3.36,1.04,1.12,1.56,2.24,1.56,3.36,0,.8-.34,1.44-1.02,1.92-.68.48-1.62.72-2.82.72-.8,0-1.4-.04-1.8-.12-.48-.08-1.32-.12-2.52-.12-3.68,0-10.92.8-21.72,2.4-2.64.32-3.96,1.84-3.96,4.56v5.64c0,5.44-.28,9.96-.84,13.56-.56,3.6-1.68,6.88-3.36,9.84-1.52,2.64-3.6,3.96-6.24,3.96-1.2,0-2.28-.3-3.24-.9-.96-.6-1.52-1.3-1.68-2.1-.32-2.08-1.32-3.82-3-5.22-1.68-1.4-4.32-3.14-7.92-5.22-1.44-.8-2.52-1.44-3.24-1.92-1.04-.72-1.56-1.48-1.56-2.28,0-.4.14-.76.42-1.08.28-.32.66-.48,1.14-.48s1,.16,1.56.48c3.2,1.76,5.8,3.04,7.8,3.84,2,.8,3.68,1.2,5.04,1.2,1.92,0,3.68-.8,5.28-2.4.72-.72,1.36-2.34,1.92-4.86.56-2.52,1-5.86,1.32-10.02.08-1.52-.26-2.66-1.02-3.42-.76-.76-1.9-1.02-3.42-.78-7.84,1.2-16.48,2.8-25.92,4.8-2.48.56-3.76,2.08-3.84,4.56,0,7.28.12,13.36.36,18.24.32,7.28,2.18,12.52,5.58,15.72,3.4,3.2,8.26,4.8,14.58,4.8,4.96,0,12.08-1.16,21.36-3.48.96-.24,1.84-.36,2.64-.36,2.32,0,4.24.7,5.76,2.1,1.52,1.4,2.28,2.86,2.28,4.38,0,.48-.12.96-.36,1.44-1.2,2.16-7.96,3.24-20.28,3.24h-3.84c-7.68-.08-13.98-.94-18.9-2.58-4.92-1.64-8.7-4.42-11.34-8.34-2.64-3.92-4.04-9.32-4.2-16.2-.08-1.12-.12-3.76-.12-7.92l-.12-8.16c-.16-2.48-1.28-3.72-3.36-3.72-.32,0-.88.08-1.68.24-6.16,1.68-10.6,2.52-13.32,2.52-2.16,0-4.2-.48-6.12-1.44-2.88-1.44-4.86-3.16-5.94-5.16-1.08-2-1.62-3.68-1.62-5.04,0-1.12.44-1.68,1.32-1.68Z"/>
  <path class="cls-1" d="M75.72,139.56c-1.46-1.87-4.33-1.67-5.95-.14-2.02,1.9-1.89,4.62-2.32,7.14-.81,4.73-4.2,8.6-8.35,10.82-5.01,2.69-11.09,2.77-16.54,1.58s-10.99-4.35-16.5-2.12c-2.51,1.02-4.56,3.21-4.97,5.94-.47,3.11,1.68,5.75,3.2,8.25,1,1.65,3.6.14,2.59-1.51-1.1-1.8-3.25-4.21-2.81-6.46s2.65-3.58,4.79-3.9c2.48-.37,4.97.35,7.31,1.09,2.5.78,4.98,1.56,7.57,1.98,9.22,1.47,19.46-1,24.53-9.47,1.22-2.03,1.95-4.27,2.23-6.61.16-1.35.15-2.9.93-4.08.52-.79,1.49-1.25,2.16-.39,1.19,1.52,3.3-.62,2.12-2.12h0Z"/>
  <path class="cls-1" d="M99.58,264.78c-3.35-.45-6.45,1.94-7.77,4.88-1.64,3.65-1.06,7.61-1.01,11.48.04,3.66-.97,6.92-3.51,9.61-2.3,2.44-5.28,4.08-8.5,4.94-15.52,4.15-32.18-7.49-47.08,1.08-3.23,1.86-6.41,4.92-6.54,8.89-.12,3.72,3.39,7.21,7.16,6.23,1.87-.49,1.08-3.38-.8-2.89-1.34.35-2.55-.66-3.08-1.85-.65-1.46-.09-3.05.75-4.3,1.76-2.64,4.96-4.26,7.91-5.16,7.05-2.17,14.46-.81,21.54.42s14.88,2.45,22.04.15c5.53-1.78,10.6-5.86,12.41-11.53,1.25-3.92.33-7.99.57-11.99.2-3.28,1.93-7.49,5.91-6.96.81.11,1.49-.77,1.5-1.5,0-.9-.7-1.39-1.5-1.5h0Z"/>
  <path class="cls-1" d="M77.59,414.26c5.32-.52,9.94,2.73,14.6,4.77,2.41,1.06,4.92,1.92,7.58,2.03,2.92.11,5.77-.85,8.23-2.39,4.94-3.11,8.73-8.06,10.99-13.39,2.45-5.76,2.79-11.79,2.13-17.95-.78-7.23-2.58-14.76-.03-21.84.66-1.82-2.24-2.6-2.89-.8-4.28,11.9,2.71,24.42-.88,36.45-1.59,5.31-4.76,10.23-9.1,13.71-2.21,1.77-4.87,3.16-7.75,3.21-2.4.04-4.74-.74-6.91-1.7-5.09-2.25-10.13-5.67-15.95-5.11-1.9.18-1.92,3.19,0,3h0Z"/>
  <path class="cls-1" d="M89.65,517.01c.02,4.44-4.84,6.38-8.56,6.68-2.43.2-4.89.07-7.33.06s-5.1.02-7.65.1c-5.18.15-10.35.49-15.51,1-4.02.4-9.88.32-11.82,4.69-.98,2.2-.21,4.62,1.4,6.3,1.71,1.78,4.2,2.43,6.51,2.96,1.88.43,2.68-2.46.8-2.89s-4.17-.86-5.45-2.48-.57-3.42,1.18-4.3c2.03-1.02,4.67-1,6.89-1.22,2.37-.24,4.75-.44,7.13-.61,4.92-.34,9.85-.52,14.79-.54,4.38-.02,9.1.55,13.33-.84,3.89-1.28,7.3-4.59,7.28-8.9-.01-1.93-3.01-1.93-3,0h0Z"/>
  <path class="cls-1" d="M78.74,626.5c-3.65-1.46-8.69.11-10.92,3.29-1.37,1.96-1.68,4.27-1.27,6.59s1.33,4.48.91,6.9c-.75,4.32-4.14,7.86-8.05,9.6-4.72,2.1-10.12,2.01-15.14,1.46-5.59-.62-11.12-1.93-16.77-2-5.06-.06-10.14.96-14.67,3.25-8.1,4.11-13.95,12.91-12.64,22.18.67,4.77,3.2,9.23,7.14,12.05,3.45,2.47,8.85,3.27,10.81,7.4.83,1.74,3.41.22,2.59-1.51-1.69-3.55-5.42-5.04-8.74-6.67-3.72-1.82-6.6-4.51-8.03-8.48-3.04-8.44,1.69-17.36,9.1-21.67,4.15-2.42,8.95-3.52,13.72-3.55,5.36-.04,10.63,1.12,15.92,1.81,9.07,1.19,19.47.59,25.26-7.53,1.32-1.85,2.21-4.02,2.51-6.27.34-2.58-.43-4.84-.94-7.33-.47-2.35.23-4.81,2.42-6.04,1.7-.96,4.16-1.3,5.99-.57s2.57-2.18.8-2.89h0Z"/>
  <path class="cls-1" d="M36.55,82.63c-4.69-18.53-.27-38.74,10.88-54.14C59.12,12.34,78.18,3.25,97.98,3.01c9.86-.12,19.81,1.89,28.71,6.18s16.3,10.63,23.16,17.5c13.66,13.67,25.67,30.23,43.54,38.76,18.27,8.73,40.59,7.59,58.23-2.18,2.14-1.19,4.21-2.51,6.19-3.95,1.55-1.12.05-3.73-1.51-2.59-16.56,12.01-39.12,15.07-58.19,7.53-18.65-7.37-31.09-24.34-44.67-38.22-6.9-7.05-14.41-13.76-23.19-18.41S111.43.42,101.41.05c-19.97-.74-39.98,7.18-53.06,22.46s-18.67,34.71-16.06,53.89c.32,2.37.78,4.71,1.36,7.02.47,1.87,3.37,1.08,2.89-.8h0Z"/>
  <path class="cls-1" d="M106.26,750.53c9.43-5.54,20.89-7.21,31.56-4.91,5.33,1.15,10.42,3.25,14.95,6.3s8.05,6.57,11.51,10.42c6.89,7.68,12.76,16.34,20.52,23.22,4.1,3.64,8.67,6.61,13.75,8.7,5.45,2.24,11.28,3.43,17.15,3.83,14.35.99,28.4-2.97,41.77-7.76,1.8-.65,1.03-3.55-.8-2.89-12.08,4.33-24.64,8.02-37.58,7.8-11.59-.2-22.76-3.67-31.61-11.31-7.94-6.86-13.88-15.63-20.82-23.42-3.46-3.88-7.2-7.52-11.45-10.54-4.42-3.14-9.44-5.43-14.69-6.79-11.96-3.1-25.07-1.51-35.76,4.77-1.66.98-.16,3.57,1.51,2.59h0Z"/>
</svg>