<?xml version="1.0" encoding="UTF-8"?>
<svg id="_レイヤー_1" data-name="レイヤー_1" xmlns="http://www.w3.org/2000/svg" viewBox="0 0 376.77 101.17">
  <defs>
    <style>
      .cls-1 {
        fill: #c33f4e;
      }
    </style>
  </defs>
  <path class="cls-1" d="M179.32,63.28c-1.17-.38-2.08-.96-2.73-1.72-.3-.35-.53-.78-.7-1.28-.17-.5-.25-1.02-.25-1.55,0-.95.25-1.8.75-2.55.25-.35.49-.53.72-.53.07,0,.12.02.18.06.05.04.07.1.07.16,0,.1-.05.22-.15.38-.42.62-.62,1.27-.62,1.97,0,.42.07.81.21,1.19s.35.7.61.96c.53.53,1.26.95,2.17,1.26.92.31,1.93.46,3.05.46,1.85,0,3.6-.41,5.25-1.22.28-.15.61-.23.97-.23.42,0,.77.11,1.05.33.28.22.42.47.42.78,0,.35-.21.63-.62.85-.7.38-1.64.69-2.82.91-1.18.23-2.46.34-3.83.34s-2.58-.19-3.75-.58ZM179.89,51.83c-.08,0-.15-.02-.2-.07-.05-.05-.08-.11-.08-.18,0-.15.12-.32.35-.5.12-.1.66-.44,1.62-1.02.43-.27.86-.53,1.27-.8.28-.2.43-.4.43-.6,0-.25-.2-.42-.6-.52-.92-.28-1.74-.56-2.46-.83s-1.36-.57-1.91-.9c-.1-.07-.18-.16-.25-.27-.07-.12-.1-.23-.1-.33,0-.18.09-.28.27-.28.12,0,.21.02.28.05,1.23.42,2.3.69,3.2.83.9.13,1.82.22,2.75.25.7.03,1.25.08,1.64.15.39.07.76.22,1.11.45.23.15.4.33.51.54.11.21.16.43.16.66,0,.35-.11.65-.33.89-.22.24-.48.33-.77.26-.28-.07-.62-.1-1-.1-.83,0-1.71.2-2.62.59-.92.39-1.91.94-2.98,1.64-.08.07-.18.1-.3.1ZM191.15,46.2c.56.49.84.93.84,1.31,0,.2-.07.36-.2.47-.13.12-.3.17-.5.17-.33,0-.62-.14-.85-.42l-.38-.5c-.3-.42-.59-.77-.88-1.06-.28-.29-.7-.6-1.25-.91-.23-.15-.35-.3-.35-.45,0-.13.11-.2.33-.2.15,0,.32.03.5.1,1.27.5,2.18,1,2.74,1.49ZM193.03,44.26c.56.45.84.86.84,1.22,0,.2-.07.36-.2.47-.13.12-.3.18-.5.18-.28,0-.53-.11-.75-.33-.2-.2-.38-.41-.55-.62-.28-.37-.56-.67-.84-.92s-.66-.49-1.16-.73c-.27-.12-.4-.26-.4-.42,0-.15.12-.22.38-.22.13,0,.29.02.48.07,1.25.42,2.15.85,2.71,1.3Z"/>
  <path class="cls-1" d="M199.14,47.66c0-.23.07-.35.2-.35.17,0,.38.18.62.55.48.72,1.08,1.25,1.77,1.59.7.34,1.72.51,3.05.51.5,0,1.06-.02,1.67-.07.62-.05,1.17-.16,1.65-.33.38-.1.58-.33.58-.7,0-.15-.03-.3-.1-.45-.82-1.8-1.32-2.85-1.52-3.15-.25-.33-.38-.62-.38-.88,0-.33.23-.5.67-.5.42,0,.76.1,1.03.3.12.1.25.22.41.38.16.15.31.27.46.35,1.53.87,2.62,1.3,3.25,1.3.12,0,.2,0,.25-.02.2-.03.38-.05.52-.05.42,0,.8.07,1.15.22s.52.35.52.6c0,.12-.05.24-.15.38-.25.37-.67.75-1.26,1.16s-1.29.8-2.09,1.19c-.37.18-.55.43-.55.75,0,.15.03.29.1.42.58,1.23,1.3,2.57,2.15,4,.5.83.86,1.47,1.09,1.92s.38.84.46,1.17c.03.17.05.29.05.38,0,.32-.1.56-.31.74-.21.17-.46.26-.76.26-.35,0-.62-.12-.83-.38-.7-.88-1.66-1.57-2.88-2.07s-2.46-.75-3.72-.75c-.85,0-1.63.12-2.34.38s-1.28.62-1.71,1.1c-.45.5-.67,1.08-.67,1.72,0,.82.42,1.53,1.25,2.12.43.32,1.02.56,1.76.74.74.17,1.53.26,2.36.26,1.25,0,2.29-.17,3.12-.52.25-.1.49-.15.73-.15.4,0,.74.13,1.01.39.27.26.41.54.41.84,0,.4-.23.65-.67.75-1.05.25-2.14.38-3.28.38-1.27,0-2.44-.16-3.52-.48s-1.96-.71-2.62-1.17c-.55-.4-.97-.86-1.26-1.38-.29-.52-.44-1.06-.44-1.62,0-.48.12-.97.36-1.45.24-.48.6-.92,1.06-1.33,1.13-.97,2.66-1.45,4.58-1.45.85,0,1.72.1,2.6.29s1.7.44,2.45.74l.2.05c.18,0,.27-.12.27-.35s-.09-.53-.27-.88c-.43-.82-1.03-2.09-1.8-3.83-.15-.38-.41-.58-.77-.58-.07,0-.18.02-.35.05-1.43.43-2.77.7-4,.8-.43.03-.75.05-.95.05-1,0-1.85-.23-2.56-.69-.71-.46-1.34-1.3-1.89-2.54-.12-.25-.17-.49-.17-.73ZM209.77,45.88c-.13,0-.24.04-.33.11-.08.08-.12.17-.12.29l.05.23.38,1.17c.07.18.16.33.28.44.12.11.24.16.38.16.18,0,.36-.08.52-.22l.4-.33c.27-.25.4-.48.4-.7,0-.13-.07-.24-.2-.33l-1.12-.62c-.27-.13-.48-.2-.62-.2ZM217.22,45.08c.6.47.9.89.9,1.28,0,.2-.07.36-.21.47-.14.12-.32.18-.54.18-.32,0-.59-.12-.82-.38-.27-.32-.41-.48-.43-.5-.33-.4-.65-.73-.94-.99-.29-.26-.71-.53-1.26-.81-.25-.13-.38-.27-.38-.42s.12-.22.35-.22c.12,0,.27.02.45.08,1.32.42,2.27.86,2.88,1.32ZM218.95,43.02c.59.43.89.82.89,1.19,0,.18-.07.33-.21.45-.14.12-.31.17-.51.17-.28,0-.52-.09-.72-.27-.15-.12-.35-.32-.6-.6-.3-.33-.6-.61-.89-.84-.29-.23-.69-.44-1.19-.64-.28-.12-.42-.26-.42-.42,0-.07.04-.12.11-.16.08-.04.18-.06.31-.06.17,0,.3.02.4.05,1.3.33,2.25.71,2.84,1.14Z"/>
  <path class="cls-1" d="M228.27,62.93c-.63-.25-1.22-.6-1.75-1.05-.85-.73-1.52-1.66-2.01-2.79-.49-1.12-.74-2.55-.74-4.26,0-1.83.32-4.04.95-6.62.02-.05.02-.13.02-.25,0-.22-.06-.41-.19-.59s-.26-.31-.41-.41c-.15-.15-.23-.27-.23-.38,0-.08.03-.15.1-.19.07-.04.14-.05.22-.04.12.03.36.15.74.36.38.21.62.38.74.51.57.62.85,1.18.85,1.7,0,.25-.08.51-.23.77-.33.65-.61,1.48-.82,2.5-.22,1.02-.33,2-.33,2.95,0,.77.08,1.42.23,1.98.28,1.05.68,1.85,1.2,2.4s1.04.83,1.58.83c.28,0,.54-.08.76-.24.22-.16.4-.38.51-.66.55-1.33,1.03-2.4,1.45-3.19.42-.79.87-1.48,1.35-2.06.18-.2.36-.3.52-.3.18,0,.27.11.27.33,0,.12-.03.23-.1.35-.58.93-1.08,1.89-1.49,2.86-.41.97-.61,1.84-.61,2.59,0,.58.12,1.04.38,1.38.17.23.25.46.25.67,0,.25-.1.47-.3.65s-.43.33-.69.42c-.26.1-.46.15-.61.15-.45,0-.99-.12-1.62-.38ZM241.07,55.61c0-1.2-.23-2.22-.69-3.06-.46-.84-1.2-1.33-2.21-1.46-.1-.02-.18-.05-.25-.11-.07-.06-.1-.13-.1-.21,0-.1.05-.18.16-.24.11-.06.25-.08.44-.06,1.15.12,2.1.52,2.84,1.2.74.68,1.28,1.49,1.61,2.41.33.92.5,1.8.5,2.64,0,.62-.15,1.09-.44,1.41s-.63.49-1.01.49c-.33,0-.6-.11-.81-.33-.21-.22-.28-.49-.21-.83.12-.67.17-1.28.17-1.85Z"/>
  <path class="cls-1" d="M250.59,48.63c0-.18.08-.28.23-.28.13,0,.27.06.4.17.43.33.94.5,1.52.5.27,0,.6-.03.99-.1.39-.07.8-.14,1.24-.23l1.02-.22,2-.4c.35-.07.53-.31.53-.72-.02-.82-.05-1.37-.1-1.65-.07-.68-.24-1.17-.52-1.47-.28-.3-.67-.56-1.15-.78-.22-.1-.32-.21-.32-.32,0-.15.17-.27.5-.35.23-.03.45-.05.65-.05.6,0,1.15.12,1.66.38.51.25.82.66.94,1.22.02.07.02.99.02,2.78,0,.43.2.65.6.65.15-.02.36-.03.62-.03.57,0,1.05.13,1.44.4.39.27.59.53.59.8,0,.12-.05.21-.16.29s-.26.11-.46.11c-.13,0-.23,0-.3-.02-.55-.05-1.12-.07-1.73-.05-.4,0-.6.21-.6.62v2.77c0,.37.13.55.4.55.1,0,.21-.03.33-.1.3-.15.57-.31.82-.49s.48-.35.69-.53.35-.3.41-.36c.27-.22.61-.33,1.02-.33s.83.09,1.2.28c.37.18.55.39.55.62,0,.15-.08.28-.25.4-1,.78-2.54,1.43-4.62,1.95-.37.07-.55.29-.55.67l-.02,2.8c0,.5.23.83.7,1,.57.22,1.12.46,1.68.74.55.27,1.2.67,1.95,1.19.3.2.52.42.66.67s.21.5.21.75-.06.46-.19.62-.29.25-.49.25c-.22,0-.43-.12-.65-.35-.8-.82-1.81-1.58-3.02-2.3-.15-.08-.3-.12-.45-.12-.3,0-.52.22-.67.65-.3.85-.82,1.52-1.56,2.01-.74.49-1.66.74-2.76.74-1.27,0-2.23-.24-2.9-.72-.67-.48-1-1.09-1-1.83,0-.48.13-.94.4-1.38.37-.58.97-1.01,1.8-1.28s1.77-.4,2.8-.4c.5,0,.98.02,1.42.07.63.08.95-.17.95-.77,0-.83,0-1.49-.02-1.98-.03-.43-.26-.62-.68-.57-.47.03-.86.05-1.17.05-1.22,0-2.27-.16-3.18-.49-.9-.33-1.35-.85-1.35-1.56,0-.08.02-.23.05-.43.25-.97,1.02-1.82,2.33-2.55.1-.05.15-.1.15-.15,0-.03-.08-.03-.23.02-.47.18-.84.32-1.11.4-.28.08-.55.12-.81.12-.4,0-.78-.12-1.15-.35-.3-.18-.56-.4-.79-.65-.23-.25-.37-.48-.44-.7-.03-.1-.05-.17-.05-.22ZM253.62,59.68c-.57.4-.85.85-.85,1.35,0,.42.22.78.67,1.08s1.09.45,1.92.45c.93,0,1.66-.17,2.19-.51.53-.34.91-.86,1.16-1.56.03-.13.05-.23.05-.3,0-.38-.26-.65-.78-.8-.7-.22-1.39-.33-2.07-.33-.97.02-1.73.22-2.3.62ZM254.74,53.7c.55.24,1.25.36,2.1.36.38,0,.88-.04,1.5-.12.42-.05.61-.28.58-.67l-.15-2.58-.03-.6c-.02-.35-.24-.52-.67-.52-.13,0-.24,0-.33.02-1.18.28-2.13.68-2.85,1.18-.72.5-1.08,1.1-1.08,1.8,0,.15,0,.26.02.33.05.3.35.57.9.81Z"/>
  <path class="cls-1" d="M272.14,49.01c0-.17.07-.25.22-.25.1,0,.2.05.3.15.18.17.36.3.52.39.17.09.42.16.75.21.37.03.7.05,1,.05.6,0,1.4-.04,2.4-.12.88-.07,2.58-.28,5.1-.65.57-.07.83-.39.77-.97-.12-1.63-.23-2.81-.32-3.53-.03-.23-.08-.4-.15-.51-.07-.11-.15-.2-.26-.29-.11-.08-.16-.18-.16-.3s.08-.21.23-.28c.15-.07.35-.1.6-.1.28,0,.57.05.88.14.3.09.53.23.7.41.8.82,1.82,1.58,3.06,2.3,1.24.72,2.44,1.21,3.59,1.48.35.08.67.3.96.65.29.35.46.66.51.92.02.08.02.18.02.3,0,.5-.31.75-.92.75-.38,0-1.02-.11-1.92-.33-.42-.1-1.02-.15-1.8-.15-.72,0-1.57.04-2.57.12-.53.08-.8.36-.8.83,0,.12.02.34.05.67.03.3.05.58.05.85.02.38.17.75.45,1.1.63.77.95,1.94.95,3.53,0,.65-.04,1.26-.12,1.82-.17,1.08-.62,2.06-1.35,2.94s-1.58,1.6-2.55,2.16c-.97.57-1.9.97-2.8,1.22-.05.02-.12.03-.23.03-.25,0-.38-.1-.38-.3s.13-.35.4-.45c1.47-.52,2.65-1.28,3.54-2.28.89-1,1.43-2.14,1.61-3.42v-.12c0-.22-.06-.33-.17-.33-.08,0-.18.06-.3.17-.43.43-1.02.65-1.75.65-.53,0-1.05-.12-1.55-.35s-.91-.57-1.23-1.01c-.32-.44-.48-.95-.48-1.51,0-.63.18-1.23.53-1.8.35-.57.8-1.04,1.36-1.42.56-.38,1.13-.64,1.71-.78.32-.07.54-.16.68-.28.13-.12.19-.32.17-.6v-.17c-.05-.6-.38-.86-.98-.78l-1.48.2-.92.12c-1.65.25-2.97.58-3.95,1-.2.07-.38.12-.55.17-.17.05-.33.08-.48.08-.28,0-.62-.07-1.02-.2-.5-.15-.91-.42-1.24-.81-.33-.39-.54-.76-.64-1.11-.03-.1-.05-.17-.05-.22ZM280.69,56.82c.43.38.89.56,1.38.56.57,0,.98-.31,1.25-.93.17-.47.25-1.49.25-3.07-.03-.57-.23-.88-.6-.95-.08-.02-.2-.03-.35-.03-.45,0-.87.14-1.26.42-.39.28-.71.67-.95,1.16s-.36,1.03-.36,1.61c0,.43.22.84.65,1.21ZM284.74,47.48c0,.32.08.55.25.69s.4.19.7.14l2.02-.3c.22-.02.38-.08.5-.18.12-.1.18-.22.18-.38,0-.18-.11-.38-.33-.57-.77-.65-1.52-1.2-2.25-1.65-.2-.12-.36-.17-.48-.17-.18,0-.32.07-.42.21-.1.14-.15.33-.15.56l-.03,1.65Z"/>
  <path class="cls-1" d="M86.38,27.96c.51-.97,1.22-1.82,2.14-2.55s1.97-1.29,3.15-1.67c.35-.1.52-.33.52-.7v-1.62c.03-.55-.25-.84-.85-.88-1.13-.08-2.02-.32-2.65-.7-.3-.18-.45-.37-.45-.55,0-.07.03-.12.1-.17.07-.05.15-.08.25-.08.12,0,.26.04.42.12.37.18.76.33,1.19.44.43.11.83.16,1.21.16.27,0,.47-.08.61-.23.14-.15.22-.37.24-.65l.1-2.38c.02-.28-.02-.54-.11-.76-.09-.23-.2-.4-.34-.51-.1-.1-.15-.19-.15-.28,0-.17.13-.25.4-.25.2,0,.45.07.74.2.29.13.54.31.75.54.21.22.31.46.31.71,0,.13-.02.23-.05.3-.15.33-.27.97-.35,1.9-.03.25,0,.45.1.61.1.16.25.24.45.24.15,0,.29-.04.43-.12.48-.27.97-.65,1.47-1.15.42-.42.8-.58,1.15-.5.35.07.63.2.85.39s.33.4.33.61c0,.18-.2.41-.59.67-.39.27-.91.52-1.55.75s-1.3.41-1.99.53c-.55.1-.83.42-.85.95,0,.58,0,1.01-.02,1.28,0,.22.06.38.17.47.12.1.28.13.5.1.2-.03.36-.05.48-.05.22-.03.38-.1.48-.2.1-.1.12-.23.08-.4-.08-.22-.17-.37-.25-.45-.08-.08-.12-.17-.12-.25,0-.07.03-.11.1-.14.07-.03.15-.02.25.01.18.07.41.18.68.35.27.17.49.38.67.62.12.15.23.26.34.34.11.08.25.13.41.16,1.18.18,2.24.57,3.16,1.15.92.58,1.65,1.31,2.16,2.19.52.88.77,1.82.77,2.84,0,1.15-.37,2.23-1.1,3.25s-1.74,1.81-3.01,2.39c-1.28.58-2.7.82-4.26.74-.27-.02-.48-.06-.62-.12s-.23-.15-.23-.25.07-.19.21-.26.34-.1.59-.09c1.3.03,2.45-.21,3.44-.74.99-.52,1.76-1.23,2.3-2.12.54-.89.81-1.83.81-2.81,0-1.22-.35-2.29-1.05-3.21-.7-.92-1.69-1.58-2.98-1.96-.05-.02-.12-.02-.2-.02-.28,0-.47.17-.55.5-.35,1.27-1.08,2.86-2.2,4.77-.13.27-.2.5-.2.7,0,.13.02.29.07.47.15.52.23.86.23,1.03,0,.37-.09.7-.26,1-.17.3-.36.45-.56.45s-.38-.12-.52-.35c-.17-.32-.34-.47-.52-.47-.13,0-.29.09-.48.28-.73.77-1.46,1.33-2.17,1.69-.72.36-1.34.54-1.88.54-.5,0-.94-.19-1.31-.58-.38-.38-.66-.86-.85-1.44-.19-.58-.29-1.15-.29-1.71,0-1.07.25-2.08.76-3.05ZM87.42,31.86c.17.4.37.7.6.9.23.2.44.3.62.3.38,0,.89-.19,1.53-.56.63-.38,1.27-.91,1.92-1.61.17-.17.28-.34.34-.51.06-.17.07-.38.04-.61-.1-.93-.18-2.53-.25-4.8-.02-.17-.07-.29-.15-.39-.08-.09-.19-.14-.33-.14-.08,0-.19.02-.32.08-1.28.55-2.31,1.35-3.09,2.41-.77,1.06-1.16,2.2-1.16,3.44,0,.6.08,1.1.25,1.5ZM93.35,24.56c.02,1,.09,1.99.23,2.97.03.2.12.3.25.3.12,0,.21-.07.27-.22.43-1.12.73-2.15.9-3.1.02-.05.02-.12.02-.2,0-.15-.05-.27-.15-.35-.1-.08-.23-.12-.4-.12l-.55.05c-.38.03-.58.26-.58.67Z"/>
  <path class="cls-1" d="M113.6,23.73c0-1.87.51-4.14,1.52-6.83.13-.33.2-.64.2-.92,0-.3-.12-.58-.35-.85-.1-.13-.15-.23-.15-.3,0-.13.07-.23.23-.3.15-.07.32-.09.52-.08.45.07.86.26,1.24.58.38.32.56.73.56,1.23,0,.35-.11.73-.32,1.15-.15.28-.36.62-.62,1-.3.45-.53.83-.69,1.12-.16.3-.25.59-.26.88v.12c0,.27.07.4.2.4.12,0,.23-.1.35-.3.3-.5.71-.95,1.24-1.35.52-.4,1.05-.65,1.56-.75.32-.07.66-.1,1.02-.1,1.02,0,1.92.29,2.71.86s1.41,1.38,1.85,2.42c.44,1.04.66,2.23.66,3.56,0,.93-.11,1.87-.33,2.8-.37,1.67-1.08,3.08-2.14,4.23-1.06,1.15-2.19,2.02-3.39,2.6s-2.24.93-3.12,1.05l-.25.03c-.2,0-.35-.03-.46-.1-.11-.07-.16-.15-.16-.25,0-.12.07-.23.2-.33.13-.1.31-.16.52-.17,1.3-.13,2.46-.58,3.49-1.35s1.86-1.72,2.5-2.88c.64-1.15,1.06-2.38,1.26-3.67.1-.63.15-1.25.15-1.85,0-1.12-.16-2.15-.48-3.11-.32-.96-.77-1.72-1.38-2.3s-1.29-.86-2.07-.86c-.2,0-.35,0-.45.03-.55.07-1.06.34-1.54.82-.48.48-.87,1.06-1.17,1.74-.31.67-.49,1.33-.54,1.96-.02.17-.02.38-.02.62,0,.4.03.7.1.91.07.21.17.41.3.61.18.23.3.49.35.77.02.08.02.2.02.35,0,.35-.1.63-.29.84-.19.21-.42.31-.69.31-.33,0-.6-.15-.8-.45-.73-1.02-1.1-2.32-1.1-3.9Z"/>
  <path class="cls-1" d="M134.32,34.93c-.22,0-.4-.09-.56-.28-.16-.18-.24-.41-.24-.67,0-.32.12-.61.38-.88,1.12-1.07,2.13-2.26,3.05-3.58.92-1.32,1.62-2.93,2.12-4.85.02-.07.02-.15.02-.25,0-.12-.03-.21-.1-.29-.07-.07-.16-.11-.27-.11-.08,0-.18.03-.3.08-.28.13-.58.3-.88.5-.23.12-.46.17-.68.17-.38,0-.78-.13-1.19-.39-.41-.26-.75-.62-1.04-1.09-.08-.17-.12-.28-.12-.35,0-.15.07-.22.2-.22.15,0,.32.08.5.25.23.2.61.3,1.12.3.58,0,1.38-.12,2.38-.38.48-.12.76-.42.83-.92.15-.92.26-1.7.32-2.34.07-.64.1-1.35.1-2.14,0-.35-.05-.68-.16-1s-.29-.5-.54-.55c-.32-.07-.47-.17-.47-.32,0-.08.05-.15.16-.21s.25-.09.41-.09c.15,0,.31.03.48.08.67.2,1.17.5,1.5.9.33.4.48.83.42,1.3-.07.57-.17,1.1-.3,1.6-.13.5-.21.79-.23.88-.2.67-.33,1.18-.4,1.55-.05.22-.02.38.09.49s.28.15.51.14c.17-.02.39-.03.67-.03.95,0,1.73.17,2.33.53.63.38,1.11.98,1.44,1.8.32.82.49,1.74.49,2.77,0,1.45-.28,2.86-.85,4.23s-1.32,2.33-2.25,2.88c-.7.42-1.27.62-1.72.62-.55,0-.83-.29-.83-.88,0-.28-.11-.58-.34-.89s-.61-.77-1.16-1.39c-.13-.13-.2-.27-.2-.42,0-.07.02-.12.06-.16.04-.04.1-.06.16-.06.17,0,.35.11.55.32.33.38.7.7,1.1.94.4.24.78.36,1.12.36.52,0,1-.3,1.46-.9.46-.6.82-1.36,1.09-2.29.27-.93.4-1.85.4-2.76,0-.72-.1-1.36-.29-1.94-.19-.58-.48-1.01-.86-1.31-.42-.37-1.05-.55-1.9-.55-.27,0-.48,0-.62.02-.25.02-.46.17-.64.45s-.34.72-.49,1.3c-.57,2.05-1.31,3.83-2.23,5.35-.92,1.52-1.9,2.94-2.95,4.27-.2.27-.42.4-.67.4ZM149.97,29.86c-.15,0-.27-.03-.35-.1s-.12-.15-.12-.25c0-.22.14-.35.43-.4.75-.1,1.28-.24,1.6-.42s.53-.49.65-.92c.03-.17.05-.3.05-.4,0-.48-.15-1.03-.44-1.62-.29-.6-.74-1.18-1.35-1.74s-1.38-1.01-2.31-1.36c-.17-.07-.29-.14-.38-.23-.08-.08-.12-.17-.12-.25s.04-.15.11-.2c.07-.05.18-.07.31-.07.12,0,.21,0,.27.02,1.12.27,2.15.75,3.1,1.46.95.71,1.7,1.49,2.26,2.34.56.85.84,1.62.84,2.3,0,.23-.03.44-.1.62-.17.48-.4.81-.7.99s-.67.26-1.1.26c-.18,0-.46-.02-.82-.05-.4-.03-.72-.05-.95-.05-.32,0-.55.02-.7.05l-.17.03ZM152.92,19.86c.6.47.9.89.9,1.28,0,.2-.07.36-.21.47-.14.12-.32.17-.54.17-.32,0-.59-.12-.83-.38-.27-.32-.41-.48-.42-.5-.33-.4-.65-.73-.94-.99-.29-.26-.71-.53-1.26-.81-.25-.13-.38-.28-.38-.42s.12-.23.35-.23c.13,0,.28.03.45.08,1.32.42,2.27.86,2.88,1.33ZM154.66,17.8c.59.42.89.82.89,1.19,0,.18-.07.33-.21.45s-.31.17-.51.17c-.28,0-.52-.09-.73-.28-.15-.12-.35-.32-.6-.6-.3-.33-.6-.61-.89-.84-.29-.22-.69-.44-1.19-.64-.28-.12-.43-.26-.43-.43,0-.07.04-.12.11-.16.07-.04.18-.06.31-.06.17,0,.3.02.4.05,1.3.33,2.25.71,2.84,1.14Z"/>
  <path class="cls-1" d="M165.08,34.28c-1.41-.75-2.05-2.1-1.94-4.05.08-1.78,1.36-3.26,3.83-4.42.32-.15.48-.35.48-.6,0-.15-.05-.32-.15-.52-.4-.72-.6-1.66-.6-2.83,0-.78.04-1.59.12-2.42.02-.23.03-.5.05-.79.02-.29.02-.6.02-.94,0-.53-.05-.97-.15-1.3-.1-.33-.28-.58-.55-.75-.22-.15-.33-.3-.33-.45,0-.08.03-.15.09-.2.06-.05.15-.08.26-.08s.25.02.4.08c.7.22,1.21.47,1.52.75.5.45.75.93.75,1.45,0,.25-.07.66-.22,1.23-.22.9-.34,1.66-.38,2.27l-.03,1.68c0,.88.06,1.54.18,1.97.1.38.34.58.73.58.07,0,.18-.02.35-.05,1.68-.53,2.78-.75,3.3-.65.33.07.59.2.76.4.18.2.26.42.26.65,0,.28-.12.53-.38.73-.25.2-.6.29-1.05.27-.15-.02-.4-.02-.75-.02-1.18,0-2.37.14-3.56.42-1.19.28-2.19.75-2.99,1.39-.8.64-1.2,1.47-1.2,2.49,0,1.08.45,1.9,1.35,2.45.9.55,2.03.82,3.4.82.7,0,1.41-.07,2.12-.22.72-.15,1.39-.36,2.02-.62.25-.12.52-.17.8-.17.38,0,.7.12.94.36.24.24.36.51.36.81,0,.23-.08.45-.25.64-.17.19-.41.32-.73.39-1.23.27-2.58.4-4.02.4-1.82,0-3.43-.38-4.84-1.12Z"/>
  <path class="cls-1" d="M191.18,36.27c-.09-.06-.14-.15-.14-.26,0-.1.05-.2.14-.3.09-.1.22-.16.39-.17,2.6-.47,4.44-1.43,5.52-2.9,1.08-1.47,1.72-3.11,1.9-4.93.05-.9-.07-1.84-.35-2.82s-.77-1.82-1.45-2.51c-.68-.69-1.58-1.04-2.7-1.04-1.35,0-2.68.83-4,2.5-.35.45-.69.8-1.02,1.05-.33.25-.71.38-1.12.38-.47,0-.84-.16-1.12-.49-.28-.32-.42-.72-.42-1.19,0-.17.02-.33.07-.5.15-.45.34-.67.58-.67.08,0,.15.04.2.12.05.08.06.18.03.3-.05.15-.08.28-.08.4,0,.23.1.35.3.35.17,0,.33-.04.48-.14s.31-.21.49-.36c.17-.15.33-.27.46-.38.1-.07.42-.32.96-.76.54-.44,1.17-.8,1.9-1.09s1.47-.42,2.24-.42c1.3-.03,2.45.26,3.46.88,1.01.62,1.79,1.46,2.34,2.52.55,1.07.83,2.22.83,3.45s-.38,2.58-1.12,3.9-1.84,2.45-3.28,3.4c-1.43.95-3.12,1.53-5.05,1.75-.18.02-.32,0-.41-.06ZM191.82,18.91c-.1,0-.18-.02-.24-.08-.06-.05-.09-.12-.09-.2,0-.12.08-.21.23-.28.28-.13.5-.29.66-.47.16-.18.24-.38.24-.58,0-.28-.15-.53-.45-.75-.13-.1-.3-.27-.49-.5-.19-.23-.35-.44-.46-.62-.12-.18-.17-.36-.17-.53,0-.18.07-.27.2-.27.15,0,.33.12.55.35.43.52.94.9,1.52,1.14.58.24,1.32.45,2.23.61.32.07.57.2.75.4.18.2.27.42.27.65,0,.2-.08.37-.23.51s-.37.21-.65.21c-.22,0-.43-.03-.62-.1-.3-.08-.62-.12-.95-.12-.77,0-1.46.18-2.07.55-.07.05-.14.08-.23.08Z"/>
  <path class="cls-1" d="M93.91,35.4c-.42.8-.1,2.19.59,2.75,1.01.81,2.3,1.2,3.58,1.29,2.78.19,5.52-1.05,7.39-3.08,4.69-5.07,3.64-12.42,3.76-18.74.02-.9-.08-2.06.28-2.91.32-.77,1.15-1.02,1.92-1.02,1.56,0,3.33.9,4.26,2.15.38.51,1.25.01.86-.5-1.37-1.85-4.4-3.36-6.66-2.34-1.29.59-1.53,1.86-1.6,3.15-.1,1.8-.06,3.6-.03,5.4.09,5.74-.25,13.51-6.4,16.21-1.4.62-3.05.88-4.56.57-.73-.15-1.44-.42-2.04-.86-.35-.26-.71-1.13-.48-1.56.3-.57-.56-1.07-.86-.5h0Z"/>
  <path class="cls-1" d="M115.69,35c-1.09,0-1.87.5-2.15,1.57-.31,1.16.2,2.33,1.15,3.04,2.15,1.58,5.48.66,7.55-.62,2.32-1.44,3.98-3.67,5.03-6.17.59-1.41,1-2.88,1.3-4.37s.36-3.1.74-4.59c.2-.76.61-1.6,1.4-1.87.85-.3,1.74.21,2.42.69,1.24.89,2.25,2.04,3.87,2.14.64.04.64-.96,0-1-1.3-.08-2.22-1.15-3.2-1.88s-2.16-1.3-3.35-.92c-2.49.8-2.32,4.24-2.68,6.3-.86,4.92-3.17,10.58-8.56,11.88-1.32.32-3.13.42-4.17-.62-.49-.49-.7-1.15-.5-1.82.18-.6.56-.77,1.17-.77.64,0,.64-1,0-1h0Z"/>
  <path class="cls-1" d="M149.73,19.04c1.73-.08,3.44.12,5.1.62.62.18.88-.78.27-.96-1.74-.51-3.56-.74-5.37-.65-.64.03-.64,1.03,0,1h0Z"/>
  <path class="cls-1" d="M151.77,28.64c-1.05.02-2.25.13-2.9,1.08-.59.86-.27,1.91.46,2.59,1.61,1.51,4.17,1.32,5.9.15,4.31-2.92,3.85-9.07,5.61-13.42.53-1.31,1.3-2.73,2.58-3.44,1.21-.67,3-.48,3.42,1.04.17.62,1.14.36.96-.27-.56-2.03-2.86-2.59-4.61-1.78-2.01.93-3.04,3.22-3.69,5.2-.73,2.25-1.03,4.6-1.7,6.86s-1.8,4.6-4.09,5.47c-1.1.42-2.42.38-3.41-.31-.55-.38-1.07-1.09-.48-1.68.5-.5,1.3-.49,1.95-.5s.64-1.01,0-1h0Z"/>
  <path class="cls-1" d="M173.89,34.94c2.29-.15,3.37-2.52,3.92-4.43.67-2.32,1.01-4.71,1.62-7.04s1.49-4.46,3.08-6.22c1.46-1.61,3.34-2.84,5.42-3.48.56-.17,1.23-.41,1.82-.28.7.16.85,1.01,1.14,1.57.56,1.07,1.43,1.95,2.45,2.58.55.34,1.05-.53.5-.86-1.01-.62-1.77-1.49-2.26-2.57-.46-1.02-.99-1.77-2.22-1.74-1.03.03-2.08.43-3.01.83-1.02.44-1.97,1-2.84,1.68-1.73,1.34-3.09,3.08-3.97,5.09-.97,2.21-1.42,4.59-1.91,6.94-.28,1.33-.57,2.67-1,3.96-.41,1.22-1.26,2.89-2.74,2.99-.64.04-.64,1.04,0,1h0Z"/>
  <path class="cls-1" d="M191.64,35.5c-3.58.14-7.11,1.12-10.23,2.89-1.47.84-3.13,1.85-3.99,3.36-.76,1.35-.74,2.95.28,4.15,1.3,1.54,3.39,1.76,5.27,1.9.64.05.64-.95,0-1-1.76-.13-4.23-.36-4.97-2.3s1.29-3.59,2.71-4.52c3.25-2.13,7.04-3.33,10.92-3.49.64-.03.64-1.03,0-1h0Z"/>
  <path class="cls-1" d="M188.01,45.19c1.66.34,3.31.69,4.97,1.03.26.05.54-.08.62-.35.07-.25-.08-.56-.35-.62-1.66-.34-3.31-.69-4.97-1.03-.26-.05-.54.08-.62.35-.07.25.08.56.35.62h0Z"/>
  <path class="cls-1" d="M213.95,44.14c1.73-.14,3.44.08,5.07.67.25.09.55-.1.62-.35.08-.28-.09-.52-.35-.62-1.7-.62-3.53-.86-5.34-.71-.27.02-.5.21-.5.5,0,.25.23.52.5.5h0Z"/>
  <path class="cls-1" d="M190.1,62.35c1.23-1.22,2.36-2.54,3.24-4.03s1.43-3.2,1.94-4.89c.25-.83.51-1.67.84-2.47s.75-1.79,1.42-2.4c.31-.28.79-.58,1.22-.44.3.1.5.38.68.62.39.54.7,1.08,1.24,1.48s1.02-.48.5-.86c-.58-.43-.82-1.18-1.33-1.69-.55-.55-1.27-.71-2-.45-1.62.57-2.38,2.6-2.92,4.08-.67,1.86-1.06,3.82-1.94,5.6s-2.17,3.34-3.59,4.75c-.46.45.25,1.16.71.71h0Z"/>
  <path class="cls-1" d="M211.2,63.71c1.61.22,3.09-.37,4.27-1.46,1.31-1.2,2.02-2.88,2.52-4.55.57-1.89,1.02-3.79,1.7-5.65.37-1.02.79-2.02,1.25-3,.36-.77.71-1.78,1.34-2.37,1.44-1.35,2.81,1.61,3.28,2.58.28.58,1.14.07.86-.5-.55-1.13-1.25-2.64-2.46-3.18-1.76-.8-2.8.74-3.48,2.12-.93,1.88-1.72,3.84-2.36,5.84s-.94,3.97-1.81,5.8-2.64,3.69-4.86,3.38c-.63-.09-.9.88-.27.96h0Z"/>
  <path class="cls-1" d="M242.35,57c-.42,1.17-.28,2.92.76,3.74,1.28,1.01,3.31.3,4.31-.76,1.4-1.49,1.59-3.64,1.45-5.59-.16-2.25-.51-4.48-.63-6.73-.02-.27-.05-.66.18-.86.31-.28.66.03.86.32.28.41.44.9.74,1.31.59.81,1.42,1.38,2.37,1.68.61.2.88-.77.27-.96-.86-.27-1.58-.83-2.03-1.62-.39-.69-.66-1.45-1.47-1.75-.69-.26-1.39.05-1.71.7-.39.78-.15,1.76-.07,2.58.2,2.08.52,4.18.54,6.27.02,1.79-.46,4.05-2.36,4.73-.79.28-1.8.27-2.19-.58-.3-.67-.3-1.51-.05-2.19.22-.61-.75-.87-.96-.27h0Z"/>
  <path class="cls-1" d="M263.67,62.24c.21,1.44,2.4,1.57,3.33.87,1.47-1.11,1.39-3.49,1.41-5.14.02-2.09-.16-4.27.49-6.3.3-.94.87-1.88,1.82-2.26.86-.34,1.81-.03,2.18.83.26.59,1.12.08.86-.5-.64-1.47-2.46-1.79-3.78-1.08-1.6.87-2.18,2.75-2.41,4.44-.28,2.04-.08,4.11-.2,6.16-.06.91-.09,2.08-.71,2.81-.3.36-.72.54-1.18.46-.32-.06-.78-.2-.84-.56-.09-.63-1.06-.36-.96.27h0Z"/>
  <path class="cls-1" d="M91.87,19.66c-.58.26-1.19-.04-1.73-.28-.5-.22-.98-.39-1.52-.5-1.2-.24-2.41-.42-3.63-.57-2.58-.31-5.18-.41-7.78-.4-5.28.02-10.54.51-15.8.91-2.48.19-4.96.37-7.44.45-1.22.04-2.45.06-3.67.04-1.34-.02-2.76-.07-3.98-.69-.99-.5-1.88-1.49-1.94-2.64-.06-1.01.58-1.79,1.43-2.24,1.98-1.06,4.63-.82,6.79-.91,2.93-.12,5.85-.24,8.78-.36,2.58-.11,5.29-.03,7.8-.74,2.13-.6,4.08-1.9,5.02-3.96.87-1.91.52-4.04-.98-5.54-1.74-1.74-4.24-2.16-6.61-2.21-2.91-.07-5.83,0-8.74.02-5.9.02-11.81.05-17.71.07-11.77.05-23.54.09-35.3.14l-4.37.02c-.64,0-.64,1,0,1,11.89-.05,23.78-.09,35.68-.14l17.71-.07,8.86-.03c2.66-.01,5.76-.38,8.23.83,2.14,1.06,3.39,3.29,2.29,5.58s-3.37,3.25-5.69,3.64c-2.75.46-5.63.38-8.41.5-2.93.12-5.85.24-8.78.36-1.91.08-4.1.13-5.68,1.36-1.69,1.31-1.62,3.56-.28,5.1,1.63,1.89,4.33,1.93,6.63,1.94,2.45,0,4.91-.11,7.36-.28,5.24-.35,10.46-.89,15.7-1.07,2.66-.09,5.32-.09,7.98.08,1.29.08,2.58.2,3.86.39,1.2.17,2.5.29,3.62.77.95.41,1.82.77,2.82.31.58-.27.08-1.13-.5-.86h0Z"/>
  <path class="cls-1" d="M283.77,60.34c-.97,1.59-2.83,2.28-4.43,3.07-.66.32-1.55.09-2.28.08-.94,0-1.88.05-2.8.24-2.7.56-5.52,2.93-4.93,5.97.52,2.68,3.44,3.55,5.8,3.77,1.71.16,3.46.08,5.18.08,2.04,0,4.07,0,6.11,0,3.99,0,7.98,0,11.96,0s7.79-.08,11.68.01c3.29.08,6.98.59,9.1,3.4.88,1.16,1.45,2.66,1.18,4.13-.24,1.29-1.06,2.36-2.14,3.06-2.38,1.56-5.42,1.71-8.17,1.95-3.94.35-7.89.69-11.83,1.04-2.05.18-4.09.36-6.14.54-1.74.15-3.51.32-5.16.93-2.65.97-5.1,3.34-4.73,6.37s3.1,5.12,5.88,5.8c1.72.42,3.51.43,5.27.34,2.02-.1,4.03-.25,6.04-.38,7.87-.47,15.74-.83,23.62-1.05,15.78-.46,31.57-.4,47.34.15,1.99.07,3.97.15,5.96.23.64.03.64-.97,0-1-15.6-.66-31.21-.85-46.82-.54-7.77.16-15.54.44-23.31.83-3.91.2-7.81.44-11.71.69-3.36.21-7.27.36-9.8-2.27-.99-1.03-1.67-2.43-1.5-3.89.18-1.53,1.28-2.81,2.54-3.61,1.5-.95,3.29-1.29,5.02-1.48,1.91-.21,3.83-.35,5.75-.52,3.86-.34,7.72-.68,11.58-1.02,2.98-.26,6.15-.31,8.97-1.42,2.3-.91,4.27-2.7,4.38-5.31.12-2.81-1.95-5.42-4.38-6.61-3.07-1.5-6.58-1.39-9.91-1.39-3.99,0-7.98,0-11.96,0s-7.81,0-11.71,0c-1.99,0-3.99,0-5.98,0-1.39,0-2.79-.03-4.14-.4-1.14-.31-2.29-.91-2.8-2.04-.63-1.4.05-2.96,1.08-3.97,1.27-1.24,3.08-1.59,4.8-1.64.83-.03,1.65.04,2.47.06.74.02,1.49-.53,2.14-.85,1.42-.69,2.8-1.49,3.64-2.87.34-.55-.53-1.05-.86-.5h0Z"/>
</svg>