<?xml version="1.0" encoding="UTF-8"?>
<svg id="_レイヤー_1" data-name="レイヤー_1" xmlns="http://www.w3.org/2000/svg" viewBox="0 0 205.46 112.78">
  <defs>
    <style>
      .cls-1 {
        fill: #c33f4e;
      }

      .cls-2 {
        fill: #4e3f36;
      }
    </style>
  </defs>
  <path class="cls-1" d="M35.37,3c1.93,0,1.93-3,0-3s-1.93,3,0,3h0Z"/>
  <path class="cls-1" d="M29.97,11c-5.55,8.28-9.12,17.81-10.44,27.69-.67,5-.78,10.05-.26,15.06.56,5.4,1.78,10.81,1.28,16.27-.41,4.45-2.19,9.19-6.23,11.53-3.24,1.88-8.05,2.11-10.26-1.44-1.81-2.91-1.35-7.33,2.5-8.17,4.77-1.05,8.14,3.3,9.23,7.39,2.64,9.86-1.95,20.84-9.76,27.01-1.51,1.2.62,3.31,2.12,2.12,8.1-6.4,12.49-17.15,11.04-27.39-.72-5.03-3.29-10.18-8.44-11.8-4.38-1.37-9.54.62-10.54,5.4-.85,4.05,1.24,8.62,5.07,10.34,4.56,2.05,10.06.38,13.44-3.1,8.64-8.87,3.47-22.59,3.24-33.29-.27-12.79,3.5-25.48,10.61-36.1,1.08-1.61-1.52-3.11-2.59-1.51h0Z"/>
  <g>
    <path class="cls-1" d="M64.07,69.38c-.05-.04-.08-.08-.08-.14,0-.07.03-.12.08-.15.06-.04.14-.05.24-.03.28.06.47-.09.56-.45.06-.21.08-.52.08-.95,0-.31,0-.55-.01-.71v-.94c-.01-.25-.05-.46-.13-.61-.08-.15-.21-.23-.39-.23-.09,0-.17-.01-.22-.04-.05-.03-.08-.07-.08-.11,0-.04.03-.08.08-.12.05-.04.12-.07.22-.09.29-.07.59-.23.9-.46.04-.02.1-.06.2-.12.09-.06.17-.09.22-.09.13,0,.2.06.2.17l-.03.56-.06.97c-.02.35-.03.8-.03,1.37,0,.66.02,1.13.07,1.41.03.16.08.28.15.35.07.08.18.11.32.11.07,0,.12,0,.17-.01h.08c.07-.01.13,0,.18.04s.06.08.06.14-.03.1-.08.14c-.05.04-.12.06-.22.06h-2.28c-.09,0-.17-.02-.22-.06ZM64.76,62.97c-.15-.15-.23-.34-.23-.55s.08-.41.23-.57c.15-.15.34-.23.55-.23s.4.08.55.23c.15.15.23.34.23.57s-.08.4-.23.55c-.15.15-.34.23-.55.23s-.4-.08-.55-.23Z"/>
    <path class="cls-1" d="M70.45,69.09c-.12-.24-.18-.52-.18-.86v-3.47c0-.09-.05-.14-.14-.14-.17,0-.3,0-.4,0-.1,0-.18,0-.24,0-.07,0-.13-.02-.18-.07s-.06-.1-.06-.17c0-.08.02-.14.07-.19.05-.05.12-.08.21-.08.45,0,.75-.13.9-.38.11-.18.2-.42.25-.74.04-.18.07-.3.11-.38.04-.08.1-.12.18-.12.18,0,.27.12.27.36v1.15c0,.09.05.14.14.14.33,0,.6,0,.81-.01.21,0,.36-.01.45-.01s.15.02.19.07.06.11.06.18c0,.07-.02.13-.07.18-.05.06-.11.08-.18.07-.26-.03-.69-.04-1.27-.04-.09,0-.14.05-.14.14,0,1.06-.01,2.23-.01,3.5,0,.16.05.3.15.43.1.13.23.2.39.2.21,0,.42-.13.66-.39.08-.09.16-.14.22-.14.07,0,.11.04.11.13s-.04.18-.13.29c-.17.21-.38.37-.64.5-.26.13-.55.2-.87.2s-.54-.12-.66-.36Z"/>
    <path class="cls-1" d="M76.79,69.15c-.41-.2-.74-.5-1-.9-.26-.4-.39-.89-.39-1.46s.13-1.07.39-1.47c.26-.4.59-.7,1-.9.41-.2.83-.3,1.28-.3s.88.1,1.29.3c.41.2.75.5,1.01.9.26.4.39.89.39,1.47s-.13,1.06-.39,1.46c-.26.4-.6.7-1.01.9-.41.2-.84.29-1.29.29s-.88-.1-1.29-.29ZM79.24,68.45c.29-.42.43-.97.43-1.67s-.15-1.23-.44-1.66c-.29-.42-.68-.64-1.16-.64s-.86.21-1.16.64c-.29.42-.44.98-.44,1.66s.15,1.23.44,1.66c.29.42.68.64,1.16.64s.87-.21,1.16-.63Z"/>
    <path class="cls-2" d="M90.48,68.87c-.5-.39-.76-1.03-.76-1.92,0-.53.12-1,.35-1.4.23-.4.53-.72.9-.95.37-.23.75-.37,1.16-.42.11-.02.26-.03.45-.03.35,0,.66.06.92.18.06.02.09.03.1.03.09,0,.14-.06.14-.18l-.03-2.74c0-.25-.04-.45-.12-.61-.08-.15-.21-.23-.39-.23-.2,0-.29-.05-.29-.14,0-.04.03-.08.08-.12.05-.04.12-.08.22-.1.26-.08.51-.2.74-.34.23-.14.38-.23.43-.26.09-.05.16-.07.21-.07.12,0,.18.06.18.17s-.01.3-.04.57c-.1,1.33-.15,2.8-.15,4.38v1.06c0,.83.01,1.47.04,1.93.02.46.08.75.16.88.05.08.12.13.21.13.07,0,.16-.01.25-.04.03,0,.07-.01.13-.01s.1.01.13.04c.03.03.05.06.05.1,0,.05-.02.1-.07.15-.05.05-.11.09-.2.11-.2.06-.4.15-.62.28-.17.1-.28.15-.35.15-.17,0-.31-.09-.42-.27-.07-.12-.14-.15-.24-.08-.38.23-.84.35-1.39.35-.69,0-1.29-.19-1.79-.58ZM93.35,68.7c.25-.26.37-.54.37-.85,0-.34,0-.58.01-.73,0-.12,0-.28,0-.48,0-.2,0-.47,0-.81,0-.38-.13-.7-.39-.94-.26-.25-.56-.37-.9-.37-.09,0-.16,0-.21.01-.22.04-.45.14-.67.32-.22.18-.41.43-.56.76-.15.33-.22.72-.22,1.18s.08.89.25,1.24c.17.35.38.61.64.79.26.18.52.27.78.27.35,0,.64-.13.89-.38Z"/>
    <path class="cls-2" d="M98.45,65.34c.25-.41.57-.71.97-.91.39-.2.79-.3,1.19-.3.59,0,1.08.15,1.48.46.4.3.6.72.6,1.24,0,.2-.04.35-.12.46-.08.11-.18.17-.29.17h-2.98c-.14-.01-.21.05-.21.18,0,.64.15,1.18.46,1.63.31.45.73.68,1.26.68.39,0,.73-.09,1.02-.27.29-.18.5-.38.63-.62.07-.11.14-.17.22-.17.09,0,.14.06.14.18,0,.09-.03.17-.08.24-.26.38-.55.67-.87.85-.32.19-.72.28-1.2.28-.45,0-.87-.1-1.27-.29-.4-.2-.72-.5-.97-.9-.25-.4-.37-.89-.37-1.46s.13-1.06.38-1.46ZM99.19,65.93c0,.11.07.17.2.17h1.92c.17-.01.28-.05.32-.13.05-.08.07-.18.07-.3,0-.34-.1-.63-.3-.85-.2-.22-.46-.33-.79-.33s-.6.12-.85.35c-.25.23-.43.57-.55,1.02,0,.02-.01.04-.01.07Z"/>
    <path class="cls-2" d="M106.65,69.29c-.23-.1-.4-.2-.5-.29-.11-.09-.17-.13-.18-.13-.03,0-.05.03-.06.08,0,.05-.01.12-.01.22,0,.06-.02.11-.06.15-.04.05-.08.07-.14.07-.12,0-.18-.07-.18-.21v-1.53c0-.07.02-.12.06-.15.04-.04.08-.06.14-.06.05,0,.09.02.13.06.04.04.06.09.06.15,0,.2.08.4.24.62.16.22.37.4.62.55.25.15.49.22.73.22.3,0,.54-.07.73-.2.19-.14.28-.32.28-.55,0-.18-.11-.34-.33-.5-.22-.15-.56-.35-1.03-.58l-.27-.13c-.31-.15-.55-.28-.73-.39s-.34-.26-.46-.45c-.13-.19-.19-.42-.19-.69,0-.25.07-.49.22-.71.14-.22.35-.4.63-.53.28-.13.6-.2.96-.2.34,0,.61.04.82.11.21.08.37.15.49.22.12.07.18.11.2.11.05,0,.07-.07.07-.21,0-.06.02-.1.06-.13.04-.03.08-.05.13-.05.06,0,.1.02.14.06.04.04.06.08.06.14v1.46c0,.06-.02.1-.06.14-.04.04-.09.06-.13.06s-.09-.02-.13-.06c-.04-.04-.06-.08-.06-.14,0-.19-.07-.38-.2-.58-.14-.2-.32-.37-.57-.5-.24-.13-.51-.2-.81-.2s-.54.07-.71.2c-.16.14-.24.3-.24.5,0,.36.3.69.91.98.08.04.16.07.24.11.07.03.14.06.21.09.35.15.64.29.86.41.22.13.41.29.56.49.15.2.23.45.23.73,0,.41-.17.75-.51,1.01-.34.26-.76.39-1.25.39-.4,0-.72-.05-.94-.15Z"/>
    <path class="cls-2" d="M111.95,69.38c-.05-.04-.08-.08-.08-.14,0-.07.03-.12.08-.15.06-.04.14-.05.24-.03.28.06.47-.09.56-.45.06-.21.08-.52.08-.95,0-.31,0-.55-.01-.71v-.94c-.01-.25-.05-.46-.13-.61-.08-.15-.21-.23-.39-.23-.09,0-.17-.01-.22-.04-.05-.03-.08-.07-.08-.11,0-.04.03-.08.08-.12.05-.04.12-.07.22-.09.29-.07.59-.23.9-.46.04-.02.1-.06.2-.12.09-.06.17-.09.22-.09.13,0,.2.06.2.17l-.03.56-.06.97c-.02.35-.03.8-.03,1.37,0,.66.02,1.13.07,1.41.03.16.08.28.15.35.07.08.18.11.32.11.07,0,.12,0,.17-.01h.08c.07-.01.13,0,.18.04s.06.08.06.14-.03.1-.08.14c-.05.04-.12.06-.22.06h-2.28c-.09,0-.17-.02-.22-.06ZM112.64,62.97c-.15-.15-.23-.34-.23-.55s.08-.41.23-.57c.15-.15.34-.23.55-.23s.4.08.55.23c.15.15.23.34.23.57s-.08.4-.23.55c-.15.15-.34.23-.55.23s-.4-.08-.55-.23Z"/>
    <path class="cls-2" d="M117.81,69.14c.07-.04.1-.08.1-.11s-.03-.08-.1-.14c-.28-.21-.42-.45-.42-.7,0-.06,0-.1.01-.13,0-.06.08-.16.2-.3.13-.15.25-.28.39-.4.06-.06.08-.11.08-.15,0-.06-.03-.1-.08-.14-.37-.33-.56-.73-.56-1.22,0-.55.19-.97.57-1.27.38-.29.84-.44,1.38-.44.41,0,.79.09,1.15.27.06.03.11.04.17.04.04,0,.08-.01.14-.04.31-.19.57-.28.8-.28.14,0,.25.05.34.14.08.09.13.19.13.28s-.04.14-.13.14h-.31c-.16,0-.3,0-.43.03-.1.02-.15.07-.15.15,0,.04.01.08.04.13.14.26.21.55.21.85,0,.53-.19.94-.57,1.22-.38.28-.84.42-1.38.42-.16,0-.3,0-.43-.01-.13,0-.24-.03-.32-.07-.04-.03-.08-.04-.14-.04-.05,0-.09.02-.14.06-.07.05-.12.12-.16.21-.04.09-.06.16-.05.2.04.17.15.28.33.33.18.05.52.08,1.03.08.82,0,1.46.11,1.93.32.46.21.69.63.69,1.25,0,.43-.14.81-.43,1.15s-.67.6-1.15.78c-.48.19-1,.28-1.55.28-.68,0-1.2-.17-1.56-.51-.36-.34-.51-.79-.45-1.35.04-.36.32-.69.85-1.01ZM118.43,69.2c-.21.11-.38.25-.49.43-.11.17-.17.37-.17.58,0,.23.07.46.21.68.14.22.34.4.6.53.26.14.57.2.92.2.49,0,.91-.12,1.23-.37.33-.25.49-.59.49-1.04,0-.32-.08-.55-.23-.71-.15-.15-.36-.25-.63-.29s-.64-.06-1.11-.06h-.56c-.1,0-.19.02-.27.06ZM118.59,66.77c.19.24.45.36.78.36s.6-.12.78-.36c.19-.24.28-.55.28-.95s-.09-.72-.28-.97c-.19-.24-.45-.36-.78-.36s-.6.12-.78.36c-.19.24-.28.56-.28.97s.09.71.28.95Z"/>
    <path class="cls-2" d="M124.75,64.89c.05-.04.12-.07.22-.09.29-.07.59-.23.9-.46.04-.02.1-.06.2-.12.09-.06.17-.09.22-.09.13,0,.2.06.2.17s0,.21-.01.31v.03s.02.08.05.09c.03.01.07,0,.12-.04.45-.37.9-.56,1.36-.56.31,0,.61.09.9.28.29.19.54.47.73.86.19.39.29.87.29,1.43v1.26c-.01.37.02.65.08.83.07.18.2.27.39.27.07,0,.13,0,.17-.01h.08c.07-.01.13,0,.17.04.04.04.06.08.06.14s-.03.1-.08.14c-.05.04-.12.06-.22.06h-2.32c-.09,0-.17-.02-.22-.06-.05-.04-.08-.08-.08-.14,0-.07.03-.12.08-.15.06-.04.14-.05.24-.03.27.05.45-.06.53-.32.08-.26.12-.66.12-1.2v-.76c0-.39-.06-.74-.19-1.05-.13-.31-.29-.55-.49-.71-.2-.17-.4-.25-.61-.25s-.42.08-.61.25c-.19.16-.35.36-.47.59-.12.23-.18.45-.18.66,0,.22-.01.54-.01.94,0,.56.02,1.03.07,1.4.03.16.08.28.15.35.07.08.18.11.32.11.07,0,.12,0,.17-.01h.08c.07-.01.13,0,.18.04s.06.08.06.14-.03.1-.08.14c-.05.04-.12.06-.22.06h-2.28c-.09,0-.17-.02-.22-.06-.05-.04-.08-.08-.08-.14,0-.07.03-.12.08-.15.06-.04.14-.05.24-.03.28.06.47-.09.56-.45.07-.23.1-.54.1-.92v-.73c-.03-.39-.04-.71-.04-.95s-.04-.46-.12-.61c-.08-.15-.21-.23-.39-.23-.09,0-.17-.01-.22-.04-.05-.03-.08-.07-.08-.11,0-.04.03-.08.08-.12Z"/>
    <path class="cls-2" d="M140.11,69.18c-.3-.19-.44-.51-.42-.98.03-.54.36-.94.99-1.2.63-.26,1.3-.41,2.01-.46.13-.02.2-.09.2-.22v-.71c0-.35-.09-.62-.27-.81-.18-.2-.41-.29-.69-.29-.31,0-.55.09-.73.27-.18.18-.27.41-.27.69,0,.2-.05.34-.14.43-.09.09-.21.14-.35.14-.12,0-.23-.05-.33-.14-.1-.09-.15-.23-.15-.41,0-.23.1-.46.29-.67.19-.21.44-.38.76-.51.31-.13.64-.2.97-.2.54,0,.99.13,1.34.4.35.27.53.65.53,1.16v2.53c0,.58.12.87.35.87.03,0,.09-.03.2-.08.1-.05.16-.08.18-.08.05,0,.08.01.11.04.03.03.04.07.04.11,0,.11-.09.2-.27.27s-.37.1-.57.1c-.41,0-.7-.14-.85-.42-.04-.07-.09-.1-.15-.1-.06,0-.11.02-.15.06-.46.32-.9.48-1.33.48-.57,0-1-.09-1.3-.28ZM142.9,67.64v-.5c-.01-.14-.08-.21-.22-.21-1.35.05-2.03.46-2.03,1.23,0,.27.1.48.29.63s.44.22.73.22c.24,0,.47-.06.69-.18.21-.12.36-.28.45-.48.07-.14.1-.38.1-.71Z"/>
    <path class="cls-2" d="M148.33,69.09c-.12-.24-.18-.52-.18-.86v-3.47c0-.09-.05-.14-.14-.14-.17,0-.3,0-.4,0-.1,0-.18,0-.24,0-.07,0-.13-.02-.18-.07s-.06-.1-.06-.17c0-.08.02-.14.07-.19.05-.05.12-.08.21-.08.45,0,.75-.13.9-.38.11-.18.2-.42.25-.74.04-.18.07-.3.11-.38.04-.08.1-.12.18-.12.18,0,.27.12.27.36v1.15c0,.09.05.14.14.14.33,0,.6,0,.81-.01.21,0,.36-.01.45-.01s.15.02.19.07.06.11.06.18c0,.07-.02.13-.07.18-.05.06-.11.08-.18.07-.26-.03-.69-.04-1.27-.04-.09,0-.14.05-.14.14,0,1.06-.01,2.23-.01,3.5,0,.16.05.3.15.43.1.13.23.2.39.2.21,0,.42-.13.66-.39.08-.09.16-.14.22-.14.07,0,.11.04.11.13s-.04.18-.13.29c-.17.21-.38.37-.64.5-.26.13-.55.2-.87.2s-.54-.12-.66-.36Z"/>
    <path class="cls-2" d="M153.66,65.34c.25-.41.57-.71.97-.91.39-.2.79-.3,1.19-.3.59,0,1.08.15,1.48.46.4.3.6.72.6,1.24,0,.2-.04.35-.12.46-.08.11-.18.17-.29.17h-2.98c-.14-.01-.21.05-.21.18,0,.64.15,1.18.46,1.63.31.45.73.68,1.26.68.39,0,.73-.09,1.02-.27.29-.18.5-.38.63-.62.07-.11.14-.17.22-.17.09,0,.14.06.14.18,0,.09-.03.17-.08.24-.26.38-.55.67-.87.85-.32.19-.72.28-1.2.28-.45,0-.87-.1-1.27-.29-.4-.2-.72-.5-.97-.9-.25-.4-.37-.89-.37-1.46s.13-1.06.38-1.46ZM154.41,65.93c0,.11.07.17.2.17h1.92c.17-.01.28-.05.32-.13.05-.08.07-.18.07-.3,0-.34-.1-.63-.3-.85-.2-.22-.46-.33-.79-.33s-.6.12-.85.35c-.25.23-.43.57-.55,1.02,0,.02-.01.04-.01.07Z"/>
    <path class="cls-2" d="M160.64,69.38c-.05-.04-.08-.08-.08-.14,0-.07.03-.12.08-.15.06-.04.14-.05.24-.03.35.06.56-.23.64-.85.06-.5.08-1.19.08-2.04,0-1.58-.02-2.96-.07-4.14,0-.19-.01-.39-.01-.62,0-.25-.04-.46-.12-.61-.08-.15-.21-.23-.39-.23-.09,0-.17-.01-.22-.04-.05-.03-.08-.07-.08-.11,0-.04.03-.08.08-.12.05-.04.12-.07.22-.09.27-.06.58-.21.94-.46.03-.02.09-.06.19-.12s.18-.09.24-.09c.13,0,.2.06.2.17l-.03.98c-.07,1.55-.1,2.84-.1,3.86v3.32c-.01.42.02.73.08.92.07.2.2.29.41.29.07,0,.12,0,.15-.01h.08c.07-.01.13,0,.18.04s.06.08.06.14-.03.1-.08.14c-.05.04-.12.06-.22.06h-2.28c-.09,0-.17-.02-.22-.06Z"/>
    <path class="cls-2" d="M165.89,69.38c-.05-.04-.08-.08-.08-.14,0-.07.03-.12.08-.15.06-.04.14-.05.24-.03.28.06.47-.09.56-.45.06-.21.08-.52.08-.95,0-.31,0-.55-.01-.71v-.94c-.01-.25-.05-.46-.13-.61-.08-.15-.21-.23-.39-.23-.09,0-.17-.01-.22-.04-.05-.03-.08-.07-.08-.11,0-.04.03-.08.08-.12.05-.04.12-.07.22-.09.29-.07.59-.23.9-.46.04-.02.1-.06.2-.12.09-.06.17-.09.22-.09.13,0,.2.06.2.17l-.03.56-.06.97c-.02.35-.03.8-.03,1.37,0,.66.02,1.13.07,1.41.03.16.08.28.15.35.07.08.18.11.32.11.07,0,.12,0,.17-.01h.08c.07-.01.13,0,.18.04s.06.08.06.14-.03.1-.08.14c-.05.04-.12.06-.22.06h-2.28c-.09,0-.17-.02-.22-.06ZM166.58,62.97c-.15-.15-.23-.34-.23-.55s.08-.41.23-.57c.15-.15.34-.23.55-.23s.4.08.55.23c.15.15.23.34.23.57s-.08.4-.23.55c-.15.15-.34.23-.55.23s-.4-.08-.55-.23Z"/>
    <path class="cls-2" d="M171.58,65.34c.25-.41.57-.71.97-.91.39-.2.79-.3,1.19-.3.59,0,1.08.15,1.48.46.4.3.6.72.6,1.24,0,.2-.04.35-.12.46-.08.11-.18.17-.29.17h-2.98c-.14-.01-.21.05-.21.18,0,.64.15,1.18.46,1.63.31.45.73.68,1.26.68.39,0,.73-.09,1.02-.27.29-.18.5-.38.63-.62.07-.11.14-.17.22-.17.09,0,.14.06.14.18,0,.09-.03.17-.08.24-.26.38-.55.67-.87.85-.32.19-.72.28-1.2.28-.45,0-.87-.1-1.27-.29-.4-.2-.72-.5-.97-.9-.25-.4-.37-.89-.37-1.46s.13-1.06.38-1.46ZM172.33,65.93c0,.11.07.17.2.17h1.92c.17-.01.28-.05.32-.13.05-.08.07-.18.07-.3,0-.34-.1-.63-.3-.85-.2-.22-.46-.33-.79-.33s-.6.12-.85.35c-.25.23-.43.57-.55,1.02,0,.02-.01.04-.01.07Z"/>
    <path class="cls-2" d="M178.7,64.89c.05-.04.12-.07.22-.09.29-.07.59-.23.9-.46.04-.02.1-.06.2-.12.09-.06.17-.09.22-.09.13,0,.2.06.2.17,0,.15,0,.29-.01.41v.03c0,.06.01.09.04.1.03,0,.07,0,.11-.06.21-.21.44-.38.69-.48.26-.11.5-.16.72-.16.12,0,.22.01.29.04.22.08.34.21.34.41,0,.14-.06.27-.17.38-.11.11-.24.17-.39.17-.08,0-.14,0-.18-.03-.2-.07-.36-.1-.5-.1-.24,0-.46.08-.64.22s-.31.37-.39.66c-.03.5-.04.95-.04,1.33,0,.6.03,1.06.08,1.4.03.16.08.28.15.35.07.08.18.11.32.11.07,0,.12,0,.17-.01h.08c.07-.01.13,0,.18.04s.06.08.06.14-.03.1-.08.14c-.05.04-.12.06-.22.06h-2.28c-.09,0-.17-.02-.22-.06-.05-.04-.08-.08-.08-.14,0-.07.03-.12.08-.15.06-.04.14-.05.24-.03.14.03.26,0,.36-.08s.17-.2.2-.37c.05-.23.07-.6.07-1.11v-1.5c-.01-.25-.05-.46-.13-.61-.08-.15-.21-.23-.39-.23-.09,0-.17-.01-.22-.04-.05-.03-.08-.07-.08-.11,0-.04.03-.08.08-.12Z"/>
    <path class="cls-2" d="M185.58,69.27c-.11-.12-.17-.26-.17-.43s.06-.31.17-.42c.11-.11.26-.17.43-.17.16,0,.3.06.41.17.12.11.18.25.18.42s-.06.31-.18.43c-.12.12-.25.17-.41.17-.18,0-.32-.06-.43-.17Z"/>
  </g>
  <g>
    <path class="cls-2" d="M42.06,98.43c-.15-.28-.22-.56-.22-.84,0-.32.08-.58.26-.79.17-.21.39-.33.67-.34,2.12-.04,4.18-.11,6.18-.21.3-.02.54-.08.73-.17.19-.09.38-.24.56-.44,1.16-1.36,2.42-3.07,3.78-5.13,1.36-2.06,2.29-3.71,2.79-4.95.12-.28.29-.49.53-.63.23-.14.48-.21.77-.21.36,0,.7.12,1.03.36.33.24.57.58.74,1.02l.06.24c0,.16-.08.24-.24.24-.12,0-.2-.02-.24-.06-.14-.1-.3-.09-.48.03-.18.12-.34.3-.48.54-.44.76-1.26,1.92-2.46,3.46-1.2,1.55-2.37,2.98-3.51,4.28-.22.26-.33.49-.33.69,0,.18.08.32.24.42.16.1.39.14.69.12,3.06-.18,5.56-.37,7.5-.57.26-.02.46-.1.61-.24.15-.14.22-.32.22-.54,0-.12-.05-.3-.15-.54-.46-.86-.94-1.57-1.44-2.13-.1-.14-.15-.26-.15-.36,0-.12.03-.22.1-.31.07-.09.17-.14.29-.14.08,0,.17.03.27.09.52.3,1.11.79,1.79,1.45.67.67,1.26,1.42,1.77,2.24.51.82.8,1.6.89,2.34.04.42-.07.77-.32,1.04-.25.27-.54.41-.85.41-.2,0-.38-.06-.54-.2-.16-.13-.27-.33-.33-.62-.02-.22-.08-.47-.18-.75-.18-.6-.59-.85-1.23-.75-1.56.22-3.34.42-5.34.6-.66.06-.99.42-.99,1.08v9.6c0,.36-.14.66-.41.88-.27.23-.55.35-.85.35-.2,0-.37-.07-.49-.2-.13-.13-.19-.32-.16-.55v-9.81c0-.34-.1-.6-.29-.78-.19-.18-.46-.26-.83-.24-1.6.14-3.18.26-4.74.36-.52.04-1.06.08-1.64.12-.57.04-1.11.09-1.6.15-.58.06-.8.32-.66.78.02.04.03.09.03.15,0,.2-.09.3-.27.3-.12,0-.26-.05-.42-.15-.28-.18-.49-.41-.65-.69ZM44.79,105.4c.37-.57.68-1.16.93-1.76.25-.6.6-1.53,1.06-2.79.12-.36.32-.62.61-.79.29-.17.61-.25.97-.25.34,0,.66.07.96.21.3.14.52.34.66.6.1.16.15.3.15.42,0,.16-.11.23-.33.21-.28-.04-.49,0-.63.13-.14.13-.28.39-.42.76-.46,1.24-1.12,2.32-1.98,3.24-.86.92-1.8,1.55-2.82,1.89-.18.06-.33.09-.45.09-.14,0-.25-.03-.33-.08-.08-.05-.12-.12-.12-.2,0-.2.16-.37.48-.51.46-.22.87-.62,1.24-1.18ZM44.51,88.17c0-.14.05-.25.15-.32.1-.07.23-.07.39-.01.46.16,1.08.44,1.86.84.2.12.41.18.63.18.34,0,.61-.17.81-.51.58-.82,1.12-1.72,1.64-2.7.51-.98.92-1.94,1.24-2.88.12-.38.32-.67.61-.88.29-.21.6-.31.94-.31.32,0,.62.08.9.25.28.17.51.42.69.76.06.12.09.23.09.33,0,.12-.04.21-.12.25-.08.05-.18.04-.3-.04-.14-.1-.29-.08-.43.06-.15.14-.33.38-.53.72-.44.74-.94,1.47-1.5,2.19-.56.72-1.3,1.64-2.22,2.76-.2.26-.3.49-.3.69,0,.26.16.53.48.81.82.72,1.23,1.32,1.23,1.8,0,.3-.1.57-.31.79-.21.23-.45.34-.71.34-.28,0-.53-.14-.75-.42-.86-1.04-1.64-1.92-2.32-2.64-.69-.72-1.36-1.29-1.99-1.71-.12-.1-.18-.22-.18-.36ZM58.07,100.11c0-.14.05-.25.17-.33.11-.08.26-.1.46-.06.64.16,1.32.53,2.04,1.09.72.57,1.33,1.24,1.83,2,.5.76.75,1.49.75,2.19,0,.5-.14.91-.41,1.21-.27.31-.58.46-.92.46-.22,0-.42-.07-.58-.21-.17-.14-.3-.35-.38-.63-.28-1.06-.67-2.09-1.17-3.11-.5-1.01-1.04-1.75-1.62-2.23-.12-.1-.18-.23-.18-.39Z"/>
    <path class="cls-2" d="M76.01,106.65c.8-.42,1.48-.87,2.04-1.36.56-.49,1.04-1.19,1.44-2.08.14-.32.32-.48.54-.48.12,0,.22.07.3.21.08.14.11.33.09.57-.1.66-.39,1.38-.87,2.16-.48.78-1.04,1.46-1.68,2.04-.64.58-1.25.94-1.83,1.08-.06.02-.14.03-.24.03-.28,0-.51-.09-.69-.29-.18-.19-.27-.42-.27-.67,0-.32.15-.58.45-.78.08-.06.32-.2.72-.42ZM76.67,91.26l-.72.06c-.2.02-.36-.04-.46-.17-.11-.13-.17-.28-.17-.44,0-.18.05-.33.17-.45.11-.12.26-.17.46-.15l.72.06c1.26.08,2.23.12,2.91.12h8.28c.38,0,.69-.13.93-.39.82-.88,1.57-1.92,2.25-3.12.18-.32.41-.56.68-.72s.55-.24.85-.24c.32,0,.62.08.9.25.28.17.49.42.63.74.04.08.06.15.06.21,0,.14-.06.25-.16.31-.11.07-.23.07-.35-.01-.1-.08-.21-.08-.33,0s-.27.21-.45.38c-.18.17-.31.29-.39.38-.54.5-1.05.94-1.53,1.32-.22.16-.33.33-.33.51,0,.26.21.39.63.39h5.25c.4,0,.74-.08,1.01-.25.27-.17.56-.41.86-.71.44-.44.89-.66,1.35-.66.26,0,.52.08.78.24.3.2.58.44.84.72.22.26.33.51.33.75,0,.22-.09.4-.27.54-.18.14-.44.21-.78.21h-21.03c-.8,0-1.77.04-2.91.12ZM79.01,85.5l-.72.06c-.2.02-.36-.03-.46-.17-.11-.13-.17-.27-.17-.43,0-.18.05-.33.17-.45.11-.12.26-.17.46-.15l.72.06c1.26.08,2.23.12,2.91.12h4.14c.34,0,.6-.09.78-.29.18-.19.27-.45.27-.76v-1.26c0-.5.14-.87.43-1.12.29-.25.65-.38,1.09-.38.36,0,.66.07.9.21.24.14.36.28.36.42,0,.16-.16.25-.48.27-.12.02-.22.09-.29.21-.07.12-.1.25-.1.39v1.26c0,.32.09.58.29.76.19.19.44.29.77.29h3.96c.4,0,.73-.08,1.01-.25s.56-.41.85-.71c.44-.44.89-.66,1.35-.66.26,0,.52.08.78.24.3.2.58.44.84.72.22.26.33.51.33.75,0,.22-.09.4-.27.54s-.44.21-.78.21h-16.23c-.8,0-1.77.04-2.91.12ZM81.89,102c.12-.24.34-.36.66-.36.18,0,.39.03.63.09.34.06.59.16.77.29.17.13.26.25.26.38,0,.04-.02.09-.06.13-.04.05-.1.09-.18.11-.14.04-.22.13-.26.27-.03.14-.05.37-.05.69,0,.62.26,1.23.77,1.83s1.25,1.09,2.22,1.47c.97.38,2.11.57,3.44.57s2.35-.05,3.04-.15c.69-.1,1.19-.29,1.49-.57.3-.28.45-.7.45-1.26,0-.36-.08-.82-.24-1.38-.02-.1-.05-.23-.09-.39-.04-.16-.06-.29-.06-.39v-.03c0-.12.05-.23.14-.32s.19-.13.32-.13c.18,0,.31.11.39.33.06.16.13.4.21.71.08.31.18.62.3.92s.29.61.51.93c.08.1.23.24.45.42.28.24.48.46.61.66.13.2.19.47.19.81,0,.58-.66.98-1.98,1.19s-3.18.31-5.58.31c-2.88,0-5.02-.52-6.42-1.56-1.4-1.04-2.1-2.48-2.1-4.32,0-.58.06-.99.18-1.23ZM81.98,92.04c0-.22.15-.33.45-.33.36,0,.65.05.89.15.23.1.46.23.7.39s.41.24.51.24h6.48c.18,0,.35-.04.53-.14.17-.09.32-.19.46-.31.12-.1.25-.2.39-.29.14-.09.28-.13.42-.13.22,0,.5.1.85.3.35.2.65.43.92.69.26.26.39.47.39.63,0,.14-.03.25-.09.31-.06.07-.15.16-.27.25-.16.12-.29.25-.38.39-.09.14-.14.35-.14.63v5.01c0,.38-.14.68-.42.9-.28.22-.59.33-.93.33-.28,0-.46-.08-.54-.26-.08-.17-.12-.39-.12-.67,0-.26-.09-.46-.27-.6-.18-.14-.44-.21-.78-.21h-6.12c-.32,0-.57.06-.73.18-.17.12-.27.28-.29.48-.02.36-.16.63-.4.81-.25.18-.54.27-.86.27-.22,0-.39-.07-.49-.2-.11-.13-.16-.3-.16-.53v-8.31ZM82.49,86.07c0-.16.09-.24.27-.24l.24.06c.82.26,1.57.67,2.25,1.25.68.57,1.02,1.17,1.02,1.82,0,.3-.1.54-.28.71-.19.17-.42.25-.68.25-.18,0-.34-.04-.49-.14-.15-.09-.26-.2-.32-.34-.32-.76-.61-1.35-.87-1.79-.26-.43-.58-.83-.96-1.21-.12-.12-.18-.24-.18-.36ZM84.92,95.4l6.24.03c.38,0,.65-.09.8-.29.15-.19.22-.45.22-.79s-.09-.6-.27-.78c-.18-.18-.44-.27-.78-.27h-6.18c-.32,0-.58.09-.77.27-.19.18-.29.44-.29.78,0,.7.34,1.05,1.02,1.05ZM84.95,98.49l6.18.03c.7,0,1.05-.36,1.05-1.08,0-.34-.08-.6-.24-.78-.16-.18-.38-.27-.66-.27l-6.36.03c-.32,0-.57.09-.75.27-.18.18-.27.44-.27.78,0,.68.35,1.02,1.05,1.02ZM88.01,100.74c0-.1.05-.19.14-.26.09-.07.2-.09.35-.07.52.1,1.14.33,1.88.69.73.36,1.37.79,1.93,1.29.56.5.89,1,.99,1.5.06.28-.02.52-.22.71-.21.19-.46.29-.77.29-.38,0-.67-.15-.87-.45-.56-.82-1.06-1.48-1.5-1.98-.44-.5-.97-.92-1.59-1.26-.22-.12-.33-.27-.33-.45ZM95.81,101.19c0-.12.05-.21.15-.27.1-.06.23-.08.39-.06.6.12,1.32.39,2.16.81.84.42,1.57.92,2.19,1.49.62.57.93,1.13.93,1.69,0,.28-.1.52-.3.71-.2.19-.43.29-.69.29-.38,0-.68-.18-.9-.54-1-1.64-2.18-2.83-3.54-3.57-.26-.14-.39-.32-.39-.54Z"/>
    <path class="cls-2" d="M110.63,81.81c0-.22.15-.33.45-.33.36,0,.65.05.89.15.23.1.46.23.7.39.24.16.41.24.51.24h17.67c.4,0,.73-.08,1.01-.25.27-.17.55-.41.85-.71.44-.44.89-.66,1.35-.66.26,0,.52.08.78.24.3.2.58.44.84.72.22.26.33.51.33.75,0,.22-.09.4-.27.54-.18.14-.44.21-.78.21l-21.36.03c-.32,0-.58.09-.77.27-.19.18-.29.44-.29.78v20.37c0,.32.09.58.29.76.19.19.44.29.77.29l17.25.03c.4,0,.73-.08,1.01-.25.27-.17.55-.41.85-.71.44-.44.89-.66,1.35-.66.26,0,.52.08.78.24.3.2.58.44.84.72.22.26.33.51.33.75,0,.22-.09.4-.27.54-.18.14-.44.21-.78.21l-21.36.03c-.34,0-.6.08-.78.22-.18.15-.27.37-.27.65,0,.48-.35,5.02-.62,5.29-.27.27-.49.01-.83.01-.4,0-.47-4-.47-4.46v-26.4ZM116.6,99.27c.32-1.94.48-4.42.48-7.44v-3.69c0-.22.15-.33.45-.33.18,0,.38.05.59.15.21.1.39.23.55.39.24.28.47.42.69.42.1,0,.18,0,.24-.03,1.74-.48,3.44-1.08,5.11-1.82,1.67-.73,3.03-1.5,4.09-2.33.4-.32.83-.48,1.29-.48.4,0,.75.13,1.06.39.31.26.53.61.65,1.05.02.04.03.11.03.21,0,.22-.09.33-.27.33-.1,0-.19-.04-.27-.12-.08-.06-.17-.09-.27-.09-.12,0-.28.06-.46.18-.19.12-.31.19-.34.21-1.24.74-2.82,1.41-4.74,1.99-1.92.59-3.76,1.02-5.52,1.28-.64.1-.96.47-.96,1.11v1.71c0,.7.34,1.05,1.02,1.05h7.95c.4,0,.73-.08,1.01-.25s.55-.41.85-.71c.44-.44.89-.66,1.35-.66.26,0,.52.08.78.24.3.2.58.44.84.72.22.26.33.51.33.75,0,.22-.09.4-.27.54-.18.14-.44.21-.78.21l-5.22.03c-.32,0-.58.09-.77.27-.19.18-.29.44-.29.78v8.55c0,.36-.14.66-.41.88-.27.23-.55.35-.85.35-.2,0-.37-.07-.49-.2-.13-.13-.19-.32-.17-.55v-9.03c0-.34-.09-.6-.27-.78-.18-.18-.44-.27-.78-.27l-2.88-.03c-.66,0-1.02.35-1.08,1.05-.14,2.14-.49,3.94-1.06,5.4s-1.52,2.69-2.83,3.69c-.22.16-.42.24-.6.24-.22,0-.33-.11-.33-.33s.14-.46.42-.72c1.1-.94,1.81-2.38,2.13-4.32Z"/>
    <path class="cls-2" d="M144.54,104.58c-.11-.12-.17-.27-.17-.45s.05-.33.17-.45c.11-.12.26-.17.46-.15.66.08,1.25.13,1.77.15.52.02,1.15.03,1.89.03h6.09c.34,0,.6-.09.78-.29.18-.19.27-.44.27-.76v-14.22c0-.34-.09-.6-.27-.78-.18-.18-.44-.27-.78-.27h-4.53c-.8,0-1.77.04-2.91.12l-.72.06c-.2.02-.36-.04-.47-.17-.11-.13-.16-.28-.16-.44,0-.18.05-.33.16-.45.11-.12.26-.17.47-.15l.72.06c1.26.08,2.23.12,2.91.12h13.29c.4,0,.73-.08,1.01-.25s.56-.41.85-.71c.44-.44.89-.66,1.35-.66.26,0,.52.08.78.24.3.2.58.44.84.72.22.26.33.51.33.75,0,.22-.09.4-.27.54-.18.14-.44.21-.78.21l-8.85.03c-.32,0-.58.09-.77.27-.19.18-.28.44-.28.78v14.16c0,.32.09.58.28.76.19.19.44.29.77.29h7.26c.4,0,.73-.08,1.01-.25s.56-.41.85-.71c.44-.44.89-.66,1.35-.66.26,0,.52.08.78.24.3.2.58.44.84.72.22.26.33.51.33.75,0,.22-.09.4-.27.54-.18.14-.44.21-.78.21l-21.54.12c-1.74,0-2.94.03-3.6.09-.2.02-.36-.03-.46-.15Z"/>
    <path class="cls-2" d="M181.16,100.44c.6-2.96.9-6.25.9-9.87,0-1.9-.05-3.8-.15-5.7,0-.22.15-.33.45-.33.24,0,.48.07.72.21s.43.32.57.54c.14.24.32.36.54.36h14.97c.18-.02.34-.07.49-.17.15-.09.32-.21.49-.38.3-.3.55-.45.75-.45.32-.02.65.05,1.01.22.35.17.65.38.89.63.24.25.37.46.39.62.02.14,0,.25-.06.32-.06.07-.16.16-.3.28-.18.16-.32.31-.41.44s-.14.33-.14.62v2.25l.03,1.56c.02.36-.12.66-.41.88-.29.23-.6.35-.91.35-.2,0-.37-.07-.51-.2-.14-.13-.2-.32-.18-.55.02-.2-.07-.36-.26-.47-.19-.11-.46-.17-.8-.17h-14.31c-.34,0-.6.09-.78.27-.18.18-.27.44-.27.78-.02,3.72-.5,6.88-1.44,9.46-.94,2.59-2.29,4.74-4.05,6.46-.22.22-.43.33-.63.33s-.3-.1-.3-.3c0-.18.12-.41.36-.69,1.62-1.92,2.73-4.36,3.33-7.32ZM180.68,83.31l-.72.06c-.2.02-.36-.04-.46-.17-.11-.13-.17-.28-.17-.44,0-.18.05-.33.17-.45.11-.12.26-.17.46-.15l.72.06c1.26.08,2.23.12,2.91.12h16.71c.4,0,.73-.08,1.01-.25s.56-.41.85-.71c.44-.44.89-.66,1.35-.66.26,0,.52.08.78.24.3.2.58.44.84.72.22.26.33.51.33.75,0,.22-.09.4-.27.54-.18.14-.44.21-.78.21h-20.82c-.8,0-1.77.04-2.91.12ZM185.61,105.93c1.31-.84,2.43-1.88,3.36-3.13.93-1.25,1.55-2.64,1.88-4.19.02-.06.03-.16.03-.3,0-.26-.09-.46-.26-.61-.17-.15-.42-.23-.73-.23h-1.56c-.8,0-1.77.04-2.91.12l-.72.06c-.2.02-.36-.03-.46-.17-.11-.13-.17-.27-.17-.43,0-.18.05-.33.17-.45.11-.12.26-.17.46-.15l.72.06c1.26.08,2.23.12,2.91.12h3.36c.34,0,.6-.09.78-.29.18-.19.27-.44.27-.76v-1.71c0-.5.14-.88.43-1.12.29-.25.65-.38,1.09-.38.36,0,.66.07.9.21s.36.28.36.42c0,.16-.16.25-.48.27-.12.02-.22.09-.29.21-.07.12-.1.25-.1.39v1.71c0,.32.09.58.29.76.19.19.44.29.77.29h3.57c.4,0,.73-.08,1.01-.25s.56-.41.85-.71c.44-.44.89-.66,1.35-.66.26,0,.52.08.78.24.3.2.58.44.84.72.22.26.33.51.33.75,0,.22-.09.4-.27.54-.18.14-.44.21-.78.21l-4.11.03-5.37-.03c-.6,0-.98.31-1.14.93l-.12.48c-.04.2-.06.33-.06.39,0,.24.08.43.24.57.16.14.39.21.69.21h3.18c.18-.02.34-.08.49-.17s.31-.21.49-.38c.3-.3.55-.45.75-.45.32-.02.65.06,1.01.23.35.17.65.38.89.63s.37.46.39.62c.02.14,0,.25-.06.31-.06.07-.16.17-.3.29-.18.16-.32.31-.41.45s-.15.34-.17.6c-.1,1.56-.41,2.83-.93,3.81-.52.98-1.25,1.72-2.19,2.22-.68.36-1.17.54-1.47.54-.08,0-.18-.02-.3-.06-.26-.1-.43-.21-.53-.33-.09-.12-.16-.28-.22-.48-.04-.18-.11-.33-.21-.45-.1-.12-.28-.24-.54-.36-.94-.4-1.78-.71-2.52-.93-.34-.12-.51-.31-.51-.57,0-.14.06-.26.19-.36.13-.1.29-.12.46-.06.1.02.54.15,1.34.39.79.24,1.52.4,2.2.48.28.02.57,0,.89-.06.31-.06.55-.14.73-.24.56-.32.99-.77,1.31-1.35.31-.58.46-1.2.46-1.86,0-1.1-.46-1.65-1.38-1.65h-3.78c-.54,0-.96.25-1.26.75-.86,1.6-2.11,3.03-3.77,4.28s-3.73,2.16-6.26,2.71h-.12c-.12,0-.22-.04-.28-.12-.07-.08-.11-.17-.11-.27,0-.22.14-.37.42-.45,1.48-.38,2.87-.99,4.19-1.83ZM183.86,89.58c0,.34.09.6.27.78.18.18.44.27.78.27h14.4c.34,0,.6-.09.78-.29.18-.19.27-.44.27-.76v-2.07c0-.34-.09-.6-.27-.78-.18-.18-.44-.27-.78-.27h-14.43c-.34,0-.6.08-.78.24-.18.16-.27.4-.27.72l.03,2.16Z"/>
  </g>
</svg>