<?xml version="1.0" encoding="UTF-8"?>
<svg xmlns="http://www.w3.org/2000/svg" version="1.1" viewBox="0 0 1034.2 1758">
  <defs>
    <style>
      .cls-1 {
        fill: #c33f4e;
      }

      .cls-2 {
        fill: none;
        opacity: .7;
        stroke: #55d1ff;
        stroke-linecap: round;
        stroke-linejoin: round;
        stroke-width: 23px;
      }
    </style>
  </defs>
  <!-- Generator: Adobe Illustrator 28.7.1, SVG Export Plug-In . SVG Version: 1.2.0 Build 142)  -->
  <g>
    <g id="_レイヤー_1">
      <path class="cls-1" d="M119.4,1116c-9.3-3.1-16.6-7.7-21.8-13.8-2.4-2.8-4.3-6.2-5.6-10.2s-2-8.1-2-12.4c0-7.6,2-14.4,6-20.4,2-2.8,3.9-4.2,5.8-4.2s1,.2,1.4.5.6.8.6,1.3c0,.8-.4,1.8-1.2,3-3.3,4.9-5,10.2-5,15.8s.6,6.5,1.7,9.5,2.8,5.6,4.9,7.7c4.3,4.3,10.1,7.6,17.4,10.1s15.5,3.7,24.4,3.7c14.8,0,28.8-3.3,42-9.8,2.3-1.2,4.9-1.8,7.8-1.8s6.1.9,8.4,2.6c2.3,1.7,3.4,3.8,3.4,6.2s-1.7,5.1-5,6.8c-5.6,3.1-13.1,5.5-22.6,7.3s-19.7,2.7-30.6,2.7-20.7-1.5-30-4.6h0ZM124,1024.4c-.7,0-1.2-.2-1.6-.6s-.6-.9-.6-1.4c0-1.2.9-2.5,2.8-4,.9-.8,5.3-3.5,13-8.2,3.5-2.1,6.9-4.3,10.2-6.4,2.3-1.6,3.4-3.2,3.4-4.8s-1.6-3.4-4.8-4.2c-7.3-2.3-13.9-4.5-19.7-6.6-5.8-2.1-10.9-4.5-15.3-7.2-.8-.5-1.5-1.3-2-2.2s-.8-1.8-.8-2.6c0-1.5.7-2.2,2.2-2.2s1.7.1,2.2.4c9.9,3.3,18.4,5.5,25.6,6.6,7.2,1.1,14.5,1.7,22,2,5.6.3,10,.7,13.1,1.2s6.1,1.7,8.9,3.6c1.9,1.2,3.2,2.6,4.1,4.3.9,1.7,1.3,3.4,1.3,5.3,0,2.8-.9,5.2-2.6,7.1-1.7,1.9-3.8,2.6-6.2,2.1-2.3-.5-4.9-.8-8-.8-6.7,0-13.7,1.6-21,4.7s-15.3,7.5-23.8,13.1c-.7.5-1.5.8-2.4.8h0Z"/>
      <path class="cls-1" d="M68.6,1198.6c0-.7.2-1.2.5-1.6s.8-.6,1.3-.6,1.1.2,1.6.6c.5.3,1.5.9,3,2s3.2,2,5.2,2.9,4.2,1.4,6.6,1.7c2.7.3,4.7.4,6.2.4,3.9,0,7.7-.4,11.6-1.2,3.7-.5,5.9-2.9,6.6-7.2.9-9.9,1.4-18.1,1.4-24.6s-.5-2.8-1.4-3.5-1.9-1.2-2.9-1.5-1.6-.5-1.9-.6c-1.2-.5-1.8-1.1-1.8-1.8s.3-1,1-1.4,1.4-.6,2.2-.6c4,0,7.9.7,11.6,2.1,3.7,1.4,5.8,3.5,6.2,6.3.3,1.6.7,2.9,1.4,4,6.1,7.5,13.3,11.3,21.6,11.4,1.3.1,2.5.8,3.5,1.9s1.5,2.4,1.5,3.9-.5,2.9-1.4,4.2-2.3,2.4-4.2,3.2c-7.3,3.2-14.9,6-22.8,8.4-3.7.9-6,3.3-6.8,7.2-8.5,41.1-20.7,74.3-36.4,99.8-1.7,2.8-3.8,4.2-6.2,4.2s-3.5-.8-4.8-2.3c-1.3-1.5-2-3.4-2-5.7s1-5.3,3-7.8c8-10.7,15.1-23.3,21.2-37.9s10.9-30,14.2-46.1c.1-.5.2-1.2.2-2,0-1.7-.6-3.1-1.7-4s-2.6-1.4-4.5-1.4c-8.8,0-15.7-.9-20.8-2.6-2.7-.9-5.2-2.3-7.5-4.1-2.3-1.8-3.8-3.4-4.3-4.9-.1-.1-.2-.4-.2-.8h0ZM123.2,1186.8c-.1.5-.2,1.3-.2,2.4,0,1.6.3,2.9,1,3.8s1.5,1.4,2.6,1.4,1.7-.3,2.4-.8l1-.6c2.4-1.5,3.6-3.2,3.6-5.2s-.6-2.9-1.8-4.2l-3.6-4.2c-.8-.8-1.5-1.2-2.2-1.2s-1.5.7-1.8,2.2l-1,6.4h0ZM132.8,1288.2c0-3.5.7-6.8,2-9.9,1.3-3.1,3.1-5.7,5.2-7.7,1.1-.8,1.9-1.2,2.6-1.2,1.1,0,1.6.5,1.6,1.6s-.5,1.9-1.6,3.2c-2.5,2.9-3.8,6.3-3.8,10.2s2.5,10,7.6,13.9,12.2,5.9,21.4,5.9,14.4-1.3,23.2-3.8c1.6-.5,3.4-.8,5.4-.8,3.5,0,6.4.9,8.8,2.7,2.4,1.8,3.6,3.8,3.6,5.9s-.5,2.3-1.4,3.3-2.3,1.8-4.2,2.3c-8.8,2.3-17.2,3.4-25.2,3.4s-17.4-1.3-24.6-4c-7.2-2.7-12.5-6.3-16-10.8-3.1-4.3-4.6-9-4.6-14.2h0ZM176.8,1206.8c7.6,0,14,1.4,19.1,4.1s8.9,6,11.3,9.7c2,3.2,3,6.3,3,9.4s-.7,4.6-2,6.2-3.1,2.4-5.4,2.4-1.6,0-2-.2c-.5-.1-1.5-.2-3-.2-3.2,0-6.9.6-11,1.8-4.1,1.2-7.7,2.5-10.8,4-.8.4-1.5.6-2.2.6s-1.2-.3-1.2-1,.7-1.9,2.2-2.8c2.3-1.6,4.3-2.9,6.2-3.8,2.7-1.6,4.8-3,6.4-4.1,1.6-1.1,2.6-2.2,3-3.1.1-.4.2-1.1.2-2,0-2.1-.9-4.3-2.6-6.5-1.7-2.2-4.3-4-7.7-5.5s-7.3-2.2-11.7-2.2-4.7.2-7.4.6h-1c-.9,0-1.7-.2-2.3-.7s-.9-1-.9-1.7.3-1.1.8-1.7,1.3-1,2.2-1.1c5.7-1.5,11.3-2.2,16.8-2.2h0ZM217,1183.6c4.8,3.7,7.2,7.1,7.2,10.2s-.6,2.9-1.7,3.8c-1.1.9-2.6,1.4-4.3,1.4-2.5,0-4.7-1-6.6-3-2.1-2.5-3.3-3.9-3.4-4-2.7-3.2-5.2-5.8-7.5-7.9-2.3-2.1-5.7-4.2-10.1-6.5-2-1.1-3-2.2-3-3.4s.9-1.8,2.8-1.8,2.3.2,3.6.6c10.5,3.3,18.2,6.9,23,10.6h0ZM230.9,1167.1c4.7,3.4,7.1,6.6,7.1,9.5s-.6,2.7-1.7,3.6c-1.1.9-2.5,1.4-4.1,1.4-2.3,0-4.2-.7-5.8-2.2-1.2-.9-2.8-2.5-4.8-4.8-2.4-2.7-4.8-4.9-7.1-6.7-2.3-1.8-5.5-3.5-9.5-5.1-2.3-.9-3.4-2.1-3.4-3.4s.3-1,.9-1.3c.6-.3,1.4-.5,2.5-.5s2.4.1,3.2.4c10.4,2.7,18,5.7,22.7,9.1h0Z"/>
      <path class="cls-1" d="M112.7,1523.1c-1.8-1.9-3.3-4.6-4.5-8s-1.8-6.6-1.8-9.7l.4-7.8c0-2.4-.5-4.5-1.6-6.2.1.1-1.5-2.3-5-7.2-1.1-1.5-2.2-2.2-3.4-2.2s-2.5,1-3.6,3l-3.4,7.4c-3.1,6.8-5.3,11.4-6.8,13.7s-3.1,3.5-5,3.5-4.2-1.2-5.4-3.5c-1.2-2.3-1.8-5.1-1.8-8.3s.6-6.3,1.8-8.4c.8-1.6,2.7-4,5.8-7.2,3.5-3.9,6.1-6.9,7.8-9,.9-1.1,1.4-2.3,1.4-3.6s-.5-2.5-1.4-3.6c-3.5-4.8-6.2-9.1-8.2-12.8-2-3.7-3.1-7.2-3.2-10.4-.3-6.4.6-11.7,2.6-15.8s5.1-7.5,9.2-10.2c4.1-2.7,9.8-5.3,17-8,3.9-1.3,5.9-3.9,6-7.8,0-1.1.1-2.9.4-5.6.4-6.7-.4-11.9-2.5-15.6s-4.2-6.6-6.4-8.5c-2.2-1.9-3.6-3.2-4.3-3.9-.8-.8-1.2-1.6-1.2-2.4,0-1.3,1.1-2,3.2-2s6.2,1,10.5,3,8,4.6,11.1,7.9,4.3,6.8,3.8,10.5c-.3,1.7-.5,4.5-.8,8.2l-1,8.4-.2,1.6c0,2.7,1.3,4.8,4,6.4,1.2.8,2.4,1.9,3.6,3.4.8.9,1.2,1.9,1.2,2.8s-.4,1.8-1.1,2.5c-.7.7-2.1,1.8-4.1,3.3l-2,2c-1.1,1.5-1.6,2.5-1.6,3.2s.3,1,1,1,2.3-.7,4-2c13.7-11.3,28.5-17,44.2-17s15.5,1.5,22.4,4.5,12.7,7.2,17.2,12.5c4.1,4.8,7.2,10.1,9.3,15.9s3.1,11.8,3.1,18.1-1.2,12.9-3.6,19.2c-3.1,8.1-8.5,15.3-16.3,21.4s-16.3,10.8-25.5,14.1-17.4,5-24.6,5.1h-.4c-1.5,0-2.6-.3-3.5-.8s-1.3-1.1-1.3-1.8.4-1.5,1.3-2c.9-.5,2-.8,3.5-.8,10.4-.3,20.3-3.4,29.7-9.3s16.1-13.2,20.1-21.9c3.9-7.9,5.8-15.9,5.8-24.2s-1.7-15.1-5.2-21.7-8.2-11.8-14.3-15.7-13-5.8-20.7-5.8-17.4,2.2-24.6,6.5c-7.2,4.3-14.3,10.4-21.2,18.3-1.2,1.3-2,2.7-2.5,4s-.7,2.9-.7,4.8v25.4c0,13.5.4,23.4,1.2,29.8.5,3.6.8,7,.8,10.2,0,6-1.1,9.6-3.4,10.8-1.7.8-3.5.2-5.3-1.7h0ZM91.4,1462.2c1.3,0,2.5-.9,3.6-2.6,4.7-8.3,8.7-18.1,12.2-29.6,1.1-3.5,1.6-6.1,1.6-8s-.3-1.2-.8-1.6c-.5-.4-1.2-.6-2-.6s-1.8.3-3.4.8c-6.3,2.1-11.3,5.1-15.1,9-3.8,3.9-5.7,8.4-5.7,13.6s2,10.9,6,16.6c1.1,1.6,2.3,2.4,3.6,2.4h0ZM106.9,1463.2c-.3-.5-.7-.8-1.1-.8-.7,0-1.3.5-2,1.6l-3.2,5.6c-.4.5-.6,1.1-.6,1.8s.5,1.5,1.4,2.4c1.3.9,2.1,1.5,2.2,1.6.8.8,1.5,1.2,2.2,1.2s1.4-.6,1.4-1.8c.1-.9.2-2.4.2-4.4v-5.2c0-.8-.2-1.5-.5-2h0Z"/>
      <path class="cls-1" d="M100.4,1632.6c0-14.9,4.1-33.1,12.2-54.6,1.1-2.7,1.6-5.1,1.6-7.4s-.9-4.7-2.8-6.8c-.8-1.1-1.2-1.9-1.2-2.4,0-1.1.6-1.9,1.8-2.4,1.2-.5,2.6-.7,4.2-.6,3.6.5,6.9,2.1,9.9,4.6s4.5,5.8,4.5,9.8-.9,5.9-2.6,9.2c-1.2,2.3-2.9,4.9-5,8-2.4,3.6-4.2,6.6-5.5,9s-2,4.7-2.1,7v1c0,2.1.5,3.2,1.6,3.2s1.9-.8,2.8-2.4c2.4-4,5.7-7.6,9.9-10.8,4.2-3.2,8.4-5.2,12.5-6,2.5-.5,5.3-.8,8.2-.8,8.1,0,15.4,2.3,21.7,6.9s11.3,11.1,14.8,19.4c3.5,8.3,5.3,17.8,5.3,28.5s-.9,14.9-2.6,22.4c-2.9,13.3-8.6,24.6-17.1,33.8-8.5,9.2-17.5,16.1-27.1,20.8s-17.9,7.5-25,8.4l-2,.2c-1.6,0-2.8-.3-3.7-.8-.9-.5-1.3-1.2-1.3-2s.5-1.8,1.6-2.6c1.1-.8,2.5-1.3,4.2-1.4,10.4-1.1,19.7-4.7,27.9-10.8s14.9-13.8,20-23,8.5-19,10.1-29.4c.8-5.1,1.2-10,1.2-14.8,0-8.9-1.3-17.2-3.8-24.9s-6.2-13.8-11-18.4-10.3-6.9-16.6-6.9-2.8,0-3.6.2c-4.4.5-8.5,2.7-12.3,6.6s-6.9,8.5-9.4,13.9-3.9,10.6-4.3,15.7c-.1,1.3-.2,3-.2,5,0,3.2.3,5.6.8,7.3.5,1.7,1.3,3.3,2.4,4.9,1.5,1.9,2.4,3.9,2.8,6.2.1.7.2,1.6.2,2.8,0,2.8-.8,5-2.3,6.7-1.5,1.7-3.4,2.5-5.5,2.5s-4.8-1.2-6.4-3.6c-5.9-8.1-8.8-18.5-8.8-31.2h0Z"/>
      <path class="cls-1" d="M71,1196.9c-5.9-4.4-7.8-12.5-6.4-19.4,1.7-8,7.1-14.7,13.2-19.8s14-9.3,22-11.4c8.9-2.4,18.1-2.3,27.2-1.1,9.8,1.2,19.4,3.3,29.2,4.5s19.6,1.8,29.5,1.9c4.9,0,9.7,0,14.6-.3,4.3-.2,8.6-.6,12.7-1.6,7.6-1.9,14.6-6.7,17-14.4,1-3.4.9-7-.6-10.2-1.2-2.7-3.4-4.9-5.7-6.7-4.8-3.7-10.7-5.8-15.1-10.1-1.1-1-1.9-2.1-2.7-3.4-1-1.7-3.6-.2-2.6,1.5,3.2,5.5,9.1,8.4,14.4,11.5s10.5,7.1,10,13.8c-.6,8.1-8.2,13.2-15.4,15.1-4.3,1.1-8.7,1.3-13.1,1.5-5,.2-9.9.3-14.9.2-9.9-.1-19.7-.8-29.5-2.1-9.8-1.2-19.4-3.3-29.2-4.5-9.2-1.1-18.4-.9-27.4,1.6-8,2.3-15.5,6.2-21.9,11.4s-11.7,11.7-14.1,19.5c-2.1,7.1-1.2,15.3,3.4,21.2,1.1,1.4,2.4,2.7,3.8,3.7,1.5,1.2,3.1-1.4,1.5-2.6h0Z"/>
      <path class="cls-1" d="M206.2,1311.4c2.2-1.5,5.1-.8,6.8,1.2,2.2,2.5,1.6,6.3.1,9-1.7,3.1-4.7,5.1-7.6,6.8s-6.3,3.3-9.6,4.7c-13.1,5.6-27.5,8.1-41.8,7.7-7.2-.2-14.3-1.2-21.2-3-7.5-1.9-14.4-5.1-21.6-7.8-7.3-2.7-15.4-4.5-23-2.4-6,1.7-11.4,5.9-14,11.6s-2.3,12.6,1.2,17.8c3.8,5.8,10.4,7.8,16.9,8.5,1.7.2,3.3.3,5,.4,1.9.1,1.9-2.9,0-3-6.5-.4-14-.9-18.5-6.2-4-4.8-4.4-11.9-1.4-17.2,3.3-5.9,9.7-9.3,16.3-9.7,8.2-.4,15.8,2.8,23.2,5.8,6.9,2.8,13.8,5.2,21.2,6.5,7.3,1.4,14.4,1.9,21.6,1.8,14.4-.3,28.7-3.7,41.6-9.9,6.1-2.9,13.1-6.5,15.3-13.4,1-3,.9-6.7-1-9.3-1.6-2.2-4.4-3.7-7.1-3.7-1.4,0-2.8.4-3.9,1.2-1.6,1.1,0,3.7,1.5,2.6h0Z"/>
      <path class="cls-1" d="M150.3,1514.8c-5.6-.1-11.1,2.8-14,7.7-1.5,2.6-2.2,5.5-3.5,8.2-1.1,2.2-2.5,4.1-4.6,5.4-7.5,4.8-20,3.9-24.1,13.4-1.2,2.7-1.3,6,.6,8.4s5,3.3,7.9,4c1.9.4,2.7-2.5.8-2.9-2.2-.5-4.9-.9-6.3-2.9s-.8-4.7.4-6.6c2.2-3.5,6.6-5.1,10.4-6.3s8.1-2.2,11.7-4.4c1.8-1.2,3.4-2.6,4.7-4.4,1.5-2.2,2.3-4.8,3.2-7.2,1.1-2.7,2.5-5.2,4.9-6.9s5.1-2.5,8-2.4c1.9,0,1.9-2.9,0-3h0Z"/>
      <path class="cls-1" d="M115.5,1726.2c-15,0-30,0-44.9,1.8-7.4.9-14.7,2.3-21.8,4.5-6.5,1.9-12.5,4.7-18.6,7.5-7.3,3.4-14.6,6.7-22,9.9-1.8.8-.2,3.4,1.5,2.6,6.6-2.9,13.2-5.9,19.8-8.9,5.8-2.7,11.5-5.4,17.6-7.4,14-4.6,28.7-6.2,43.3-6.7,8.3-.3,16.7-.3,25.1-.3,1.9,0,1.9-3,0-3h0Z"/>
      <path class="cls-1" d="M571.7,1.8c11.8,37,20.7,76.1,18.4,115.2-1.2,19.2-5.3,38.4-13.4,55.9-6.9,14.9-16.7,26.9-27.4,39.2-18.5,21.1-46,50.5-35.6,81.3,10.4,30.8,49.3,40.1,77.5,44,84.7,11.7,173.3.8,255.1,30.3,66.3,23.9,125.5,71.7,156.5,135.7,29.8,61.5,29.5,136.8-2.1,197.7-16.3,31.3-40.7,57.1-71,75.2-33,19.7-70.7,29.9-108.5,35.5-40.6,6-82,7.2-123,7.2-44.7,0-89.4-2.1-133.8-6.5-88.8-8.8-176.7-26.4-262-52.6-37.8-11.6-76.8-30-117.1-21.1-28,6.2-53.2,22-68.5,46.5-5,7.9-8.8,16.5-12.1,25.3-4.2,11.4-8.9,22.6-11.9,34.4-8.9,34.8-6.1,72.4,5.7,106.2,3,8.6,6.5,17.8,11.9,25.3,1.1,1.6,3.7,0,2.6-1.5-5.9-8.2-9.6-18.3-12.7-27.8-5.4-16.4-8.6-33.5-9.5-50.7-1.1-21.3,1.6-42.8,8.6-63,3-8.8,6.5-17.7,9.9-26.3,9.1-22.9,24.5-42.3,46.5-54.1,17.3-9.3,37.1-14.2,56.8-13.4s40.2,7.4,59.6,13.8c83.5,28,170,47.3,257.4,58.3,44,5.5,88.3,8.9,132.7,10s84.8.7,127-3c71.4-6.2,147.3-25.7,193.8-84.5,40.7-51.3,53.7-122,39.1-185.4-15.4-66.8-62.5-122.8-120.4-157.8-30.5-18.5-64-31.2-99-38.3-43.1-8.7-87.1-9.8-130.9-11.8-22.2-1-44.4-2.1-66.5-4.6-19.5-2.2-39.3-4.8-57.3-13.1-14.1-6.5-27.9-17-32.1-32.7s2.9-32.9,11.8-46.4,20.9-26.2,31.8-38.9c10.3-12.1,18.3-25.3,23.9-40.2,13.1-34.7,12-73.1,5.3-109.1-3.4-18.5-8.3-36.8-14-54.7-.6-1.8-3.5-1-2.9.8h0Z"/>
    </g>
    <g id="_レイヤー_2" data-name="レイヤー_2">
      <path class="cls-2" d="M572.6.1l26.8,124.6-57.8,101-29.9,49c7.4,20.7,19.3,37,36.4,48.3l142.7,21.4c87.7,2.4,170.9,32.3,263.6,77,28.5,56.1,53.7,109.2,69,152.7l-10.8,108.1-69.8,89c-57.4,24.7-120.4,40.2-187.3,49.4l-209.9-7.4-223-44.5c-62.6-22.8-104-27-179.9-18l-49.9,93.9c-2.7,48.4,3.8,91.8,20.2,129.9l68.2,21.8-67.8,23.3-11.5,35.1-9.8,37,19.1,12.2,30.5,8.9,26.2-3.1,19.8-1.5,16.6-10.8,8.3,17.2,16.9,10.2-7.3,20.6-80.1-5.4-43.8,3.3-21.9,11.4-14.1,19.5,7.2,25,23.5,4.4,30-4.2,19.6-8.1-31.4-24.2,4.7,17.7-3.9,29.8-3.3,12.7-9.2,34.5-11.9,27.3-16.5,26.5,1.5-68.6,85.4-33.8,35.1,2.4,12.9,13.4-33.3,14.3-32.6,27-6.4,22.7,17.7,14.3,36.3,4.5,17.6-9.8,25.5-76.6-54.2-39.4,11.1-12.1,36.6,19.6-22.6-34.4,32.4,14.7,39.7,95.3-61,18.1-2.6,47-57.9,2.2-61-13.1-22.7,17.5,13.2,24.8,32,8.3,5.7,18.9-5.7,47.9-2.7,35.6,2,35-.4,11.5-11.3-49.3-23.3-29.7,1-20,20.9-8.6,32.8-8.8-27.1,18.8-5.7,30.2-27.4,50.5,47.8-75.9,40.8-21.2,32.5,3.7,15,22.3,6,22.1-4.4,22.5-18.2,27.8-39.2,6.2-15.5,13.6-14.1,18-23,7,23,14.4-6.4,28.4-9.5,21.4v22.1l8.2,29.1,1.3-53.4,18-14.9,15.2-3.3,25.5,12.7,7.7,24.7-1.1,39.8-10.3,22.1-26.6,26.9-32,5.8-48.2,2.8-24.5,4.8-36.6,17.3"/>
    </g>
  </g>
</svg>