<?xml version="1.0" encoding="UTF-8"?>
<svg id="_レイヤー_1" data-name="レイヤー_1" xmlns="http://www.w3.org/2000/svg" viewBox="0 0 291.73 67.06">
  <defs>
    <style>
      .cls-1 {
        fill: #c33f4e;
      }
    </style>
  </defs>
  <path class="cls-1" d="M289.46.18c-19.42,10.07-41.4,13.31-63.07,13.23-23.08-.08-45.86-3.88-68.65-7.09C133.59,2.93,109.01.14,84.68,3.36c-10.35,1.37-21.26,3.51-29.97,9.61-2.17,1.52-4.14,3.27-5.97,5.19-1.93,2.03-3.75,4.19-5.93,5.96-3.58,2.91-9.9,5.11-12.98.3-.97-1.52-1.18-3.68.29-4.97,1.11-.98,2.77-1.17,4.19-.93,4.27.72,5.55,4.94,4.37,8.72-1.59,5.06-6.36,7.86-10.99,9.74s-9.5,3.22-13.62,6.08c-1.98,1.37-3.67,3.01-5.02,5.01-1.08,1.61,1.52,3.11,2.59,1.51,6.23-9.28,20.13-7.85,27.1-16.39,3.01-3.68,4.63-9.03,2.26-13.47-1.79-3.36-6.01-4.83-9.62-4.11-4.14.82-6.36,5.05-4.81,8.96,1.93,4.86,7.36,6.59,12.12,5.15,5.67-1.71,9.21-6.52,13.21-10.52s8.87-6.74,14.12-8.65c11.42-4.14,24.08-5.24,36.14-5.56,13.01-.35,26.02.64,38.94,2.15,24.79,2.89,49.37,7.74,74.34,8.97,22.88,1.12,46.42-.69,67.72-9.68,2.65-1.12,5.26-2.34,7.81-3.66,1.71-.89.2-3.48-1.51-2.59h0Z"/>
  <path class="cls-1" d="M5.28,59.02c1.93,0,1.93-3,0-3s-1.93,3,0,3h0Z"/>
  <path class="cls-1" d="M1.45,67.06c1.93,0,1.93-3,0-3s-1.93,3,0,3h0Z"/>
</svg>