<?xml version="1.0" encoding="UTF-8"?>
<svg id="_レイヤー_1" data-name="レイヤー_1" xmlns="http://www.w3.org/2000/svg" viewBox="0 0 146.97 26.67">
  <defs>
    <style>
      .cls-1 {
        fill: #c33f4e;
      }
    </style>
  </defs>
  <path class="cls-1" d="M16.94,10.09c5.76-5.43,13.8-7.26,21.52-7.08,9.09.22,17.77,3.34,26.29,6.23s17.42,5.35,26.59,6.28c8.85.89,17.79.56,26.56-.89,9.84-1.62,19.4-4.75,28.31-9.21,1.73-.86.21-3.45-1.51-2.59-16.09,8.06-34.37,11.4-52.28,9.79-9.19-.82-17.94-3.24-26.65-6.2S48.53.45,39.42.05,21.39,1.78,14.82,7.97c-1.41,1.33.72,3.45,2.12,2.12h0Z"/>
  <path class="cls-1" d="M8.54,17.86c1.93,0,1.93-3,0-3s-1.93,3,0,3h0Z"/>
  <path class="cls-1" d="M1.45,26.67c1.93,0,1.93-3,0-3s-1.93,3,0,3h0Z"/>
</svg>