<?xml version="1.0" encoding="UTF-8"?>
<svg id="_レイヤー_1" data-name="レイヤー_1" xmlns="http://www.w3.org/2000/svg" viewBox="0 0 375.98 73.35">
  <defs>
    <style>
      .cls-1 {
        fill: #c33f4e;
      }
    </style>
  </defs>
  <g>
    <path class="cls-1" d="M71.4,66.62c-1.63-.54-2.9-1.34-3.81-2.42-.42-.49-.75-1.08-.98-1.79-.23-.7-.35-1.42-.35-2.17,0-1.33.35-2.52,1.05-3.57.35-.49.69-.74,1.01-.74.09,0,.18.03.25.09.07.06.1.13.1.23,0,.14-.07.32-.21.53-.58.86-.88,1.79-.88,2.76,0,.58.1,1.14.3,1.66.2.52.48.97.86,1.35.75.75,1.76,1.34,3.04,1.77,1.28.43,2.71.65,4.27.65,2.59,0,5.04-.57,7.35-1.72.4-.21.85-.31,1.37-.31.58,0,1.07.15,1.47.46.4.3.59.67.59,1.08,0,.49-.29.89-.88,1.19-.98.54-2.3.96-3.96,1.28-1.66.31-3.44.47-5.35.47s-3.62-.27-5.25-.8ZM72.2,50.59c-.12,0-.21-.03-.28-.1-.07-.07-.1-.15-.1-.25,0-.21.16-.44.49-.7.16-.14.92-.62,2.27-1.43.61-.37,1.2-.75,1.79-1.12.4-.28.59-.56.59-.84,0-.35-.28-.6-.84-.74-1.28-.4-2.43-.78-3.45-1.16-1.02-.37-1.91-.79-2.68-1.26-.14-.09-.26-.22-.35-.38s-.14-.32-.14-.46c0-.26.13-.38.39-.38.16,0,.29.02.38.07,1.73.58,3.22.97,4.48,1.16,1.26.19,2.54.3,3.85.35.98.05,1.74.12,2.29.21.55.09,1.07.3,1.56.63.33.21.57.46.72.75.15.29.23.6.23.93,0,.49-.15.9-.45,1.24-.3.34-.67.46-1.08.37-.4-.09-.86-.14-1.4-.14-1.17,0-2.39.27-3.67.82-1.28.55-2.67,1.31-4.17,2.29-.12.09-.26.14-.42.14Z"/>
    <path class="cls-1" d="M103.62,67.56c-.22-.21-.4-.51-.54-.91-.28-.68-.42-1.67-.42-2.97,0-.63.01-1.05.04-1.26-.12-.56-.37-1.19-.77-1.89-.09-.19-.22-.28-.38-.28-.14,0-.26.09-.35.28-.72,1.33-1.31,2.47-1.75,3.43-.33.72-.7,1.08-1.12,1.08-.33,0-.61-.21-.84-.65-.23-.43-.35-.95-.35-1.56,0-1.1.35-1.99,1.05-2.69.86-.86,1.47-1.5,1.82-1.92.12-.16.17-.29.17-.39s-.04-.21-.1-.35c-.98-1.75-1.47-3.29-1.47-4.62,0-.7.14-1.43.42-2.21.28-.75.73-1.38,1.35-1.89s1.38-.98,2.29-1.4c.65-.3.95-.79.88-1.47-.14-1.54-.36-2.75-.65-3.62-.29-.88-.88-1.57-1.77-2.08-.3-.16-.46-.35-.46-.56,0-.14.08-.26.24-.37.16-.1.36-.16.6-.16.16,0,.35.04.56.1.89.28,1.7.75,2.45,1.4s1.12,1.41,1.12,2.28c0,.12-.02.31-.07.59l-.18,1.08c-.02.35-.08.76-.17,1.22v.07c0,.26.16.41.49.46.51.07.97.33,1.38.77.41.44.61.86.61,1.26,0,.3-.13.5-.38.59-.86.28-1.65,1.5-2.35,3.67-.02.09,0,.15.07.17.07.02.13,0,.17-.07,2.17-2.5,4.22-4.35,6.16-5.55,1.94-1.2,3.66-1.8,5.18-1.8.44,0,.84.05,1.19.14.84.21,1.56.59,2.17,1.14.61.55.91,1.27.91,2.15,0,.54-.12,1.08-.35,1.64-1.33,3.31-2,6.22-2,8.71,0,1.31.17,2.36.51,3.17.34.8.74,1.31,1.21,1.52.23.12.56.17.98.17.63,0,1.29-.17,2-.51.7-.34,1.31-.82,1.82-1.45.16-.21.36-.37.58-.49.22-.12.41-.17.58-.17.21,0,.31.08.31.25,0,.35-.43.95-1.29,1.79-.89.89-1.77,1.53-2.64,1.94s-1.67.61-2.4.61c-.3,0-.58-.04-.84-.11-1-.3-1.74-.88-2.2-1.71-.47-.84-.7-2.02-.7-3.54,0-1.21.14-2.68.42-4.41.28-1.73.71-3.85,1.29-6.37.05-.16.07-.4.07-.7,0-.58-.18-1.07-.53-1.47-.35-.4-.77-.64-1.26-.74-.28-.05-.49-.07-.63-.07-1.28,0-2.85.64-4.71,1.91s-3.75,3.17-5.69,5.69c-.21.26-.36.5-.44.73-.08.23-.12.5-.12.81v1.12c0,2.17.08,4.67.25,7.49.05.65.07,1.1.07,1.33,0,1.28-.28,1.92-.84,1.92-.21,0-.43-.1-.65-.31ZM100.94,56.85c.14,0,.26-.08.35-.25.82-1.24,1.46-2.39,1.92-3.46.23-.49.36-.98.39-1.47.02-.54.03-1.36.03-2.48,0-.26-.15-.38-.45-.38-.14,0-.31.03-.53.1-2.19.84-3.29,2.17-3.29,3.99,0,1.07.4,2.3,1.19,3.67.12.19.24.28.38.28ZM103.21,57.47s-.09.02-.14.09c-.23.28-.46.61-.67.98-.07.14-.1.26-.1.35,0,.14.05.27.14.39.14.23.26.4.35.49l.07.04s.09-.04.12-.12c.04-.08.05-.17.05-.26.05-.61.12-1.2.21-1.79.02-.09.01-.15-.04-.16Z"/>
    <path class="cls-1" d="M135.48,46.11c0-.26.1-.38.31-.38.19,0,.37.08.56.25.61.47,1.32.7,2.14.7.37,0,.83-.05,1.38-.14.55-.09,1.13-.2,1.73-.32l1.44-.31,2.8-.56c.49-.09.73-.43.73-1.01-.02-1.14-.07-1.91-.14-2.31-.09-.96-.34-1.65-.73-2.07-.4-.42-.93-.78-1.61-1.08-.3-.14-.46-.29-.46-.46,0-.21.23-.37.7-.49.33-.05.63-.07.91-.07.84,0,1.62.17,2.33.52.71.35,1.15.92,1.31,1.71.02.09.03,1.39.03,3.89,0,.61.28.91.84.91.21-.02.5-.03.88-.03.79,0,1.46.19,2.01.56.55.37.82.75.82,1.12,0,.16-.08.3-.23.4-.15.11-.37.16-.65.16-.19,0-.33-.01-.42-.03-.77-.07-1.58-.09-2.42-.07-.56,0-.84.29-.84.88v3.88c0,.51.19.77.56.77.14,0,.29-.05.46-.14.42-.21.81-.44,1.16-.68.35-.25.67-.49.96-.73.29-.25.48-.41.58-.51.37-.3.85-.46,1.44-.46s1.17.13,1.68.38c.51.26.77.55.77.88,0,.21-.12.4-.35.56-1.4,1.1-3.56,2.01-6.48,2.73-.51.09-.77.41-.77.95l-.03,3.92c0,.7.33,1.17.98,1.4.79.3,1.57.65,2.34,1.03s1.68.94,2.73,1.66c.42.28.73.6.93.95.2.35.3.7.3,1.05s-.09.64-.26.88c-.18.23-.4.35-.68.35-.3,0-.61-.16-.91-.49-1.12-1.14-2.53-2.22-4.23-3.22-.21-.12-.42-.18-.63-.18-.42,0-.74.3-.95.91-.42,1.19-1.15,2.13-2.19,2.82-1.04.69-2.33,1.03-3.87,1.03-1.77,0-3.13-.34-4.06-1.02-.93-.68-1.4-1.53-1.4-2.55,0-.68.19-1.32.56-1.92.51-.82,1.35-1.41,2.52-1.79,1.17-.37,2.47-.56,3.92-.56.7,0,1.36.04,1.99.11.89.12,1.33-.25,1.33-1.08,0-1.17-.01-2.09-.04-2.76-.05-.61-.36-.88-.94-.81-.65.05-1.2.07-1.65.07-1.7,0-3.19-.23-4.44-.68-1.26-.46-1.89-1.18-1.89-2.19,0-.12.02-.31.07-.59.35-1.35,1.44-2.54,3.26-3.57.14-.07.21-.14.21-.21,0-.05-.1-.04-.31.04-.65.26-1.17.44-1.56.56-.39.12-.76.18-1.14.18-.56,0-1.1-.16-1.61-.49-.42-.26-.79-.56-1.1-.91s-.52-.68-.61-.98c-.05-.14-.07-.24-.07-.31ZM139.72,61.58c-.79.56-1.19,1.19-1.19,1.89,0,.58.32,1.08.95,1.5s1.53.63,2.69.63c1.31,0,2.33-.24,3.06-.72.73-.48,1.28-1.21,1.63-2.19.05-.19.07-.33.07-.42,0-.54-.36-.91-1.08-1.12-.98-.3-1.95-.46-2.91-.46-1.35.02-2.43.32-3.22.88ZM141.29,53.19c.77.34,1.75.51,2.94.51.54,0,1.24-.06,2.1-.17.58-.07.85-.38.81-.95l-.21-3.6-.04-.84c-.02-.49-.34-.74-.94-.74-.19,0-.34.01-.46.04-1.66.4-2.99.94-3.99,1.64-1,.7-1.5,1.54-1.5,2.52,0,.21.01.36.04.46.07.42.49.8,1.26,1.14Z"/>
    <path class="cls-1" d="M188.47,66.72c-3.29,0-5.8-.78-7.52-2.35-1.73-1.56-2.59-3.84-2.59-6.82,0-1.91.4-3.79,1.19-5.62.79-1.83,1.87-3.39,3.22-4.67.35-.33.52-.55.52-.67s-.09-.18-.28-.18c-.05,0-.3.05-.77.14-1.28.35-2.44.72-3.47,1.1s-1.62.61-1.78.68c-1.07.42-1.92.72-2.54.91-.62.19-1.21.28-1.77.28-.72,0-1.46-.19-2.21-.56-1.28-.68-2.11-1.7-2.48-3.08-.07-.23-.06-.43.04-.59.09-.16.23-.25.42-.25.23,0,.48.14.73.42.47.51,1.04.92,1.71,1.21.68.29,1.61.42,2.8.37.63-.02,1.45-.18,2.47-.47,1.02-.29,2.54-.76,4.57-1.42.37-.12,1.29-.4,2.75-.86,1.46-.46,2.81-.85,4.06-1.17,1.25-.33,2.36-.57,3.34-.73.09-.02.24-.04.46-.04.58,0,1.15.16,1.71.47.56.31,1.03.69,1.4,1.12.37.43.56.82.56,1.17,0,.51-.4.77-1.19.77-.09,0-.33-.02-.7-.07-.82-.12-1.54-.17-2.17-.17-2.1,0-3.98.49-5.63,1.47-1.66.98-2.95,2.32-3.87,4.01-.92,1.69-1.38,3.54-1.38,5.55,0,.42.01.73.03.94.07.96.32,1.9.75,2.83.43.93,1.13,1.72,2.1,2.36.97.64,2.22.96,3.76.96l1.23-.04c.68,0,1.28.23,1.82.7.54.47.81.93.81,1.4,0,.23-.09.43-.26.58s-.44.24-.79.26c-.23.02-.58.04-1.05.04ZM189.77,53.93c.54.83.81,1.52.81,2.08,0,.33-.09.58-.26.77-.17.19-.39.28-.65.28-.28,0-.54-.09-.79-.28-.25-.19-.43-.46-.54-.8l-.28-.88c-.14-.63-.33-1.21-.58-1.73-.25-.53-.65-1.14-1.21-1.84-.19-.23-.28-.43-.28-.59,0-.21.1-.32.31-.32.26,0,.54.14.84.42,1.21,1.1,2.09,2.06,2.62,2.89ZM193.18,52.32c.55.78.82,1.43.82,1.94,0,.33-.09.58-.26.75-.17.17-.39.26-.65.26-.23,0-.46-.08-.68-.23-.22-.15-.4-.37-.54-.65-.12-.23-.2-.44-.26-.61s-.11-.33-.16-.47c-.19-.61-.4-1.14-.65-1.61-.25-.47-.64-.97-1.17-1.5-.23-.23-.35-.44-.35-.63s.12-.28.35-.28c.26,0,.55.13.88.39,1.24.98,2.13,1.86,2.68,2.64Z"/>
    <path class="cls-1" d="M216.4,65.74c-.23-.09-.35-.22-.35-.38s.11-.3.33-.4c.22-.11.53-.16.93-.16,1.33-.02,2.61-.45,3.85-1.29,1.24-.84,2.26-1.95,3.08-3.34.82-1.39,1.31-2.89,1.47-4.5.05-.47.07-.82.07-1.05,0-1.47-.29-2.9-.88-4.29-.58-1.39-1.48-2.6-2.68-3.62-1.2-1.03-2.67-1.71-4.39-2.06-.28-.05-.49-.02-.63.09-.14.11-.21.27-.21.51,0,.14.04.3.11.49.42.98.63,1.83.63,2.55,0,.54-.09.99-.28,1.37l-1.75,4.02c-1.42,3.29-2.56,5.78-3.41,7.47-.85,1.69-1.71,2.83-2.57,3.41-.47.33-.9.49-1.3.49-.44,0-.84-.16-1.19-.47-.35-.31-.8-.82-1.36-1.52-.12-.16-.32-.41-.59-.73-.77-.86-1.38-1.9-1.82-3.12-.44-1.21-.67-2.46-.67-3.75,0-.86.1-1.69.32-2.48.54-2.1,1.51-3.87,2.92-5.3,1.41-1.44,2.84-2.48,4.29-3.13,1.73-.77,3.58-1.16,5.57-1.16,1.19,0,2.36.15,3.5.46,1.14.3,2.18.74,3.12,1.29,1.82,1.05,3.24,2.4,4.27,4.04,1.03,1.64,1.54,3.44,1.54,5.37,0,.51-.04,1.02-.1,1.5-.4,2.85-1.53,5.1-3.4,6.77-1.87,1.67-4.34,2.67-7.42,2.99-.42.05-.75.02-.98-.07ZM212.05,58.32c1.02-1.75,1.86-3.72,2.54-5.9s1.01-4.16,1.01-5.93c0-.28-.02-.7-.07-1.26-.05-.26-.15-.45-.31-.58-.16-.13-.38-.18-.67-.16-1.54.23-2.97.77-4.3,1.61s-2.45,1.87-3.36,3.08-1.54,2.48-1.89,3.81c-.16.58-.25,1.21-.25,1.89,0,1.17.23,2.29.7,3.36.47,1.07,1.03,1.95,1.68,2.62.65.68,1.21,1.02,1.68,1.02.14,0,.26-.04.35-.11.91-.56,1.87-1.71,2.89-3.46Z"/>
    <path class="cls-1" d="M239.4,47.94c1.24-2.88,2.17-6.22,2.8-10.03.09-.44.31-.78.65-1,.34-.22.73-.33,1.17-.33s.86.1,1.24.3c.38.2.68.5.89.89.07.14.11.26.11.35,0,.12-.05.21-.14.26-.09.06-.22.08-.39.05-.14-.05-.24-.07-.31-.07-.35,0-.57.26-.67.77-.54,2.68-1.45,5.51-2.73,8.47-.02.05-.04.13-.04.25,0,.33.23.52.7.59.23.05.41.12.53.23.12.11.18.22.18.33s-.05.22-.14.3c-.09.08-.23.13-.42.16-.14.02-.25.1-.33.24-.08.14-.12.29-.12.46v17.68c0,.42-.16.76-.47,1.03-.31.27-.65.4-1,.4-.23,0-.43-.08-.58-.23-.15-.15-.22-.37-.19-.65v-16.31c0-.19-.04-.33-.11-.44-.07-.11-.16-.16-.28-.16-.16,0-.31.11-.46.32-1.28,1.98-2.62,3.54-4.03,4.66-.21.19-.42.28-.63.28s-.32-.12-.32-.35c0-.21.1-.46.32-.74,1.94-2.26,3.52-4.83,4.76-7.72ZM247.94,47.4c1.1-3.03,1.77-6.05,2.03-9.07.05-.51.26-.92.63-1.21s.8-.44,1.29-.44c.72,0,1.27.27,1.65.8.12.19.17.34.17.46s-.04.21-.12.26c-.08.06-.19.08-.33.05-.47-.05-.75.26-.84.91-.28,1.54-.53,2.68-.73,3.43-.05.19-.07.33-.07.42,0,.63.37.95,1.12.95h9.14c.44,0,.82-.1,1.12-.3.3-.2.62-.47.95-.82.44-.51.92-.77,1.43-.77.56,0,1.19.37,1.89,1.12.28.28.42.58.42.91,0,.23-.1.43-.31.59-.21.16-.51.25-.91.25l-8.5.04c-.37,0-.67.11-.89.32s-.33.51-.33.91v3.68c0,.37.11.67.33.89s.52.33.89.33h2.73c.47,0,.86-.1,1.17-.3.32-.2.65-.47,1-.82.51-.51,1.04-.77,1.58-.77.3,0,.61.09.91.28.35.23.68.51.98.84.26.3.39.59.39.88,0,.26-.1.47-.32.63-.21.16-.51.25-.91.25l-4.79.03-2.73-.03c-.37,0-.67.1-.89.31s-.33.51-.33.91v3.5c0,.37.11.67.33.89s.52.33.89.33h2.73c.47,0,.86-.1,1.17-.3s.65-.47,1-.82c.51-.51,1.04-.77,1.58-.77.3,0,.61.09.91.28.35.23.68.51.98.84.26.3.39.59.39.88,0,.26-.1.47-.32.63-.21.16-.51.25-.91.25l-4.79.04-2.73-.04c-.37,0-.67.1-.89.31s-.33.51-.33.91v7.35c0,.42-.16.76-.47,1.03-.31.27-.65.4-1,.4-.23,0-.43-.08-.58-.23s-.22-.37-.19-.65v-21.95c0-.4-.1-.7-.31-.91s-.51-.32-.91-.32h-1.22c-.7,0-1.17.33-1.4.98-.72,1.91-1.58,3.68-2.57,5.3-.99,1.62-2.07,2.99-3.24,4.11-.16.16-.34.25-.53.25-.12,0-.22-.04-.3-.12s-.12-.18-.12-.3c0-.16.07-.33.21-.49,1.47-1.84,2.75-4.28,3.85-7.32Z"/>
    <path class="cls-1" d="M281.54,65.66c-.21-.25-.51-.37-.91-.37h-4.76c-.4,0-.7.09-.91.26s-.32.43-.32.75c0,.42-.16.76-.49,1.03-.33.27-.68.4-1.05.4-.47,0-.7-.27-.7-.8v-13.44c0-.26.18-.38.53-.38.42,0,.76.06,1.03.17.27.12.54.27.82.46.28.19.48.28.59.28h5.22c.21,0,.41-.05.61-.16.2-.1.38-.23.54-.37.14-.12.29-.23.46-.33.16-.11.33-.16.49-.16.37,0,.75.12,1.14.35s.71.5.98.8c.27.3.4.55.4.74,0,.16-.04.29-.11.37-.07.08-.17.18-.31.3-.19.14-.33.29-.44.46s-.16.41-.16.73v9.56c0,.44-.16.79-.49,1.05-.33.26-.69.38-1.08.38-.33,0-.54-.1-.63-.3-.09-.2-.14-.46-.14-.79,0-.42-.11-.75-.32-1ZM274.64,63.08c0,.37.11.67.33.89.22.22.52.33.89.33l4.86.04c.4,0,.7-.11.91-.33.21-.22.32-.52.32-.89v-6.93c0-.4-.1-.7-.32-.91-.21-.21-.51-.32-.91-.32h-4.86c-.37,0-.67.11-.89.32s-.33.51-.33.91v6.89ZM291.55,49.73c-.21-.25-.51-.37-.91-.37h-9.14c-.4,0-.7.09-.91.26-.21.17-.32.43-.32.75,0,.42-.16.76-.49,1.03s-.68.4-1.05.4c-.47,0-.7-.27-.7-.81v-12.88c0-.26.17-.38.52-.38.42,0,.76.06,1.03.17.27.12.54.27.82.46.28.19.48.28.6.28h9.59c.21,0,.41-.05.61-.16.2-.11.38-.23.54-.37.14-.12.29-.23.46-.33.16-.11.33-.16.49-.16.37,0,.75.12,1.14.35.39.23.71.5.98.8.27.3.4.55.4.74,0,.16-.04.29-.1.37-.07.08-.17.18-.32.3-.19.14-.33.29-.44.46-.1.16-.16.41-.16.73v9c0,.44-.16.79-.49,1.05-.33.26-.69.38-1.09.38-.33,0-.54-.1-.63-.3s-.14-.46-.14-.79c0-.42-.11-.75-.32-1ZM280.28,47.16c0,.37.11.67.33.89s.52.33.89.33l9.24.04c.4,0,.7-.11.91-.33.21-.22.32-.52.32-.89v-6.37c0-.4-.11-.7-.32-.91-.21-.21-.51-.31-.91-.31h-9.24c-.37,0-.67.1-.89.31s-.33.51-.33.91v6.33ZM296.34,65.66c-.21-.25-.51-.37-.91-.37h-4.76c-.4,0-.7.09-.91.26-.21.17-.32.43-.32.75,0,.42-.16.76-.49,1.03-.33.27-.68.4-1.05.4-.47,0-.7-.27-.7-.8v-13.44c0-.26.17-.38.52-.38.42,0,.76.06,1.03.17.27.12.54.27.82.46.28.19.48.28.6.28h5.21c.21,0,.41-.05.61-.16.2-.1.38-.23.54-.37.14-.12.29-.23.46-.33.16-.11.33-.16.49-.16.37,0,.75.12,1.14.35.38.23.71.5.98.8.27.3.4.55.4.74,0,.16-.04.29-.1.37-.07.08-.17.18-.32.3-.19.14-.33.29-.44.46-.1.16-.16.41-.16.73v9.56c0,.44-.16.79-.49,1.05-.33.26-.69.38-1.09.38-.33,0-.54-.1-.63-.3s-.14-.46-.14-.79c0-.42-.11-.75-.31-1ZM289.45,63.08c0,.37.11.67.33.89.22.22.52.33.89.33l4.87.04c.4,0,.7-.11.91-.33s.32-.52.32-.89v-6.93c0-.4-.11-.7-.32-.91s-.51-.32-.91-.32h-4.87c-.37,0-.67.11-.89.32-.22.21-.33.51-.33.91v6.89Z"/>
  </g>
  <path class="cls-1" d="M70.09,41.76c-4.84-1.89-10.4-2.68-14.57-5.99-4.53-3.59-8.06-8.29-12.06-12.43-7.34-7.58-16.22-13.65-25.87-17.9C12.14,3.05,6.45,1.22.63.01,0-.12-.27.85.36.98c10.43,2.17,20.42,6.3,29.29,12.19,4.43,2.94,8.56,6.31,12.32,10.08,4.06,4.07,7.59,8.68,11.94,12.46,2.15,1.87,4.57,3.16,7.25,4.12,2.87,1.03,5.83,1.78,8.67,2.89.6.23.86-.73.27-.96h0Z"/>
  <path class="cls-1" d="M84.55,65.79c1,.07,2.05-.35,2.56-1.26.46-.83.48-1.9.55-2.82.22-2.78.45-5.54.48-8.33.01-1.44,0-2.87-.06-4.31-.05-1.35-.17-2.73.06-4.07.41-2.39,2.17-4.11,4.39-4.95,2.83-1.07,6.02-.77,8.87.02.62.17.89-.79.27-.96-4.39-1.22-10.3-1.28-13.3,2.79-1.55,2.09-1.38,4.7-1.29,7.17.12,2.95.08,5.91-.1,8.87-.09,1.43-.22,2.85-.35,4.28-.05.57-.08,1.23-.34,1.75-.33.66-1.03.88-1.72.83-.64-.05-.64.95,0,1h0Z"/>
  <path class="cls-1" d="M136.17,45.8c-2.43-1.57-6.8-2.02-8.05,1.28-.57,1.52-.27,3.2-.19,4.78.08,1.67.04,3.36-.3,5-.39,1.88-1.19,3.62-2.53,5.02-.44.47.26,1.17.71.71,2.74-2.88,3.31-6.91,3.12-10.73-.09-1.76-.66-4.28.93-5.57s4.22-.64,5.8.38c.54.35,1.04-.52.5-.86h0Z"/>
  <path class="cls-1" d="M168.88,45.2c-1.51-1.12-3.54-1.03-5.02.11-1.76,1.36-1.89,3.56-1.77,5.61.15,2.66.42,5.33.47,8,.05,2.36-.28,5.06-2.15,6.72-.91.81-2.2,1.33-3.43,1.06-1.15-.25-2.1-1.11-2.35-2.27-.13-.63-1.1-.36-.96.27.41,1.93,2.35,3.21,4.28,3.06,2.24-.18,3.99-1.83,4.83-3.83.99-2.34.82-4.92.67-7.4-.09-1.43-.18-2.87-.27-4.3-.08-1.24-.24-2.53-.04-3.77.42-2.46,3.09-3.99,5.23-2.4.52.38,1.02-.48.5-.86h0Z"/>
  <path class="cls-1" d="M192.36,54.68c.19.81,1.22.92,1.9.95,1.09.04,2.25-.15,3.29-.5,2.52-.84,3.94-3.24,4.81-5.61,1.01-2.76,1.33-6,3.35-8.28s5.22-3.46,8.17-2.96c.66.11,1.32.32,1.83.77.61.53.76,1.38.71,2.15-.11,1.61-.9,3.11-.58,4.76.12.63,1.08.36.96-.27-.27-1.44.47-2.89.6-4.31.12-1.27-.26-2.59-1.36-3.33-2.2-1.47-5.43-.95-7.69.07-2.74,1.23-4.47,3.46-5.45,6.25s-1.35,5.95-3.35,8.22c-.93,1.05-2.04,1.6-3.4,1.86-.62.12-1.26.19-1.89.17-.22,0-.45-.02-.67-.08-.07-.02-.15-.04-.21-.08-.14-.09-.03.06-.06-.05-.15-.63-1.11-.36-.96.27h0Z"/>
  <path class="cls-1" d="M216.99,65.12c-1.61-3.83,2.32-6.92,4.86-9.07s4.6-4.93,6.24-7.93,2.93-6.01,4.55-8.94c.82-1.49,1.72-2.95,2.77-4.29s2.3-2.73,3.85-3.56c1.76-.94,3.89-.8,5.41.56s2.26,3.98.91,5.74c-.39.5.31,1.22.71.71,2.41-3.11.12-7.73-3.54-8.5-3.89-.83-6.95,2.73-8.95,5.57-4.29,6.1-6.05,13.92-11.67,19.08-1.71,1.57-3.68,2.9-5.04,4.83-1.23,1.74-1.91,4.04-1.05,6.08.25.58,1.21.33.96-.27h0Z"/>
  <path class="cls-1" d="M265.48,59c1.44.26,1.94-2.2,2.06-3.18.25-2.08.62-4.14,1.11-6.17s1.11-4.05,1.84-6.02c.65-1.76,1.3-3.71,2.39-5.25.59-.83,1.42-1.42,2.47-1.3,1.23.13,2.22,1.02,3.11,1.8.48.42,1.19-.28.71-.71-1.36-1.19-3.06-2.53-4.99-1.99-1.65.47-2.51,2.13-3.17,3.57-1.77,3.9-3.08,8-3.88,12.2-.22,1.13-.39,2.27-.54,3.41-.08.62-.11,1.23-.4,1.8-.09.16-.17.33-.26.49-.04.06-.07.13-.11.19-.09.14-.2.17-.08.19-.63-.11-.9.85-.27.96h0Z"/>
  <path class="cls-1" d="M297.98,66.5c-1.42,4.2,3.45,5.99,6.69,6.5,4.79.76,10,.32,14.42-1.74,6.1-2.84,10.56-8.09,15.81-12.12s11.48-6.92,17.96-8.48c7.36-1.77,15.11-1.86,22.5-.18.63.14.89-.82.27-.96-12.71-2.89-26.51-.66-37.59,6.24-2.72,1.69-5.2,3.7-7.61,5.81s-4.91,4.43-7.61,6.34c-2.39,1.68-5,3.08-7.86,3.76-2.29.54-4.67.72-7.01.65-2.92-.09-10.58-.88-9.01-5.55.21-.61-.76-.87-.96-.27h0Z"/>
</svg>