<?xml version="1.0" encoding="UTF-8"?>
<svg id="_レイヤー_1" data-name="レイヤー_1" xmlns="http://www.w3.org/2000/svg" viewBox="0 0 1368.88 1095">
  <defs>
    <style>
      .cls-1 {
        fill: #c33f4e;
      }
    </style>
  </defs>
  <path class="cls-1" d="M167.72,213.43c-5.6-1.84-9.96-4.6-13.08-8.28-1.44-1.68-2.56-3.72-3.36-6.12-.8-2.4-1.2-4.88-1.2-7.44,0-4.56,1.2-8.64,3.6-12.24,1.2-1.68,2.36-2.52,3.48-2.52.32,0,.6.1.84.3.24.2.36.46.36.78,0,.48-.24,1.08-.72,1.8-2,2.96-3,6.12-3,9.48,0,2,.34,3.9,1.02,5.7.68,1.8,1.66,3.34,2.94,4.62,2.56,2.56,6.04,4.58,10.44,6.06,4.4,1.48,9.28,2.22,14.64,2.22,8.88,0,17.28-1.96,25.2-5.88,1.36-.72,2.92-1.08,4.68-1.08,2,0,3.68.52,5.04,1.56,1.36,1.04,2.04,2.28,2.04,3.72,0,1.68-1,3.04-3,4.08-3.36,1.84-7.88,3.3-13.56,4.38-5.68,1.08-11.8,1.62-18.36,1.62s-12.4-.92-18-2.76ZM170.48,158.47c-.4,0-.72-.12-.96-.36-.24-.24-.36-.52-.36-.84,0-.72.56-1.52,1.68-2.4.56-.48,3.16-2.12,7.8-4.92,2.08-1.28,4.12-2.56,6.12-3.84,1.36-.96,2.04-1.92,2.04-2.88,0-1.2-.96-2.04-2.88-2.52-4.4-1.36-8.34-2.68-11.82-3.96-3.48-1.28-6.54-2.72-9.18-4.32-.48-.32-.88-.76-1.2-1.32-.32-.56-.48-1.08-.48-1.56,0-.88.44-1.32,1.32-1.32.56,0,1,.08,1.32.24,5.92,2,11.04,3.32,15.36,3.96,4.32.64,8.72,1.04,13.2,1.2,3.36.16,5.98.4,7.86.72,1.88.32,3.66,1.04,5.34,2.16,1.12.72,1.94,1.58,2.46,2.58.52,1,.78,2.06.78,3.18,0,1.68-.52,3.1-1.56,4.26-1.04,1.16-2.28,1.58-3.72,1.26-1.36-.32-2.96-.48-4.8-.48-4,0-8.2.94-12.6,2.82-4.4,1.88-9.16,4.5-14.28,7.86-.4.32-.88.48-1.44.48Z"/>
  <path class="cls-1" d="M158.18,336.67c-.76-.72-1.38-1.76-1.86-3.12-.96-2.32-1.44-5.72-1.44-10.2,0-2.16.04-3.6.12-4.32-.4-1.92-1.28-4.08-2.64-6.48-.32-.64-.76-.96-1.32-.96-.48,0-.88.32-1.2.96-2.48,4.56-4.48,8.48-6,11.76-1.12,2.48-2.4,3.72-3.84,3.72-1.12,0-2.08-.74-2.88-2.22-.8-1.48-1.2-3.26-1.2-5.34,0-3.76,1.2-6.84,3.6-9.24,2.96-2.96,5.04-5.16,6.24-6.6.4-.56.6-1,.6-1.32s-.12-.72-.36-1.2c-3.36-6-5.04-11.28-5.04-15.84,0-2.4.48-4.92,1.44-7.56.96-2.56,2.5-4.72,4.62-6.48,2.12-1.76,4.74-3.36,7.86-4.8,2.24-1.04,3.24-2.72,3-5.04-.48-5.28-1.22-9.42-2.22-12.42-1-3-3.02-5.38-6.06-7.14-1.04-.56-1.56-1.2-1.56-1.92,0-.48.28-.9.84-1.26.56-.36,1.24-.54,2.04-.54.56,0,1.2.12,1.92.36,3.04.96,5.84,2.56,8.4,4.8,2.56,2.24,3.84,4.84,3.84,7.8,0,.4-.08,1.08-.24,2.04l-.6,3.72c-.08,1.2-.28,2.6-.6,4.2v.24c0,.88.56,1.4,1.68,1.56,1.76.24,3.34,1.12,4.74,2.64,1.4,1.52,2.1,2.96,2.1,4.32,0,1.04-.44,1.72-1.32,2.04-2.96.96-5.64,5.16-8.04,12.6-.08.32,0,.52.24.6.24.08.44,0,.6-.24,7.44-8.56,14.48-14.9,21.12-19.02,6.64-4.12,12.56-6.18,17.76-6.18,1.52,0,2.88.16,4.08.48,2.88.72,5.36,2.02,7.44,3.9,2.08,1.88,3.12,4.34,3.12,7.38,0,1.84-.4,3.72-1.2,5.64-4.56,11.36-6.84,21.32-6.84,29.88,0,4.48.58,8.1,1.74,10.86,1.16,2.76,2.54,4.5,4.14,5.22.8.4,1.92.6,3.36.6,2.16,0,4.44-.58,6.84-1.74,2.4-1.16,4.48-2.82,6.24-4.98.56-.72,1.22-1.28,1.98-1.68.76-.4,1.42-.6,1.98-.6.72,0,1.08.28,1.08.84,0,1.2-1.48,3.24-4.44,6.12-3.04,3.04-6.06,5.26-9.06,6.66-3,1.4-5.74,2.1-8.22,2.1-1.04,0-2-.12-2.88-.36-3.44-1.04-5.96-3-7.56-5.88-1.6-2.88-2.4-6.92-2.4-12.12,0-4.16.48-9.2,1.44-15.12.96-5.92,2.44-13.2,4.44-21.84.16-.56.24-1.36.24-2.4,0-2-.6-3.68-1.8-5.04-1.2-1.36-2.64-2.2-4.32-2.52-.96-.16-1.68-.24-2.16-.24-4.4,0-9.78,2.18-16.14,6.54-6.36,4.36-12.86,10.86-19.5,19.5-.72.88-1.22,1.72-1.5,2.52-.28.8-.42,1.72-.42,2.76v3.84c0,7.44.28,16,.84,25.68.16,2.24.24,3.76.24,4.56,0,4.4-.96,6.6-2.88,6.6-.72,0-1.46-.36-2.22-1.08ZM149,299.95c.48,0,.88-.28,1.2-.84,2.8-4.24,5-8.2,6.6-11.88.8-1.68,1.24-3.36,1.32-5.04.08-1.84.12-4.68.12-8.52,0-.88-.52-1.32-1.56-1.32-.48,0-1.08.12-1.8.36-7.52,2.88-11.28,7.44-11.28,13.68,0,3.68,1.36,7.88,4.08,12.6.4.64.84.96,1.32.96ZM156.8,302.05c-.16-.04-.32.06-.48.3-.8.96-1.56,2.08-2.28,3.36-.24.48-.36.88-.36,1.2,0,.48.16.92.48,1.32.48.8.88,1.36,1.2,1.68l.24.12c.16,0,.3-.14.42-.42.12-.28.18-.58.18-.9.16-2.08.4-4.12.72-6.12.08-.32.04-.5-.12-.54Z"/>
  <path class="cls-1" d="M147.44,383.11c0-.88.36-1.32,1.08-1.32.64,0,1.28.28,1.92.84,2.08,1.6,4.52,2.4,7.32,2.4,1.28,0,2.86-.16,4.74-.48,1.88-.32,3.86-.68,5.94-1.08l4.92-1.08,9.6-1.92c1.68-.32,2.52-1.48,2.52-3.48-.08-3.92-.24-6.56-.48-7.92-.32-3.28-1.16-5.64-2.52-7.08-1.36-1.44-3.2-2.68-5.52-3.72-1.04-.48-1.56-1-1.56-1.56,0-.72.8-1.28,2.4-1.68,1.12-.16,2.16-.24,3.12-.24,2.88,0,5.54.6,7.98,1.8,2.44,1.2,3.94,3.16,4.5,5.88.08.32.12,4.76.12,13.32,0,2.08.96,3.12,2.88,3.12.72-.08,1.72-.12,3-.12,2.72,0,5.02.64,6.9,1.92,1.88,1.28,2.82,2.56,2.82,3.84,0,.56-.26,1.02-.78,1.38-.52.36-1.26.54-2.22.54-.64,0-1.12-.04-1.44-.12-2.64-.24-5.4-.32-8.28-.24-1.92,0-2.88,1-2.88,3v13.32c0,1.76.64,2.64,1.92,2.64.48,0,1-.16,1.56-.48,1.44-.72,2.76-1.5,3.96-2.34s2.3-1.68,3.3-2.52c1-.84,1.66-1.42,1.98-1.74,1.28-1.04,2.92-1.56,4.92-1.56s4,.44,5.76,1.32c1.76.88,2.64,1.88,2.64,3,0,.72-.4,1.36-1.2,1.92-4.8,3.76-12.2,6.88-22.2,9.36-1.76.32-2.64,1.4-2.64,3.24l-.12,13.44c0,2.4,1.12,4,3.36,4.8,2.72,1.04,5.4,2.22,8.04,3.54,2.64,1.32,5.76,3.22,9.36,5.7,1.44.96,2.5,2.04,3.18,3.24.68,1.2,1.02,2.4,1.02,3.6s-.3,2.2-.9,3c-.6.8-1.38,1.2-2.34,1.2-1.04,0-2.08-.56-3.12-1.68-3.84-3.92-8.68-7.6-14.52-11.04-.72-.4-1.44-.6-2.16-.6-1.44,0-2.52,1.04-3.24,3.12-1.44,4.08-3.94,7.3-7.5,9.66-3.56,2.36-7.98,3.54-13.26,3.54-6.08,0-10.72-1.16-13.92-3.48-3.2-2.32-4.8-5.24-4.8-8.76,0-2.32.64-4.52,1.92-6.6,1.76-2.8,4.64-4.84,8.64-6.12,4-1.28,8.48-1.92,13.44-1.92,2.4,0,4.68.12,6.84.36,3.04.4,4.56-.84,4.56-3.72,0-4-.04-7.16-.12-9.48-.16-2.08-1.24-3-3.24-2.76-2.24.16-4.12.24-5.64.24-5.84,0-10.92-.78-15.24-2.34-4.32-1.56-6.48-4.06-6.48-7.5,0-.4.08-1.08.24-2.04,1.2-4.64,4.92-8.72,11.16-12.24.48-.24.72-.48.72-.72,0-.16-.36-.12-1.08.12-2.24.88-4.02,1.52-5.34,1.92-1.32.4-2.62.6-3.9.6-1.92,0-3.76-.56-5.52-1.68-1.44-.88-2.7-1.92-3.78-3.12-1.08-1.2-1.78-2.32-2.1-3.36-.16-.48-.24-.84-.24-1.08ZM161.96,436.15c-2.72,1.92-4.08,4.08-4.08,6.48,0,2,1.08,3.72,3.24,5.16,2.16,1.44,5.24,2.16,9.24,2.16,4.48,0,7.98-.82,10.5-2.46,2.52-1.64,4.38-4.14,5.58-7.5.16-.64.24-1.12.24-1.44,0-1.84-1.24-3.12-3.72-3.84-3.36-1.04-6.68-1.56-9.96-1.56-4.64.08-8.32,1.08-11.04,3ZM167.36,407.41c2.64,1.16,6,1.74,10.08,1.74,1.84,0,4.24-.2,7.2-.6,2-.24,2.92-1.32,2.76-3.24l-.72-12.36-.12-2.88c-.08-1.68-1.16-2.52-3.24-2.52-.64,0-1.16.04-1.56.12-5.68,1.36-10.24,3.24-13.68,5.64-3.44,2.4-5.16,5.28-5.16,8.64,0,.72.04,1.24.12,1.56.24,1.44,1.68,2.74,4.32,3.9Z"/>
  <path class="cls-1" d="M209.12,573.79c-11.28,0-19.88-2.68-25.8-8.04-5.92-5.36-8.88-13.16-8.88-23.4,0-6.56,1.36-12.98,4.08-19.26,2.72-6.28,6.4-11.62,11.04-16.02,1.2-1.12,1.8-1.88,1.8-2.28s-.32-.6-.96-.6c-.16,0-1.04.16-2.64.48-4.4,1.2-8.36,2.46-11.88,3.78-3.52,1.32-5.56,2.1-6.12,2.34-3.68,1.44-6.58,2.48-8.7,3.12-2.12.64-4.14.96-6.06.96-2.48,0-5-.64-7.56-1.92-4.4-2.32-7.24-5.84-8.52-10.56-.24-.8-.2-1.48.12-2.04.32-.56.8-.84,1.44-.84.8,0,1.64.48,2.52,1.44,1.6,1.76,3.56,3.14,5.88,4.14,2.32,1,5.52,1.42,9.6,1.26,2.16-.08,4.98-.62,8.46-1.62,3.48-1,8.7-2.62,15.66-4.86,1.28-.4,4.42-1.38,9.42-2.94,5-1.56,9.64-2.9,13.92-4.02,4.28-1.12,8.1-1.96,11.46-2.52.32-.08.84-.12,1.56-.12,2,0,3.96.54,5.88,1.62,1.92,1.08,3.52,2.36,4.8,3.84,1.28,1.48,1.92,2.82,1.92,4.02,0,1.76-1.36,2.64-4.08,2.64-.32,0-1.12-.08-2.4-.24-2.8-.4-5.28-.6-7.44-.6-7.2,0-13.64,1.68-19.32,5.04-5.68,3.36-10.1,7.94-13.26,13.74-3.16,5.8-4.74,12.14-4.74,19.02,0,1.44.04,2.52.12,3.24.24,3.28,1.1,6.52,2.58,9.72,1.48,3.2,3.88,5.9,7.2,8.1,3.32,2.2,7.62,3.3,12.9,3.3l4.2-.12c2.32,0,4.4.8,6.24,2.4,1.84,1.6,2.76,3.2,2.76,4.8,0,.8-.3,1.46-.9,1.98s-1.5.82-2.7.9c-.8.08-2,.12-3.6.12Z"/>
  <path class="cls-1" d="M213.56,529.93c1.84,2.84,2.76,5.22,2.76,7.14,0,1.12-.3,2-.9,2.64-.6.64-1.34.96-2.22.96-.96,0-1.86-.32-2.7-.96-.84-.64-1.46-1.56-1.86-2.76l-.96-3c-.48-2.16-1.14-4.14-1.98-5.94-.84-1.8-2.22-3.9-4.14-6.3-.64-.8-.96-1.48-.96-2.04,0-.72.36-1.08,1.08-1.08.88,0,1.84.48,2.88,1.44,4.16,3.76,7.16,7.06,9,9.9Z"/>
  <path class="cls-1" d="M230.96,529.75c1.88,2.68,2.82,4.9,2.82,6.66,0,1.12-.3,1.98-.9,2.58-.6.6-1.34.9-2.22.9-.8,0-1.58-.26-2.34-.78-.76-.52-1.38-1.26-1.86-2.22-.4-.8-.7-1.5-.9-2.1-.2-.6-.38-1.14-.54-1.62-.64-2.08-1.38-3.92-2.22-5.52-.84-1.6-2.18-3.32-4.02-5.16-.8-.8-1.2-1.52-1.2-2.16s.4-.96,1.2-.96c.88,0,1.88.44,3,1.32,4.24,3.36,7.3,6.38,9.18,9.06Z"/>
  <path class="cls-1" d="M184.88,690.43c-.8-.32-1.2-.76-1.2-1.32s.38-1.02,1.14-1.38c.76-.36,1.82-.54,3.18-.54,4.56-.08,8.96-1.56,13.2-4.44,4.24-2.88,7.76-6.7,10.56-11.46,2.8-4.76,4.48-9.9,5.04-15.42.16-1.6.24-2.8.24-3.6,0-5.04-1-9.94-3-14.7-2-4.76-5.06-8.9-9.18-12.42-4.12-3.52-9.14-5.88-15.06-7.08-.96-.16-1.68-.06-2.16.3-.48.36-.72.94-.72,1.74,0,.48.12,1.04.36,1.68,1.44,3.36,2.16,6.28,2.16,8.76,0,1.84-.32,3.4-.96,4.68l-6,13.8c-4.88,11.28-8.78,19.82-11.7,25.62-2.92,5.8-5.86,9.7-8.82,11.7-1.6,1.12-3.08,1.68-4.44,1.68-1.52,0-2.88-.54-4.08-1.62s-2.76-2.82-4.68-5.22c-.4-.56-1.08-1.4-2.04-2.52-2.64-2.96-4.72-6.52-6.24-10.68-1.52-4.16-2.28-8.44-2.28-12.84,0-2.96.36-5.8,1.08-8.52,1.84-7.2,5.18-13.26,10.02-18.18,4.84-4.92,9.74-8.5,14.7-10.74,5.92-2.64,12.28-3.96,19.08-3.96,4.08,0,8.08.52,12,1.56,3.92,1.04,7.48,2.52,10.68,4.44,6.24,3.6,11.12,8.22,14.64,13.86,3.52,5.64,5.28,11.78,5.28,18.42,0,1.76-.12,3.48-.36,5.16-1.36,9.76-5.24,17.5-11.64,23.22-6.4,5.72-14.88,9.14-25.44,10.26-1.44.16-2.56.08-3.36-.24ZM169.94,664.99c3.48-6,6.38-12.74,8.7-20.22,2.32-7.48,3.48-14.26,3.48-20.34,0-.96-.08-2.4-.24-4.32-.16-.88-.52-1.54-1.08-1.98-.56-.44-1.32-.62-2.28-.54-5.28.8-10.2,2.64-14.76,5.52-4.56,2.88-8.4,6.4-11.52,10.56-3.12,4.16-5.28,8.52-6.48,13.08-.56,2-.84,4.16-.84,6.48,0,4,.8,7.84,2.4,11.52,1.6,3.68,3.52,6.68,5.76,9,2.24,2.32,4.16,3.48,5.76,3.48.48,0,.88-.12,1.2-.36,3.12-1.92,6.42-5.88,9.9-11.88Z"/>
  <path class="cls-1" d="M143.72,749.41c4.24-9.88,7.44-21.34,9.6-34.38.32-1.52,1.06-2.66,2.22-3.42,1.16-.76,2.5-1.14,4.02-1.14s2.94.34,4.26,1.02c1.32.68,2.34,1.7,3.06,3.06.24.48.36.88.36,1.2,0,.4-.16.7-.48.9-.32.2-.76.26-1.32.18-.48-.16-.84-.24-1.08-.24-1.2,0-1.96.88-2.28,2.64-1.84,9.2-4.96,18.88-9.36,29.04-.08.16-.12.44-.12.84,0,1.12.8,1.8,2.4,2.04.8.16,1.4.42,1.8.78.4.36.6.74.6,1.14s-.16.74-.48,1.02c-.32.28-.8.46-1.44.54-.48.08-.86.36-1.14.84-.28.48-.42,1-.42,1.56v60.6c0,1.44-.54,2.62-1.62,3.54-1.08.92-2.22,1.38-3.42,1.38-.8,0-1.46-.26-1.98-.78-.52-.52-.74-1.26-.66-2.22v-55.92c0-.64-.12-1.14-.36-1.5s-.56-.54-.96-.54c-.56,0-1.08.36-1.56,1.08-4.4,6.8-9,12.12-13.8,15.96-.72.64-1.44.96-2.16.96s-1.08-.4-1.08-1.2c0-.72.36-1.56,1.08-2.52,6.64-7.76,12.08-16.58,16.32-26.46ZM173,747.55c3.76-10.4,6.08-20.76,6.96-31.08.16-1.76.88-3.14,2.16-4.14,1.28-1,2.76-1.5,4.44-1.5,2.48,0,4.36.92,5.64,2.76.4.64.6,1.16.6,1.56s-.14.7-.42.9c-.28.2-.66.26-1.14.18-1.6-.16-2.56.88-2.88,3.12-.96,5.28-1.8,9.2-2.52,11.76-.16.64-.24,1.12-.24,1.44,0,2.16,1.28,3.24,3.84,3.24h31.32c1.52,0,2.8-.34,3.84-1.02,1.04-.68,2.12-1.62,3.24-2.82,1.52-1.76,3.16-2.64,4.92-2.64,1.92,0,4.08,1.28,6.48,3.84.96.96,1.44,2,1.44,3.12,0,.8-.36,1.48-1.08,2.04-.72.56-1.76.84-3.12.84l-29.16.12c-1.28,0-2.3.36-3.06,1.08-.76.72-1.14,1.76-1.14,3.12v12.6c0,1.28.38,2.3,1.14,3.06.76.76,1.78,1.14,3.06,1.14h9.36c1.6,0,2.94-.34,4.02-1.02,1.08-.68,2.22-1.62,3.42-2.82,1.76-1.76,3.56-2.64,5.4-2.64,1.04,0,2.08.32,3.12.96,1.2.8,2.32,1.76,3.36,2.88.88,1.04,1.32,2.04,1.32,3,0,.88-.36,1.6-1.08,2.16-.72.56-1.76.84-3.12.84l-16.44.12-9.36-.12c-1.28,0-2.3.36-3.06,1.08-.76.72-1.14,1.76-1.14,3.12v12c0,1.28.38,2.3,1.14,3.06.76.76,1.78,1.14,3.06,1.14h9.36c1.6,0,2.94-.34,4.02-1.02,1.08-.68,2.22-1.62,3.42-2.82,1.76-1.76,3.56-2.64,5.4-2.64,1.04,0,2.08.32,3.12.96,1.2.8,2.32,1.76,3.36,2.88.88,1.04,1.32,2.04,1.32,3,0,.88-.36,1.6-1.08,2.16-.72.56-1.76.84-3.12.84l-16.44.12-9.36-.12c-1.28,0-2.3.36-3.06,1.08-.76.72-1.14,1.76-1.14,3.12v25.2c0,1.44-.54,2.62-1.62,3.54-1.08.92-2.22,1.38-3.42,1.38-.8,0-1.46-.26-1.98-.78-.52-.52-.74-1.26-.66-2.22v-75.24c0-1.36-.36-2.4-1.08-3.12-.72-.72-1.76-1.08-3.12-1.08h-4.2c-2.4,0-4,1.12-4.8,3.36-2.48,6.56-5.42,12.62-8.82,18.18-3.4,5.56-7.1,10.26-11.1,14.1-.56.56-1.16.84-1.8.84-.4,0-.74-.14-1.02-.42-.28-.28-.42-.62-.42-1.02,0-.56.24-1.12.72-1.68,5.04-6.32,9.44-14.68,13.2-25.08Z"/>
  <path class="cls-1" d="M168.2,930.13c-.72-.84-1.76-1.26-3.12-1.26h-16.32c-1.36,0-2.4.3-3.12.9-.72.6-1.08,1.46-1.08,2.58,0,1.44-.56,2.62-1.68,3.54-1.12.92-2.32,1.38-3.6,1.38-1.6,0-2.4-.92-2.4-2.76v-46.08c0-.88.6-1.32,1.8-1.32,1.44,0,2.62.2,3.54.6.92.4,1.86.92,2.82,1.56.96.64,1.64.96,2.04.96h17.88c.72,0,1.42-.18,2.1-.54.68-.36,1.3-.78,1.86-1.26.48-.4,1-.78,1.56-1.14.56-.36,1.12-.54,1.68-.54,1.28,0,2.58.4,3.9,1.2,1.32.8,2.44,1.72,3.36,2.76.92,1.04,1.38,1.88,1.38,2.52,0,.56-.12.98-.36,1.26-.24.28-.6.62-1.08,1.02-.64.48-1.14,1-1.5,1.56-.36.56-.54,1.4-.54,2.52v32.76c0,1.52-.56,2.72-1.68,3.6-1.12.88-2.36,1.32-3.72,1.32-1.12,0-1.84-.34-2.16-1.02-.32-.68-.48-1.58-.48-2.7,0-1.44-.36-2.58-1.08-3.42ZM144.56,921.31c0,1.28.38,2.3,1.14,3.06.76.76,1.78,1.14,3.06,1.14l16.68.12c1.36,0,2.4-.38,3.12-1.14.72-.76,1.08-1.78,1.08-3.06v-23.76c0-1.36-.36-2.4-1.08-3.12-.72-.72-1.76-1.08-3.12-1.08h-16.68c-1.28,0-2.3.36-3.06,1.08-.76.72-1.14,1.76-1.14,3.12v23.64ZM202.52,875.53c-.72-.84-1.76-1.26-3.12-1.26h-31.32c-1.36,0-2.4.3-3.12.9s-1.08,1.46-1.08,2.58c0,1.44-.56,2.62-1.68,3.54-1.12.92-2.32,1.38-3.6,1.38-1.6,0-2.4-.92-2.4-2.76v-44.16c0-.88.6-1.32,1.8-1.32,1.44,0,2.62.2,3.54.6.92.4,1.86.92,2.82,1.56.96.64,1.64.96,2.04.96h32.88c.72,0,1.42-.18,2.1-.54.68-.36,1.3-.78,1.86-1.26.48-.4,1-.78,1.56-1.14.56-.36,1.12-.54,1.68-.54,1.28,0,2.58.4,3.9,1.2,1.32.8,2.44,1.72,3.36,2.76.92,1.04,1.38,1.88,1.38,2.52,0,.56-.12.98-.36,1.26-.24.28-.6.62-1.08,1.02-.64.48-1.14,1-1.5,1.56-.36.56-.54,1.4-.54,2.52v30.84c0,1.52-.56,2.72-1.68,3.6-1.12.88-2.36,1.32-3.72,1.32-1.12,0-1.84-.34-2.16-1.02-.32-.68-.48-1.58-.48-2.7,0-1.44-.36-2.58-1.08-3.42ZM163.88,866.71c0,1.28.38,2.3,1.14,3.06.76.76,1.78,1.14,3.06,1.14l31.68.12c1.36,0,2.4-.38,3.12-1.14.72-.76,1.08-1.78,1.08-3.06v-21.84c0-1.36-.36-2.4-1.08-3.12-.72-.72-1.76-1.08-3.12-1.08h-31.68c-1.28,0-2.3.36-3.06,1.08-.76.72-1.14,1.76-1.14,3.12v21.72ZM218.96,930.13c-.72-.84-1.76-1.26-3.12-1.26h-16.32c-1.36,0-2.4.3-3.12.9-.72.6-1.08,1.46-1.08,2.58,0,1.44-.56,2.62-1.68,3.54-1.12.92-2.32,1.38-3.6,1.38-1.6,0-2.4-.92-2.4-2.76v-46.08c0-.88.6-1.32,1.8-1.32,1.44,0,2.62.2,3.54.6.92.4,1.86.92,2.82,1.56.96.64,1.64.96,2.04.96h17.88c.72,0,1.42-.18,2.1-.54.68-.36,1.3-.78,1.86-1.26.48-.4,1-.78,1.56-1.14.56-.36,1.12-.54,1.68-.54,1.28,0,2.58.4,3.9,1.2,1.32.8,2.44,1.72,3.36,2.76.92,1.04,1.38,1.88,1.38,2.52,0,.56-.12.98-.36,1.26-.24.28-.6.62-1.08,1.02-.64.48-1.14,1-1.5,1.56-.36.56-.54,1.4-.54,2.52v32.76c0,1.52-.56,2.72-1.68,3.6-1.12.88-2.36,1.32-3.72,1.32-1.12,0-1.84-.34-2.16-1.02-.32-.68-.48-1.58-.48-2.7,0-1.44-.36-2.58-1.08-3.42ZM195.32,921.31c0,1.28.38,2.3,1.14,3.06.76.76,1.78,1.14,3.06,1.14l16.68.12c1.36,0,2.4-.38,3.12-1.14.72-.76,1.08-1.78,1.08-3.06v-23.76c0-1.36-.36-2.4-1.08-3.12-.72-.72-1.76-1.08-3.12-1.08h-16.68c-1.28,0-2.3.36-3.06,1.08-.76.72-1.14,1.76-1.14,3.12v23.64Z"/>
  <path class="cls-1" d="M219.44,208.19c3.02-.6,5.24,2.7,4.95,5.4-.36,3.39-3.17,5.84-6.05,7.25-3.35,1.64-7.22,2.43-10.86,3.16-3.95.8-7.95,1.31-11.97,1.54-8,.47-15.95-.22-23.79-1.84-7.03-1.46-15.32-3.11-21.61,1.49-2.81,2.06-4.89,5.08-5.11,8.62s1.39,6.75,4.27,8.55c1.64,1.03,3.15-1.57,1.51-2.59-2.51-1.57-3.34-4.87-2.46-7.6,1-3.09,3.89-5.28,6.9-6.24,3.84-1.22,7.97-.84,11.87-.12s7.93,1.64,11.96,2.16c8.09,1.03,16.28.91,24.35-.25,3.97-.57,7.93-1.39,11.79-2.53,3.36-1,6.81-2.43,9.21-5.07s3.89-6.62,2.45-10.13c-1.34-3.26-4.69-5.4-8.21-4.7-1.89.38-1.09,3.27.8,2.89h0Z"/>
  <path class="cls-1" d="M148.68,381.26c-3.07.14-5.76-1.72-7.21-4.37-1.65-3.01-1.25-6.76.11-9.8,2.96-6.6,10.11-10.54,16.31-13.58,13.78-6.76,29.07-8.81,44.22-6.92,8.09,1.01,16.2,2.68,24.39,2.2,6.68-.39,13.13-2.36,18.83-5.88,5.38-3.33,9.99-7.89,13.31-13.27s6.47-13.27,3.46-19.72c-2.43-5.2-8.64-8.06-14.21-7.53-6.17.59-11.32,4.99-14.04,10.41-.71,1.41-1.27,2.9-1.68,4.42-.5,1.87,2.39,2.66,2.89.8,1.54-5.71,5.73-11.16,11.76-12.45,5.24-1.13,11.6,1.69,13.11,7.09.99,3.52,0,7.32-1.36,10.6-1.2,2.86-2.81,5.59-4.71,8.04-3.79,4.89-8.8,8.81-14.43,11.37-14.26,6.49-29.58,1.06-44.37.27s-29.57,2.73-42.39,9.92c-5.99,3.36-12,7.67-14.4,14.39-2.16,6.08-.24,13.48,6.04,16.2,1.38.6,2.84.88,4.34.81,1.92-.09,1.93-3.09,0-3h0Z"/>
  <path class="cls-1" d="M214.14,452.93c2.03,4.38-2.37,8.29-5.7,10.28-3.73,2.23-7.76,3.96-11.87,5.36-8.35,2.83-17.1,4.25-25.81,5.45s-17.56,2.19-26.21,4.09c-4.34.95-8.65,2.13-12.82,3.7-3.8,1.44-7.76,3.55-8.99,7.73-.58,1.99-.42,4.27.8,6s3.24,2.67,5.31,3.02c3.28.56,9.15-.69,10.92,3.01.84,1.74,3.42.22,2.59-1.51-1.64-3.41-5.76-4.1-9.17-4.18-3.17-.08-8.49-.3-7.73-4.87.72-4.33,5.83-5.94,9.41-7.15,4.22-1.43,8.56-2.51,12.93-3.38,17.24-3.44,35.27-3.62,51.88-9.86,4.49-1.69,9.17-3.7,12.97-6.68s6.24-7.84,4.06-12.53c-.81-1.75-3.4-.23-2.59,1.51h0Z"/>
  <path class="cls-1" d="M185.28,687.64c-12.07,5.52-22.22,14.9-28.74,26.46-.95,1.68,1.64,3.2,2.59,1.51,6.29-11.15,16.03-20.05,27.67-25.38,1.75-.8.23-3.39-1.51-2.59h0Z"/>
  <path class="cls-1" d="M199.8,817.5c-9.29,3.33-18.84,5.89-28.55,7.63-2.26.4-4.54.72-6.8,1.1-2.11.35-4.29.87-6.09,2.09-2.93,1.98-4.74,6.27-2.48,9.41,1.12,1.55,3.72.06,2.59-1.51-.93-1.29-.67-2.84.21-4.11,1.04-1.5,2.84-2.18,4.55-2.59,3.96-.97,8.1-1.32,12.1-2.11,8.58-1.71,17.03-4.06,25.27-7.01,1.8-.65,1.03-3.55-.8-2.89h0Z"/>
  <path class="cls-1" d="M224.34,933.51c-4.02,8.34-3.11,18.51,1.91,26.25,5.91,9.09,16.23,12.17,26.58,12.51s20.75-1.6,30.92.97c8.3,2.1,16.98,7.53,17.25,17.03.3,10.2-8.76,18.6-17.91,21.33-12.07,3.6-25.05.84-37.25-.55-26.71-3.04-53.65-4.06-80.51-3.07-6.72.25-13.43.62-20.13,1.13-6.12.46-12.37.81-18.33,2.36-9.51,2.48-19.68,9.9-19.13,20.83s10.76,17.93,20.5,20.19c5.85,1.36,11.9,1.58,17.88,1.91,6.79.38,13.59.76,20.38,1.13,6.79.38,13.59.76,20.38,1.13,5.89.33,12.26.53,17.45,3.67,4.45,2.68,7.68,7.51,6.29,12.84s-6.44,9.24-11.61,11.17c-4.92,1.83-10.22,2.72-15.38,3.59-4.77.8-9.56,1.43-14.37,1.94-10.39,1.1-20.83,1.67-31.26,1.94-21.85.57-43.72-.14-65.53-1.43-9.85-.58-19.69-1.3-29.52-2.11-4.86-.4-9.7-.75-14.57-.79-3.71-.03-7.41-.08-11.09-.59-2.45-.34-4.87-.93-7.32-1.27-2.83-.4-5.7-.33-8.54-.13-1.92.13-1.93,3.13,0,3,2.83-.2,5.76-.34,8.56.15,2.56.45,5.1.97,7.69,1.31,3.73.48,7.46.51,11.21.55,9.66.1,19.32,1.25,28.95,1.94,21.58,1.55,43.21,2.58,64.85,2.58,20.81,0,41.81-.76,62.35-4.28,10.07-1.73,22.84-3.83,27.57-14.24,2.15-4.73,1.62-9.96-1.53-14.11s-8.36-6.65-13.59-7.65c-6.22-1.19-12.7-1.17-19-1.52-6.79-.38-13.59-.76-20.38-1.13-6.66-.37-13.34-.62-19.99-1.16-5.92-.48-12.08-1.4-17.33-4.36-4.34-2.44-8.15-6.4-9.54-11.27s.34-10.17,3.85-13.94c8.32-8.92,22.39-8.72,33.64-9.49,26.92-1.83,53.98-1.63,80.87.6,6.7.56,13.38,1.24,20.06,2.04,6.24.75,12.48,1.66,18.77,1.8,11.13.24,22.58-2.35,29.95-11.29,6.04-7.32,7.81-17.59,1.72-25.46-5.49-7.1-15.02-9.77-23.58-10.51-10.9-.95-21.99,1.69-32.78-.85-5.03-1.19-9.66-3.57-13.08-7.5-3.06-3.52-4.99-8.02-5.65-12.62s-.03-9.01,1.9-13.03c.83-1.73-1.75-3.26-2.59-1.51h0Z"/>
  <path class="cls-1" d="M168.2,128.63c-20.09-7.73-24.46-32.4-18.5-50.98,7.69-23.95,32.49-34.65,55.98-36.04,26.83-1.59,53.81,6.73,78.13,17.36,24.89,10.88,48.06,25.32,70.32,40.79,45.84,31.86,88.53,68.6,139.33,92.65,23.94,11.33,49.35,19.94,75.74,23.03,24.63,2.88,52.1,1.34,74.73-9.66,17.81-8.66,36.51-25.53,34.93-47.16-1.32-18.1-15.74-29.58-30.17-38.25-17.15-10.3-39.26-19.48-46.91-39.58-8.8-23.1,4.09-50.18,24.15-62.76,23.87-14.98,54.21-13.57,80.3-5.94,29.01,8.49,55.58,23.7,83.61,34.8,55.48,21.97,114.53,34.35,174.13,36.91,123.24,5.29,244.42-28.43,360.45-66.38,14.5-4.74,28.96-9.58,43.41-14.45,1.82-.61,1.04-3.51-.8-2.89-120.23,40.53-244.4,80.16-372.51,81.23-62.57.53-124.85-9.19-183.95-29.88-29.09-10.19-56.26-24.53-84.88-35.77-24.67-9.69-51.69-15.84-78.04-9.72-22.73,5.28-41.94,20.4-49.03,43.09-6.19,19.82-.48,39.5,15.32,52.86,14.92,12.61,34.2,18.92,48.71,32.02,7.99,7.21,13.55,16.88,13.3,27.9-.3,12.9-8.58,23.93-18.25,31.76-21.54,17.46-51.56,21.31-78.42,19.75-29.7-1.73-58.56-11.22-85.27-23.96-51.63-24.64-94.89-62.32-141.72-94.5-22.44-15.42-45.85-29.65-71-40.2-23.67-9.93-49.69-17.58-75.62-16.05-20.61,1.22-43.27,9.12-54.25,27.82-8.73,14.88-10.26,35.48-1.31,50.63,4,6.78,9.97,11.65,17.28,14.47,1.8.69,2.58-2.21.8-2.89h0Z"/>
  <path class="cls-1" d="M213.94,573.49c2-.22,3.49,2.25,4.4,3.7,1.33,2.1,2.37,4.38,2.45,6.9.16,5.19-3.96,9.25-7.89,12.05-4.16,2.96-8.9,4.96-13.79,6.36-2.46.71-4.97,1.27-7.49,1.74s-5.27.76-7.49,2.21-3.71,3.87-3.29,6.47c.19,1.18.8,2.17,1.54,3.09s1.68,1.76,1.96,2.97c.44,1.88,3.33,1.08,2.89-.8-.27-1.15-.89-2.07-1.63-2.98-.66-.81-1.62-1.64-1.81-2.73-.46-2.6,2.65-4.06,4.64-4.57,2.71-.7,5.52-1.02,8.25-1.67,2.56-.61,5.09-1.34,7.56-2.26,8.93-3.32,21.32-10.75,19.32-21.99-.51-2.85-1.95-5.52-3.67-7.82-1.4-1.86-3.4-3.94-5.95-3.67-1.9.21-1.92,3.21,0,3h0Z"/>
</svg>