<?xml version="1.0" encoding="UTF-8"?>
<svg id="_レイヤー_1" data-name="レイヤー_1" xmlns="http://www.w3.org/2000/svg" viewBox="0 0 1369.34 226.7">
  <defs>
    <style>
      .cls-1 {
        fill: #c33f4e;
      }
    </style>
  </defs>
  <path class="cls-1" d="M.7,16.03c81.92,51.82,177.08,82.08,273.94,86.69,49.78,2.37,99.31-2.57,147.92-13.34,52.3-11.59,103.12-28.78,154.26-44.52,47.63-14.66,95.7-27.74,145.11-34.79,44.49-6.35,89.58-8.43,134.47-6.52,89,3.78,177.25,23.34,259.75,56.88,83.28,33.86,160.85,82.17,227.04,143.09,8.04,7.4,15.89,14.99,23.59,22.73,1.36,1.37,3.48-.75,2.12-2.12-62.47-62.86-136.33-113.93-216.68-151.25-79.57-36.96-165.31-60.55-252.62-69.26-90.72-9.05-181.71-1.06-269.69,22.63-102.29,27.54-201.41,69.54-308.59,73.68-99.79,3.86-200.36-20.23-287.95-68.1C22.8,26.05,12.42,19.9,2.21,13.44c-1.64-1.04-3.14,1.56-1.51,2.59h0Z"/>
</svg>