<?xml version="1.0" encoding="UTF-8"?>
<svg id="_レイヤー_1" data-name="レイヤー_1" xmlns="http://www.w3.org/2000/svg" viewBox="0 0 376.01 48.53">
  <defs>
    <style>
      .cls-1 {
        fill: #c33f4e;
      }
    </style>
  </defs>
  <path class="cls-1" d="M70.03,42.38c-.4-.44-.74-1.03-1.01-1.8s-.4-1.49-.4-2.18l.09-1.75c0-.54-.12-1-.36-1.4.03.03-.35-.51-1.12-1.62-.24-.33-.5-.49-.77-.49-.3,0-.57.22-.81.67l-.76,1.67c-.69,1.53-1.2,2.56-1.53,3.08-.33.53-.71.79-1.12.79-.54,0-.94-.26-1.21-.79-.27-.52-.4-1.15-.4-1.87,0-.78.13-1.41.4-1.89.18-.36.61-.9,1.31-1.62.78-.87,1.36-1.54,1.75-2.02.21-.24.31-.51.31-.81s-.11-.57-.31-.81c-.78-1.08-1.4-2.04-1.85-2.88-.45-.84-.69-1.62-.72-2.34-.06-1.44.13-2.62.58-3.55.45-.93,1.14-1.69,2.07-2.3.93-.6,2.21-1.2,3.83-1.8.87-.3,1.32-.88,1.35-1.75,0-.24.03-.66.09-1.26.09-1.5-.1-2.67-.56-3.51-.47-.84-.94-1.48-1.44-1.91-.5-.43-.82-.73-.97-.88-.18-.18-.27-.36-.27-.54,0-.3.24-.45.72-.45.6,0,1.39.23,2.36.68.97.45,1.81,1.04,2.5,1.78.69.74.97,1.52.85,2.36-.06.39-.12,1.01-.18,1.85l-.23,1.89-.04.36c0,.6.3,1.08.9,1.44.27.18.54.44.81.77.18.21.27.42.27.63s-.08.4-.25.56-.47.41-.92.74l-.45.45c-.24.33-.36.57-.36.72s.07.23.22.23c.21,0,.51-.15.9-.45,3.09-2.55,6.4-3.82,9.94-3.82,1.8,0,3.48.34,5.04,1.01,1.56.68,2.85,1.61,3.87,2.81.93,1.08,1.63,2.27,2.09,3.58.46,1.3.7,2.66.7,4.07s-.27,2.91-.81,4.32c-.69,1.83-1.91,3.44-3.67,4.81-1.76,1.38-3.67,2.44-5.74,3.17-2.07.74-3.92,1.12-5.53,1.15h-.09c-.33,0-.59-.06-.79-.18-.2-.12-.29-.25-.29-.41,0-.18.1-.33.29-.45.19-.12.46-.18.79-.18,2.34-.06,4.57-.76,6.68-2.09,2.12-1.33,3.62-2.98,4.52-4.93.87-1.77,1.31-3.58,1.31-5.44s-.39-3.4-1.17-4.88c-.78-1.48-1.85-2.66-3.22-3.53-1.37-.87-2.92-1.31-4.66-1.31-2.07,0-3.92.49-5.54,1.46-1.62.98-3.21,2.35-4.77,4.12-.27.3-.46.6-.56.9-.11.3-.16.66-.16,1.08v5.71c0,3.03.09,5.27.27,6.71.12.81.18,1.58.18,2.29,0,1.35-.26,2.16-.77,2.43-.39.18-.79.05-1.19-.38ZM65.24,28.67c.3,0,.57-.19.81-.58,1.05-1.86,1.96-4.08,2.75-6.66.24-.78.36-1.38.36-1.8,0-.15-.06-.27-.18-.36-.12-.09-.27-.13-.45-.13-.15,0-.41.06-.77.18-1.41.48-2.54,1.16-3.4,2.03s-1.28,1.89-1.28,3.06.45,2.45,1.35,3.73c.24.36.51.54.81.54ZM68.73,28.9c-.08-.12-.16-.18-.25-.18-.15,0-.3.12-.45.36l-.72,1.26c-.09.12-.13.25-.13.4s.1.33.31.54c.3.21.46.33.5.36.18.18.34.27.5.27.21,0,.31-.13.31-.4.03-.21.04-.54.04-.99v-1.17c0-.18-.04-.33-.11-.45Z"/>
  <path class="cls-1" d="M106.46,14.86c0-.15.04-.27.11-.36.07-.09.17-.13.29-.13s.24.04.36.13c.12.06.34.21.68.45.33.24.72.46,1.17.65.45.2.94.32,1.48.38.6.06,1.06.09,1.4.09.87,0,1.74-.09,2.61-.27.84-.12,1.33-.66,1.49-1.62.21-2.22.31-4.06.31-5.53,0-.36-.11-.62-.31-.79-.21-.16-.43-.28-.65-.34-.22-.06-.37-.1-.43-.14-.27-.12-.41-.25-.41-.4,0-.12.07-.23.23-.32.15-.09.31-.13.5-.13.9,0,1.77.16,2.61.47.84.31,1.31.79,1.4,1.42.06.36.16.66.31.9,1.38,1.68,3,2.54,4.86,2.56.3.03.56.17.79.43.23.25.34.55.34.88s-.11.65-.32.94c-.21.3-.52.54-.94.72-1.65.72-3.36,1.35-5.13,1.89-.84.21-1.35.75-1.53,1.62-1.92,9.24-4.65,16.73-8.19,22.46-.39.63-.85.94-1.4.94-.42,0-.78-.17-1.08-.52-.3-.34-.45-.77-.45-1.28,0-.6.23-1.19.67-1.75,1.8-2.4,3.39-5.24,4.77-8.53,1.38-3.28,2.44-6.74,3.2-10.37.03-.12.04-.27.04-.45,0-.39-.13-.69-.38-.9-.25-.21-.59-.31-1.01-.31-1.98,0-3.54-.19-4.68-.59-.6-.21-1.16-.52-1.69-.92-.53-.4-.85-.77-.97-1.1-.03-.03-.04-.09-.04-.18ZM118.75,12.2c-.03.12-.04.3-.04.54,0,.36.07.65.23.85.15.21.34.31.58.31.21,0,.39-.06.54-.18l.23-.14c.54-.33.81-.72.81-1.17,0-.33-.14-.65-.41-.94l-.81-.95c-.18-.18-.35-.27-.5-.27-.21,0-.35.17-.4.5l-.23,1.44ZM120.91,35.02c0-.78.15-1.52.45-2.23.3-.7.69-1.28,1.17-1.73.24-.18.43-.27.58-.27.24,0,.36.12.36.36,0,.18-.12.42-.36.72-.57.66-.85,1.43-.85,2.29,0,1.2.57,2.24,1.71,3.13,1.14.89,2.75,1.33,4.81,1.33,1.5,0,3.24-.28,5.22-.85.36-.12.77-.18,1.22-.18.78,0,1.44.2,1.98.61.54.4.81.85.81,1.33,0,.27-.11.52-.31.74-.21.23-.53.4-.95.52-1.98.51-3.87.76-5.67.76-2.07,0-3.92-.3-5.54-.9-1.62-.6-2.82-1.41-3.6-2.43-.69-.96-1.04-2.03-1.04-3.2ZM130.81,16.7c1.71,0,3.14.31,4.3.92,1.15.62,2,1.34,2.54,2.18.45.72.68,1.43.68,2.12,0,.57-.15,1.03-.45,1.4-.3.36-.71.54-1.21.54-.21,0-.36-.02-.45-.05-.12-.03-.35-.04-.67-.04-.72,0-1.55.14-2.48.41-.93.27-1.74.57-2.43.9-.18.09-.35.13-.49.13-.18,0-.27-.07-.27-.22,0-.21.16-.42.5-.63.51-.36.97-.64,1.39-.85.6-.36,1.08-.67,1.44-.92.36-.25.58-.49.67-.7.03-.09.04-.24.04-.45,0-.48-.2-.97-.58-1.46-.39-.5-.97-.91-1.73-1.24-.77-.33-1.64-.49-2.63-.49-.54,0-1.1.04-1.67.13h-.23c-.21,0-.38-.05-.52-.16-.13-.1-.2-.23-.2-.38,0-.12.06-.25.18-.38.12-.14.28-.22.5-.25,1.29-.33,2.55-.5,3.78-.5Z"/>
  <path class="cls-1" d="M155.47,29.26c0-1.56.07-3.15.23-4.77.15-1.62.36-3.54.63-5.76.39-3.24.58-5.46.58-6.66,0-.69-.04-1.27-.14-1.76-.21-1.05-.96-1.9-2.25-2.56-.3-.12-.45-.33-.45-.63,0-.15.07-.27.23-.36.15-.09.37-.12.67-.09.99.12,1.99.41,2.99.88,1,.47,1.84,1.03,2.5,1.71.66.67.99,1.37.99,2.09,0,.24-.04.5-.13.77-.57,1.53-1.17,4-1.8,7.4-.63,3.41-.94,6.61-.94,9.61,0,4.29.73,7.25,2.21,8.87,2.01,2.22,4.33,3.33,6.97,3.33,1.74,0,3.49-.49,5.27-1.46,1.77-.97,3.42-2.36,4.95-4.16,1.53-1.8,2.82-3.9,3.87-6.3.12-.33.34-.49.67-.49.18,0,.32.08.43.22.1.15.16.36.16.63s-.06.57-.18.9c-.9,2.49-2.22,4.7-3.96,6.64-1.74,1.94-3.69,3.44-5.85,4.52-2.16,1.08-4.32,1.62-6.48,1.62-1.65,0-3.2-.34-4.66-1.01-1.46-.68-2.75-1.69-3.89-3.04-1.74-2.1-2.61-5.47-2.61-10.12Z"/>
  <path class="cls-1" d="M212.98,40.6c-.3-.12-.45-.28-.45-.5s.14-.38.43-.52c.28-.14.68-.2,1.19-.2,1.71-.03,3.36-.58,4.95-1.67,1.59-1.08,2.91-2.51,3.96-4.3,1.05-1.78,1.68-3.71,1.89-5.78.06-.6.09-1.05.09-1.35,0-1.89-.38-3.73-1.12-5.51-.75-1.78-1.9-3.34-3.44-4.66-1.55-1.32-3.43-2.21-5.65-2.65-.36-.06-.63-.02-.81.11-.18.14-.27.35-.27.65,0,.18.04.39.13.63.54,1.26.81,2.36.81,3.28,0,.69-.12,1.28-.36,1.76l-2.25,5.17c-1.83,4.23-3.29,7.43-4.39,9.61-1.1,2.18-2.2,3.64-3.31,4.39-.6.42-1.16.63-1.67.63-.57,0-1.08-.2-1.53-.61-.45-.41-1.03-1.06-1.75-1.96-.15-.21-.4-.52-.77-.95-.99-1.11-1.77-2.44-2.34-4-.57-1.56-.85-3.16-.85-4.81,0-1.11.14-2.17.4-3.19.69-2.7,1.94-4.97,3.76-6.82,1.81-1.84,3.65-3.19,5.51-4.03,2.22-.99,4.6-1.48,7.16-1.48,1.53,0,3.03.2,4.5.58,1.47.39,2.8.94,4,1.67,2.34,1.35,4.17,3.08,5.49,5.2,1.32,2.12,1.98,4.42,1.98,6.91,0,.66-.04,1.31-.14,1.94-.51,3.66-1.97,6.56-4.36,8.71-2.4,2.15-5.58,3.43-9.54,3.85-.54.06-.96.03-1.26-.09ZM207.37,31.06c1.31-2.25,2.39-4.78,3.26-7.58.87-2.8,1.31-5.35,1.31-7.63,0-.36-.03-.9-.09-1.62-.06-.33-.2-.58-.4-.74-.21-.16-.5-.23-.85-.2-1.98.3-3.83.99-5.54,2.07-1.71,1.08-3.15,2.4-4.32,3.96-1.17,1.56-1.98,3.2-2.43,4.91-.21.75-.31,1.56-.31,2.43,0,1.5.3,2.94.9,4.32.6,1.38,1.32,2.51,2.16,3.38.84.87,1.56,1.31,2.16,1.31.18,0,.33-.05.45-.14,1.17-.72,2.41-2.21,3.71-4.46Z"/>
  <path class="cls-1" d="M251.54,41.72c-2.1-.69-3.73-1.72-4.9-3.1-.54-.63-.96-1.4-1.26-2.29s-.45-1.83-.45-2.79c0-1.71.45-3.24,1.35-4.59.45-.63.88-.95,1.3-.95.12,0,.23.04.31.11.09.08.14.17.14.29,0,.18-.09.4-.27.67-.75,1.11-1.12,2.29-1.12,3.56,0,.75.13,1.46.38,2.14.25.68.62,1.25,1.1,1.73.96.96,2.26,1.72,3.92,2.27,1.65.56,3.48.83,5.49.83,3.33,0,6.48-.73,9.45-2.21.51-.27,1.09-.41,1.76-.41.75,0,1.38.2,1.89.58.51.39.77.85.77,1.4,0,.63-.38,1.14-1.12,1.53-1.26.69-2.96,1.24-5.08,1.64-2.13.4-4.43.61-6.89.61s-4.65-.35-6.75-1.04ZM252.58,21.11c-.15,0-.27-.04-.36-.14-.09-.09-.14-.19-.14-.31,0-.27.21-.57.63-.9.21-.18,1.18-.79,2.92-1.85.78-.48,1.54-.96,2.29-1.44.51-.36.77-.72.77-1.08,0-.45-.36-.77-1.08-.95-1.65-.51-3.13-1-4.43-1.48-1.3-.48-2.45-1.02-3.44-1.62-.18-.12-.33-.28-.45-.5-.12-.21-.18-.4-.18-.58,0-.33.16-.49.5-.49.21,0,.37.03.49.09,2.22.75,4.14,1.25,5.76,1.48,1.62.24,3.27.39,4.95.45,1.26.06,2.24.15,2.95.27.7.12,1.37.39,2,.81.42.27.73.59.92.97.19.38.29.77.29,1.19,0,.63-.2,1.16-.58,1.6-.39.44-.85.59-1.4.47-.51-.12-1.11-.18-1.8-.18-1.5,0-3.08.35-4.73,1.06-1.65.71-3.44,1.69-5.35,2.95-.15.12-.33.18-.54.18Z"/>
  <path class="cls-1" d="M294.94,40.6c-2.54-1.35-3.7-3.78-3.49-7.29.15-3.21,2.44-5.86,6.89-7.96.57-.27.85-.63.85-1.08,0-.27-.09-.58-.27-.94-.72-1.29-1.08-2.98-1.08-5.08,0-1.41.07-2.86.23-4.37.03-.42.06-.89.09-1.42.03-.52.04-1.09.04-1.69,0-.96-.09-1.74-.27-2.34-.18-.6-.51-1.05-.99-1.35-.39-.27-.58-.54-.58-.81,0-.15.05-.27.16-.36.1-.09.26-.14.47-.14s.45.04.72.14c1.26.39,2.17.84,2.74,1.35.9.81,1.35,1.68,1.35,2.61,0,.45-.13,1.19-.4,2.21-.39,1.62-.62,2.99-.68,4.09l-.04,3.02c0,1.59.1,2.78.31,3.56.18.69.61,1.03,1.31,1.03.12,0,.33-.03.63-.09,3.03-.96,5.01-1.35,5.94-1.17.6.12,1.06.36,1.37.72.31.36.47.75.47,1.17,0,.51-.23.94-.68,1.3-.45.36-1.08.53-1.89.5-.27-.03-.72-.04-1.35-.04-2.13,0-4.27.25-6.41.76-2.15.51-3.94,1.34-5.38,2.5-1.44,1.16-2.16,2.65-2.16,4.48,0,1.95.81,3.42,2.43,4.41,1.62.99,3.66,1.48,6.12,1.48,1.26,0,2.53-.13,3.82-.4,1.29-.27,2.5-.65,3.65-1.12.45-.21.93-.31,1.44-.31.69,0,1.25.22,1.69.65.43.44.65.92.65,1.46,0,.42-.15.8-.45,1.15-.3.34-.74.58-1.31.7-2.22.48-4.63.72-7.24.72-3.27,0-6.17-.67-8.71-2.02Z"/>
  <path class="cls-1" d="M67.83,7.26C63.32,2.49,56.54-.71,49.89.14c-3.18.41-6.25,1.63-8.84,3.51-2.72,1.97-4.79,4.58-6.24,7.6-2.94,6.13-3.89,14.39-10.12,18.32-2.99,1.89-6.82,2.28-10.12.99s-5.59-3.89-6.69-7.11-1.13-7-1.61-10.49-1.63-6.77-3.79-9.6c-.51-.66-1.05-1.28-1.63-1.88-.45-.46-1.16.25-.71.71,2.52,2.57,4.19,5.74,4.88,9.28s.61,7.1,1.42,10.58c.76,3.24,2.43,6.11,5.17,8.05s6.05,2.6,9.28,2.01,6.16-2.64,8.16-5.37,3.25-6.11,4.4-9.36c1.23-3.47,2.5-7.05,4.92-9.9,2.12-2.51,4.93-4.42,8.04-5.49s6.55-1.27,9.81-.46,6.52,2.52,9.14,4.77c.62.53,1.21,1.09,1.77,1.69.44.47,1.15-.24.71-.71h0Z"/>
  <path class="cls-1" d="M78.82,40.35c-2.6-.76-2.33-4-1.94-6.11.57-3.15,1.75-6.02,3.85-8.47,4.56-5.29,11.7-8.12,18.64-7.7,1.92.12,3.74.55,5.62-.07,1.43-.47,2.16-1.49,2.47-2.94.13-.63-.83-.9-.96-.27-.15.7-.37,1.44-.98,1.87-.43.31-.99.45-1.5.58-1.01.25-2.07.1-3.09-.02-.89-.11-1.78-.18-2.68-.19-3.59-.04-7.17.75-10.43,2.24s-6.18,3.69-8.37,6.49c-1.99,2.54-3.11,5.49-3.61,8.66-.41,2.62-.32,6,2.72,6.89.62.18.88-.78.27-.96h0Z"/>
  <path class="cls-1" d="M155.54,7.07c-3.34-1.63-7.13.2-9.61,2.57-1.35,1.29-2.41,2.86-2.95,4.66-.58,1.94-.58,4.01-.28,6,.69,4.55,3.15,8.57,4.28,12.99,1.05,4.07.89,9.02-2.9,11.64-1.73,1.19-4.01,1.59-5.87.45-.89-.54-1.59-1.43-1.71-2.48s.27-2.08,1.14-2.66c.53-.35.03-1.22-.5-.86-1.45.97-2.02,2.89-1.42,4.53.64,1.74,2.38,2.86,4.17,3.1,3.89.52,7.29-2.74,8.27-6.28,1.3-4.74-.68-9.51-2.4-13.86-1.64-4.12-3.35-8.97-1.46-13.31.9-2.08,2.67-3.81,4.6-4.93,1.83-1.07,4.12-1.67,6.12-.69.58.28,1.08-.58.5-.86h0Z"/>
  <path class="cls-1" d="M182.92,30.02c.58-8.35,4.88-16.2,11.83-20.92,3.42-2.32,7.34-3.88,11.43-4.53,1.61-.25,3.28-.38,4.9-.19,1.05.13,2.94.44,3.05,1.78.06.68-.41,1.31-.8,1.82-.44.58-.94,1.12-1.34,1.74-.35.54-.63,1.17-.55,1.83.09.8.67,1.36,1.29,1.81.52.38,1.02-.49.5-.86-.55-.4-.97-.91-.73-1.61.22-.63.7-1.16,1.11-1.67.8-.99,1.81-2.16,1.45-3.53s-1.76-1.9-2.97-2.15c-1.55-.32-3.17-.29-4.74-.12-8.54.92-16.5,5.75-21.08,13.05-2.56,4.07-4.03,8.76-4.36,13.55-.04.64.96.64,1,0h0Z"/>
  <path class="cls-1" d="M213,39.67c-1.99.49-2.42,3.1-1.72,4.75.99,2.32,3.98,2.96,6.18,3.44,4.91,1.08,10.89,1.35,14.13-3.25,1.48-2.11,2.07-4.72,2.43-7.23.47-3.26.74-6.56.88-9.85s-.02-6.81.09-10.22c.1-3.04.56-6.17,2.17-8.8s4.68-4.67,7.88-4.1c1.27.23,2.39.87,3.06,1.99s.89,2.51,1,3.82c.05.64,1.05.64,1,0-.18-2.08-.62-4.37-2.37-5.72-1.95-1.51-4.73-1.43-6.92-.5-5.55,2.36-6.79,8.89-6.85,14.28-.04,3.29.06,6.57-.09,9.86s-.4,6.39-.9,9.54c-.4,2.54-1.08,5.24-2.86,7.19s-4.4,2.67-6.98,2.69c-1.5.01-2.99-.18-4.46-.46s-2.9-.56-4.23-1.14c-1.19-.52-2.3-1.38-2.46-2.75-.11-.98.19-2.3,1.28-2.57.62-.15.36-1.12-.27-.96h0Z"/>
  <path class="cls-1" d="M310.87,41.82c6.34-.57,12.47-2.87,17.74-6.41s9.76-8.32,12.67-13.98c.63-1.23,1.21-2.63,1.01-4.04-.19-1.33-1.28-2.32-2.65-2.22-3.47.25-4.02,5.06-3.75,7.72.7,6.94,6.45,11.79,12.88,13.51,3.75,1,7.69,1.03,11.53.6,2.01-.23,3.99-.61,5.98-.97s4.14-.67,6.21-.37c.96.14,1.89.4,2.77.8.58.27,1.09-.6.5-.86-3.35-1.54-6.96-1.05-10.47-.4s-7.37,1.23-11.11,1.03c-6.4-.33-13.19-3.11-16.1-9.18-1.29-2.7-1.81-6.19-.58-9.01.31-.73.81-1.41,1.56-1.71s1.61-.18,2.03.54c.65,1.1.01,2.7-.5,3.73-2.62,5.28-6.68,9.82-11.46,13.25-5.35,3.84-11.68,6.4-18.26,6.98-.64.06-.64,1.06,0,1h0Z"/>
  <path class="cls-1" d="M269.98,40.6c3.49-1.73,7.07-4.22,9.01-7.68,2.27-4.04.69-8.58-1.17-12.45-.76-1.58-.76-3.33-.15-4.97s1.89-2.74,3.71-2.96c1.66-.2,3.66.13,5.06-1.01,1.18-.95,1.15-2.53,1.3-3.92.08-.73.09-1.63.4-2.31.43-.94,1.69-1.41,2.65-1.44,2.42-.05,4.81,1.59,6.34,3.32.43.48,1.13-.23.71-.71-1.46-1.65-3.31-2.83-5.44-3.4-1.76-.47-4.05-.11-5.06,1.6-.33.56-.4,1.28-.48,1.91-.1.8-.16,1.6-.27,2.4-.1.71-.21,1.33-.8,1.79-.72.56-1.71.6-2.58.64-1.77.09-3.64.13-5,1.43-1.22,1.16-1.83,2.9-1.96,4.55-.06.83,0,1.7.26,2.49.34,1.09.96,2.1,1.38,3.17.87,2.19,1.64,4.72,1.12,7.09-.48,2.23-1.98,4.09-3.62,5.61-1.75,1.62-3.78,2.92-5.91,3.97-.58.29-.07,1.15.5.86h0Z"/>
</svg>