<?xml version="1.0" encoding="UTF-8"?>
<svg id="_レイヤー_1" data-name="レイヤー_1" xmlns="http://www.w3.org/2000/svg" viewBox="0 0 157.51 175.94">
  <defs>
    <style>
      .cls-1 {
        fill: #c33f4e;
      }

      .cls-2 {
        fill: none;
        stroke: #c33f4e;
        stroke-miterlimit: 10;
        stroke-width: 2px;
      }
    </style>
  </defs>
  <path class="cls-1" d="M154.7,6.66c-4.7,8.09-11.32,15.02-19.47,19.67-7.58,4.34-16.28,6.55-25,6.7s-17.58-1.73-25.43-5.66c-3.84-1.92-7.66-4.28-10.72-7.31s-6.11-7.47-4.56-11.88c1.19-3.37,4.71-4.85,8.05-5.07,3.89-.26,7.62.82,11.03,2.64,3.8,2.02,7.24,4.86,9.59,8.49,2.48,3.83,3.5,8.29,3.19,12.83-.65,9.87-6.82,18.13-13.72,24.73s-15.18,12.39-21.73,19.7c-3.18,3.55-6,7.48-7.93,11.86-2.1,4.77-3.18,9.85-3.93,14.99-1.36,9.38-1.73,19.37-6.33,27.89-1.07,1.98-2.36,3.81-3.89,5.45-1.32,1.41.8,3.54,2.12,2.12,6.96-7.46,8.82-17.73,10.06-27.49.7-5.49,1.28-11.02,2.78-16.37s3.89-9.8,7.21-13.95c12.64-15.79,35.58-25.26,38.22-47.53.57-4.85-.23-9.81-2.53-14.13-2.18-4.09-5.6-7.45-9.49-9.93-6.39-4.08-16.6-6.89-22.94-1.13-3.37,3.06-3.87,7.89-2.2,11.95,1.88,4.56,5.58,7.99,9.54,10.78,7.72,5.44,16.86,8.64,26.21,9.69s18.88-.16,27.52-3.68c9.14-3.72,16.96-9.94,22.91-17.79,1.46-1.93,2.79-3.95,4.01-6.04.97-1.67-1.62-3.18-2.59-1.51h0Z"/>
  <g>
    <circle class="cls-2" cx="26" cy="149.94" r="25"/>
    <path class="cls-2" d="M50.97,148.74c-2.5,9.14-11.5,18.77-25.38,26.19"/>
    <path class="cls-2" d="M47.9,137.87c.04.25.08.48.11.7,1.53,11.72-9.61,25.71-29.45,35.24"/>
    <path class="cls-2" d="M22.01,167.11c-2.6,1.6-5.41,3.12-8.41,4.53"/>
    <path class="cls-2" d="M27.64,163.28c-1.75,1.32-3.63,2.6-5.64,3.83"/>
    <path class="cls-2" d="M41.89,130.63c1.11,2.2,1.54,4.1,1.73,5.51,1.14,8.72-4.73,18.68-15.97,27.14"/>
    <path class="cls-2" d="M20.24,125.59c7.29,1.32,15.51,5.73,23.51,12.94"/>
    <path class="cls-2" d="M12.61,128.83c8.94.21,19.78,5.68,30.07,15.78"/>
    <path class="cls-2" d="M7.34,133.3c9.54-.12,21.38,5.94,32.42,17.35"/>
    <path class="cls-2" d="M35.78,146.8c-.36,1.09-.7,2.21-1.02,3.36-.82,2.98-1.37,5.85-1.73,8.57"/>
    <path class="cls-2" d="M32,143.93c-.75,1.95-1.45,4.03-2.05,6.24-1.29,4.71-1.93,9.13-2.18,13.12"/>
    <path class="cls-2" d="M27.64,140.83c-1.25,2.81-2.4,5.92-3.34,9.34-1.73,6.31-2.29,12.12-2.3,17.03"/>
    <path class="cls-2" d="M23.69,138.04c-1.76,3.49-3.41,7.54-4.66,12.13-2.08,7.61-2.47,14.48-2.25,19.93"/>
    <path class="cls-2" d="M19.06,135.81c-2.19,3.96-4.31,8.75-5.84,14.36-2.08,7.61-2.47,14.48-2.25,19.93"/>
    <path class="cls-2" d="M14.07,134.15c-2.52,4.26-5.04,9.61-6.79,16.02-1.34,4.92-1.98,9.53-2.21,13.65"/>
  </g>
</svg>