
<svg id="handwriting" data-name="レイヤー 1" xmlns="http://www.w3.org/2000/svg" viewBox="0 0 1366 300">

  <g id="text" class="handwriting_text">
  <g id="text-path" class="handwriting_text_path">
    <path class="cls-1" d="M1367.25,245.15c-62.47-62.86-136.33-113.93-216.68-151.25-79.57-36.96-165.31-60.55-252.62-69.26-90.72-9.05-181.71-1.06-269.69,22.63-102.29,27.54-201.41,69.54-308.59,73.68-99.79,3.86-200.36-20.23-287.95-68.1-10.59-5.79-20.97-11.94-31.17-18.39-1.64-1.04-3.14,1.56-1.51,2.59,81.92,51.82,177.08,82.08,273.94,86.69,49.78,2.37,99.31-2.57,147.92-13.34,52.3-11.59,103.12-28.78,154.26-44.52,47.63-14.66,95.7-27.74,145.11-34.79,44.49-6.35,89.58-8.43,134.47-6.52,89,3.78,177.25,23.34,259.75,56.88,83.28,33.86,160.85,82.17,227.04,143.09,8.04,7.4,15.89,14.99,23.59,22.73,1.36,1.37,3.48-.75,2.12-2.12h0Z"/>
  </g>
    </g>
    <mask id="mask" class="handwriting_mask_line">
    <path id="mask-path" class="handwriting_mask_line" d="M-1.71,34.37c53.71,31.35,118.14,57.72,189.21,77.08,64.55,15.16,138.6,13.3,218.79.4,1.66-.27,3.31-.63,4.92-1.09l165.87-47.04c80.16-23.92,173.35-37.8,273.57-46.28,3.96-.33,7.95-.11,11.85.66l164.45,32.35c2.35.46,4.65,1.12,6.89,1.97l219.29,94.41c6.3,2.39,17.15,13.91,21.68,18.9l91.17,83.95"/>
  </mask>
</svg>