
<svg id="handwriting" data-name="レイヤー 1" xmlns="http://www.w3.org/2000/svg" viewBox="0 0 319 676">

  <g id="text" class="handwriting_text">
  <g id="text-path" class="handwriting_text_path">
    <path class="cls-1" d="M47.01,650.48c-2.1-.69-3.73-1.72-4.9-3.1-.54-.63-.96-1.4-1.26-2.29s-.45-1.83-.45-2.79c0-1.71.45-3.24,1.35-4.59.45-.63.88-.95,1.3-.95.12,0,.23.04.31.11.09.08.14.17.14.29,0,.18-.09.4-.27.67-.75,1.11-1.12,2.29-1.12,3.56,0,.75.13,1.46.38,2.14s.62,1.25,1.1,1.73c.96.96,2.26,1.72,3.92,2.27,1.65.56,3.48.83,5.49.83,3.33,0,6.48-.73,9.45-2.21.51-.27,1.09-.41,1.76-.41.75,0,1.38.2,1.89.58.51.39.77.85.77,1.4,0,.63-.38,1.14-1.12,1.53-1.26.69-2.96,1.24-5.08,1.64-2.13.4-4.43.61-6.89.61s-4.65-.35-6.75-1.04l-.02.02ZM48.04,629.87c-.15,0-.27-.04-.36-.14-.09-.09-.14-.19-.14-.31,0-.27.21-.57.63-.9.21-.18,1.18-.79,2.92-1.85.78-.48,1.54-.96,2.29-1.44.51-.36.77-.72.77-1.08,0-.45-.36-.77-1.08-.95-1.65-.51-3.13-1-4.43-1.48s-2.45-1.02-3.44-1.62c-.18-.12-.33-.28-.45-.5-.12-.21-.18-.4-.18-.58,0-.33.16-.49.5-.49.21,0,.37.03.49.09,2.22.75,4.14,1.25,5.76,1.48,1.62.24,3.27.39,4.95.45,1.26.06,2.24.15,2.95.27.7.12,1.37.39,2,.81.42.27.73.59.92.97.19.38.29.77.29,1.19,0,.63-.2,1.16-.58,1.6-.39.44-.85.59-1.4.47-.51-.12-1.11-.18-1.8-.18-1.5,0-3.08.35-4.73,1.06s-3.44,1.69-5.35,2.95c-.15.12-.33.18-.54.18h.01Z"/>
    <path class="cls-1" d="M80.58,623.62c0-.15.04-.27.11-.36.07-.09.17-.13.29-.13s.24.04.36.13c.12.06.34.21.68.45.33.24.72.46,1.17.65.45.2.94.32,1.48.38.6.06,1.06.09,1.4.09.87,0,1.74-.09,2.61-.27.84-.12,1.33-.66,1.48-1.62.21-2.22.31-4.06.31-5.53,0-.36-.11-.62-.31-.79-.21-.16-.43-.28-.65-.34-.23-.06-.37-.1-.43-.14-.27-.12-.4-.25-.4-.4,0-.12.07-.23.22-.32s.31-.13.5-.13c.9,0,1.77.16,2.61.47s1.31.79,1.4,1.42c.06.36.16.66.31.9,1.38,1.68,3,2.54,4.86,2.56.3.03.56.17.79.43.22.25.34.55.34.88s-.11.65-.31.94c-.21.3-.53.54-.95.72-1.65.72-3.36,1.35-5.13,1.89-.84.21-1.35.75-1.53,1.62-1.92,9.24-4.65,16.73-8.19,22.46-.39.63-.85.94-1.39.94-.42,0-.78-.17-1.08-.52-.3-.34-.45-.77-.45-1.28,0-.6.23-1.19.67-1.75,1.8-2.4,3.39-5.24,4.77-8.53,1.38-3.28,2.44-6.74,3.2-10.37.03-.12.04-.27.04-.45,0-.39-.13-.69-.38-.9-.26-.21-.59-.31-1.01-.31-1.98,0-3.54-.19-4.68-.59-.6-.21-1.16-.52-1.69-.92-.52-.4-.85-.77-.97-1.1-.03-.03-.04-.09-.04-.18h-.01ZM92.86,620.96c-.03.12-.04.3-.04.54,0,.36.07.65.23.85.15.21.34.31.58.31.21,0,.39-.06.54-.18l.23-.14c.54-.33.81-.72.81-1.17,0-.33-.14-.65-.41-.94l-.81-.95c-.18-.18-.35-.27-.49-.27-.21,0-.35.17-.41.5l-.23,1.44h0ZM95.02,643.78c0-.78.15-1.52.45-2.23.3-.7.69-1.28,1.17-1.73.24-.18.43-.27.58-.27.24,0,.36.12.36.36,0,.18-.12.42-.36.72-.57.66-.85,1.43-.85,2.29,0,1.2.57,2.24,1.71,3.13s2.75,1.33,4.81,1.33c1.5,0,3.24-.28,5.22-.85.36-.12.76-.18,1.21-.18.78,0,1.44.2,1.98.61.54.4.81.85.81,1.33,0,.27-.11.52-.31.74-.21.23-.53.4-.95.52-1.98.51-3.87.76-5.67.76-2.07,0-3.92-.3-5.53-.9-1.62-.6-2.82-1.41-3.6-2.43-.69-.96-1.04-2.03-1.04-3.2h0ZM104.92,625.46c1.71,0,3.14.31,4.3.92,1.15.62,2,1.34,2.54,2.18.45.72.67,1.43.67,2.12,0,.57-.15,1.03-.45,1.4-.3.36-.71.54-1.21.54-.21,0-.36-.02-.45-.05-.12-.03-.35-.04-.68-.04-.72,0-1.55.14-2.48.41-.93.27-1.74.57-2.43.9-.18.09-.35.13-.5.13-.18,0-.27-.07-.27-.22,0-.21.16-.42.5-.63.51-.36.97-.64,1.4-.85.6-.36,1.08-.67,1.44-.92s.58-.49.67-.7c.03-.09.04-.24.04-.45,0-.48-.2-.97-.58-1.46-.39-.5-.97-.91-1.73-1.24-.77-.33-1.64-.49-2.63-.49-.51,0-1.07.04-1.67.13h-.23c-.21,0-.38-.05-.52-.16-.13-.1-.2-.23-.2-.38,0-.12.06-.25.18-.38.12-.14.28-.22.5-.25,1.29-.33,2.55-.5,3.78-.5h0ZM113.97,620.24c1.08.84,1.62,1.6,1.62,2.29,0,.36-.13.65-.38.85-.26.21-.58.31-.97.31-.57,0-1.06-.23-1.48-.67-.48-.57-.74-.87-.77-.9-.6-.72-1.16-1.31-1.69-1.78-.52-.46-1.28-.95-2.27-1.46-.45-.24-.67-.5-.67-.77s.21-.4.63-.4c.24,0,.51.04.81.13,2.37.75,4.1,1.55,5.17,2.39h0ZM117.1,616.53c1.06.77,1.6,1.48,1.6,2.14,0,.33-.13.6-.38.81-.26.21-.56.31-.92.31-.51,0-.95-.16-1.31-.5-.27-.21-.63-.57-1.08-1.08-.54-.6-1.07-1.1-1.6-1.51s-1.24-.79-2.14-1.15c-.51-.21-.77-.46-.77-.77,0-.12.07-.22.2-.29s.32-.11.56-.11c.3,0,.54.03.72.09,2.34.6,4.04,1.28,5.11,2.05h0Z"/>
    <path class="cls-1" d="M135.5,651.13c-.4-.44-.74-1.03-1.01-1.8s-.4-1.49-.4-2.18l.09-1.75c0-.54-.12-1-.36-1.4.03.03-.35-.51-1.12-1.62-.24-.33-.5-.49-.77-.49-.3,0-.57.22-.81.67l-.76,1.67c-.69,1.53-1.2,2.56-1.53,3.08-.33.53-.71.79-1.12.79-.54,0-.94-.26-1.21-.79-.27-.52-.4-1.15-.4-1.87,0-.78.13-1.41.4-1.89.18-.36.61-.9,1.31-1.62.78-.87,1.36-1.54,1.75-2.02.21-.24.31-.51.31-.81s-.11-.57-.31-.81c-.78-1.08-1.4-2.04-1.85-2.88s-.69-1.62-.72-2.34c-.06-1.44.13-2.62.58-3.55.45-.93,1.14-1.69,2.07-2.3.93-.6,2.21-1.2,3.83-1.8.87-.3,1.32-.88,1.35-1.75,0-.24.03-.66.09-1.26.09-1.5-.1-2.67-.56-3.51-.47-.84-.94-1.48-1.44-1.91s-.82-.73-.97-.88c-.18-.18-.27-.36-.27-.54,0-.3.24-.45.72-.45.6,0,1.39.23,2.36.68s1.81,1.04,2.5,1.78c.69.74.97,1.52.85,2.36-.06.39-.12,1.01-.18,1.85l-.23,1.89-.04.36c0,.6.3,1.08.9,1.44.27.18.54.44.81.77.18.21.27.42.27.63s-.08.4-.25.56-.47.41-.92.74l-.45.45c-.24.33-.36.57-.36.72s.07.23.22.23c.21,0,.51-.15.9-.45,3.09-2.55,6.4-3.82,9.94-3.82,1.8,0,3.48.34,5.04,1.01,1.56.68,2.85,1.61,3.87,2.81.93,1.08,1.63,2.27,2.09,3.58.46,1.3.7,2.66.7,4.07s-.27,2.91-.81,4.32c-.69,1.83-1.91,3.44-3.67,4.81-1.76,1.38-3.67,2.44-5.74,3.17-2.07.74-3.92,1.12-5.53,1.15h-.09c-.33,0-.59-.06-.79-.18-.2-.12-.29-.25-.29-.41,0-.18.1-.33.29-.45s.46-.18.79-.18c2.34-.06,4.57-.76,6.68-2.09,2.12-1.33,3.62-2.98,4.52-4.93.87-1.77,1.31-3.58,1.31-5.44s-.39-3.4-1.17-4.88-1.85-2.66-3.22-3.53c-1.37-.87-2.92-1.31-4.66-1.31-2.07,0-3.92.49-5.54,1.46-1.62.98-3.21,2.35-4.77,4.12-.27.3-.46.6-.56.9-.11.3-.16.66-.16,1.08v5.71c0,3.03.09,5.27.27,6.71.12.81.18,1.58.18,2.29,0,1.35-.26,2.16-.77,2.43-.39.18-.79.05-1.19-.38v-.02ZM130.71,637.43c.3,0,.57-.19.81-.58,1.05-1.86,1.96-4.08,2.75-6.66.24-.78.36-1.38.36-1.8,0-.15-.06-.27-.18-.36-.12-.09-.27-.13-.45-.13-.15,0-.41.06-.77.18-1.41.48-2.54,1.16-3.4,2.03s-1.28,1.89-1.28,3.06.45,2.45,1.35,3.73c.24.36.51.54.81.54h0ZM134.2,637.66c-.08-.12-.16-.18-.25-.18-.15,0-.3.12-.45.36l-.72,1.26c-.09.12-.13.25-.13.4s.1.33.31.54c.3.21.46.33.5.36.18.18.34.27.5.27.21,0,.31-.13.31-.4.03-.21.04-.54.04-.99v-1.17c0-.18-.04-.33-.11-.45Z"/>
    <path class="cls-1" d="M177.73,630.37c0-3.36.92-7.45,2.75-12.29.24-.6.36-1.15.36-1.67s-.21-1.05-.63-1.53c-.18-.24-.27-.42-.27-.54,0-.24.14-.42.4-.54.27-.12.59-.16.95-.14.81.12,1.55.47,2.23,1.04.67.57,1.01,1.31,1.01,2.21,0,.63-.2,1.32-.58,2.07-.27.51-.65,1.11-1.12,1.8-.54.81-.95,1.48-1.24,2.02-.29.54-.44,1.06-.47,1.57v.23c0,.48.12.72.36.72.21,0,.42-.18.63-.54.54-.9,1.28-1.71,2.23-2.43.94-.72,1.88-1.17,2.81-1.35.57-.12,1.18-.18,1.84-.18,1.83,0,3.46.52,4.88,1.55,1.42,1.04,2.53,2.49,3.33,4.37.79,1.88,1.19,4.01,1.19,6.41,0,1.68-.2,3.36-.58,5.04-.66,3-1.94,5.54-3.85,7.6-1.91,2.07-3.94,3.63-6.1,4.68s-4.04,1.68-5.62,1.89l-.45.04c-.36,0-.64-.06-.83-.18-.2-.12-.29-.27-.29-.45,0-.21.12-.41.36-.58.24-.18.55-.29.94-.31,2.34-.24,4.43-1.05,6.28-2.43,1.84-1.38,3.34-3.1,4.5-5.17,1.15-2.07,1.91-4.28,2.27-6.62.18-1.14.27-2.25.27-3.33,0-2.01-.29-3.88-.85-5.6-.57-1.72-1.4-3.1-2.48-4.14-1.08-1.04-2.33-1.55-3.74-1.55-.36,0-.63.02-.81.04-.99.12-1.91.62-2.77,1.48-.85.87-1.56,1.91-2.12,3.13-.56,1.21-.88,2.39-.97,3.53-.03.3-.04.68-.04,1.12,0,.72.06,1.27.18,1.64.12.38.3.74.54,1.1.33.42.54.89.63,1.4.03.15.05.36.05.63,0,.63-.17,1.13-.52,1.51s-.76.56-1.24.56c-.6,0-1.08-.27-1.44-.81-1.32-1.83-1.98-4.17-1.98-7.02v.02Z"/>
    <path class="cls-1" d="M81.45,623.33c-1.93-1.86-4.28-3.93-7.18-3.46-2.32.38-4.11,2.34-4.84,4.49-.96,2.84-.27,5.92.57,8.69.45,1.48.95,2.95,1.29,4.46s.55,3.03,0,4.45c-.57,1.52-1.8,2.61-2.98,3.66-1.03.93-2.06,2.35-3.45,2.74-.62.18-.35,1.14.27.96,1.11-.32,1.98-1.18,2.79-1.95.94-.9,1.97-1.72,2.82-2.71s1.56-2.15,1.78-3.47.02-2.66-.27-3.95c-.64-2.87-1.9-5.61-2.21-8.55-.28-2.61.29-5.52,2.6-7.09,2.99-2.04,5.94.36,8.1,2.44.46.45,1.17-.26.71-.71h0Z"/>
    <path class="cls-1" d="M132.54,615.37c-2.25-1.47-5.83-3.17-8.16-.87-.99.98-1.26,2.41-1.41,3.75-.21,1.84-.24,3.69-.24,5.54,0,3.58.16,7.22-.59,10.75-.35,1.64-.89,3.18-1.79,4.59-.85,1.33-1.92,2.5-3.04,3.61s-2.26,2.28-3.4,3.4c-.89.88-2.1,2.23-3.44,2.33-.64.05-.64,1.05,0,1,1.13-.08,2.08-.78,2.92-1.48,1.07-.9,2.02-1.94,2.99-2.94,2.05-2.09,4.26-4.04,5.57-6.72,1.45-2.98,1.72-6.48,1.79-9.74.08-3.58-.24-7.24.3-10.79.26-1.72,1.05-3.23,2.95-3.39s3.59.87,5.07,1.83c.54.35,1.04-.51.5-.86h-.02Z"/>
    <path class="cls-1" d="M181.19,614.05c-5.34-1.88-10.69-3.96-16.39-4.42-4.95-.4-10.2.39-14.45,3.08-3.74,2.37-6.37,6.15-7.62,10.37-.63,2.13-.91,4.38-.82,6.6.04,1.07.18,2.14.39,3.2.3,1.43.76,2.85.78,4.32.03,3.13-2.64,5.41-2.99,8.47-.14,1.24.15,2.52,1.09,3.38.87.8,2.07,1.16,3.24,1.02.63-.07.64-1.07,0-1-1.02.12-2.09-.17-2.77-.97-.82-.96-.67-2.36-.32-3.48.76-2.41,2.59-4.36,2.74-6.97.14-2.42-.91-4.76-1.11-7.16-.17-2.07-.01-4.17.48-6.19.98-4.06,3.29-7.86,6.73-10.28,3.9-2.75,8.79-3.67,13.49-3.47,6,.25,11.65,2.48,17.26,4.45.61.21.87-.75.27-.96h0Z"/>
    <path class="cls-1" d="M181.75,651.46c-1.8-1-4.33-1.77-5.83.14s-1.05,4.5.24,6.28c1.45,2,3.85,3.01,6.16,3.61,2.52.66,5.17.88,7.77.7,5.23-.37,10.14-2.37,14.18-5.69s7.35-7.79,11.3-11.4c7.72-7.08,17.92-11.79,28.39-12.71,4.83-.43,10.1.05,14.13,3,2.24,1.64,3.75,3.99,5.34,6.2,1.42,1.97,2.97,3.75,4.91,5.21,7.75,5.82,18.44,5.61,27.43,3.41,1.46-.36,2.91-.76,4.34-1.2.61-.19.35-1.15-.27-.96-9.06,2.73-19.47,4.26-28.22-.35-1.97-1.04-3.77-2.39-5.28-4.03-1.73-1.88-3.03-4.1-4.62-6.08s-3.36-3.46-5.58-4.49-4.4-1.5-6.72-1.72c-4.84-.45-9.82.39-14.47,1.74s-9.41,3.51-13.6,6.24-7.94,6.29-11.4,10.07-7.03,7.6-11.8,9.75-10.01,2.65-14.97,1.5c-2.34-.54-5.02-1.46-6.37-3.6-.62-.97-.95-2.17-.76-3.32s.86-2.18,2.04-2.34c1.1-.14,2.23.38,3.16.9.56.31,1.07-.55.5-.86h0Z"/>
    <path class="cls-1" d="M206.28.33c-20.68,51.89-14.97,112.81,13.39,160.73,3.65,6.17,7.68,12.11,12.06,17.77,1.93,2.5,3.94,4.95,6.01,7.34,1.71,1.98,2.55,4.04,5.33,3.36,9.47-2.33,11.98-15.73,6.05-22.56-7.91-9.1-22.11-6.74-30.36.4-10.7,9.25-15.45,24.71-17.33,38.25-4.77,34.33,8.75,67.2,19.11,99.2,10.79,33.36,17.96,68.66,14.09,103.83-3.26,29.61-15.07,58.94-36.1,80.42-10.78,11.02-23.79,19.29-38.13,24.88-14.28,5.56-29.35,8.68-44.38,11.42s-30.55,5.17-45.49,9.24c-13.52,3.69-27.33,8.61-38.4,17.45-9.94,7.94-16.96,19.38-16.03,32.43.79,11.18,6.68,21.98,15.56,28.8,4.27,3.29,9.16,5.54,14.45,6.58.63.12.9-.84.27-.96-12.21-2.41-22.03-11.64-26.61-23.05-4.84-12.07-2.99-25.07,5.13-35.25,8.86-11.12,22.44-17.46,35.61-21.91,13.83-4.68,28.21-7.43,42.56-10,27.78-4.98,56.9-9.44,80.66-25.82,21.37-14.74,36.37-37.26,44.71-61.61,9.82-28.67,9.97-59.66,5.01-89.31-2.76-16.48-7.13-32.64-12.3-48.51s-10.69-30.82-14.66-46.64c-3.84-15.28-6.05-31.13-4.55-46.89,1.38-14.59,5.96-31.9,17.54-41.84,5.4-4.63,12.38-7.07,19.47-5.66,6.45,1.29,12.12,5.97,12.45,12.86.23,4.85-2.99,13.18-8.91,13.36-2.55.08-5.84-5.29-7.34-7.12-2.43-2.99-4.76-6.06-6.99-9.21-30.87-43.71-41.14-101.44-27.14-153.1,1.71-6.32,3.81-12.54,6.24-18.62.24-.6-.73-.86-.96-.27h-.02Z"/>
  </g>
   </g>
    <mask id="mask" class="handwriting_mask_line">
      <path id="mask-path" class="handwriting_mask_line" d="M207.26.59c-6.07,13.98-9.57,28.58-11.09,43.64-2.97,28.9.73,54.66,5.54,75.56,6.05,15.22,12.26,31.33,16.46,36.63,5.34,15.87,12.13,28.78,24.31,32.23,6.88-.81,9.68-5.43,8.91-13.36,1.27-9.57-7.2-11.82-15.43-14.23-11.02,1.47-20.94,6.11-28.82,16.56l-2.57,17c-3,7.34-4.12,13.8-2.93,19.19-1.59,15.83-.01,30.18,4.84,43.01l12.15,42.23c5.02,11.01,8.44,22.79,10.22,35.37,10.43,28.25,9.63,68.98-1.62,110.23-9.16,22.43-24.12,41.22-40.72,56.25-1.1,1-2.66,2.45-4.08,2.87-31.26,16.87-69.45,24.35-108.85,29.61-22.88,6.28-38.35,15.09-51.18,29.07-3.67,5.99-6.62,11.8-5.09,16.49-.19,13.45,3.36,23.4,10.74,29.75l9.74,8.41,14.62,3.75,8.83,1.83-13.7,6.76-5.11,7.34-1.95,6.76,6.54,5.95,8.37.84,8.6-2.61,7.91-3.57.57-8.59-2.5-7.64,1.92-8.11,6.77,3.9,6,1.05,5.47-.28,6.23-1.81,3.34-1.83-8.61-4.56-.95,10.41-2.31,9.16-3.75,10.27-2.49,4.79-.49-12.83,12.91-8.35,6.81-3.65,6.53,1.04,3.14,3.95-5.88,2.31-8.05,6.19-1.57,7.46,5.44.62,5.35.49,3.19.21.99-14.64,4-5.79-8.81-3.7,1.26-5.98,8.16,4.86-7.76-7.49,11.86,1.87-6.27,18.24-.6,5.81-2.93,2.36,1.75,4.57,4.93-4.31,4.76-4.11,1.04-3.26,1.31-7.04.06-8.19,1.56-4.87,2.67-2.75,5.66,2.25,3.68,3.32-.33,9.32-.19,11.13-.27,6.51,1.05,5.54-3.11-10.08-4.93-6.78-.38-4.77,3.06-2.98,5.85-1.9-3.88,9.3-4.23,7.44-2.19,5.52,8.19-12.82,4.19-5.2,4.4-2.86,6.72-.85,5.71,3.39,2.86,6.83-1.85,7.14-5.77,4.07-6.45,1.79-4.75-4.3,4.53-9.87-1.96-6.51,3.41-10.84,6.69-6.27,12.82-1.17,9.42,1.23,6.93,2.31-.38,8.45-2.41,6.13,1.49,7,.92,2.76.08-8.42,1.19-6.03,7.09-3.36,3.5,2.98,3.06,7.09.18,4.9-1.05,4.73-4.11,6.74-4.38,2.72-5.56,3.32-3.98-1.23-1.54,3.15,1.09,4.22,5.26,2,7.1,1.29,7.61-1.56,4.98-3.15,7.26-5.91,5.04-5.34,9-8.13,8.01-3.81,13.24-1.98,5.9.15,7.92,1.92,6.66,7.73,5.77,4.61,11.91,3.85,10.56-.9,8.6-1.81"/>
  </mask>
</svg>